<svg width="365" height="331" viewBox="0 0 365 331" fill="none" xmlns="http://www.w3.org/2000/svg">
<path d="M53.4521 303.66C124.726 340.113 240.274 340.113 311.548 303.66C382.822 267.206 382.813 208.108 311.548 171.654C240.283 135.2 124.726 135.2 53.4521 171.654C-17.8216 208.108 -17.8131 267.206 53.4521 303.66Z" fill="#F5F5F5"/>
<path d="M312.526 213.812C326.418 213.812 337.679 208.558 337.679 202.078C337.679 195.597 326.418 190.343 312.526 190.343C298.635 190.343 287.374 195.597 287.374 202.078C287.374 208.558 298.635 213.812 312.526 213.812Z" fill="#E6E6E6"/>
<path d="M53.0096 282.464C65.7455 282.464 76.07 277.646 76.07 271.703C76.07 265.76 65.7455 260.943 53.0096 260.943C40.2737 260.943 29.9492 265.76 29.9492 271.703C29.9492 277.646 40.2737 282.464 53.0096 282.464Z" fill="#E6E6E6"/>
<path d="M224.223 303.152C237.476 303.152 248.219 298.136 248.219 291.95C248.219 285.763 237.476 280.748 224.223 280.748C210.97 280.748 200.227 285.763 200.227 291.95C200.227 298.136 210.97 303.152 224.223 303.152Z" fill="#E6E6E6"/>
<path d="M105.119 249.55C118.372 249.55 129.115 244.535 129.115 238.348C129.115 232.161 118.372 227.146 105.119 227.146C91.8665 227.146 81.123 232.161 81.123 238.348C81.123 244.535 91.8665 249.55 105.119 249.55Z" fill="#E6E6E6"/>
<path d="M246.33 174.685C246.917 167.781 263.079 141.88 268.021 137.865C272.963 133.851 281.691 123.707 277.931 117.944C274.171 112.18 263.122 114.746 252.744 132.71C244.697 146.643 242.196 177.459 242.196 177.459L246.33 174.685Z" fill="black"/>
<path d="M244.119 174.036H244.051C243.996 174.028 243.943 174.009 243.895 173.981C243.848 173.952 243.807 173.915 243.774 173.87C243.742 173.826 243.719 173.776 243.706 173.723C243.694 173.67 243.692 173.615 243.702 173.561C248.27 144.645 257.976 126.605 273.372 118.41C273.471 118.357 273.588 118.345 273.696 118.376C273.75 118.392 273.8 118.417 273.844 118.452C273.887 118.486 273.924 118.529 273.95 118.577C273.977 118.625 273.994 118.678 274 118.732C274.006 118.787 274.001 118.842 273.985 118.894C273.969 118.947 273.943 118.996 273.908 119.039C273.873 119.081 273.829 119.117 273.78 119.143C258.631 127.205 249.07 145.053 244.536 173.694C244.518 173.79 244.466 173.876 244.39 173.939C244.314 174.001 244.218 174.035 244.119 174.036Z" fill="white"/>
<path d="M247.955 141.189C247.955 141.189 260.927 119.235 271.67 109.182C277.625 103.611 281.282 100.021 280.959 95.8068C280.721 92.6087 278.007 90.9014 272.172 92.3089C260.544 95.1073 254.309 106.642 250.294 119.56C247.445 128.654 247.955 141.189 247.955 141.189Z" fill="black"/>
<path opacity="0.2" d="M247.955 141.189C247.955 141.189 260.927 119.235 271.67 109.182C277.625 103.611 281.282 100.021 280.959 95.8068C280.721 92.6087 278.007 90.9014 272.172 92.3089C260.544 95.1073 254.309 106.642 250.294 119.56C247.445 128.654 247.955 141.189 247.955 141.189Z" fill="black"/>
<path d="M249.461 137.582H249.401C249.289 137.564 249.188 137.503 249.122 137.412C249.055 137.322 249.027 137.21 249.044 137.099C253.663 108.566 271.22 97.8223 276.494 95.2071C276.594 95.1578 276.71 95.1493 276.817 95.1836C276.924 95.218 277.013 95.2923 277.064 95.3904C277.09 95.4388 277.106 95.492 277.11 95.5466C277.115 95.6012 277.108 95.6562 277.091 95.7083C277.074 95.7604 277.046 95.8085 277.009 95.8497C276.972 95.891 276.927 95.9245 276.876 95.9484C271.696 98.5219 254.445 109.082 249.886 137.232C249.87 137.331 249.818 137.421 249.74 137.485C249.662 137.549 249.563 137.584 249.461 137.582Z" fill="white"/>
<path d="M320.616 76.3848L317.809 71.2212L320.063 64.8416V60.9355L313.156 64.8416V68.7476L316.124 73.7947C316.171 73.8736 316.243 73.9352 316.329 73.9696L320.616 76.3848Z" fill="black"/>
<path opacity="0.1" d="M320.616 76.3848L317.809 71.2212L320.063 64.8416V60.9355L313.156 64.8416V68.7476L316.124 73.7947C316.171 73.8736 316.243 73.9352 316.329 73.9696L320.616 76.3848Z" fill="black"/>
<path d="M304.59 52.1407L323.61 41.3137C324.252 40.9973 324.962 40.8325 325.681 40.8325C326.4 40.8325 327.11 40.9973 327.752 41.3137L329.454 42.2715C330.059 42.655 330.562 43.1735 330.923 43.7844C331.284 44.3954 331.492 45.0813 331.529 45.7861V60.8772C331.489 61.5815 331.281 62.2668 330.92 62.8774C330.56 63.488 330.057 64.0069 329.454 64.3918L310.417 75.2188C309.774 75.5352 309.065 75.7 308.345 75.7C307.626 75.7 306.917 75.5352 306.274 75.2188L304.573 74.261C303.97 73.8761 303.468 73.3571 303.109 72.7463C302.75 72.1356 302.543 71.4503 302.506 70.7464V55.6386C302.55 54.9366 302.761 54.2545 303.123 53.647C303.485 53.0395 303.987 52.5236 304.59 52.1407Z" fill="black"/>
<path opacity="0.3" d="M304.59 52.1407L323.61 41.3137C324.252 40.9973 324.962 40.8325 325.681 40.8325C326.4 40.8325 327.11 40.9973 327.752 41.3137L329.454 42.2715C330.059 42.655 330.562 43.1735 330.923 43.7844C331.284 44.3954 331.492 45.0813 331.529 45.7861V60.8772C331.489 61.5815 331.281 62.2668 330.92 62.8774C330.56 63.488 330.057 64.0069 329.454 64.3918L310.417 75.2188C309.774 75.5352 309.065 75.7 308.345 75.7C307.626 75.7 306.917 75.5352 306.274 75.2188L304.573 74.261C303.97 73.8761 303.468 73.3571 303.109 72.7463C302.75 72.1356 302.543 71.4503 302.506 70.7464V55.6386C302.55 54.9366 302.761 54.2545 303.123 53.647C303.485 53.0395 303.987 52.5236 304.59 52.1407Z" fill="white"/>
<path d="M310.426 75.2021C309.277 75.8434 308.35 75.327 308.35 74.0278V58.9366C308.39 58.2323 308.598 57.5471 308.959 56.9365C309.319 56.3258 309.822 55.807 310.426 55.422L329.463 44.595C330.611 43.9454 331.538 44.4701 331.538 45.7694V60.8605C331.498 61.5648 331.29 62.25 330.929 62.8607C330.569 63.4713 330.066 63.9901 329.463 64.3751" fill="black"/>
<path d="M302.523 70.73C302.56 71.4338 302.767 72.1191 303.126 72.7299C303.485 73.3406 303.987 73.8596 304.59 74.2446L306.291 75.2024C306.875 75.4892 307.514 75.6517 308.167 75.679C308.819 75.7062 309.47 75.5977 310.076 75.3606C309.107 75.727 308.375 75.1857 308.375 74.028V58.9369C308.403 58.2305 308.614 57.5426 308.988 56.9381L303.152 53.6067C302.781 54.2121 302.573 54.8999 302.548 55.6055L302.523 70.73Z" fill="black"/>
<path opacity="0.1" d="M302.523 70.73C302.56 71.4338 302.767 72.1191 303.126 72.7299C303.485 73.3406 303.987 73.8596 304.59 74.2446L306.291 75.2024C306.875 75.4892 307.514 75.6517 308.167 75.679C308.819 75.7062 309.47 75.5977 310.076 75.3606C309.107 75.727 308.375 75.1857 308.375 74.028V58.9369C308.403 58.2305 308.614 57.5426 308.988 56.9381L303.152 53.6067C302.781 54.2121 302.573 54.8999 302.548 55.6055L302.523 70.73Z" fill="black"/>
<path d="M317.485 71.1961L320.454 76.2348C320.498 76.3058 320.561 76.3632 320.637 76.4004C320.713 76.4377 320.798 76.4533 320.882 76.4455C320.966 76.4376 321.047 76.4067 321.114 76.3562C321.181 76.3057 321.233 76.2376 321.262 76.1599L324.401 67.2901V63.384L317.485 67.2901V71.1961Z" fill="black"/>
<path d="M319.952 66.0409L317.826 65.4912C315.801 64.9665 313.385 63.8255 313.385 61.2687C313.487 60.227 313.838 59.2234 314.41 58.3393C314.982 57.4552 315.759 56.7155 316.677 56.18C316.978 55.9692 317.331 55.8414 317.7 55.8099C318.069 55.7784 318.439 55.8443 318.773 56.0009C319.107 56.1575 319.391 56.3989 319.597 56.7C319.803 57.001 319.923 57.3507 319.944 57.7125C320.156 56.0468 321.534 53.4316 323.21 52.4822C325.03 51.4578 326.502 52.0658 326.502 53.8481C326.502 56.3966 324.095 60.2776 322.07 63.0926L319.952 66.0409Z" fill="white"/>
<path d="M38.7366 116.02L57.7736 105.235C58.415 104.914 59.1248 104.747 59.8448 104.747C60.5649 104.747 61.2747 104.914 61.9161 105.235L63.6174 106.184C64.219 106.57 64.7194 107.09 65.0785 107.7C65.4375 108.311 65.645 108.995 65.6844 109.699V124.79C65.645 125.493 65.4375 126.178 65.0785 126.788C64.7194 127.399 64.219 127.918 63.6174 128.304L44.6059 139.09C43.963 139.41 43.2518 139.577 42.5304 139.577C41.809 139.577 41.0978 139.41 40.4549 139.09L38.7537 138.14C38.1424 137.754 37.6338 137.231 37.2699 136.614C36.906 135.997 36.6974 135.304 36.6611 134.592V119.534C36.6987 118.83 36.9064 118.144 37.2672 117.533C37.628 116.922 38.1316 116.403 38.7366 116.02Z" fill="black"/>
<path opacity="0.3" d="M38.7366 116.02L57.7736 105.235C58.415 104.914 59.1248 104.747 59.8448 104.747C60.5649 104.747 61.2747 104.914 61.9161 105.235L63.6174 106.184C64.219 106.57 64.7194 107.09 65.0785 107.7C65.4375 108.311 65.645 108.995 65.6844 109.699V124.79C65.645 125.493 65.4375 126.178 65.0785 126.788C64.7194 127.399 64.219 127.918 63.6174 128.304L44.6059 139.09C43.963 139.41 43.2518 139.577 42.5304 139.577C41.809 139.577 41.0978 139.41 40.4549 139.09L38.7537 138.14C38.1424 137.754 37.6338 137.231 37.2699 136.614C36.906 135.997 36.6974 135.304 36.6611 134.592V119.534C36.6987 118.83 36.9064 118.144 37.2672 117.533C37.628 116.922 38.1316 116.403 38.7366 116.02Z" fill="white"/>
<path d="M54.7534 140.281L51.9464 135.109L54.209 128.729V124.823L47.2935 128.762V132.668L50.2706 137.665C50.3156 137.742 50.384 137.803 50.4663 137.84L54.7534 140.281Z" fill="black"/>
<path opacity="0.1" d="M54.7534 140.281L51.9464 135.109L54.209 128.729V124.823L47.2935 128.762V132.668L50.2706 137.665C50.3156 137.742 50.384 137.803 50.4663 137.84L54.7534 140.281Z" fill="black"/>
<path d="M44.6053 139.09C43.457 139.739 42.5298 139.215 42.5298 137.915V122.824C42.5694 122.121 42.778 121.437 43.1387 120.828C43.4993 120.218 44.0018 119.701 44.6053 119.318L63.6507 108.491C64.7906 107.85 65.7178 108.374 65.7178 109.665V124.756C65.6784 125.46 65.4709 126.144 65.1119 126.755C64.7528 127.365 64.2523 127.885 63.6507 128.271" fill="black"/>
<path d="M36.6611 134.592C36.7007 135.297 36.9093 135.982 37.2699 136.592C37.6305 137.203 38.133 137.722 38.7366 138.107L40.4379 139.056C41.0231 139.343 41.6632 139.506 42.3167 139.534C42.9703 139.563 43.6227 139.457 44.2317 139.223C43.2535 139.581 42.5304 139.04 42.5304 137.882V122.824C42.5554 122.119 42.7632 121.431 43.1344 120.825L37.3076 117.536C36.9335 118.14 36.7227 118.828 36.6952 119.534L36.6611 134.592Z" fill="black"/>
<path opacity="0.1" d="M36.6611 134.592C36.7007 135.297 36.9093 135.982 37.2699 136.592C37.6305 137.203 38.133 137.722 38.7366 138.107L40.4379 139.056C41.0231 139.343 41.6632 139.506 42.3167 139.534C42.9703 139.563 43.6227 139.457 44.2317 139.223C43.2535 139.581 42.5304 139.04 42.5304 137.882V122.824C42.5554 122.119 42.7632 121.431 43.1344 120.825L37.3076 117.536C36.9335 118.14 36.7227 118.828 36.6952 119.534L36.6611 134.592Z" fill="black"/>
<path d="M51.6323 135.084L54.601 140.081C54.6436 140.152 54.7061 140.211 54.7813 140.248C54.8565 140.286 54.9412 140.302 55.0253 140.294C55.1094 140.286 55.1894 140.255 55.2559 140.204C55.3225 140.153 55.3727 140.084 55.4006 140.006L58.5394 131.136V127.23L51.6323 131.136V135.084Z" fill="black"/>
<path d="M46.9025 126.072C46.3287 126.434 45.8521 126.925 45.5131 127.505C45.1741 128.085 44.9825 128.736 44.9546 129.404C44.9546 130.62 45.8052 131.07 46.9025 130.503C47.4725 130.138 47.946 129.645 48.2846 129.066C48.6231 128.487 48.817 127.838 48.8504 127.172C48.8589 125.956 48.0083 125.431 46.9025 126.072Z" fill="white"/>
<path d="M54.0902 122C53.5177 122.363 53.0418 122.855 52.7016 123.434C52.3614 124.014 52.1668 124.664 52.1338 125.331C52.1338 126.547 52.9844 127.038 54.0902 126.43C54.6602 126.065 55.1337 125.572 55.4723 124.994C55.8108 124.415 56.0047 123.765 56.0381 123.099C56.0381 121.883 55.162 121.392 54.0902 122Z" fill="white"/>
<path d="M61.2697 117.936C60.6997 118.301 60.2262 118.794 59.8876 119.372C59.5491 119.951 59.3552 120.601 59.3218 121.267C59.3218 122.483 60.1724 122.933 61.2697 122.366C61.8435 122.005 62.3201 121.513 62.6591 120.933C62.9981 120.354 63.1897 119.702 63.2176 119.035C63.2176 117.811 62.35 117.319 61.2697 117.936Z" fill="white"/>
<path d="M240.598 6.69226L157.9 53.4148C156.828 54.0997 155.936 55.0221 155.296 56.1073C154.656 57.1925 154.287 58.41 154.217 59.6612V238.881C154.217 241.18 155.867 242.112 157.9 240.963L240.598 194.241C241.669 193.556 242.561 192.633 243.201 191.548C243.841 190.463 244.211 189.245 244.281 187.994V8.77437C244.281 6.47572 242.631 5.54294 240.598 6.69226Z" fill="black"/>
<path d="M157.9 53.415L240.598 6.6924C242.418 5.66801 243.924 6.3093 244.221 8.09991C244.053 6.97333 243.644 5.89435 243.019 4.934C242.395 3.97366 241.569 3.15372 240.598 2.52818L237.595 0.862493C236.454 0.295493 235.192 0 233.912 0C232.632 0 231.37 0.295493 230.229 0.862493L147.531 47.5601C146.443 48.2245 145.547 49.1506 144.928 50.2502L155.297 56.0801C155.92 54.9897 156.815 54.0725 157.9 53.415Z" fill="#455A64"/>
<path d="M143.848 233.018C143.916 234.269 144.285 235.487 144.925 236.573C145.565 237.658 146.458 238.58 147.531 239.264L150.534 240.93C151.572 241.442 152.709 241.733 153.87 241.783C155.031 241.834 156.19 241.642 157.27 241.221C155.569 241.863 154.217 240.905 154.217 238.848V59.6362C154.259 58.3796 154.631 57.155 155.297 56.0799L144.928 50.25C144.264 51.3258 143.892 52.55 143.848 53.8062V233.018Z" fill="#263238"/>
<path d="M159.882 75.7353L238.616 31.2531C239.832 30.5619 240.827 31.1199 240.827 32.5024V168.181C240.784 168.932 240.561 169.662 240.177 170.313C239.793 170.964 239.258 171.517 238.616 171.929L159.882 216.403C158.666 217.094 157.67 216.536 157.67 215.154V79.4831C157.711 78.732 157.933 78.0009 158.317 77.3496C158.702 76.6983 159.238 76.1452 159.882 75.7353Z" fill="#FAFAFA"/>
<path d="M198.416 37.008C198.039 37.2499 197.726 37.5748 197.502 37.9567C197.277 38.3386 197.147 38.7667 197.123 39.2067C197.123 40.0396 197.701 40.3477 198.416 39.9396C198.793 39.6988 199.106 39.3741 199.331 38.992C199.556 38.6099 199.685 38.1812 199.708 37.7409C199.708 36.9331 199.13 36.6083 198.416 37.008Z" fill="#263238"/>
<path d="M186.175 49.9003C185.428 50.3867 184.808 51.038 184.364 51.8017C183.921 52.5655 183.667 53.4204 183.623 54.2978C183.623 55.9135 184.78 56.5714 186.175 55.7636C186.93 55.2823 187.559 54.6332 188.01 53.869C188.461 53.1049 188.721 52.2473 188.769 51.3661C188.769 49.7504 187.604 49.0925 186.175 49.9003Z" fill="#263238"/>
<path d="M192.512 49.3506C192.512 50.4333 193.363 50.8414 194.358 50.2667L211.37 40.6307C211.895 40.307 212.335 39.867 212.654 39.3462C212.974 38.8253 213.163 38.2383 213.208 37.6325C213.208 36.5581 212.357 36.15 211.37 36.7247L194.358 46.3607C193.832 46.6821 193.391 47.1203 193.07 47.6397C192.75 48.1592 192.558 48.7453 192.512 49.3506Z" fill="#263238"/>
<path d="M149.581 81.0989C150.186 81.4824 150.689 82.0009 151.05 82.6118C151.411 83.2228 151.619 83.9088 151.656 84.6135C151.656 85.9044 150.729 86.4291 149.581 85.7878C148.978 85.4001 148.478 84.8793 148.119 84.2674C147.76 83.6555 147.552 82.9696 147.514 82.2649C147.531 80.974 148.441 80.4576 149.581 81.0989Z" fill="black"/>
<path d="M149.581 96.7312C150.184 97.1162 150.687 97.6351 151.047 98.2457C151.408 98.8563 151.617 99.5416 151.656 100.246C151.656 101.545 150.729 102.07 149.581 101.42C148.988 101.036 148.494 100.522 148.138 99.9198C147.783 99.3172 147.575 98.6419 147.531 97.9472C147.531 96.6146 148.441 96.0899 149.581 96.7312Z" fill="black"/>
<path d="M148.943 81.407C149.546 81.792 150.049 82.3109 150.409 82.9215C150.77 83.5321 150.979 84.2174 151.018 84.9216C151.018 86.2209 150.091 86.7456 148.943 86.096C148.34 85.71 147.838 85.1909 147.478 84.5805C147.117 83.9701 146.908 83.2853 146.867 82.5814C146.867 81.2904 147.803 80.7658 148.943 81.407Z" fill="#455A64"/>
<path d="M148.943 97.0477C149.546 97.4327 150.049 97.9515 150.409 98.5621C150.77 99.1728 150.979 99.858 151.018 100.562C151.018 101.862 150.091 102.386 148.943 101.737C148.34 101.351 147.838 100.832 147.478 100.221C147.117 99.6107 146.908 98.926 146.867 98.222C146.867 96.9228 147.803 96.3981 148.943 97.0477Z" fill="#455A64"/>
<path d="M199.249 200.154C197.762 201.105 196.525 202.385 195.638 203.892C194.751 205.398 194.24 207.088 194.145 208.824C194.145 212.022 196.433 213.313 199.249 211.722C200.736 210.77 201.973 209.488 202.859 207.98C203.746 206.472 204.258 204.781 204.352 203.044C204.361 199.846 202.073 198.555 199.249 200.154Z" fill="#263238"/>
<path d="M176.205 214.47C175.482 214.47 175.406 213.638 175.406 213.338V77.6674C175.45 76.9899 175.654 76.3316 176.001 75.7437C176.347 75.1558 176.828 74.6541 177.405 74.2777L256.138 29.7955C256.373 29.6578 256.639 29.5778 256.912 29.5623C257.635 29.5623 257.712 30.3451 257.712 30.6866V166.365C257.668 167.042 257.465 167.699 257.118 168.286C256.771 168.872 256.29 169.372 255.713 169.747L176.979 214.229C176.747 214.373 176.48 214.457 176.205 214.47Z" fill="white" stroke="black" stroke-miterlimit="10"/>
<path d="M256.913 29.9788C257.236 29.9788 257.287 30.4202 257.287 30.6868V166.365C257.244 166.969 257.061 167.556 256.752 168.08C256.442 168.604 256.014 169.051 255.501 169.389L176.767 213.871C176.598 213.975 176.405 214.038 176.206 214.054C175.883 214.054 175.832 213.604 175.832 213.338V77.6675C175.874 77.0636 176.058 76.4774 176.367 75.9534C176.677 75.4294 177.105 74.9817 177.618 74.6443L256.352 30.1621C256.519 30.054 256.713 29.9908 256.913 29.9788ZM256.913 29.146C256.564 29.1574 256.224 29.2579 255.926 29.4375L177.193 73.9197C176.548 74.3295 176.012 74.8827 175.628 75.534C175.243 76.1853 175.022 76.9164 174.981 77.6675V213.338C174.981 214.321 175.483 214.887 176.206 214.887C176.556 214.872 176.896 214.769 177.193 214.587L255.926 170.113C256.57 169.703 257.106 169.15 257.49 168.498C257.874 167.847 258.096 167.116 258.138 166.365V30.6868C258.138 29.7123 257.636 29.146 256.913 29.146Z" fill="black" stroke="black" stroke-miterlimit="10"/>
<path d="M258.111 30.6867C258.111 29.3042 257.125 28.7462 255.9 29.4374L177.166 73.9197C176.522 74.3295 175.986 74.8826 175.601 75.534C175.217 76.1853 174.995 76.9163 174.955 77.6675V88.7859L258.111 41.8052V30.6867Z" fill="black"/>
<path opacity="0.1" d="M258.111 30.6867C258.111 29.3042 257.125 28.7462 255.9 29.4374L177.166 73.9197C176.522 74.3295 175.986 74.8826 175.601 75.534C175.217 76.1853 174.995 76.9163 174.955 77.6675V88.7859L258.111 41.8052V30.6867Z" fill="black"/>
<path d="M183.657 76.4848C183.517 76.433 183.366 76.4158 183.218 76.4347C183.069 76.4536 182.928 76.508 182.806 76.5931C182.369 76.8773 182.005 77.2568 181.742 77.7018C181.479 78.1468 181.325 78.6453 181.292 79.1582C181.271 79.3059 181.29 79.4564 181.349 79.5941C181.407 79.7318 181.502 79.8516 181.624 79.9411C181.763 79.9973 181.916 80.0161 182.065 79.9956C182.215 79.9752 182.356 79.9161 182.474 79.8245C182.909 79.5402 183.271 79.1617 183.532 78.7182C183.793 78.2748 183.947 77.7785 183.98 77.2677C184.002 77.1208 183.984 76.9708 183.927 76.8332C183.87 76.6955 183.777 76.5752 183.657 76.4848Z" fill="white"/>
<path d="M185.452 73.6451L185.265 73.7533V73.3785C185.265 72.8538 184.89 72.6373 184.414 72.9038L180.841 74.9193C180.596 75.075 180.391 75.285 180.243 75.5323C180.095 75.7797 180.009 76.0575 179.991 76.3435V76.7266L179.795 76.8348C179.469 77.0426 179.197 77.3228 179.002 77.6527C178.807 77.9827 178.694 78.353 178.672 78.7337V82.1234C178.672 82.823 179.174 83.1145 179.795 82.7647L185.435 79.5749C185.762 79.3659 186.034 79.0842 186.229 78.7528C186.424 78.4214 186.537 78.0496 186.558 77.6677V74.2613C186.575 73.5784 186.073 73.2953 185.452 73.6451ZM182.798 80.3744C182.523 80.5388 182.21 80.6306 181.888 80.6409C181.679 80.6429 181.474 80.5912 181.292 80.491C181.072 80.3457 180.896 80.1457 180.781 79.9116C180.665 79.6774 180.616 79.4175 180.637 79.1585C180.667 78.5344 180.849 77.9264 181.169 77.3858C181.489 76.8451 181.937 76.3877 182.475 76.052C182.691 75.8994 182.945 75.8079 183.211 75.7873C183.476 75.7668 183.742 75.818 183.98 75.9354C184.201 76.0798 184.377 76.2799 184.491 76.5145C184.605 76.7491 184.652 77.0094 184.627 77.2679C184.597 77.8909 184.415 78.4979 184.097 79.0383C183.779 79.5786 183.333 80.0367 182.798 80.3744ZM185.35 75.8521C185.061 76.0103 184.831 75.8521 184.831 75.5523C184.84 75.3754 184.891 75.203 184.981 75.0495C185.072 74.896 185.198 74.7657 185.35 74.6694C185.639 74.5029 185.877 74.6694 185.877 74.9609C185.871 75.1367 185.823 75.3085 185.737 75.4631C185.651 75.6177 185.531 75.7508 185.384 75.8521H185.35Z" fill="white"/>
<path d="M253.586 34.1095L248.083 37.216C247.764 37.4195 247.498 37.6937 247.307 38.0163C247.117 38.339 247.006 38.7011 246.985 39.0733V42.4046C246.985 43.0793 247.479 43.3624 248.083 43.021L251.358 41.172L252.642 42.4296C252.672 42.457 252.71 42.4753 252.75 42.4821C252.791 42.489 252.833 42.4842 252.87 42.4684C252.908 42.4525 252.94 42.4262 252.963 42.3927C252.986 42.3593 252.999 42.32 252.999 42.2797V40.2393L253.586 39.9061C253.91 39.7054 254.18 39.4325 254.376 39.1097C254.571 38.7868 254.685 38.4233 254.709 38.0489V34.7175C254.709 34.0429 254.19 33.768 253.586 34.1095Z" fill="white"/>
<path d="M185.579 86.8038C188.454 85.2047 190.785 86.504 190.785 89.7187C190.682 91.477 190.157 93.1867 189.252 94.709C188.348 96.2313 187.089 97.5234 185.579 98.4803C182.695 100.146 180.365 98.8051 180.365 95.5653C180.461 93.8046 180.985 92.0916 181.891 90.5681C182.798 89.0446 184.062 87.7543 185.579 86.8038Z" fill="black"/>
<path d="M195.939 82.8809L213.216 73.1199C214.236 72.5453 215.061 72.9534 215.061 74.0277C215.016 74.6345 214.826 75.2222 214.505 75.7432C214.184 76.2642 213.743 76.7037 213.216 77.026L195.939 86.7869C194.927 87.3616 194.102 86.9535 194.102 85.8791C194.147 85.2733 194.336 84.6862 194.655 84.1654C194.975 83.6446 195.414 83.2045 195.939 82.8809Z" fill="black"/>
<g opacity="0.7">
<path d="M195.939 82.8809L213.216 73.1199C214.236 72.5453 215.061 72.9534 215.061 74.0277C215.016 74.6345 214.826 75.2222 214.505 75.7432C214.184 76.2642 213.743 76.7037 213.216 77.026L195.939 86.7869C194.927 87.3616 194.102 86.9535 194.102 85.8791C194.147 85.2733 194.336 84.6862 194.655 84.1654C194.975 83.6446 195.414 83.2045 195.939 82.8809Z" fill="white"/>
</g>
<path d="M195.361 89.8021L207.21 83.1393C207.908 82.7479 208.469 83.0227 208.469 83.764C208.439 84.1795 208.309 84.5822 208.09 84.9395C207.871 85.2969 207.57 85.5989 207.21 85.8211L195.361 92.4839C194.663 92.8753 194.102 92.5921 194.102 91.8509C194.133 91.4366 194.263 91.0354 194.482 90.6795C194.701 90.3236 195.002 90.023 195.361 89.8021Z" fill="black"/>
<g opacity="0.7">
<path d="M195.361 89.8021L207.21 83.1393C207.908 82.7479 208.469 83.0227 208.469 83.764C208.439 84.1795 208.309 84.5822 208.09 84.9395C207.871 85.2969 207.57 85.5989 207.21 85.8211L195.361 92.4839C194.663 92.8753 194.102 92.5921 194.102 91.8509C194.133 91.4366 194.263 91.0354 194.482 90.6795C194.701 90.3236 195.002 90.023 195.361 89.8021Z" fill="white"/>
</g>
<path d="M185.579 174.369C188.454 172.77 190.785 174.077 190.785 177.284C190.682 179.042 190.157 180.752 189.252 182.274C188.348 183.796 187.089 185.089 185.579 186.045C182.695 187.711 180.365 186.37 180.365 183.13C180.463 181.37 180.988 179.658 181.894 178.135C182.801 176.612 184.064 175.321 185.579 174.369Z" fill="black"/>
<path d="M195.939 170.455L213.216 160.685C214.236 160.111 215.061 160.519 215.061 161.593C215.016 162.2 214.826 162.788 214.505 163.309C214.184 163.83 213.743 164.269 213.216 164.591L195.939 174.361C194.927 174.935 194.102 174.527 194.102 173.445C194.148 172.84 194.338 172.255 194.657 171.735C194.976 171.216 195.416 170.777 195.939 170.455Z" fill="black"/>
<g opacity="0.7">
<path d="M195.939 170.455L213.216 160.685C214.236 160.111 215.061 160.519 215.061 161.593C215.016 162.2 214.826 162.788 214.505 163.309C214.184 163.83 213.743 164.269 213.216 164.591L195.939 174.361C194.927 174.935 194.102 174.527 194.102 173.445C194.148 172.84 194.338 172.255 194.657 171.735C194.976 171.216 195.416 170.777 195.939 170.455Z" fill="white"/>
</g>
<path d="M195.361 177.368L207.21 170.705C207.908 170.313 208.469 170.588 208.469 171.329C208.439 171.745 208.309 172.148 208.09 172.505C207.871 172.862 207.57 173.164 207.21 173.387L195.361 180.049C194.663 180.441 194.102 180.158 194.102 179.425C194.132 179.009 194.261 178.606 194.48 178.249C194.699 177.891 195.001 177.589 195.361 177.368Z" fill="black"/>
<g opacity="0.7">
<path d="M195.361 177.368L207.21 170.705C207.908 170.313 208.469 170.588 208.469 171.329C208.439 171.745 208.309 172.148 208.09 172.505C207.871 172.862 207.57 173.164 207.21 173.387L195.361 180.049C194.663 180.441 194.102 180.158 194.102 179.425C194.132 179.009 194.261 178.606 194.48 178.249C194.699 177.891 195.001 177.589 195.361 177.368Z" fill="white"/>
</g>
<path d="M183.963 103.327L249.384 66.3491C250.405 65.7744 251.23 66.2408 251.23 67.3901V131.361C251.195 131.988 251.01 132.599 250.689 133.143C250.369 133.687 249.922 134.149 249.384 134.492L183.963 171.687C182.942 172.262 182.125 171.796 182.125 170.646V106.451C182.159 105.825 182.342 105.216 182.662 104.673C182.981 104.13 183.427 103.669 183.963 103.327Z" fill="#F5F5F5"/>
<path d="M207.976 117.977C207.809 117.738 207.578 117.547 207.308 117.427C207.039 117.306 206.741 117.26 206.446 117.294C206.152 117.327 205.873 117.439 205.639 117.616C205.404 117.794 205.224 118.031 205.118 118.302L182.151 161.01V170.646C182.151 171.796 183.002 172.262 183.988 171.687L249.41 134.684C249.947 134.341 250.394 133.878 250.715 133.334C251.035 132.79 251.221 132.18 251.255 131.553V110.232L238.828 88.6194C238.139 87.4118 237.178 87.4867 236.676 88.7776L220.131 131.711L207.976 117.977Z" fill="black"/>
<g opacity="0.3">
<path d="M207.976 117.977C207.809 117.738 207.578 117.547 207.308 117.427C207.039 117.306 206.741 117.26 206.446 117.294C206.152 117.327 205.873 117.439 205.639 117.616C205.404 117.794 205.224 118.031 205.118 118.302L182.151 161.01V170.646C182.151 171.796 183.002 172.262 183.988 171.687L249.41 134.684C249.947 134.341 250.394 133.878 250.715 133.334C251.035 132.79 251.221 132.18 251.255 131.553V110.232L238.828 88.6194C238.139 87.4118 237.178 87.4867 236.676 88.7776L220.131 131.711L207.976 117.977Z" fill="white"/>
</g>
<path d="M189.024 120.634C194.791 117.394 199.478 109.499 199.478 103.002C199.478 99.671 198.253 97.389 196.305 96.3396L183.963 103.311C183.427 103.652 182.981 104.114 182.662 104.656C182.342 105.199 182.159 105.808 182.125 106.434V121.541C183.963 122.349 186.37 122.099 189.024 120.634Z" fill="black"/>
<g opacity="0.6">
<path d="M189.024 120.634C194.791 117.394 199.478 109.499 199.478 103.002C199.478 99.671 198.253 97.389 196.305 96.3396L183.963 103.311C183.427 103.652 182.981 104.114 182.662 104.656C182.342 105.199 182.159 105.808 182.125 106.434V121.541C183.963 122.349 186.37 122.099 189.024 120.634Z" fill="white"/>
</g>
<path d="M183.963 191.226L249.384 154.239C250.405 153.664 251.23 154.073 251.23 155.155C251.184 155.76 250.993 156.347 250.672 156.866C250.351 157.386 249.91 157.824 249.384 158.145L183.963 195.132C182.942 195.706 182.125 195.298 182.125 194.216C182.169 193.611 182.358 193.024 182.677 192.504C182.997 191.985 183.437 191.547 183.963 191.226Z" fill="black"/>
<g opacity="0.6">
<path d="M183.963 191.226L249.384 154.239C250.405 153.664 251.23 154.073 251.23 155.155C251.184 155.76 250.993 156.347 250.672 156.866C250.351 157.386 249.91 157.824 249.384 158.145L183.963 195.132C182.942 195.706 182.125 195.298 182.125 194.216C182.169 193.611 182.358 193.024 182.677 192.504C182.997 191.985 183.437 191.547 183.963 191.226Z" fill="white"/>
</g>
<path d="M183.963 199.038L249.384 162.076C250.405 161.502 251.23 161.91 251.23 162.993C251.184 163.598 250.993 164.184 250.672 164.703C250.351 165.223 249.91 165.661 249.384 165.983L183.963 202.969C182.942 203.544 182.125 203.136 182.125 202.053C182.166 201.444 182.353 200.853 182.672 200.328C182.992 199.804 183.434 199.362 183.963 199.038Z" fill="black"/>
<g opacity="0.6">
<path d="M183.963 199.038L249.384 162.076C250.405 161.502 251.23 161.91 251.23 162.993C251.184 163.598 250.993 164.184 250.672 164.703C250.351 165.223 249.91 165.661 249.384 165.983L183.963 202.969C182.942 203.544 182.125 203.136 182.125 202.053C182.166 201.444 182.353 200.853 182.672 200.328C182.992 199.804 183.434 199.362 183.963 199.038Z" fill="white"/>
</g>
<path d="M194.051 68.5064L240.725 42.1469C242.154 41.314 243.277 41.9969 243.277 43.6043C243.233 44.4772 242.978 45.3274 242.535 46.0858C242.091 46.8442 241.471 47.4893 240.725 47.9684L194.06 74.253C192.631 75.0859 191.508 74.4196 191.508 72.8372C191.556 71.9708 191.812 71.1277 192.253 70.3756C192.695 69.6234 193.311 68.9832 194.051 68.5064Z" fill="#FAFAFA"/>
<path d="M331.18 118.502L334.489 124.44L329.343 128.763L324.622 121.442L331.18 118.502Z" fill="#F28F8F"/>
<path d="M318.761 105.268C322.045 105.268 325.66 106.467 326.902 108.991L332.005 119.351C332.005 119.351 329.105 123.515 324.503 123.216L318.761 105.268Z" fill="#E0E0E0"/>
<path d="M330.925 125.365C331.886 123.616 332.125 123.532 332.695 123.149C333.264 122.766 336.769 122.258 338.224 122.133C339.925 121.992 340.546 122.3 340.069 123.741C338.759 127.375 337.155 130.9 335.272 134.284C334.813 134.876 334.728 135.425 332.797 135.617C331.002 135.784 328.748 135.883 328.084 135.917C327.421 135.95 326.502 136.125 327.089 134.209C327.848 132.046 328.729 129.924 329.726 127.855C330.466 126.264 330.925 125.365 330.925 125.365Z" fill="black"/>
<path d="M292.596 184.288C291.745 183.872 291.26 184.888 290.52 185.704C289.885 186.304 289.389 187.032 289.066 187.836C288.887 188.794 289.78 190.335 290.767 191.168C291.754 192.001 292.894 192.609 293.251 194.441C293.343 195.282 293.676 196.08 294.212 196.743C294.748 197.406 295.465 197.907 296.279 198.189C298.406 199.088 301.255 198.797 302.234 198.189C303.373 197.464 302.327 196.664 300.728 194.416C298.635 191.484 297.002 189.419 297.002 186.645L292.596 184.288Z" fill="#263238"/>
<path d="M294.271 181.881L292.57 184.38C292.203 184.89 292.057 185.523 292.166 186.138C292.274 186.753 292.628 187.301 293.148 187.661L293.199 187.703C293.723 188.007 294.338 188.123 294.939 188.03C295.54 187.937 296.089 187.642 296.491 187.195L299.179 184.33L294.271 181.881Z" fill="#FFA8A7"/>
<path d="M325.864 133.709C325.975 136.858 325.065 149.575 322.844 155.197C320.624 160.819 319.34 164.317 318.642 165.491C317.945 166.665 297.819 185.837 297.819 185.837C297.819 185.837 294.417 185.596 293.864 182.356C293.864 182.356 302.106 168.631 303.893 165.816C305.679 163.001 312.008 158.686 312.008 158.686L311.429 134.068L325.864 133.709Z" fill="black"/>
<path d="M296.05 130.645C296.05 130.103 297.751 123.882 298.601 121.009L304.837 123.108L303.373 127.638L297.887 133.193C297.306 133.08 296.791 132.752 296.449 132.278C296.107 131.804 295.964 131.219 296.05 130.645Z" fill="#FFA8A7"/>
<path d="M321.43 200.709L325.685 199.762L324.276 193.695L320.021 194.643L321.43 200.709Z" fill="#FFA8A7"/>
<path d="M325.864 133.71H305.449C305.003 136.628 304.747 139.571 304.683 142.521C304.521 151.183 312.755 166.915 312.755 166.915C312.36 170.415 312.538 173.955 313.283 177.401C315.086 184.297 320.003 195.981 320.003 195.981C320.003 195.981 323.09 196.406 324.613 194.665C324.613 194.665 321.891 170.954 321.16 164.883C320.368 158.303 318.327 146.302 318.327 146.302C319.675 144.987 320.896 143.555 321.976 142.021C323.87 139.553 325.193 136.711 325.855 133.693" fill="black"/>
<path d="M312.024 105.443C308.111 106.367 302.778 107.567 301.238 111.714C299.699 115.862 297.479 123.216 297.479 123.216C298.329 124.673 303.05 125.881 304.692 125.04L305.457 122.541V133.685C308.52 136.949 319.186 138.465 325.872 133.685V112.863C325.872 109.532 323.984 105.534 318.77 105.243L312.024 105.443Z" fill="#EBEBEB"/>
<path d="M305.457 122.566L307.422 116.511L305.457 125.273V122.566Z" fill="#E0E0E0"/>
<path d="M310.552 88.4279C310.201 88.3896 309.846 88.4297 309.513 88.5451C309.18 88.6605 308.878 88.8482 308.63 89.0941C307.779 89.927 307.975 91.4511 308.63 94.974L311.182 95.2572L310.552 88.4279Z" fill="#263238"/>
<path d="M325.447 87.4117C325.983 87.4172 326.516 87.3181 327.012 87.1202C327.795 86.6788 327.999 87.5532 327.565 88.3111C327.282 88.8542 326.861 89.3171 326.343 89.6554C325.824 89.9937 325.226 90.1961 324.605 90.2433C324.605 90.1351 323.874 88.2861 323.874 88.2861L325.447 87.4117Z" fill="#263238"/>
<path d="M311.752 95.257C311.377 95.4819 310.833 94.7656 310.365 94.2909C310.182 94.084 309.948 93.9263 309.685 93.8327C309.423 93.7391 309.14 93.7128 308.864 93.7561C308.588 93.7995 308.328 93.9112 308.108 94.0806C307.888 94.2499 307.717 94.4714 307.609 94.724C306.835 96.3231 308.596 98.4551 309.633 99.1547C309.921 99.4011 310.281 99.5516 310.662 99.5845C311.043 99.6174 311.424 99.5311 311.752 99.338L312.024 105.459C312.482 106.44 313.181 107.294 314.058 107.947C314.935 108.599 315.963 109.029 317.051 109.199C320.726 109.682 319.969 106.7 318.752 105.268V103.044C319.672 103.234 320.617 103.279 321.551 103.177C322.027 103.052 323.167 101.703 323.907 100.187C325.476 97.1525 325.825 93.6514 324.885 90.3766C323.567 84.8964 317.553 84.7299 313.972 86.9369C310.391 89.1439 311.752 95.257 311.752 95.257Z" fill="#FFA8A7"/>
<path d="M311.752 95.8819C311.565 95.8819 310.842 94.7076 310.366 94.2911C309.711 93.7081 310.553 88.4612 310.553 88.4612C310.372 87.8973 310.336 87.2985 310.447 86.7176C310.558 86.1367 310.814 85.5914 311.191 85.1298C312.484 83.7973 314.985 84.0222 316.813 83.9639C319.063 83.9725 321.292 83.5333 323.363 82.673C325.966 81.5653 326.162 81.4403 326.476 82.5564C326.728 83.4786 326.759 84.4453 326.567 85.3812C326.375 86.3172 325.966 87.1973 325.371 87.9532L324.52 89.3024C324.52 89.3024 323.729 89.952 321.305 90.2435C318.88 90.535 314.746 89.2524 314.227 89.1858C313.521 89.0942 313.377 89.7605 312.994 91.5844C312.671 93.1585 312.399 95.8735 311.752 95.8819Z" fill="#263238"/>
<path d="M310.561 88.8444L308.264 87.6368C308.338 87.49 308.44 87.3588 308.565 87.2508C308.691 87.1428 308.836 87.0601 308.995 87.0075C309.153 86.9548 309.32 86.9333 309.486 86.9441C309.653 86.9549 309.816 86.9979 309.965 87.0705C310.281 87.2324 310.519 87.5082 310.63 87.8393C310.741 88.1705 310.717 88.531 310.561 88.8444Z" fill="#263238"/>
<path d="M318.753 103.044C317.188 102.75 315.653 102.318 314.168 101.753C313.472 101.394 312.901 100.84 312.526 100.163C312.706 100.843 313.024 101.48 313.462 102.036C314.313 103.128 318.753 103.927 318.753 103.927V103.044Z" fill="#F28F8F"/>
<path d="M318.863 95.1405C318.865 95.3202 318.795 95.4936 318.668 95.623C318.541 95.7524 318.366 95.8274 318.183 95.8318C318.091 95.8296 318.001 95.8098 317.917 95.7735C317.833 95.7371 317.758 95.685 317.694 95.62C317.631 95.5551 317.582 95.4785 317.549 95.3948C317.516 95.3111 317.5 95.2219 317.502 95.1322C317.5 94.9525 317.57 94.7791 317.697 94.6497C317.825 94.5203 317.999 94.4453 318.183 94.4409C318.274 94.4431 318.365 94.4629 318.448 94.4992C318.532 94.5356 318.608 94.5877 318.671 94.6527C318.734 94.7176 318.784 94.7942 318.817 94.8779C318.85 94.9616 318.865 95.0508 318.863 95.1405Z" fill="#263238"/>
<path d="M318.14 92.617L316.685 93.4499C316.63 93.3533 316.595 93.2469 316.582 93.137C316.569 93.027 316.579 92.9157 316.611 92.8095C316.642 92.7032 316.695 92.6043 316.767 92.5183C316.838 92.4323 316.926 92.3611 317.025 92.3089C317.217 92.213 317.438 92.1915 317.644 92.2486C317.851 92.3058 318.028 92.4374 318.14 92.617Z" fill="#263238"/>
<path d="M318.446 99.6128L320.003 100.187C319.926 100.387 319.773 100.55 319.577 100.643C319.381 100.736 319.156 100.752 318.948 100.687C318.843 100.649 318.746 100.591 318.664 100.517C318.582 100.442 318.515 100.352 318.469 100.252C318.422 100.152 318.396 100.044 318.392 99.9347C318.388 99.825 318.407 99.7156 318.446 99.6128Z" fill="#F28F8F"/>
<path d="M324.936 93.175L323.609 92.1756C323.743 92.007 323.937 91.8948 324.152 91.8623C324.367 91.8298 324.587 91.8793 324.766 92.0007C324.857 92.0663 324.933 92.149 324.991 92.2438C325.048 92.3386 325.086 92.4437 325.102 92.553C325.118 92.6622 325.111 92.7735 325.083 92.8803C325.055 92.9871 325.005 93.0872 324.936 93.175Z" fill="#263238"/>
<path d="M324.528 94.9489C324.53 95.1286 324.46 95.3019 324.333 95.4313C324.206 95.5607 324.031 95.6357 323.848 95.6401C323.756 95.638 323.666 95.6181 323.582 95.5818C323.498 95.5455 323.423 95.4933 323.359 95.4284C323.296 95.3634 323.247 95.2869 323.214 95.2032C323.181 95.1195 323.165 95.0302 323.167 94.9405C323.165 94.7608 323.235 94.5875 323.362 94.4581C323.49 94.3287 323.664 94.2536 323.848 94.2493C324.032 94.2558 324.206 94.3326 324.333 94.4633C324.461 94.5941 324.531 94.7683 324.528 94.9489Z" fill="#263238"/>
<path d="M321.322 94.866L320.684 98.8303L322.921 98.5721L321.322 94.866Z" fill="#F28F8F"/>
<path d="M325.2 197.739L325.064 197.139C325.506 197.222 327.42 200.329 329.317 201.678C331.393 203.152 333.188 204.027 334.115 204.693C335.357 205.584 333.562 207.408 330.508 207.574C328.994 207.649 326.255 207.2 325.404 206.408C324.554 205.617 323.941 204.31 323.261 203.743C322.58 203.177 321.228 202.677 320.76 201.953C320.51 201.233 320.42 200.469 320.496 199.712C320.496 198.93 320.556 198.047 320.828 198.088L320.93 198.538C321.719 198.932 322.597 199.124 323.482 199.096C324.222 199.063 325.557 198.905 325.2 197.739Z" fill="#263238"/>
<path d="M320.632 160.852C320.632 160.852 318.82 148.251 318.335 146.302C319.791 145.524 321.145 144.576 322.367 143.479C321.524 144.66 320.603 145.787 319.611 146.852L320.632 160.852Z" fill="#263238"/>
<path d="M309.702 160.411C309.702 160.411 311.88 165.716 312.764 166.89C312.764 166.89 312.543 170.938 312.569 171.754L311.429 172.728C311.399 170.897 311.57 169.069 311.939 167.273C310.939 165.073 310.189 162.771 309.702 160.411Z" fill="#263238"/>
<path d="M303.398 127.638C303.398 127.638 320.555 129.437 322.571 128.829C324.587 128.221 327.292 126.264 328.713 125.431C330.133 124.598 331.214 124.548 331.214 124.89C331.214 125.231 329.972 127.089 329.691 127.863C329.41 128.638 331.027 128.638 333.162 128.155C335.297 127.672 336.147 126.489 336.7 127.172C337.253 127.855 335.518 131.336 331.979 132.644C328.441 133.951 325.812 133.077 322.886 133.202C319.96 133.327 301.935 134.451 297.878 133.202C297.771 132.565 297.845 131.911 298.092 131.313C298.34 130.715 298.751 130.196 299.281 129.812C300.507 128.848 301.903 128.112 303.398 127.638Z" fill="#FFA8A7"/>
<path d="M208.283 207.883C208.325 207.341 209.372 201.512 210.086 198.247L217.087 200.346L215.964 204.918L210.146 210.431C209.56 210.324 209.039 209.998 208.691 209.523C208.344 209.049 208.198 208.461 208.283 207.883Z" fill="#FFA8A7"/>
<path d="M223.628 158.528H227.031C229.541 158.528 231.95 159.505 233.725 161.243C235.501 162.982 236.498 165.339 236.498 167.798V191.417H214.161V167.798C214.161 165.339 215.158 162.982 216.934 161.243C218.709 159.505 221.117 158.528 223.628 158.528Z" fill="#263238"/>
<path d="M242.146 195.632L245.455 201.57L240.3 205.884L235.587 198.563L242.146 195.632Z" fill="#F28F8F"/>
<path d="M229.727 182.389C233.01 182.389 236.625 183.589 237.867 186.112L242.971 196.473C242.971 196.473 240.07 200.637 235.468 200.346L229.727 182.389Z" fill="#455A64"/>
<path d="M232.381 285.137C233.511 286.617 234.781 287.989 236.175 289.235C236.399 289.411 236.577 289.637 236.694 289.893C236.839 290.326 237.026 291.367 235.061 291.792C234.065 292.006 233.033 292.007 232.037 291.796C231.04 291.585 230.102 291.166 229.285 290.568C227.847 289.435 228.018 287.444 226.691 286.137C225.704 285.179 224.368 284.804 223.628 283.638C223.109 282.806 223.39 281.814 223.858 280.59C224.326 279.366 224.658 278.25 225.108 278.408L224.955 279.024C225.423 279.999 228.358 280.615 229.795 280.149C230.569 281.854 231.432 283.519 232.381 285.137Z" fill="#263238"/>
<path d="M233.537 286.57C233.137 286.112 232.746 285.646 232.38 285.137C231.628 283.911 230.955 282.64 230.364 281.331C229.981 280.552 229.914 279.659 230.177 278.833L231.147 275.626L226.043 274.477L224.937 278.966C224.699 279.99 225.456 281.007 226.843 282.489C228.229 283.971 229.829 287.236 231.096 288.161C232.363 289.085 233.401 289.177 234.048 288.86C234.694 288.544 234.856 288.252 233.537 286.57Z" fill="#FFA8A7"/>
<path d="M218.652 287.961V287.253C218.941 288.086 220.251 291.634 222.241 293.416C223.832 294.823 225.993 296.464 226.537 298.038C227.081 299.612 223.534 300.229 222.054 299.97C220.079 299.646 218.268 298.695 216.899 297.264C216.049 296.239 215.504 295.023 214.892 294.215C214.28 293.408 212.884 292.55 212.561 291.584C212.459 290.713 212.555 289.832 212.842 289.002C213.08 288.169 213.327 287.178 213.633 287.253V287.836C214.361 288.391 215.262 288.685 216.185 288.669C216.882 288.669 218.66 288.51 218.652 287.961Z" fill="#263238"/>
<path d="M223.679 294.657L222.241 293.407C220.908 292.024 219.867 290.397 219.179 288.619C218.831 287.798 218.651 286.917 218.651 286.028V283.222H213.633V287.786V287.911C213.871 288.935 216.185 291.65 217.486 293.424C218.553 294.949 220.181 296.011 222.028 296.389C223.942 296.639 224.938 296.056 223.679 294.657Z" fill="#FFA8A7"/>
<path d="M214.628 211.539C210.741 219.867 214.773 249.192 214.773 249.192C214.654 250.549 213.072 253.206 212.493 259.186C211.796 266.215 213.582 283.855 213.582 283.855C214.35 284.296 215.218 284.546 216.108 284.58C216.998 284.615 217.884 284.435 218.686 284.055C218.686 284.055 223.475 257.479 224.376 250.491L227.251 228.071L231.505 249.95C230.367 251.664 229.425 253.496 228.698 255.413C227.685 258.503 225.635 276.109 225.635 276.109C226.327 276.728 227.154 277.185 228.053 277.443C228.953 277.701 229.9 277.755 230.824 277.6C230.824 277.6 240.649 253.448 241.091 248.517C241.355 245.561 236.949 210.356 236.949 210.356L214.628 211.539Z" fill="black"/>
<path d="M227.218 228.038L227.898 223.224C227.898 223.224 233.249 222.141 235.673 219.892C233.999 221.814 231.81 223.239 229.353 224.007L228.638 228.654L229.489 239.423L227.218 228.038Z" fill="#263238"/>
<path d="M221.535 182.614C220.103 182.955 218.767 183.607 217.626 184.521C216.485 185.435 215.568 186.587 214.943 187.894C214.025 189.882 213.939 192.142 214.705 194.191L218.133 204.043C218.133 204.043 216.508 207.899 214.611 211.539C223.347 216.311 234.244 213.804 236.872 210.323C236.983 209.582 236.83 206.25 237.042 202.469C237.263 198.43 237.833 193.866 237.187 191.376C235.979 186.737 233.725 182.389 229.242 182.389L221.535 182.614Z" fill="#455A64"/>
<path d="M220.2 182.614C217.222 183.022 212.85 183.614 211.336 190.543C209.822 197.472 209.371 200.012 209.371 200.012C210.342 200.945 211.498 201.672 212.769 202.148C214.039 202.623 215.396 202.838 216.754 202.777L218.294 197.447L220.2 182.614Z" fill="#455A64"/>
<path d="M221.893 188.461C221.379 188.461 220.87 188.362 220.395 188.169C219.921 187.977 219.489 187.695 219.126 187.339C218.763 186.983 218.474 186.561 218.278 186.096C218.081 185.631 217.98 185.133 217.98 184.63V173.478H221.893V188.461Z" fill="#263238"/>
<path d="M232.831 162.951C234.014 163.634 235.468 166.54 235.323 172.628C235.204 177.792 233.495 179.075 232.636 179.441C231.776 179.807 230.126 179.583 228.519 179.316V182.414C228.519 182.414 230.739 184.913 230.603 186.37C230.466 187.828 227.387 188.128 225.303 186.737C223.961 185.783 222.808 184.598 221.901 183.239V175.743C221.731 175.946 221.522 176.114 221.286 176.238C221.05 176.361 220.791 176.438 220.524 176.462C220.258 176.487 219.989 176.46 219.733 176.382C219.477 176.305 219.24 176.178 219.034 176.01C217.256 174.852 217.188 171.995 218.226 171.013C219.264 170.03 221.484 170.313 221.901 171.729C224.003 171.639 226.049 171.037 227.855 169.98C229.194 169.278 230.343 168.275 231.208 167.052C232.073 165.83 232.63 164.425 232.831 162.951Z" fill="#FFA8A7"/>
<path d="M229.438 171.338C229.439 171.465 229.402 171.59 229.332 171.697C229.262 171.804 229.16 171.888 229.041 171.94C228.922 171.991 228.79 172.007 228.662 171.985C228.534 171.964 228.415 171.906 228.32 171.819C228.225 171.731 228.159 171.619 228.129 171.495C228.099 171.371 228.107 171.241 228.151 171.121C228.196 171.002 228.276 170.898 228.381 170.822C228.485 170.747 228.61 170.703 228.74 170.696C228.829 170.693 228.918 170.707 229.001 170.737C229.085 170.768 229.161 170.814 229.226 170.874C229.291 170.934 229.343 171.005 229.379 171.085C229.416 171.165 229.436 171.25 229.438 171.338Z" fill="#263238"/>
<path d="M229.616 175.71L231.156 176.193C231.129 176.294 231.081 176.389 231.015 176.472C230.949 176.555 230.867 176.624 230.773 176.674C230.679 176.725 230.575 176.756 230.469 176.767C230.362 176.777 230.255 176.766 230.152 176.734C229.946 176.664 229.774 176.518 229.675 176.327C229.575 176.137 229.554 175.915 229.616 175.71Z" fill="#F28F8F"/>
<path d="M234.873 169.339L233.538 168.431C233.594 168.342 233.668 168.266 233.755 168.206C233.842 168.146 233.941 168.105 234.045 168.084C234.15 168.063 234.257 168.063 234.362 168.084C234.466 168.105 234.565 168.147 234.652 168.206C234.831 168.331 234.954 168.518 234.995 168.729C235.036 168.94 234.993 169.159 234.873 169.339Z" fill="#263238"/>
<path d="M234.567 170.863C234.579 171.038 234.519 171.211 234.401 171.344C234.283 171.476 234.117 171.558 233.938 171.571C233.759 171.573 233.587 171.508 233.457 171.388C233.327 171.268 233.249 171.104 233.24 170.929C233.236 170.844 233.248 170.759 233.278 170.678C233.307 170.598 233.352 170.524 233.41 170.46C233.469 170.397 233.539 170.345 233.618 170.309C233.697 170.272 233.782 170.251 233.87 170.246C233.957 170.242 234.044 170.255 234.126 170.283C234.208 170.312 234.284 170.356 234.349 170.413C234.413 170.47 234.466 170.54 234.504 170.617C234.541 170.694 234.563 170.777 234.567 170.863Z" fill="#263238"/>
<path d="M231.437 170.496L231.547 174.402L233.648 173.761L231.437 170.496Z" fill="#F28F8F"/>
<path d="M228.519 179.316C226.818 179.1 223.331 178.117 222.786 176.768C223.003 177.452 223.431 178.054 224.011 178.492C225.049 179.366 228.519 180.357 228.519 180.357V179.316Z" fill="#F28F8F"/>
<path d="M241.882 202.486C242.843 200.737 243.081 200.662 243.66 200.279C244.238 199.896 247.734 199.379 249.189 199.254C250.89 199.113 251.511 199.421 251.035 200.87C249.708 204.5 248.093 208.023 246.203 211.405C245.744 212.005 245.65 212.555 243.728 212.738C241.806 212.921 239.67 213.005 239.007 213.046C238.343 213.088 237.425 213.246 238.02 211.331C238.779 209.167 239.656 207.046 240.649 204.976C241.423 203.402 241.882 202.486 241.882 202.486Z" fill="black"/>
<path d="M215.964 204.951C215.964 204.951 231.522 206.559 233.538 205.951C235.554 205.343 238.259 203.369 239.713 202.553C241.168 201.736 242.214 201.67 242.214 202.003C242.214 202.336 240.972 204.21 240.683 204.976C240.394 205.742 242.027 205.751 244.153 205.268C246.28 204.785 247.139 203.602 247.7 204.285C248.262 204.968 246.518 208.449 242.979 209.757C239.441 211.064 236.812 210.198 233.886 210.315C230.96 210.431 214.203 211.714 210.145 210.465C210.038 209.828 210.112 209.175 210.36 208.576C210.608 207.978 211.019 207.459 211.549 207.075C212.861 206.086 214.362 205.363 215.964 204.951Z" fill="#FFA8A7"/>
<path d="M217.086 201.037C217.754 199.267 218.322 197.462 218.788 195.632C218.788 195.632 218.507 199.654 217.35 201.811L217.086 201.037Z" fill="black"/>
<path d="M91.202 151.507L88.4375 157.354L93.5838 161.668L98.0325 154.314L91.202 151.507Z" fill="#F28F8F"/>
<path d="M103.894 138.132C100.61 138.132 96.9951 139.339 95.7531 141.855C94.5112 144.37 90.6494 152.224 90.6494 152.224C90.6494 152.224 93.55 156.388 98.1519 156.088L103.894 138.132Z" fill="black"/>
<path d="M118.133 230.902H113.591V237.374H118.133V230.902Z" fill="#FFA8A7"/>
<path d="M102.163 222.896L97.623 223.049L97.8503 229.516L102.39 229.363L102.163 222.896Z" fill="#FFA8A7"/>
<path d="M117.827 167.723C117.827 171.97 118.388 199.421 118.388 199.421C118.499 200.637 119.664 202.894 119.409 207.583C119.069 213.954 118.507 231.652 118.507 231.652C118.507 231.652 116.381 233.718 113.403 231.652C113.403 231.652 109.286 207.599 108.478 201.287C107.764 195.781 106.564 180.815 106.564 180.815L102.354 198.43C102.354 198.43 103.094 202.594 103.264 205.492C103.434 208.391 102.49 225.306 102.49 225.306C101.754 225.755 100.911 226.009 100.044 226.041C99.1768 226.073 98.3164 225.883 97.5478 225.489C97.5478 225.489 93.9071 200.82 93.4393 198.18C92.9714 195.54 96.6291 167.723 96.6291 167.723H117.827Z" fill="black"/>
<path d="M110.996 138.332H111.064C113.013 138.811 114.741 139.916 115.974 141.469C117.208 143.022 117.875 144.934 117.869 146.902V167.723C114.688 171.112 103.596 172.72 96.6035 167.723V146.069C96.6035 142.613 98.5684 138.448 103.987 138.14L110.996 138.332Z" fill="#455A64"/>
<path d="M112.528 120.617C112.892 120.577 113.262 120.619 113.608 120.738C113.954 120.858 114.268 121.053 114.526 121.308C115.377 122.141 115.207 123.765 114.526 127.421L111.873 127.721L112.528 120.617Z" fill="#263238"/>
<path d="M97.0378 119.601C96.4683 119.603 95.9042 119.492 95.3791 119.276C94.5285 118.818 94.3498 119.726 94.7922 120.509C95.0886 121.074 95.5281 121.555 96.0687 121.907C96.6093 122.258 97.2329 122.468 97.8799 122.516C97.8799 122.408 98.637 120.492 98.637 120.492L97.0378 119.601Z" fill="#263238"/>
<path d="M111.277 127.721C111.677 127.955 112.238 127.213 112.723 126.714C112.913 126.497 113.157 126.332 113.431 126.234C113.705 126.136 114 126.109 114.288 126.155C114.575 126.201 114.846 126.319 115.074 126.497C115.302 126.675 115.48 126.907 115.59 127.172C116.44 128.837 114.56 131.053 113.489 131.777C113.188 132.034 112.812 132.19 112.415 132.225C112.017 132.259 111.619 132.17 111.277 131.969L110.996 138.332C110.52 139.353 109.793 140.242 108.88 140.921C107.967 141.599 106.897 142.046 105.765 142.221C101.946 142.729 102.737 139.648 103.987 138.132V135.817C103.035 136.019 102.055 136.07 101.087 135.966C100.585 135.833 99.3853 134.426 98.6282 132.852C97.7776 131.086 96.3401 127.955 97.616 122.649C98.9855 116.944 105.272 116.769 108.963 119.068C112.655 121.367 111.277 127.721 111.277 127.721Z" fill="#FFA8A7"/>
<path d="M111.277 128.371C111.481 128.371 112.23 127.155 112.723 126.705C113.404 126.097 112.527 120.609 112.527 120.609C112.527 120.609 113.216 118.535 111.872 117.153C110.528 115.77 107.917 116.003 106.012 115.937C103.674 115.951 101.357 115.494 99.2067 114.596C96.5017 113.446 96.2976 113.313 95.9658 114.471C95.7034 115.43 95.6704 116.435 95.8696 117.409C96.0688 118.383 96.4947 119.298 97.1142 120.084L98.4581 120.567C98.4581 120.567 99.1812 121.2 101.708 121.5C104.037 121.669 106.378 121.627 108.7 121.375C109.431 121.275 109.55 121.966 109.984 123.874C110.324 125.539 110.614 128.363 111.277 128.371Z" fill="#263238"/>
<path d="M112.519 121.05L114.909 119.793C114.833 119.635 114.726 119.495 114.593 119.38C114.46 119.264 114.304 119.177 114.135 119.122C113.967 119.068 113.789 119.047 113.612 119.062C113.435 119.077 113.263 119.128 113.106 119.21C112.786 119.384 112.546 119.673 112.437 120.015C112.328 120.358 112.357 120.728 112.519 121.05Z" fill="#263238"/>
<path d="M103.996 135.817C105.626 135.517 107.224 135.068 108.768 134.476C109.494 134.103 110.088 133.522 110.469 132.81C110.283 133.517 109.953 134.18 109.499 134.759C108.598 135.892 103.987 136.724 103.987 136.724L103.996 135.817Z" fill="#F28F8F"/>
<path d="M104.846 126.855C104.85 126.993 104.895 127.127 104.975 127.24C105.056 127.353 105.17 127.44 105.301 127.49C105.432 127.54 105.576 127.551 105.713 127.522C105.851 127.492 105.977 127.424 106.075 127.324C106.173 127.225 106.238 127.1 106.264 126.964C106.289 126.828 106.272 126.688 106.217 126.561C106.161 126.435 106.068 126.327 105.95 126.252C105.831 126.177 105.693 126.137 105.552 126.139C105.362 126.143 105.181 126.221 105.049 126.355C104.917 126.489 104.844 126.669 104.846 126.855Z" fill="#263238"/>
<path d="M105.595 124.24L107.117 125.073C107.223 124.868 107.245 124.632 107.178 124.412C107.112 124.192 106.962 124.005 106.76 123.89C106.66 123.837 106.551 123.803 106.438 123.792C106.325 123.781 106.211 123.792 106.102 123.824C105.993 123.857 105.893 123.91 105.805 123.982C105.718 124.053 105.647 124.141 105.595 124.24Z" fill="#263238"/>
<path d="M104.898 131.561L103.282 132.16C103.317 132.266 103.374 132.364 103.449 132.448C103.523 132.532 103.615 132.601 103.717 132.65C103.819 132.699 103.931 132.727 104.044 132.733C104.158 132.739 104.272 132.723 104.379 132.685C104.598 132.601 104.775 132.436 104.872 132.226C104.969 132.016 104.979 131.777 104.898 131.561Z" fill="#F28F8F"/>
<path d="M98.5262 124.814L99.8957 123.765C99.8299 123.674 99.746 123.597 99.6491 123.538C99.5521 123.479 99.4441 123.44 99.3314 123.423C99.2187 123.406 99.1037 123.411 98.9931 123.438C98.8826 123.466 98.7788 123.514 98.6878 123.582C98.5041 123.727 98.3848 123.937 98.3546 124.166C98.3245 124.396 98.386 124.628 98.5262 124.814Z" fill="#263238"/>
<path d="M98.9515 126.664C98.9492 126.85 99.0221 127.03 99.1542 127.164C99.2864 127.298 99.4673 127.376 99.6575 127.38C99.8501 127.376 100.033 127.297 100.167 127.161C100.301 127.026 100.374 126.844 100.372 126.655C100.383 126.558 100.373 126.459 100.342 126.365C100.311 126.272 100.261 126.185 100.194 126.112C100.127 126.039 100.045 125.981 99.9531 125.94C99.8615 125.9 99.7622 125.88 99.6618 125.88C99.5614 125.88 99.4621 125.9 99.3704 125.94C99.2788 125.981 99.1968 126.039 99.1297 126.112C99.0627 126.185 99.0122 126.272 98.9815 126.365C98.9508 126.459 98.9406 126.558 98.9515 126.655V126.664Z" fill="#263238"/>
<path d="M102.567 126.006L102.329 130.178L100.109 129.437L102.567 126.006Z" fill="#F28F8F"/>
<path d="M113.591 235.175V234.534C113.157 234.717 112.145 238.49 110.35 240.097C108.912 241.371 106.947 242.854 106.463 244.261C105.978 245.669 109.185 246.56 110.52 246.327C112.077 246.06 114.773 244.986 115.445 243.995C116.117 243.004 116.44 241.538 116.985 240.805C117.529 240.072 118.805 239.264 119.103 238.423C119.19 237.636 119.1 236.84 118.839 236.091C118.626 235.308 118.405 234.425 118.133 234.517C118.133 234.609 118.133 235 118.133 235C117.487 235.499 116.685 235.764 115.862 235.75C115.207 235.8 113.582 235.675 113.591 235.175Z" fill="#263238"/>
<path d="M97.8115 228.137C97.5733 228.137 97.3776 228.471 96.8588 229.02C96.0843 229.792 95.181 230.428 94.1878 230.903C92.4866 231.735 89.1861 233.018 87.689 233.676C86.7619 234.092 86.8384 235.192 87.7656 235.825C88.6928 236.458 91.066 236.907 93.8646 236.291C95.3872 235.958 97.3776 234.584 98.6281 234.625C99.8785 234.667 102.235 234.684 103.162 234.059C104.089 233.434 103.723 232.093 103.46 230.944C103.196 229.795 102.762 227.779 102.337 227.863V228.254C101.792 229.087 99.0108 229.395 97.8115 228.804V228.137Z" fill="#263238"/>
<path d="M91.7381 158.237C90.7769 156.479 90.5388 156.404 89.9603 156.021C89.3819 155.638 85.8859 155.122 84.4313 155.005C82.7301 154.864 82.1091 155.172 82.5854 156.613C83.9027 160.244 85.5067 163.769 87.3829 167.156C87.8423 167.748 87.9359 168.297 89.8583 168.481C91.7807 168.664 93.9157 168.747 94.5792 168.789C95.2427 168.83 96.1614 168.989 95.5659 167.073C94.806 164.911 93.9286 162.789 92.9375 160.719C92.24 159.145 91.7381 158.237 91.7381 158.237Z" fill="black"/>
<path d="M126.606 163.517C126.563 162.967 124.904 156.754 124.054 153.881L117.827 155.98L119.29 160.502L124.768 166.057C125.349 165.946 125.864 165.62 126.206 165.147C126.548 164.674 126.691 164.09 126.606 163.517Z" fill="#FFA8A7"/>
<path d="M119.264 160.502C119.264 160.502 102.099 162.301 100.083 161.693C98.0668 161.085 95.3618 159.111 93.9072 158.295C92.4527 157.479 91.4064 157.412 91.4064 157.754C91.4064 158.095 92.6483 159.952 92.9375 160.718C93.2267 161.485 91.5935 161.493 89.467 161.01C87.3404 160.527 86.4813 159.344 85.9199 160.027C85.3585 160.71 87.1022 164.191 90.6408 165.499C94.1794 166.807 96.8079 165.94 99.734 166.057C102.66 166.174 120.685 167.306 124.742 166.057C124.85 165.421 124.776 164.769 124.528 164.172C124.28 163.576 123.869 163.057 123.339 162.676C122.124 161.719 120.744 160.983 119.264 160.502Z" fill="#FFA8A7"/>
<path d="M112.434 138.807C115.131 139.681 120.481 140.123 122.208 145.836C123.934 151.549 124.802 155.255 124.802 155.255C123.781 156.588 119.698 158.129 117.827 157.554L112.434 138.807Z" fill="#455A64"/>
<path d="M117.827 157.554L115.981 151.141L117.827 160.169V157.554Z" fill="black"/>
<path d="M79.1074 171.029C79.0223 171.138 78.2993 172.312 78.2993 172.312L74.9734 176.976L71.7325 181.731C71.6304 181.876 71.484 181.986 71.3144 182.044C71.1447 182.103 70.9606 182.107 70.7883 182.056L70.5672 181.981C69.4443 181.573 67.7601 180.882 65.523 179.874C63.7281 179.041 63.8217 178.8 63.8217 178.5C63.7984 178.262 63.7984 178.022 63.8217 177.784C64.1875 177.101 65.3188 175.393 66.8414 173.236C69.5464 169.389 70.8479 167.681 71.656 166.574C71.7713 166.412 71.9414 166.296 72.1361 166.245C72.3308 166.195 72.5375 166.214 72.7192 166.299C74.1738 166.774 77.1255 168.014 78.6736 168.631H78.7416C79.5753 169.072 79.1159 170.996 79.1074 171.029Z" fill="black"/>
<path d="M79.192 170.88L78.3414 172.312L75.092 177.068L71.6895 181.706C71.5874 181.851 71.441 181.961 71.2714 182.019C71.1017 182.078 70.9176 182.082 70.7453 182.031L70.5242 181.956C69.4014 181.548 67.7171 180.857 65.48 179.849C63.6852 179.016 63.7787 178.775 63.7787 178.475C63.7554 178.237 63.7554 177.997 63.7787 177.759C65.48 178.492 70.8644 180.99 71.0431 180.899C71.4684 180.699 75.1175 174.969 77.057 172.045C78.0267 170.588 78.4605 169.972 78.7582 169.472C78.8129 169.412 78.8536 169.342 78.8775 169.265C78.9014 169.189 78.9079 169.108 78.8966 169.028C78.8852 168.949 78.8563 168.873 78.8118 168.806C78.7674 168.739 78.7084 168.682 78.6391 168.639H78.5711C78.7621 168.738 78.9269 168.879 79.0525 169.051C79.178 169.223 79.2607 169.421 79.2941 169.63C79.3868 169.83 79.4262 170.049 79.4083 170.268C79.3904 170.486 79.316 170.697 79.192 170.88Z" fill="black"/>
<path opacity="0.1" d="M79.192 170.88L78.3414 172.312L75.092 177.068L71.6895 181.706C71.5874 181.851 71.441 181.961 71.2714 182.019C71.1017 182.078 70.9176 182.082 70.7453 182.031L70.5242 181.956C69.4014 181.548 67.7171 180.857 65.48 179.849C63.6852 179.016 63.7787 178.775 63.7787 178.475C63.7554 178.237 63.7554 177.997 63.7787 177.759C65.48 178.492 70.8644 180.99 71.0431 180.899C71.4684 180.699 75.1175 174.969 77.057 172.045C78.0267 170.588 78.4605 169.972 78.7582 169.472C78.8129 169.412 78.8536 169.342 78.8775 169.265C78.9014 169.189 78.9079 169.108 78.8966 169.028C78.8852 168.949 78.8563 168.873 78.8118 168.806C78.7674 168.739 78.7084 168.682 78.6391 168.639H78.5711C78.7621 168.738 78.9269 168.879 79.0525 169.051C79.178 169.223 79.2607 169.421 79.2941 169.63C79.3868 169.83 79.4262 170.049 79.4083 170.268C79.3904 170.486 79.316 170.697 79.192 170.88Z" fill="black"/>
<path d="M71.6983 167.665L77.6696 170.113L71.307 179.375L65.3696 176.701L71.6983 167.665Z" fill="#FAFAFA"/>
<path d="M70.0223 199.938C71.6555 199.48 74.1223 193.533 75.9767 186.787C77.831 180.041 78.8092 178.55 78.8688 176.426C78.9283 174.303 78.7752 171.513 78.7752 171.513L75.5429 176.135C75.4026 175.243 75.1154 174.38 74.6922 173.578C74.2754 172.745 73.4929 172.087 72.8549 172.587C72.5146 172.854 73.4163 173.995 73.2207 176.543C73.2047 177.559 73.3074 178.573 73.5269 179.566L67.5215 193.808L70.0223 199.938Z" fill="#FFA8A7"/>
<path d="M45.8563 170.405C43.9594 169.88 42.3517 170.871 41.4585 173.828C39.8929 179.394 38.7555 185.068 38.0561 190.801C37.8009 192.858 37.5116 195.357 39.5191 195.548C41.0502 195.698 45.4735 194.865 46.2475 194.116C47.2853 193.133 47.0982 189.169 47.0982 189.169H44.8015C44.8015 189.169 45.2949 186.046 45.4395 185.096C45.9498 181.906 46.7069 177.884 46.7069 177.884L45.8563 170.405Z" fill="#F28F8F"/>
<path d="M56.9911 167.482L56.217 174.153L49.4971 174.919L50.4668 166.066L56.9911 167.482Z" fill="#FFA8A7"/>
<path d="M42.6069 157.746C43.1598 151.583 46.5708 149.051 49.2078 148.434C54.5327 147.21 59.7895 148.959 61.9671 152.599C62.4655 153.738 62.7225 154.965 62.7225 156.205C62.7225 157.445 62.4655 158.672 61.9671 159.811C60.8103 162.393 42.6325 157.729 42.6325 157.729" fill="#263238"/>
<path d="M62.2988 161.061C62.2988 161.061 63.26 163.601 63.0048 163.792C62.6037 163.934 62.1808 164.007 61.7544 164.009L62.2988 161.061Z" fill="#FFA8A7"/>
<path d="M59.4319 153.032C60.6993 154.098 62.8344 156.03 62.2645 161.36C61.635 166.873 60.274 168.364 59.3554 168.897C58.7429 169.255 56.0294 168.631 54.7705 167.906C53.2054 166.998 49.7348 164.658 48.68 161.502C47.4296 157.787 48.0591 153.356 50.7981 152.199C52.1918 151.612 53.7147 151.38 55.2246 151.526C56.7345 151.671 58.182 152.189 59.4319 153.032Z" fill="#FFA8A7"/>
<path d="M60.9972 153.173C61.0244 154.647 60.712 156.108 60.0832 157.448C59.4543 158.787 58.5253 159.971 57.3651 160.91C57.3651 160.91 56.574 158.903 54.8132 159.361C53.0524 159.819 53.1119 162.093 54.3709 163.326C54.6973 163.678 55.1196 163.932 55.5882 164.057C56.0568 164.182 56.5523 164.174 57.0163 164.033C56.7653 165.609 56.012 167.066 54.8642 168.198C53.0325 168.61 51.1191 168.509 49.3437 167.905C47.5683 167.301 46.0028 166.219 44.8269 164.783C40.9395 160.211 42.0879 152.948 48.1613 150.808C50.3088 149.964 52.6576 149.739 54.9316 150.158C57.2055 150.577 59.31 151.623 60.9972 153.173Z" fill="#263238"/>
<path d="M48.6886 267.847L51.5892 271.795C50.2679 272.38 48.8284 272.665 47.3787 272.628C44.7843 272.728 44.0697 271.895 43.9762 271.695C43.5338 270.771 44.2228 269.113 44.41 267.689L48.6886 267.847Z" fill="#263238"/>
<path d="M51.4109 269.888C51.4109 269.888 54.9239 269.663 57.3652 269.363C59.8065 269.063 61.7204 270.196 61.1505 271.204C60.5806 272.212 59.2366 273.003 57.1526 273.702C55.3748 274.294 53.2312 274.718 51.3683 275.26C49.5055 275.801 48.238 276.467 47.1578 276.093C45.9499 275.685 45.4565 275.21 45.5331 274.352C45.7966 273.129 46.123 271.92 46.5113 270.729L51.4109 269.888Z" fill="#263238"/>
<path d="M43.9761 263.867C43.9761 263.867 44.4099 267.448 44.4439 268.222C44.4779 268.997 48.0165 269.238 48.697 267.831L48.8076 263.45L43.9761 263.867Z" fill="#F28F8F"/>
<path d="M47.5409 266.074L46.3075 271.512C46.3075 271.512 46.1799 272.17 49.0805 272.595C51.9811 273.02 56.5064 271.112 57.2805 270.729C58.0546 270.346 58.1311 269.572 55.2986 269.722C52.466 269.872 51.4537 269.888 51.4537 269.888L52.3809 267.473L47.5409 266.074Z" fill="#FFA8A7"/>
<path d="M43.9765 193.267C41.5522 196.956 39.2555 200.204 38.7621 204.352C37.7244 213.113 41.1269 223.124 41.8499 229.604C40.4745 231.447 39.6792 233.645 39.5617 235.925C39.5617 238.607 43.9765 263.867 43.9765 263.867C43.9765 263.867 47.1833 264.825 48.7995 263.45L51.8362 216.978L50.237 211.323L43.9765 193.267Z" fill="#455A64"/>
<path d="M51.8364 216.978L50.2373 211.323C47.2275 210.556 44.3229 209.438 41.5864 207.991C41.5864 207.991 43.2281 210.906 47.9151 212.505L50.3563 219.776L50.569 236.433L51.8364 216.978Z" fill="black"/>
<path d="M43.976 193.267C42.683 195.332 39.5783 198.88 40.2418 202.278C41.0413 206.442 43.304 209.299 50.2366 211.323L56.7353 234.367C56.7353 234.367 53.3328 237.474 52.3206 240.422C51.3084 243.371 47.5401 266.074 47.5401 266.074C47.5401 266.074 48.6969 267.923 52.3546 267.473C52.3546 267.473 65.114 238.998 65.9646 237.166C67.0529 235.29 67.4352 233.101 67.0449 230.978C66.6366 227.996 62.2984 195.332 62.2984 195.332L43.976 193.267Z" fill="#455A64"/>
<path d="M42.7936 172.47C43.0544 171.791 43.5457 171.22 44.1853 170.853C44.8249 170.486 45.5739 170.345 46.3067 170.455C50.8405 171.662 57.8922 173.253 59.2276 173.636C59.2276 173.636 58.6237 182.19 63.8465 185.205C63.5998 187.112 62.2729 195.332 62.2729 195.332C62.2729 195.332 55.9953 198.314 50.832 196.848C45.6687 195.382 43.9335 193.266 43.9335 193.266L46.4853 189.144C45.9324 187.803 43.7974 183.247 42.4193 179.017C41.9412 176.841 42.0705 174.58 42.7936 172.47Z" fill="#FAFAFA"/>
<path d="M45.856 187.52C48.0035 188.785 50.2539 189.874 52.5844 190.776C50.4663 190.723 48.3957 190.15 46.562 189.111L45.856 187.52Z" fill="#E0E0E0"/>
<path d="M63.7363 184.563C61.8809 183.73 60.3544 182.326 59.3896 180.565C59.5461 181.918 60.0198 183.218 60.7738 184.362C61.5278 185.506 62.5417 186.464 63.7363 187.162V184.563Z" fill="#E0E0E0"/>
<path d="M59.2711 173.636C62.1207 174.469 63.89 174.736 65.4296 176.085C67.4541 177.867 69.5466 187.944 69.9719 190.027C70.7119 193.633 71.5285 197.381 70.729 199.063C70.1505 200.279 67.0032 201.187 65.6252 197.256C65.336 196.423 65.2765 196.04 65.0213 195.29C63.7198 191.526 61.7634 184.33 61.7634 184.33C61.7634 184.33 57.9101 182.248 59.2711 173.636Z" fill="#FFA8A7"/>
<path d="M45.4568 150.808C44.4446 151.383 42.6157 151.941 41.4759 157.146C40.5479 161.512 39.9959 165.948 39.8257 170.405C39.8682 172.02 43.2877 176.509 50.501 176.085C57.7143 175.66 60.3342 171.521 60.3342 171.521C60.3342 171.521 56.7871 170.105 57.0678 164.025C57.0678 164.025 55.8174 166.432 52.3894 165.224C48.9614 164.017 45.4568 150.808 45.4568 150.808Z" fill="#263238"/>
</svg>
