<svg width="155" height="191" viewBox="0 0 155 191" fill="none" xmlns="http://www.w3.org/2000/svg">
<path fill-rule="evenodd" clip-rule="evenodd" d="M49.1666 49.4189C46.6331 46.9914 42.9697 47.2121 40.6416 50.0809L40.1043 50.8307C38.1344 53.9527 38.3135 58.4669 40.6416 61.3357L68.3615 95.5L40.6416 129.664L40.1043 130.414C38.1344 133.536 38.3135 138.05 40.6416 140.919C43.1637 144.027 47.2529 144.027 49.7751 140.919L82.0667 101.127L82.604 100.378C84.5739 97.2557 84.3949 92.7415 82.0667 89.8726L49.7751 50.0809L49.1666 49.4189ZM87.9166 49.4189C85.3831 46.9914 81.7197 47.2121 79.3916 50.0809L78.8543 50.8307C76.8844 53.9527 77.0635 58.4669 79.3916 61.3357L107.111 95.5L79.3916 129.664L78.8543 130.414C76.8844 133.536 77.0635 138.05 79.3916 140.919C81.9137 144.027 86.0029 144.027 88.5251 140.919L120.817 101.127L121.354 100.378C123.324 97.2557 123.145 92.7415 120.817 89.8726L88.5251 50.0809L87.9166 49.4189Z" fill="#7F39E9"/>
</svg>
