<svg width="1082" height="374" viewBox="0 0 1082 374" fill="none" xmlns="http://www.w3.org/2000/svg">
<path d="M0 16C0 7.16345 7.16344 0 16 0H1066C1074.84 0 1082 7.16344 1082 16V374H0V16Z" fill="#141414"/>
<path d="M455 300.227C455 298.017 456.791 296.227 459 296.227H471C473.209 296.227 475 298.017 475 300.227V304.193C475 306.402 473.209 308.193 471 308.193H459C456.791 308.193 455 306.402 455 304.193V300.227Z" fill="#006897"/>
<path d="M487.634 307.442C486.911 307.442 486.257 307.318 485.674 307.071C485.095 306.819 484.617 306.462 484.239 306C483.866 305.533 483.623 304.98 483.511 304.341L485.037 304.11C485.191 304.726 485.513 305.207 486.003 305.552C486.493 305.893 487.065 306.063 487.718 306.063C488.124 306.063 488.497 306 488.838 305.874C489.179 305.743 489.452 305.559 489.657 305.321C489.867 305.078 489.972 304.789 489.972 304.453C489.972 304.271 489.939 304.11 489.874 303.97C489.813 303.83 489.727 303.709 489.615 303.606C489.508 303.499 489.375 303.408 489.216 303.333C489.062 303.254 488.892 303.186 488.705 303.13L486.122 302.367C485.87 302.292 485.613 302.197 485.352 302.08C485.091 301.959 484.85 301.802 484.631 301.611C484.416 301.415 484.241 301.175 484.106 300.89C483.971 300.601 483.903 300.251 483.903 299.84C483.903 299.219 484.062 298.694 484.379 298.265C484.701 297.831 485.135 297.504 485.681 297.285C486.227 297.061 486.838 296.949 487.515 296.949C488.196 296.958 488.805 297.08 489.342 297.313C489.883 297.546 490.331 297.882 490.686 298.321C491.045 298.755 491.293 299.282 491.428 299.903L489.86 300.169C489.79 299.791 489.641 299.467 489.412 299.196C489.183 298.921 488.903 298.711 488.572 298.566C488.241 298.417 487.881 298.34 487.494 298.335C487.121 298.326 486.778 298.382 486.465 298.503C486.157 298.624 485.91 298.795 485.723 299.014C485.541 299.233 485.45 299.485 485.45 299.77C485.45 300.05 485.532 300.276 485.695 300.449C485.858 300.622 486.059 300.759 486.297 300.862C486.54 300.96 486.78 301.042 487.018 301.107L488.88 301.632C489.113 301.697 489.377 301.786 489.671 301.898C489.97 302.005 490.257 302.157 490.532 302.353C490.812 302.549 491.043 302.81 491.225 303.137C491.407 303.459 491.498 303.865 491.498 304.355C491.498 304.864 491.395 305.312 491.19 305.699C490.985 306.082 490.702 306.404 490.343 306.665C489.988 306.922 489.578 307.115 489.111 307.246C488.644 307.377 488.152 307.442 487.634 307.442ZM495.125 307.442C494.565 307.442 494.096 307.339 493.718 307.134C493.34 306.924 493.053 306.649 492.857 306.308C492.665 305.963 492.57 305.585 492.57 305.174C492.57 304.791 492.637 304.455 492.773 304.166C492.908 303.877 493.109 303.632 493.375 303.431C493.641 303.226 493.967 303.06 494.355 302.934C494.691 302.836 495.071 302.75 495.496 302.675C495.92 302.6 496.366 302.53 496.833 302.465C497.304 302.4 497.771 302.334 498.233 302.269L497.701 302.563C497.71 301.97 497.584 301.532 497.323 301.247C497.066 300.958 496.623 300.813 495.993 300.813C495.596 300.813 495.232 300.906 494.901 301.093C494.569 301.275 494.338 301.578 494.208 302.003L492.843 301.583C493.029 300.934 493.384 300.419 493.907 300.036C494.434 299.653 495.134 299.462 496.007 299.462C496.683 299.462 497.271 299.579 497.771 299.812C498.275 300.041 498.643 300.405 498.877 300.904C498.998 301.151 499.073 301.413 499.101 301.688C499.129 301.963 499.143 302.26 499.143 302.577V307.232H497.848V305.503L498.1 305.727C497.787 306.306 497.388 306.737 496.903 307.022C496.422 307.302 495.829 307.442 495.125 307.442ZM495.384 306.245C495.799 306.245 496.156 306.173 496.455 306.028C496.753 305.879 496.994 305.69 497.176 305.461C497.358 305.232 497.477 304.994 497.533 304.747C497.612 304.523 497.656 304.271 497.666 303.991C497.68 303.711 497.687 303.487 497.687 303.319L498.163 303.494C497.701 303.564 497.281 303.627 496.903 303.683C496.525 303.739 496.182 303.795 495.874 303.851C495.57 303.902 495.3 303.965 495.062 304.04C494.861 304.11 494.681 304.194 494.523 304.292C494.369 304.39 494.245 304.509 494.152 304.649C494.063 304.789 494.019 304.959 494.019 305.16C494.019 305.356 494.068 305.538 494.166 305.706C494.264 305.869 494.413 306 494.614 306.098C494.814 306.196 495.071 306.245 495.384 306.245ZM501.1 307.232V296.942H502.563V307.232H501.1ZM508.019 307.442C507.267 307.442 506.607 307.279 506.038 306.952C505.473 306.621 505.032 306.161 504.715 305.573C504.402 304.98 504.246 304.294 504.246 303.515C504.246 302.689 504.4 301.973 504.708 301.366C505.02 300.759 505.454 300.29 506.01 299.959C506.565 299.628 507.211 299.462 507.949 299.462C508.719 299.462 509.374 299.642 509.916 300.001C510.457 300.356 510.861 300.862 511.127 301.52C511.397 302.178 511.505 302.96 511.449 303.865H509.986V303.333C509.976 302.456 509.808 301.807 509.482 301.387C509.16 300.967 508.667 300.757 508.005 300.757C507.272 300.757 506.721 300.988 506.353 301.45C505.984 301.912 505.8 302.579 505.8 303.452C505.8 304.283 505.984 304.927 506.353 305.384C506.721 305.837 507.253 306.063 507.949 306.063C508.406 306.063 508.8 305.96 509.132 305.755C509.468 305.545 509.729 305.246 509.916 304.859L511.351 305.314C511.057 305.991 510.611 306.516 510.014 306.889C509.416 307.258 508.751 307.442 508.019 307.442ZM505.324 303.865V302.724H510.721V303.865H505.324ZM515.91 307.435C514.991 307.435 514.242 307.232 513.663 306.826C513.084 306.42 512.73 305.848 512.599 305.111L514.097 304.88C514.19 305.272 514.405 305.582 514.741 305.811C515.082 306.035 515.504 306.147 516.008 306.147C516.465 306.147 516.822 306.054 517.079 305.867C517.34 305.68 517.471 305.424 517.471 305.097C517.471 304.906 517.424 304.752 517.331 304.635C517.242 304.514 517.053 304.399 516.764 304.292C516.475 304.185 516.034 304.052 515.441 303.893C514.792 303.725 514.277 303.545 513.894 303.354C513.516 303.158 513.245 302.932 513.082 302.675C512.923 302.414 512.844 302.099 512.844 301.73C512.844 301.273 512.965 300.874 513.208 300.533C513.451 300.192 513.791 299.929 514.23 299.742C514.673 299.555 515.191 299.462 515.784 299.462C516.363 299.462 516.878 299.553 517.331 299.735C517.784 299.917 518.15 300.176 518.43 300.512C518.71 300.843 518.878 301.233 518.934 301.681L517.436 301.954C517.385 301.59 517.214 301.303 516.925 301.093C516.636 300.883 516.26 300.769 515.798 300.75C515.355 300.731 514.995 300.806 514.72 300.974C514.445 301.137 514.307 301.364 514.307 301.653C514.307 301.821 514.358 301.963 514.461 302.08C514.568 302.197 514.774 302.309 515.077 302.416C515.38 302.523 515.828 302.652 516.421 302.801C517.056 302.964 517.56 303.146 517.933 303.347C518.306 303.543 518.572 303.779 518.731 304.054C518.894 304.325 518.976 304.654 518.976 305.041C518.976 305.788 518.703 306.373 518.157 306.798C517.616 307.223 516.867 307.435 515.91 307.435Z" fill="white" fill-opacity="0.7"/>
<path d="M560 300.227C560 298.017 561.791 296.227 564 296.227H576C578.209 296.227 580 298.017 580 300.227V304.193C580 306.402 578.209 308.193 576 308.193H564C561.791 308.193 560 306.402 560 304.193V300.227Z" fill="#64CDFE"/>
<path d="M588.98 307.232V297.152H593.054C593.152 297.152 593.273 297.157 593.418 297.166C593.563 297.171 593.7 297.185 593.831 297.208C594.391 297.297 594.858 297.488 595.231 297.782C595.609 298.076 595.891 298.447 596.078 298.895C596.265 299.343 596.358 299.838 596.358 300.379C596.358 300.925 596.265 301.422 596.078 301.87C595.891 302.318 595.609 302.689 595.231 302.983C594.858 303.277 594.391 303.468 593.831 303.557C593.7 303.576 593.56 303.59 593.411 303.599C593.266 303.608 593.147 303.613 593.054 303.613H590.443V307.232H588.98ZM590.443 302.227H592.998C593.091 302.227 593.194 302.222 593.306 302.213C593.423 302.204 593.532 302.187 593.635 302.164C593.934 302.094 594.174 301.966 594.356 301.779C594.538 301.588 594.669 301.368 594.748 301.121C594.827 300.874 594.867 300.626 594.867 300.379C594.867 300.132 594.827 299.887 594.748 299.644C594.669 299.397 594.538 299.18 594.356 298.993C594.174 298.802 593.934 298.671 593.635 298.601C593.532 298.573 593.423 298.554 593.306 298.545C593.194 298.536 593.091 298.531 592.998 298.531H590.443V302.227ZM597.757 307.232V299.672H599.059V301.506L598.877 301.268C598.971 301.025 599.092 300.804 599.241 300.603C599.391 300.398 599.563 300.23 599.759 300.099C599.951 299.959 600.163 299.852 600.396 299.777C600.634 299.698 600.877 299.651 601.124 299.637C601.372 299.618 601.61 299.63 601.838 299.672V301.044C601.591 300.979 601.316 300.96 601.012 300.988C600.714 301.016 600.438 301.112 600.186 301.275C599.948 301.429 599.759 301.616 599.619 301.835C599.484 302.054 599.386 302.299 599.325 302.57C599.265 302.836 599.234 303.118 599.234 303.417V307.232H597.757ZM606.318 307.442C605.562 307.442 604.906 307.272 604.351 306.931C603.795 306.59 603.366 306.121 603.063 305.524C602.764 304.922 602.615 304.229 602.615 303.445C602.615 302.656 602.769 301.963 603.077 301.366C603.385 300.764 603.816 300.297 604.372 299.966C604.927 299.63 605.576 299.462 606.318 299.462C607.074 299.462 607.729 299.632 608.285 299.973C608.84 300.314 609.269 300.783 609.573 301.38C609.876 301.977 610.028 302.666 610.028 303.445C610.028 304.234 609.874 304.929 609.566 305.531C609.262 306.128 608.833 306.597 608.278 306.938C607.722 307.274 607.069 307.442 606.318 307.442ZM606.318 306.063C607.041 306.063 607.58 305.82 607.935 305.335C608.294 304.845 608.474 304.215 608.474 303.445C608.474 302.656 608.292 302.026 607.928 301.555C607.568 301.079 607.032 300.841 606.318 300.841C605.828 300.841 605.424 300.953 605.107 301.177C604.789 301.396 604.554 301.702 604.4 302.094C604.246 302.481 604.169 302.932 604.169 303.445C604.169 304.238 604.351 304.873 604.715 305.349C605.079 305.825 605.613 306.063 606.318 306.063ZM612.259 307.232V299.406C612.259 299.215 612.266 299.012 612.28 298.797C612.294 298.578 612.334 298.363 612.399 298.153C612.469 297.938 612.583 297.742 612.742 297.565C612.933 297.355 613.143 297.206 613.372 297.117C613.601 297.028 613.827 296.977 614.051 296.963C614.28 296.949 614.49 296.942 614.681 296.942H615.633V298.146H614.751C614.406 298.146 614.147 298.232 613.974 298.405C613.806 298.573 613.722 298.813 613.722 299.126V307.232H612.259ZM611.006 300.848V299.672H615.633V300.848H611.006ZM617.103 298.433V297.012H618.566V298.433H617.103ZM617.103 307.232V299.672H618.566V307.232H617.103ZM624.997 307.232C624.521 307.325 624.055 307.365 623.597 307.351C623.14 307.337 622.732 307.248 622.372 307.085C622.013 306.922 621.742 306.665 621.56 306.315C621.397 306.002 621.308 305.685 621.294 305.363C621.285 305.036 621.28 304.668 621.28 304.257V297.572H622.75V304.187C622.75 304.49 622.753 304.754 622.757 304.978C622.767 305.202 622.816 305.391 622.904 305.545C623.072 305.834 623.338 306 623.702 306.042C624.071 306.079 624.503 306.063 624.997 305.993V307.232ZM619.831 300.848V299.672H624.997V300.848H619.831Z" fill="white" fill-opacity="0.7"/>
<path d="M210 46.9214C210 44.7122 211.791 42.9214 214 42.9214H246C248.209 42.9214 250 44.7122 250 46.9214V281.805H210V46.9214Z" fill="#006897"/>
<path d="M258 145.471C258 143.262 259.791 141.471 262 141.471H294C296.209 141.471 298 143.262 298 145.471V281.016H258V145.471Z" fill="#64CDFE"/>
<path d="M498 111.57C498 109.36 499.791 107.57 502 107.57H534C536.209 107.57 538 109.36 538 111.57V281.804H498V111.57Z" fill="#006897"/>
<path d="M546 187.255C546 185.046 547.791 183.255 550 183.255H582C584.209 183.255 586 185.046 586 187.255V281.016H546V187.255Z" fill="#64CDFE"/>
<path d="M642 206.177C642 203.968 643.791 202.177 646 202.177H678C680.209 202.177 682 203.968 682 206.177V281.016H642V206.177Z" fill="#006897"/>
<path d="M690 262.941C690 260.732 691.791 258.941 694 258.941H726C728.209 258.941 730 260.732 730 262.941V280.228H690V262.941Z" fill="#64CDFE"/>
<path d="M215.112 38.393V36.755H216.575V38.393H215.112ZM215.112 27.172V25.527H216.575V27.172H215.112ZM215.917 37.21C215.217 37.21 214.592 37.084 214.041 36.832C213.491 36.58 213.038 36.223 212.683 35.761C212.333 35.2943 212.105 34.7437 211.997 34.109L213.446 33.878C213.586 34.4753 213.885 34.9513 214.342 35.306C214.8 35.656 215.348 35.831 215.987 35.831C216.622 35.831 217.138 35.6793 217.534 35.376C217.936 35.0727 218.136 34.6853 218.136 34.214C218.136 33.878 218.034 33.605 217.828 33.395C217.628 33.185 217.299 33.0077 216.841 32.863L214.475 32.135C213.075 31.701 212.375 30.861 212.375 29.615C212.375 29.027 212.515 28.516 212.795 28.082C213.08 27.648 213.479 27.312 213.992 27.074C214.506 26.836 215.105 26.717 215.791 26.717C216.449 26.7263 217.033 26.8477 217.541 27.081C218.055 27.3143 218.479 27.6503 218.815 28.089C219.156 28.5277 219.392 29.055 219.522 29.671L218.031 29.937C217.966 29.5777 217.828 29.2603 217.618 28.985C217.413 28.7097 217.152 28.495 216.834 28.341C216.522 28.187 216.169 28.1077 215.777 28.103C215.409 28.0937 215.077 28.152 214.783 28.278C214.494 28.3993 214.263 28.572 214.09 28.796C213.922 29.0153 213.838 29.265 213.838 29.545C213.838 29.853 213.957 30.1143 214.195 30.329C214.433 30.5437 214.809 30.728 215.322 30.882L217.177 31.421C218.027 31.673 218.64 32.0113 219.018 32.436C219.396 32.8607 219.585 33.4253 219.585 34.13C219.585 34.746 219.431 35.285 219.123 35.747C218.82 36.2043 218.393 36.5637 217.842 36.825C217.292 37.0817 216.65 37.21 215.917 37.21ZM222.837 37V28.53L220.94 29.685V28.054L222.837 26.92H224.328V37H222.837ZM229.975 37.21C229.457 37.21 228.974 37.105 228.526 36.895C228.083 36.6803 227.702 36.3863 227.385 36.013C227.068 35.635 226.841 35.201 226.706 34.711L228.113 34.333C228.192 34.6317 228.328 34.8907 228.519 35.11C228.715 35.3293 228.944 35.4997 229.205 35.621C229.466 35.7377 229.737 35.796 230.017 35.796C230.386 35.796 230.719 35.7073 231.018 35.53C231.321 35.3527 231.559 35.1147 231.732 34.816C231.909 34.5173 231.998 34.1883 231.998 33.829C231.998 33.4603 231.907 33.1267 231.725 32.828C231.548 32.5293 231.307 32.2937 231.004 32.121C230.705 31.9437 230.376 31.855 230.017 31.855C229.606 31.855 229.259 31.9367 228.974 32.1C228.689 32.2633 228.468 32.4523 228.309 32.667L227.035 32.219L227.343 26.92H232.782V28.299H228.092L228.687 27.746L228.442 31.715L228.155 31.344C228.421 31.078 228.738 30.875 229.107 30.735C229.476 30.595 229.842 30.525 230.206 30.525C230.831 30.525 231.389 30.6697 231.879 30.959C232.374 31.2483 232.763 31.6427 233.048 32.142C233.333 32.6367 233.475 33.199 233.475 33.829C233.475 34.4543 233.314 35.0237 232.992 35.537C232.67 36.0457 232.243 36.4517 231.711 36.755C231.179 37.0583 230.6 37.21 229.975 37.21ZM244.206 37L244.213 32.289C244.213 31.743 244.073 31.3183 243.793 31.015C243.513 30.707 243.144 30.553 242.687 30.553C242.407 30.553 242.15 30.6183 241.917 30.749C241.688 30.875 241.502 31.0663 241.357 31.323C241.217 31.575 241.147 31.8923 241.147 32.275L240.44 31.918C240.431 31.386 240.543 30.9193 240.776 30.518C241.014 30.1167 241.336 29.8063 241.742 29.587C242.148 29.363 242.603 29.251 243.107 29.251C243.924 29.251 244.556 29.496 245.004 29.986C245.452 30.476 245.676 31.127 245.676 31.939L245.669 37H244.206ZM235.141 37V29.44H236.443V31.624H236.611V37H235.141ZM239.677 37L239.684 32.317C239.684 31.7663 239.544 31.3347 239.264 31.022C238.989 30.7093 238.618 30.553 238.151 30.553C237.689 30.553 237.316 30.7117 237.031 31.029C236.751 31.3463 236.611 31.7617 236.611 32.275L235.911 31.827C235.911 31.3323 236.03 30.8913 236.268 30.504C236.506 30.1167 236.828 29.811 237.234 29.587C237.64 29.363 238.1 29.251 238.613 29.251C239.15 29.251 239.607 29.3653 239.985 29.594C240.363 29.818 240.65 30.133 240.846 30.539C241.047 30.945 241.147 31.4163 241.147 31.953L241.14 37H239.677Z" fill="white"/>
<path d="M263.799 136.942V135.304H265.262V136.942H263.799ZM263.799 125.721V124.076H265.262V125.721H263.799ZM264.604 135.759C263.904 135.759 263.279 135.633 262.728 135.381C262.177 135.129 261.725 134.772 261.37 134.31C261.02 133.843 260.791 133.293 260.684 132.658L262.133 132.427C262.273 133.024 262.572 133.5 263.029 133.855C263.486 134.205 264.035 134.38 264.674 134.38C265.309 134.38 265.824 134.228 266.221 133.925C266.622 133.622 266.823 133.234 266.823 132.763C266.823 132.427 266.72 132.154 266.515 131.944C266.314 131.734 265.985 131.557 265.528 131.412L263.162 130.684C261.762 130.25 261.062 129.41 261.062 128.164C261.062 127.576 261.202 127.065 261.482 126.631C261.767 126.197 262.166 125.861 262.679 125.623C263.192 125.385 263.792 125.266 264.478 125.266C265.136 125.275 265.719 125.397 266.228 125.63C266.741 125.863 267.166 126.199 267.502 126.638C267.843 127.077 268.078 127.604 268.209 128.22L266.718 128.486C266.653 128.127 266.515 127.809 266.305 127.534C266.1 127.259 265.838 127.044 265.521 126.89C265.208 126.736 264.856 126.657 264.464 126.652C264.095 126.643 263.764 126.701 263.47 126.827C263.181 126.948 262.95 127.121 262.777 127.345C262.609 127.564 262.525 127.814 262.525 128.094C262.525 128.402 262.644 128.663 262.882 128.878C263.12 129.093 263.496 129.277 264.009 129.431L265.864 129.97C266.713 130.222 267.327 130.56 267.705 130.985C268.083 131.41 268.272 131.974 268.272 132.679C268.272 133.295 268.118 133.834 267.81 134.296C267.507 134.753 267.08 135.113 266.529 135.374C265.978 135.631 265.337 135.759 264.604 135.759ZM273.042 125.266C273.691 125.266 274.276 125.422 274.799 125.735C275.322 126.043 275.737 126.468 276.045 127.009C276.353 127.55 276.507 128.169 276.507 128.864V132.07C276.507 132.807 276.353 133.454 276.045 134.009C275.742 134.56 275.317 134.989 274.771 135.297C274.23 135.605 273.604 135.759 272.895 135.759C272.363 135.759 271.864 135.659 271.397 135.458C270.93 135.257 270.524 134.959 270.179 134.562L271.257 133.561C271.448 133.808 271.689 134.007 271.978 134.156C272.267 134.305 272.573 134.38 272.895 134.38C273.31 134.38 273.677 134.28 273.994 134.079C274.316 133.878 274.566 133.617 274.743 133.295C274.92 132.973 275.009 132.628 275.009 132.259V130.411L275.303 130.733C275.014 131.111 274.654 131.41 274.225 131.629C273.796 131.848 273.336 131.958 272.846 131.958C272.216 131.958 271.656 131.813 271.166 131.524C270.676 131.235 270.289 130.84 270.004 130.341C269.719 129.842 269.577 129.277 269.577 128.647C269.577 128.017 269.736 127.448 270.053 126.939C270.37 126.43 270.79 126.024 271.313 125.721C271.836 125.418 272.412 125.266 273.042 125.266ZM273.042 126.68C272.678 126.68 272.344 126.769 272.041 126.946C271.742 127.119 271.504 127.354 271.327 127.653C271.15 127.952 271.061 128.283 271.061 128.647C271.061 129.011 271.15 129.345 271.327 129.648C271.504 129.947 271.742 130.185 272.041 130.362C272.34 130.539 272.671 130.628 273.035 130.628C273.399 130.628 273.73 130.539 274.029 130.362C274.328 130.185 274.566 129.947 274.743 129.648C274.92 129.345 275.009 129.011 275.009 128.647C275.009 128.288 274.92 127.959 274.743 127.66C274.57 127.361 274.335 127.123 274.036 126.946C273.737 126.769 273.406 126.68 273.042 126.68ZM287.519 135.549L287.526 130.838C287.526 130.292 287.386 129.867 287.106 129.564C286.826 129.256 286.458 129.102 286 129.102C285.72 129.102 285.464 129.167 285.23 129.298C285.002 129.424 284.815 129.615 284.67 129.872C284.53 130.124 284.46 130.441 284.46 130.824L283.753 130.467C283.744 129.935 283.856 129.468 284.089 129.067C284.327 128.666 284.649 128.355 285.055 128.136C285.461 127.912 285.916 127.8 286.42 127.8C287.237 127.8 287.869 128.045 288.317 128.535C288.765 129.025 288.989 129.676 288.989 130.488L288.982 135.549H287.519ZM278.454 135.549V127.989H279.756V130.173H279.924V135.549H278.454ZM282.99 135.549L282.997 130.866C282.997 130.315 282.857 129.884 282.577 129.571C282.302 129.258 281.931 129.102 281.464 129.102C281.002 129.102 280.629 129.261 280.344 129.578C280.064 129.895 279.924 130.311 279.924 130.824L279.224 130.376C279.224 129.881 279.343 129.44 279.581 129.053C279.819 128.666 280.141 128.36 280.547 128.136C280.953 127.912 281.413 127.8 281.926 127.8C282.463 127.8 282.92 127.914 283.298 128.143C283.676 128.367 283.963 128.682 284.159 129.088C284.36 129.494 284.46 129.965 284.46 130.502L284.453 135.549H282.99Z" fill="white"/>
<path d="M930 46.9214C930 44.7122 931.791 42.9214 934 42.9214H966C968.209 42.9214 970 44.7122 970 46.9214V281.805H930V46.9214Z" fill="#006897"/>
<path d="M978 145.471C978 143.262 979.791 141.471 982 141.471H1014C1016.21 141.471 1018 143.262 1018 145.471V281.016H978V145.471Z" fill="#64CDFE"/>
<path d="M935.112 38.393V36.755H936.575V38.393H935.112ZM935.112 27.172V25.527H936.575V27.172H935.112ZM935.917 37.21C935.217 37.21 934.592 37.084 934.041 36.832C933.491 36.58 933.038 36.223 932.683 35.761C932.333 35.2943 932.105 34.7437 931.997 34.109L933.446 33.878C933.586 34.4753 933.885 34.9513 934.342 35.306C934.8 35.656 935.348 35.831 935.987 35.831C936.622 35.831 937.138 35.6793 937.534 35.376C937.936 35.0727 938.136 34.6853 938.136 34.214C938.136 33.878 938.034 33.605 937.828 33.395C937.628 33.185 937.299 33.0077 936.841 32.863L934.475 32.135C933.075 31.701 932.375 30.861 932.375 29.615C932.375 29.027 932.515 28.516 932.795 28.082C933.08 27.648 933.479 27.312 933.992 27.074C934.506 26.836 935.105 26.717 935.791 26.717C936.449 26.7263 937.033 26.8477 937.541 27.081C938.055 27.3143 938.479 27.6503 938.815 28.089C939.156 28.5277 939.392 29.055 939.522 29.671L938.031 29.937C937.966 29.5777 937.828 29.2603 937.618 28.985C937.413 28.7097 937.152 28.495 936.834 28.341C936.522 28.187 936.169 28.1077 935.777 28.103C935.409 28.0937 935.077 28.152 934.783 28.278C934.494 28.3993 934.263 28.572 934.09 28.796C933.922 29.0153 933.838 29.265 933.838 29.545C933.838 29.853 933.957 30.1143 934.195 30.329C934.433 30.5437 934.809 30.728 935.322 30.882L937.177 31.421C938.027 31.673 938.64 32.0113 939.018 32.436C939.396 32.8607 939.585 33.4253 939.585 34.13C939.585 34.746 939.431 35.285 939.123 35.747C938.82 36.2043 938.393 36.5637 937.842 36.825C937.292 37.0817 936.65 37.21 935.917 37.21ZM942.837 37V28.53L940.94 29.685V28.054L942.837 26.92H944.328V37H942.837ZM949.975 37.21C949.457 37.21 948.974 37.105 948.526 36.895C948.083 36.6803 947.702 36.3863 947.385 36.013C947.068 35.635 946.841 35.201 946.706 34.711L948.113 34.333C948.192 34.6317 948.328 34.8907 948.519 35.11C948.715 35.3293 948.944 35.4997 949.205 35.621C949.466 35.7377 949.737 35.796 950.017 35.796C950.386 35.796 950.719 35.7073 951.018 35.53C951.321 35.3527 951.559 35.1147 951.732 34.816C951.909 34.5173 951.998 34.1883 951.998 33.829C951.998 33.4603 951.907 33.1267 951.725 32.828C951.548 32.5293 951.307 32.2937 951.004 32.121C950.705 31.9437 950.376 31.855 950.017 31.855C949.606 31.855 949.259 31.9367 948.974 32.1C948.689 32.2633 948.468 32.4523 948.309 32.667L947.035 32.219L947.343 26.92H952.782V28.299H948.092L948.687 27.746L948.442 31.715L948.155 31.344C948.421 31.078 948.738 30.875 949.107 30.735C949.476 30.595 949.842 30.525 950.206 30.525C950.831 30.525 951.389 30.6697 951.879 30.959C952.374 31.2483 952.763 31.6427 953.048 32.142C953.333 32.6367 953.475 33.199 953.475 33.829C953.475 34.4543 953.314 35.0237 952.992 35.537C952.67 36.0457 952.243 36.4517 951.711 36.755C951.179 37.0583 950.6 37.21 949.975 37.21ZM964.206 37L964.213 32.289C964.213 31.743 964.073 31.3183 963.793 31.015C963.513 30.707 963.144 30.553 962.687 30.553C962.407 30.553 962.15 30.6183 961.917 30.749C961.688 30.875 961.502 31.0663 961.357 31.323C961.217 31.575 961.147 31.8923 961.147 32.275L960.44 31.918C960.431 31.386 960.543 30.9193 960.776 30.518C961.014 30.1167 961.336 29.8063 961.742 29.587C962.148 29.363 962.603 29.251 963.107 29.251C963.924 29.251 964.556 29.496 965.004 29.986C965.452 30.476 965.676 31.127 965.676 31.939L965.669 37H964.206ZM955.141 37V29.44H956.443V31.624H956.611V37H955.141ZM959.677 37L959.684 32.317C959.684 31.7663 959.544 31.3347 959.264 31.022C958.989 30.7093 958.618 30.553 958.151 30.553C957.689 30.553 957.316 30.7117 957.031 31.029C956.751 31.3463 956.611 31.7617 956.611 32.275L955.911 31.827C955.911 31.3323 956.03 30.8913 956.268 30.504C956.506 30.1167 956.828 29.811 957.234 29.587C957.64 29.363 958.1 29.251 958.613 29.251C959.15 29.251 959.607 29.3653 959.985 29.594C960.363 29.818 960.65 30.133 960.846 30.539C961.047 30.945 961.147 31.4163 961.147 31.953L961.14 37H959.677Z" fill="white"/>
<path d="M983.799 136.942V135.304H985.262V136.942H983.799ZM983.799 125.721V124.076H985.262V125.721H983.799ZM984.604 135.759C983.904 135.759 983.279 135.633 982.728 135.381C982.177 135.129 981.725 134.772 981.37 134.31C981.02 133.843 980.791 133.293 980.684 132.658L982.133 132.427C982.273 133.024 982.572 133.5 983.029 133.855C983.486 134.205 984.035 134.38 984.674 134.38C985.309 134.38 985.824 134.228 986.221 133.925C986.622 133.622 986.823 133.234 986.823 132.763C986.823 132.427 986.72 132.154 986.515 131.944C986.314 131.734 985.985 131.557 985.528 131.412L983.162 130.684C981.762 130.25 981.062 129.41 981.062 128.164C981.062 127.576 981.202 127.065 981.482 126.631C981.767 126.197 982.166 125.861 982.679 125.623C983.192 125.385 983.792 125.266 984.478 125.266C985.136 125.275 985.719 125.397 986.228 125.63C986.741 125.863 987.166 126.199 987.502 126.638C987.843 127.077 988.078 127.604 988.209 128.22L986.718 128.486C986.653 128.127 986.515 127.809 986.305 127.534C986.1 127.259 985.838 127.044 985.521 126.89C985.208 126.736 984.856 126.657 984.464 126.652C984.095 126.643 983.764 126.701 983.47 126.827C983.181 126.948 982.95 127.121 982.777 127.345C982.609 127.564 982.525 127.814 982.525 128.094C982.525 128.402 982.644 128.663 982.882 128.878C983.12 129.093 983.496 129.277 984.009 129.431L985.864 129.97C986.713 130.222 987.327 130.56 987.705 130.985C988.083 131.41 988.272 131.974 988.272 132.679C988.272 133.295 988.118 133.834 987.81 134.296C987.507 134.753 987.08 135.113 986.529 135.374C985.978 135.631 985.337 135.759 984.604 135.759ZM993.042 125.266C993.691 125.266 994.276 125.422 994.799 125.735C995.322 126.043 995.737 126.468 996.045 127.009C996.353 127.55 996.507 128.169 996.507 128.864V132.07C996.507 132.807 996.353 133.454 996.045 134.009C995.742 134.56 995.317 134.989 994.771 135.297C994.23 135.605 993.604 135.759 992.895 135.759C992.363 135.759 991.864 135.659 991.397 135.458C990.93 135.257 990.524 134.959 990.179 134.562L991.257 133.561C991.448 133.808 991.689 134.007 991.978 134.156C992.267 134.305 992.573 134.38 992.895 134.38C993.31 134.38 993.677 134.28 993.994 134.079C994.316 133.878 994.566 133.617 994.743 133.295C994.92 132.973 995.009 132.628 995.009 132.259V130.411L995.303 130.733C995.014 131.111 994.654 131.41 994.225 131.629C993.796 131.848 993.336 131.958 992.846 131.958C992.216 131.958 991.656 131.813 991.166 131.524C990.676 131.235 990.289 130.84 990.004 130.341C989.719 129.842 989.577 129.277 989.577 128.647C989.577 128.017 989.736 127.448 990.053 126.939C990.37 126.43 990.79 126.024 991.313 125.721C991.836 125.418 992.412 125.266 993.042 125.266ZM993.042 126.68C992.678 126.68 992.344 126.769 992.041 126.946C991.742 127.119 991.504 127.354 991.327 127.653C991.15 127.952 991.061 128.283 991.061 128.647C991.061 129.011 991.15 129.345 991.327 129.648C991.504 129.947 991.742 130.185 992.041 130.362C992.34 130.539 992.671 130.628 993.035 130.628C993.399 130.628 993.73 130.539 994.029 130.362C994.328 130.185 994.566 129.947 994.743 129.648C994.92 129.345 995.009 129.011 995.009 128.647C995.009 128.288 994.92 127.959 994.743 127.66C994.57 127.361 994.335 127.123 994.036 126.946C993.737 126.769 993.406 126.68 993.042 126.68ZM1007.52 135.549L1007.53 130.838C1007.53 130.292 1007.39 129.867 1007.11 129.564C1006.83 129.256 1006.46 129.102 1006 129.102C1005.72 129.102 1005.46 129.167 1005.23 129.298C1005 129.424 1004.82 129.615 1004.67 129.872C1004.53 130.124 1004.46 130.441 1004.46 130.824L1003.75 130.467C1003.74 129.935 1003.86 129.468 1004.09 129.067C1004.33 128.666 1004.65 128.355 1005.06 128.136C1005.46 127.912 1005.92 127.8 1006.42 127.8C1007.24 127.8 1007.87 128.045 1008.32 128.535C1008.77 129.025 1008.99 129.676 1008.99 130.488L1008.98 135.549H1007.52ZM998.454 135.549V127.989H999.756V130.173H999.924V135.549H998.454ZM1002.99 135.549L1003 130.866C1003 130.315 1002.86 129.884 1002.58 129.571C1002.3 129.258 1001.93 129.102 1001.46 129.102C1001 129.102 1000.63 129.261 1000.34 129.578C1000.06 129.895 999.924 130.311 999.924 130.824L999.224 130.376C999.224 129.881 999.343 129.44 999.581 129.053C999.819 128.666 1000.14 128.36 1000.55 128.136C1000.95 127.912 1001.41 127.8 1001.93 127.8C1002.46 127.8 1002.92 127.914 1003.3 128.143C1003.68 128.367 1003.96 128.682 1004.16 129.088C1004.36 129.494 1004.46 129.965 1004.46 130.502L1004.45 135.549H1002.99Z" fill="white"/>
<path d="M504.085 99.0993V97.4613H505.548V99.0993H504.085ZM504.085 87.8783V86.2333H505.548V87.8783H504.085ZM504.89 97.9163C504.19 97.9163 503.565 97.7903 503.014 97.5383C502.463 97.2863 502.011 96.9293 501.656 96.4673C501.306 96.0006 501.077 95.45 500.97 94.8153L502.419 94.5843C502.559 95.1816 502.858 95.6576 503.315 96.0123C503.772 96.3623 504.321 96.5373 504.96 96.5373C505.595 96.5373 506.11 96.3856 506.507 96.0823C506.908 95.779 507.109 95.3916 507.109 94.9203C507.109 94.5843 507.006 94.3113 506.801 94.1013C506.6 93.8913 506.271 93.714 505.814 93.5693L503.448 92.8413C502.048 92.4073 501.348 91.5673 501.348 90.3213C501.348 89.7333 501.488 89.2223 501.768 88.7883C502.053 88.3543 502.452 88.0183 502.965 87.7803C503.478 87.5423 504.078 87.4233 504.764 87.4233C505.422 87.4326 506.005 87.554 506.514 87.7873C507.027 88.0206 507.452 88.3566 507.788 88.7953C508.129 89.234 508.364 89.7613 508.495 90.3773L507.004 90.6433C506.939 90.284 506.801 89.9666 506.591 89.6913C506.386 89.416 506.124 89.2013 505.807 89.0473C505.494 88.8933 505.142 88.814 504.75 88.8093C504.381 88.8 504.05 88.8583 503.756 88.9843C503.467 89.1056 503.236 89.2783 503.063 89.5023C502.895 89.7216 502.811 89.9713 502.811 90.2513C502.811 90.5593 502.93 90.8206 503.168 91.0353C503.406 91.25 503.782 91.4343 504.295 91.5883L506.15 92.1273C506.999 92.3793 507.613 92.7176 507.991 93.1423C508.369 93.567 508.558 94.1316 508.558 94.8363C508.558 95.4523 508.404 95.9913 508.096 96.4533C507.793 96.9106 507.366 97.27 506.815 97.5313C506.264 97.788 505.623 97.9163 504.89 97.9163ZM511.809 97.7063V89.2363L509.912 90.3913V88.7603L511.809 87.6263H513.3V97.7063H511.809ZM515.679 97.6993L515.686 96.3973L520.075 92.4633C520.429 92.1506 520.67 91.852 520.796 91.5673C520.926 91.2826 520.992 90.998 520.992 90.7133C520.992 90.354 520.912 90.032 520.754 89.7473C520.595 89.458 520.376 89.2293 520.096 89.0613C519.816 88.8933 519.494 88.8093 519.13 88.8093C518.756 88.8093 518.423 88.898 518.129 89.0753C517.839 89.248 517.613 89.479 517.45 89.7683C517.286 90.0576 517.207 90.3703 517.212 90.7063H515.714C515.714 90.053 515.861 89.4813 516.155 88.9913C516.453 88.4966 516.862 88.1116 517.38 87.8363C517.898 87.5563 518.49 87.4163 519.158 87.4163C519.792 87.4163 520.362 87.561 520.866 87.8503C521.37 88.135 521.766 88.527 522.056 89.0263C522.35 89.5256 522.497 90.095 522.497 90.7343C522.497 91.1963 522.436 91.5883 522.315 91.9103C522.193 92.2323 522.011 92.531 521.769 92.8063C521.526 93.0816 521.223 93.3803 520.859 93.7023L517.471 96.7263L517.31 96.3063H522.497V97.6993H515.679ZM533.233 97.7063L533.24 92.9953C533.24 92.4493 533.1 92.0246 532.82 91.7213C532.54 91.4133 532.172 91.2593 531.714 91.2593C531.434 91.2593 531.178 91.3246 530.944 91.4553C530.716 91.5813 530.529 91.7726 530.384 92.0293C530.244 92.2813 530.174 92.5986 530.174 92.9813L529.467 92.6243C529.458 92.0923 529.57 91.6256 529.803 91.2243C530.041 90.823 530.363 90.5126 530.769 90.2933C531.175 90.0693 531.63 89.9573 532.134 89.9573C532.951 89.9573 533.583 90.2023 534.031 90.6923C534.479 91.1823 534.703 91.8333 534.703 92.6453L534.696 97.7063H533.233ZM524.168 97.7063V90.1463H525.47V92.3303H525.638V97.7063H524.168ZM528.704 97.7063L528.711 93.0233C528.711 92.4726 528.571 92.041 528.291 91.7283C528.016 91.4156 527.645 91.2593 527.178 91.2593C526.716 91.2593 526.343 91.418 526.058 91.7353C525.778 92.0526 525.638 92.468 525.638 92.9813L524.938 92.5333C524.938 92.0386 525.057 91.5976 525.295 91.2103C525.533 90.823 525.855 90.5173 526.261 90.2933C526.667 90.0693 527.127 89.9573 527.64 89.9573C528.177 89.9573 528.634 90.0716 529.012 90.3003C529.39 90.5243 529.677 90.8393 529.873 91.2453C530.074 91.6513 530.174 92.1226 530.174 92.6593L530.167 97.7063H528.704Z" fill="white"/>
<path d="M555.065 173.208V171.57H556.528V173.208H555.065ZM555.065 161.987V160.342H556.528V161.987H555.065ZM555.87 172.025C555.17 172.025 554.545 171.899 553.994 171.647C553.444 171.395 552.991 171.038 552.636 170.576C552.286 170.11 552.058 169.559 551.95 168.924L553.399 168.693C553.539 169.291 553.838 169.767 554.295 170.121C554.753 170.471 555.301 170.646 555.94 170.646C556.575 170.646 557.091 170.495 557.487 170.191C557.889 169.888 558.089 169.501 558.089 169.029C558.089 168.693 557.987 168.42 557.781 168.21C557.581 168 557.252 167.823 556.794 167.678L554.428 166.95C553.028 166.516 552.328 165.676 552.328 164.43C552.328 163.842 552.468 163.331 552.748 162.897C553.033 162.463 553.432 162.127 553.945 161.889C554.459 161.651 555.058 161.532 555.744 161.532C556.402 161.542 556.986 161.663 557.494 161.896C558.008 162.13 558.432 162.466 558.768 162.904C559.109 163.343 559.345 163.87 559.475 164.486L557.984 164.752C557.919 164.393 557.781 164.076 557.571 163.8C557.366 163.525 557.105 163.31 556.787 163.156C556.475 163.002 556.122 162.923 555.73 162.918C555.362 162.909 555.03 162.967 554.736 163.093C554.447 163.215 554.216 163.387 554.043 163.611C553.875 163.831 553.791 164.08 553.791 164.36C553.791 164.668 553.91 164.93 554.148 165.144C554.386 165.359 554.762 165.543 555.275 165.697L557.13 166.236C557.98 166.488 558.593 166.827 558.971 167.251C559.349 167.676 559.538 168.241 559.538 168.945C559.538 169.561 559.384 170.1 559.076 170.562C558.773 171.02 558.346 171.379 557.795 171.64C557.245 171.897 556.603 172.025 555.87 172.025ZM564.022 172.025C563.504 172.025 563.021 171.92 562.573 171.71C562.129 171.496 561.749 171.202 561.432 170.828C561.114 170.45 560.888 170.016 560.753 169.526L562.16 169.148C562.239 169.447 562.374 169.706 562.566 169.925C562.762 170.145 562.99 170.315 563.252 170.436C563.513 170.553 563.784 170.611 564.064 170.611C564.432 170.611 564.766 170.523 565.065 170.345C565.368 170.168 565.606 169.93 565.779 169.631C565.956 169.333 566.045 169.004 566.045 168.644C566.045 168.276 565.954 167.942 565.772 167.643C565.594 167.345 565.354 167.109 565.051 166.936C564.752 166.759 564.423 166.67 564.064 166.67C563.653 166.67 563.305 166.752 563.021 166.915C562.736 167.079 562.514 167.268 562.356 167.482L561.082 167.034L561.39 161.735H566.829V163.114H562.139L562.734 162.561L562.489 166.53L562.202 166.159C562.468 165.893 562.785 165.69 563.154 165.55C563.522 165.41 563.889 165.34 564.253 165.34C564.878 165.34 565.436 165.485 565.926 165.774C566.42 166.064 566.81 166.458 567.095 166.957C567.379 167.452 567.522 168.014 567.522 168.644C567.522 169.27 567.361 169.839 567.039 170.352C566.717 170.861 566.29 171.267 565.758 171.57C565.226 171.874 564.647 172.025 564.022 172.025ZM578.253 171.815L578.26 167.104C578.26 166.558 578.12 166.134 577.84 165.83C577.56 165.522 577.191 165.368 576.734 165.368C576.454 165.368 576.197 165.434 575.964 165.564C575.735 165.69 575.549 165.882 575.404 166.138C575.264 166.39 575.194 166.708 575.194 167.09L574.487 166.733C574.478 166.201 574.59 165.735 574.823 165.333C575.061 164.932 575.383 164.622 575.789 164.402C576.195 164.178 576.65 164.066 577.154 164.066C577.971 164.066 578.603 164.311 579.051 164.801C579.499 165.291 579.723 165.942 579.723 166.754L579.716 171.815H578.253ZM569.188 171.815V164.255H570.49V166.439H570.658V171.815H569.188ZM573.724 171.815L573.731 167.132C573.731 166.582 573.591 166.15 573.311 165.837C573.036 165.525 572.665 165.368 572.198 165.368C571.736 165.368 571.363 165.527 571.078 165.844C570.798 166.162 570.658 166.577 570.658 167.09L569.958 166.642C569.958 166.148 570.077 165.707 570.315 165.319C570.553 164.932 570.875 164.626 571.281 164.402C571.687 164.178 572.147 164.066 572.66 164.066C573.197 164.066 573.654 164.181 574.032 164.409C574.41 164.633 574.697 164.948 574.893 165.354C575.094 165.76 575.194 166.232 575.194 166.768L575.187 171.815H573.724Z" fill="white"/>
<path d="M354 111.57C354 109.36 355.791 107.57 358 107.57H390C392.209 107.57 394 109.36 394 111.57V281.804H354V111.57Z" fill="#006897"/>
<path d="M402 187.255C402 185.046 403.791 183.255 406 183.255H438C440.209 183.255 442 185.046 442 187.255V281.016H402V187.255Z" fill="#64CDFE"/>
<path d="M360.085 99.0993V97.4613H361.548V99.0993H360.085ZM360.085 87.8783V86.2333H361.548V87.8783H360.085ZM360.89 97.9163C360.19 97.9163 359.565 97.7903 359.014 97.5383C358.463 97.2863 358.011 96.9293 357.656 96.4673C357.306 96.0006 357.077 95.45 356.97 94.8153L358.419 94.5843C358.559 95.1816 358.858 95.6576 359.315 96.0123C359.772 96.3623 360.321 96.5373 360.96 96.5373C361.595 96.5373 362.11 96.3856 362.507 96.0823C362.908 95.779 363.109 95.3916 363.109 94.9203C363.109 94.5843 363.006 94.3113 362.801 94.1013C362.6 93.8913 362.271 93.714 361.814 93.5693L359.448 92.8413C358.048 92.4073 357.348 91.5673 357.348 90.3213C357.348 89.7333 357.488 89.2223 357.768 88.7883C358.053 88.3543 358.452 88.0183 358.965 87.7803C359.478 87.5423 360.078 87.4233 360.764 87.4233C361.422 87.4326 362.005 87.554 362.514 87.7873C363.027 88.0206 363.452 88.3566 363.788 88.7953C364.129 89.234 364.364 89.7613 364.495 90.3773L363.004 90.6433C362.939 90.284 362.801 89.9666 362.591 89.6913C362.386 89.416 362.124 89.2013 361.807 89.0473C361.494 88.8933 361.142 88.814 360.75 88.8093C360.381 88.8 360.05 88.8583 359.756 88.9843C359.467 89.1056 359.236 89.2783 359.063 89.5023C358.895 89.7216 358.811 89.9713 358.811 90.2513C358.811 90.5593 358.93 90.8206 359.168 91.0353C359.406 91.25 359.782 91.4343 360.295 91.5883L362.15 92.1273C362.999 92.3793 363.613 92.7176 363.991 93.1423C364.369 93.567 364.558 94.1316 364.558 94.8363C364.558 95.4523 364.404 95.9913 364.096 96.4533C363.793 96.9106 363.366 97.27 362.815 97.5313C362.264 97.788 361.623 97.9163 360.89 97.9163ZM367.809 97.7063V89.2363L365.912 90.3913V88.7603L367.809 87.6263H369.3V97.7063H367.809ZM371.679 97.6993L371.686 96.3973L376.075 92.4633C376.429 92.1506 376.67 91.852 376.796 91.5673C376.926 91.2826 376.992 90.998 376.992 90.7133C376.992 90.354 376.912 90.032 376.754 89.7473C376.595 89.458 376.376 89.2293 376.096 89.0613C375.816 88.8933 375.494 88.8093 375.13 88.8093C374.756 88.8093 374.423 88.898 374.129 89.0753C373.839 89.248 373.613 89.479 373.45 89.7683C373.286 90.0576 373.207 90.3703 373.212 90.7063H371.714C371.714 90.053 371.861 89.4813 372.155 88.9913C372.453 88.4966 372.862 88.1116 373.38 87.8363C373.898 87.5563 374.49 87.4163 375.158 87.4163C375.792 87.4163 376.362 87.561 376.866 87.8503C377.37 88.135 377.766 88.527 378.056 89.0263C378.35 89.5256 378.497 90.095 378.497 90.7343C378.497 91.1963 378.436 91.5883 378.315 91.9103C378.193 92.2323 378.011 92.531 377.769 92.8063C377.526 93.0816 377.223 93.3803 376.859 93.7023L373.471 96.7263L373.31 96.3063H378.497V97.6993H371.679ZM389.233 97.7063L389.24 92.9953C389.24 92.4493 389.1 92.0246 388.82 91.7213C388.54 91.4133 388.172 91.2593 387.714 91.2593C387.434 91.2593 387.178 91.3246 386.944 91.4553C386.716 91.5813 386.529 91.7726 386.384 92.0293C386.244 92.2813 386.174 92.5986 386.174 92.9813L385.467 92.6243C385.458 92.0923 385.57 91.6256 385.803 91.2243C386.041 90.823 386.363 90.5126 386.769 90.2933C387.175 90.0693 387.63 89.9573 388.134 89.9573C388.951 89.9573 389.583 90.2023 390.031 90.6923C390.479 91.1823 390.703 91.8333 390.703 92.6453L390.696 97.7063H389.233ZM380.168 97.7063V90.1463H381.47V92.3303H381.638V97.7063H380.168ZM384.704 97.7063L384.711 93.0233C384.711 92.4726 384.571 92.041 384.291 91.7283C384.016 91.4156 383.645 91.2593 383.178 91.2593C382.716 91.2593 382.343 91.418 382.058 91.7353C381.778 92.0526 381.638 92.468 381.638 92.9813L380.938 92.5333C380.938 92.0386 381.057 91.5976 381.295 91.2103C381.533 90.823 381.855 90.5173 382.261 90.2933C382.667 90.0693 383.127 89.9573 383.64 89.9573C384.177 89.9573 384.634 90.0716 385.012 90.3003C385.39 90.5243 385.677 90.8393 385.873 91.2453C386.074 91.6513 386.174 92.1226 386.174 92.6593L386.167 97.7063H384.704Z" fill="white"/>
<path d="M411.065 173.208V171.57H412.528V173.208H411.065ZM411.065 161.987V160.342H412.528V161.987H411.065ZM411.87 172.025C411.17 172.025 410.545 171.899 409.994 171.647C409.444 171.395 408.991 171.038 408.636 170.576C408.286 170.11 408.058 169.559 407.95 168.924L409.399 168.693C409.539 169.291 409.838 169.767 410.295 170.121C410.753 170.471 411.301 170.646 411.94 170.646C412.575 170.646 413.091 170.495 413.487 170.191C413.889 169.888 414.089 169.501 414.089 169.029C414.089 168.693 413.987 168.42 413.781 168.21C413.581 168 413.252 167.823 412.794 167.678L410.428 166.95C409.028 166.516 408.328 165.676 408.328 164.43C408.328 163.842 408.468 163.331 408.748 162.897C409.033 162.463 409.432 162.127 409.945 161.889C410.459 161.651 411.058 161.532 411.744 161.532C412.402 161.542 412.986 161.663 413.494 161.896C414.008 162.13 414.432 162.466 414.768 162.904C415.109 163.343 415.345 163.87 415.475 164.486L413.984 164.752C413.919 164.393 413.781 164.076 413.571 163.8C413.366 163.525 413.105 163.31 412.787 163.156C412.475 163.002 412.122 162.923 411.73 162.918C411.362 162.909 411.03 162.967 410.736 163.093C410.447 163.215 410.216 163.387 410.043 163.611C409.875 163.831 409.791 164.08 409.791 164.36C409.791 164.668 409.91 164.93 410.148 165.144C410.386 165.359 410.762 165.543 411.275 165.697L413.13 166.236C413.98 166.488 414.593 166.827 414.971 167.251C415.349 167.676 415.538 168.241 415.538 168.945C415.538 169.561 415.384 170.1 415.076 170.562C414.773 171.02 414.346 171.379 413.795 171.64C413.245 171.897 412.603 172.025 411.87 172.025ZM420.022 172.025C419.504 172.025 419.021 171.92 418.573 171.71C418.129 171.496 417.749 171.202 417.432 170.828C417.114 170.45 416.888 170.016 416.753 169.526L418.16 169.148C418.239 169.447 418.374 169.706 418.566 169.925C418.762 170.145 418.99 170.315 419.252 170.436C419.513 170.553 419.784 170.611 420.064 170.611C420.432 170.611 420.766 170.523 421.065 170.345C421.368 170.168 421.606 169.93 421.779 169.631C421.956 169.333 422.045 169.004 422.045 168.644C422.045 168.276 421.954 167.942 421.772 167.643C421.594 167.345 421.354 167.109 421.051 166.936C420.752 166.759 420.423 166.67 420.064 166.67C419.653 166.67 419.305 166.752 419.021 166.915C418.736 167.079 418.514 167.268 418.356 167.482L417.082 167.034L417.39 161.735H422.829V163.114H418.139L418.734 162.561L418.489 166.53L418.202 166.159C418.468 165.893 418.785 165.69 419.154 165.55C419.522 165.41 419.889 165.34 420.253 165.34C420.878 165.34 421.436 165.485 421.926 165.774C422.42 166.064 422.81 166.458 423.095 166.957C423.379 167.452 423.522 168.014 423.522 168.644C423.522 169.27 423.361 169.839 423.039 170.352C422.717 170.861 422.29 171.267 421.758 171.57C421.226 171.874 420.647 172.025 420.022 172.025ZM434.253 171.815L434.26 167.104C434.26 166.558 434.12 166.134 433.84 165.83C433.56 165.522 433.191 165.368 432.734 165.368C432.454 165.368 432.197 165.434 431.964 165.564C431.735 165.69 431.549 165.882 431.404 166.138C431.264 166.39 431.194 166.708 431.194 167.09L430.487 166.733C430.478 166.201 430.59 165.735 430.823 165.333C431.061 164.932 431.383 164.622 431.789 164.402C432.195 164.178 432.65 164.066 433.154 164.066C433.971 164.066 434.603 164.311 435.051 164.801C435.499 165.291 435.723 165.942 435.723 166.754L435.716 171.815H434.253ZM425.188 171.815V164.255H426.49V166.439H426.658V171.815H425.188ZM429.724 171.815L429.731 167.132C429.731 166.582 429.591 166.15 429.311 165.837C429.036 165.525 428.665 165.368 428.198 165.368C427.736 165.368 427.363 165.527 427.078 165.844C426.798 166.162 426.658 166.577 426.658 167.09L425.958 166.642C425.958 166.148 426.077 165.707 426.315 165.319C426.553 164.932 426.875 164.626 427.281 164.402C427.687 164.178 428.147 164.066 428.66 164.066C429.197 164.066 429.654 164.181 430.032 164.409C430.41 164.633 430.697 164.948 430.893 165.354C431.094 165.76 431.194 166.232 431.194 166.768L431.187 171.815H429.724Z" fill="white"/>
<path d="M650.929 197.648V196.01H652.392V197.648H650.929ZM650.929 186.427V184.782H652.392V186.427H650.929ZM651.734 196.465C651.034 196.465 650.408 196.339 649.858 196.087C649.307 195.835 648.854 195.478 648.5 195.016C648.15 194.55 647.921 193.999 647.814 193.364L649.263 193.133C649.403 193.731 649.701 194.207 650.159 194.561C650.616 194.911 651.164 195.086 651.804 195.086C652.438 195.086 652.954 194.935 653.351 194.631C653.752 194.328 653.953 193.941 653.953 193.469C653.953 193.133 653.85 192.86 653.645 192.65C653.444 192.44 653.115 192.263 652.658 192.118L650.292 191.39C648.892 190.956 648.192 190.116 648.192 188.87C648.192 188.282 648.332 187.771 648.612 187.337C648.896 186.903 649.295 186.567 649.809 186.329C650.322 186.091 650.922 185.972 651.608 185.972C652.266 185.982 652.849 186.103 653.358 186.336C653.871 186.57 654.296 186.906 654.632 187.344C654.972 187.783 655.208 188.31 655.339 188.926L653.848 189.192C653.782 188.833 653.645 188.516 653.435 188.24C653.229 187.965 652.968 187.75 652.651 187.596C652.338 187.442 651.986 187.363 651.594 187.358C651.225 187.349 650.894 187.407 650.6 187.533C650.31 187.655 650.079 187.827 649.907 188.051C649.739 188.271 649.655 188.52 649.655 188.8C649.655 189.108 649.774 189.37 650.012 189.584C650.25 189.799 650.625 189.983 651.139 190.137L652.994 190.676C653.843 190.928 654.457 191.267 654.835 191.691C655.213 192.116 655.402 192.681 655.402 193.385C655.402 194.001 655.248 194.54 654.94 195.002C654.636 195.46 654.209 195.819 653.659 196.08C653.108 196.337 652.466 196.465 651.734 196.465ZM661.166 196.255V194.498H656.616V193.112L659.892 186.175H661.565L658.289 193.112H661.166V190.382H662.65V193.112H663.651V194.498H662.65V196.255H661.166ZM674.39 196.255L674.397 191.544C674.397 190.998 674.257 190.574 673.977 190.27C673.697 189.962 673.328 189.808 672.871 189.808C672.591 189.808 672.334 189.874 672.101 190.004C671.872 190.13 671.685 190.322 671.541 190.578C671.401 190.83 671.331 191.148 671.331 191.53L670.624 191.173C670.614 190.641 670.726 190.175 670.96 189.773C671.198 189.372 671.52 189.062 671.926 188.842C672.332 188.618 672.787 188.506 673.291 188.506C674.107 188.506 674.74 188.751 675.188 189.241C675.636 189.731 675.86 190.382 675.86 191.194L675.853 196.255H674.39ZM665.325 196.255V188.695H666.627V190.879H666.795V196.255H665.325ZM669.861 196.255L669.868 191.572C669.868 191.022 669.728 190.59 669.448 190.277C669.172 189.965 668.801 189.808 668.335 189.808C667.873 189.808 667.499 189.967 667.215 190.284C666.935 190.602 666.795 191.017 666.795 191.53L666.095 191.082C666.095 190.588 666.214 190.147 666.452 189.759C666.69 189.372 667.012 189.066 667.418 188.842C667.824 188.618 668.283 188.506 668.797 188.506C669.333 188.506 669.791 188.621 670.169 188.849C670.547 189.073 670.834 189.388 671.03 189.794C671.23 190.2 671.331 190.672 671.331 191.208L671.324 196.255H669.861Z" fill="white"/>
<path d="M701.693 254.413V252.775H703.156V254.413H701.693ZM701.693 243.192V241.547H703.156V243.192H701.693ZM702.498 253.23C701.798 253.23 701.173 253.104 700.622 252.852C700.072 252.6 699.619 252.243 699.264 251.781C698.914 251.314 698.686 250.763 698.578 250.129L700.027 249.898C700.167 250.495 700.466 250.971 700.923 251.326C701.381 251.676 701.929 251.851 702.568 251.851C703.203 251.851 703.719 251.699 704.115 251.396C704.517 251.092 704.717 250.705 704.717 250.234C704.717 249.898 704.615 249.625 704.409 249.415C704.209 249.205 703.88 249.027 703.422 248.883L701.056 248.155C699.656 247.721 698.956 246.881 698.956 245.635C698.956 245.047 699.096 244.536 699.376 244.102C699.661 243.668 700.06 243.332 700.573 243.094C701.087 242.856 701.686 242.737 702.372 242.737C703.03 242.746 703.614 242.867 704.122 243.101C704.636 243.334 705.06 243.67 705.396 244.109C705.737 244.547 705.973 245.075 706.103 245.691L704.612 245.957C704.547 245.597 704.409 245.28 704.199 245.005C703.994 244.729 703.733 244.515 703.415 244.361C703.103 244.207 702.75 244.127 702.358 244.123C701.99 244.113 701.658 244.172 701.364 244.298C701.075 244.419 700.844 244.592 700.671 244.816C700.503 245.035 700.419 245.285 700.419 245.565C700.419 245.873 700.538 246.134 700.776 246.349C701.014 246.563 701.39 246.748 701.903 246.902L703.758 247.441C704.608 247.693 705.221 248.031 705.599 248.456C705.977 248.88 706.166 249.445 706.166 250.15C706.166 250.766 706.012 251.305 705.704 251.767C705.401 252.224 704.974 252.583 704.423 252.845C703.873 253.101 703.231 253.23 702.498 253.23ZM709.418 253.02V244.55L707.521 245.705V244.074L709.418 242.94H710.909V253.02H709.418ZM722.625 253.02L722.632 248.309C722.632 247.763 722.492 247.338 722.212 247.035C721.932 246.727 721.563 246.573 721.106 246.573C720.826 246.573 720.569 246.638 720.336 246.769C720.107 246.895 719.921 247.086 719.776 247.343C719.636 247.595 719.566 247.912 719.566 248.295L718.859 247.938C718.85 247.406 718.962 246.939 719.195 246.538C719.433 246.136 719.755 245.826 720.161 245.607C720.567 245.383 721.022 245.271 721.526 245.271C722.343 245.271 722.975 245.516 723.423 246.006C723.871 246.496 724.095 247.147 724.095 247.959L724.088 253.02H722.625ZM713.56 253.02V245.46H714.862V247.644H715.03V253.02H713.56ZM718.096 253.02L718.103 248.337C718.103 247.786 717.963 247.354 717.683 247.042C717.408 246.729 717.037 246.573 716.57 246.573C716.108 246.573 715.735 246.731 715.45 247.049C715.17 247.366 715.03 247.781 715.03 248.295L714.33 247.847C714.33 247.352 714.449 246.911 714.687 246.524C714.925 246.136 715.247 245.831 715.653 245.607C716.059 245.383 716.519 245.271 717.032 245.271C717.569 245.271 718.026 245.385 718.404 245.614C718.782 245.838 719.069 246.153 719.265 246.559C719.466 246.965 719.566 247.436 719.566 247.973L719.559 253.02H718.096Z" fill="white"/>
<path d="M66 206.177C66 203.968 67.7909 202.177 70 202.177H102C104.209 202.177 106 203.968 106 206.177V281.016H66V206.177Z" fill="#006897"/>
<path d="M114 262.941C114 260.732 115.791 258.941 118 258.941H150C152.209 258.941 154 260.732 154 262.941V280.228H114V262.941Z" fill="#64CDFE"/>
<path d="M74.9287 197.648V196.01H76.3917V197.648H74.9287ZM74.9287 186.427V184.782H76.3917V186.427H74.9287ZM75.7337 196.465C75.0337 196.465 74.4084 196.339 73.8577 196.087C73.3071 195.835 72.8544 195.478 72.4997 195.016C72.1497 194.55 71.9211 193.999 71.8137 193.364L73.2627 193.133C73.4027 193.731 73.7014 194.207 74.1587 194.561C74.6161 194.911 75.1644 195.086 75.8037 195.086C76.4384 195.086 76.9541 194.935 77.3507 194.631C77.7521 194.328 77.9527 193.941 77.9527 193.469C77.9527 193.133 77.8501 192.86 77.6447 192.65C77.4441 192.44 77.1151 192.263 76.6577 192.118L74.2917 191.39C72.8917 190.956 72.1917 190.116 72.1917 188.87C72.1917 188.282 72.3317 187.771 72.6117 187.337C72.8964 186.903 73.2954 186.567 73.8087 186.329C74.3221 186.091 74.9217 185.972 75.6077 185.972C76.2657 185.982 76.8491 186.103 77.3577 186.336C77.8711 186.57 78.2957 186.906 78.6317 187.344C78.9724 187.783 79.2081 188.31 79.3387 188.926L77.8477 189.192C77.7824 188.833 77.6447 188.516 77.4347 188.24C77.2294 187.965 76.9681 187.75 76.6507 187.596C76.3381 187.442 75.9857 187.363 75.5937 187.358C75.2251 187.349 74.8937 187.407 74.5997 187.533C74.3104 187.655 74.0794 187.827 73.9067 188.051C73.7387 188.271 73.6547 188.52 73.6547 188.8C73.6547 189.108 73.7737 189.37 74.0117 189.584C74.2497 189.799 74.6254 189.983 75.1387 190.137L76.9937 190.676C77.8431 190.928 78.4567 191.267 78.8347 191.691C79.2127 192.116 79.4017 192.681 79.4017 193.385C79.4017 194.001 79.2477 194.54 78.9397 195.002C78.6364 195.46 78.2094 195.819 77.6587 196.08C77.1081 196.337 76.4664 196.465 75.7337 196.465ZM85.166 196.255V194.498H80.616V193.112L83.892 186.175H85.565L82.289 193.112H85.166V190.382H86.65V193.112H87.651V194.498H86.65V196.255H85.166ZM98.3896 196.255L98.3966 191.544C98.3966 190.998 98.2566 190.574 97.9766 190.27C97.6966 189.962 97.3279 189.808 96.8706 189.808C96.5906 189.808 96.3339 189.874 96.1006 190.004C95.8719 190.13 95.6852 190.322 95.5406 190.578C95.4006 190.83 95.3306 191.148 95.3306 191.53L94.6236 191.173C94.6142 190.641 94.7262 190.175 94.9596 189.773C95.1976 189.372 95.5196 189.062 95.9256 188.842C96.3316 188.618 96.7866 188.506 97.2906 188.506C98.1072 188.506 98.7396 188.751 99.1876 189.241C99.6356 189.731 99.8596 190.382 99.8596 191.194L99.8526 196.255H98.3896ZM89.3246 196.255V188.695H90.6266V190.879H90.7946V196.255H89.3246ZM93.8606 196.255L93.8676 191.572C93.8676 191.022 93.7276 190.59 93.4476 190.277C93.1722 189.965 92.8012 189.808 92.3346 189.808C91.8726 189.808 91.4992 189.967 91.2146 190.284C90.9346 190.602 90.7946 191.017 90.7946 191.53L90.0946 191.082C90.0946 190.588 90.2136 190.147 90.4516 189.759C90.6896 189.372 91.0116 189.066 91.4176 188.842C91.8236 188.618 92.2832 188.506 92.7966 188.506C93.3332 188.506 93.7906 188.621 94.1686 188.849C94.5466 189.073 94.8336 189.388 95.0296 189.794C95.2302 190.2 95.3306 190.672 95.3306 191.208L95.3236 196.255H93.8606Z" fill="white"/>
<path d="M125.693 254.413V252.775H127.156V254.413H125.693ZM125.693 243.192V241.547H127.156V243.192H125.693ZM126.498 253.23C125.798 253.23 125.173 253.104 124.622 252.852C124.072 252.6 123.619 252.243 123.264 251.781C122.914 251.314 122.686 250.763 122.578 250.129L124.027 249.898C124.167 250.495 124.466 250.971 124.923 251.326C125.381 251.676 125.929 251.851 126.568 251.851C127.203 251.851 127.719 251.699 128.115 251.396C128.517 251.092 128.717 250.705 128.717 250.234C128.717 249.898 128.615 249.625 128.409 249.415C128.209 249.205 127.88 249.027 127.422 248.883L125.056 248.155C123.656 247.721 122.956 246.881 122.956 245.635C122.956 245.047 123.096 244.536 123.376 244.102C123.661 243.668 124.06 243.332 124.573 243.094C125.087 242.856 125.686 242.737 126.372 242.737C127.03 242.746 127.614 242.867 128.122 243.101C128.636 243.334 129.06 243.67 129.396 244.109C129.737 244.547 129.973 245.075 130.103 245.691L128.612 245.957C128.547 245.597 128.409 245.28 128.199 245.005C127.994 244.729 127.733 244.515 127.415 244.361C127.103 244.207 126.75 244.127 126.358 244.123C125.99 244.113 125.658 244.172 125.364 244.298C125.075 244.419 124.844 244.592 124.671 244.816C124.503 245.035 124.419 245.285 124.419 245.565C124.419 245.873 124.538 246.134 124.776 246.349C125.014 246.563 125.39 246.748 125.903 246.902L127.758 247.441C128.608 247.693 129.221 248.031 129.599 248.456C129.977 248.88 130.166 249.445 130.166 250.15C130.166 250.766 130.012 251.305 129.704 251.767C129.401 252.224 128.974 252.583 128.423 252.845C127.873 253.101 127.231 253.23 126.498 253.23ZM133.418 253.02V244.55L131.521 245.705V244.074L133.418 242.94H134.909V253.02H133.418ZM146.625 253.02L146.632 248.309C146.632 247.763 146.492 247.338 146.212 247.035C145.932 246.727 145.563 246.573 145.106 246.573C144.826 246.573 144.569 246.638 144.336 246.769C144.107 246.895 143.921 247.086 143.776 247.343C143.636 247.595 143.566 247.912 143.566 248.295L142.859 247.938C142.85 247.406 142.962 246.939 143.195 246.538C143.433 246.136 143.755 245.826 144.161 245.607C144.567 245.383 145.022 245.271 145.526 245.271C146.343 245.271 146.975 245.516 147.423 246.006C147.871 246.496 148.095 247.147 148.095 247.959L148.088 253.02H146.625ZM137.56 253.02V245.46H138.862V247.644H139.03V253.02H137.56ZM142.096 253.02L142.103 248.337C142.103 247.786 141.963 247.354 141.683 247.042C141.408 246.729 141.037 246.573 140.57 246.573C140.108 246.573 139.735 246.731 139.45 247.049C139.17 247.366 139.03 247.781 139.03 248.295L138.33 247.847C138.33 247.352 138.449 246.911 138.687 246.524C138.925 246.136 139.247 245.831 139.653 245.607C140.059 245.383 140.519 245.271 141.032 245.271C141.569 245.271 142.026 245.385 142.404 245.614C142.782 245.838 143.069 246.153 143.265 246.559C143.466 246.965 143.566 247.436 143.566 247.973L143.559 253.02H142.096Z" fill="white"/>
<path d="M794.929 170.055V168.417H796.392V170.055H794.929ZM794.929 158.834V157.189H796.392V158.834H794.929ZM795.734 168.872C795.034 168.872 794.408 168.746 793.858 168.494C793.307 168.242 792.854 167.885 792.5 167.423C792.15 166.956 791.921 166.405 791.814 165.771L793.263 165.54C793.403 166.137 793.701 166.613 794.159 166.968C794.616 167.318 795.164 167.493 795.804 167.493C796.438 167.493 796.954 167.341 797.351 167.038C797.752 166.734 797.953 166.347 797.953 165.876C797.953 165.54 797.85 165.267 797.645 165.057C797.444 164.847 797.115 164.669 796.658 164.525L794.292 163.797C792.892 163.363 792.192 162.523 792.192 161.277C792.192 160.689 792.332 160.178 792.612 159.744C792.896 159.31 793.295 158.974 793.809 158.736C794.322 158.498 794.922 158.379 795.608 158.379C796.266 158.388 796.849 158.509 797.358 158.743C797.871 158.976 798.296 159.312 798.632 159.751C798.972 160.189 799.208 160.717 799.339 161.333L797.848 161.599C797.782 161.239 797.645 160.922 797.435 160.647C797.229 160.371 796.968 160.157 796.651 160.003C796.338 159.849 795.986 159.769 795.594 159.765C795.225 159.755 794.894 159.814 794.6 159.94C794.31 160.061 794.079 160.234 793.907 160.458C793.739 160.677 793.655 160.927 793.655 161.207C793.655 161.515 793.774 161.776 794.012 161.991C794.25 162.205 794.625 162.39 795.139 162.544L796.994 163.083C797.843 163.335 798.457 163.673 798.835 164.098C799.213 164.522 799.402 165.087 799.402 165.792C799.402 166.408 799.248 166.947 798.94 167.409C798.636 167.866 798.209 168.225 797.659 168.487C797.108 168.743 796.466 168.872 795.734 168.872ZM805.166 168.662V166.905H800.616V165.519L803.892 158.582H805.565L802.289 165.519H805.166V162.789H806.65V165.519H807.651V166.905H806.65V168.662H805.166ZM818.39 168.662L818.397 163.951C818.397 163.405 818.257 162.98 817.977 162.677C817.697 162.369 817.328 162.215 816.871 162.215C816.591 162.215 816.334 162.28 816.101 162.411C815.872 162.537 815.685 162.728 815.541 162.985C815.401 163.237 815.331 163.554 815.331 163.937L814.624 163.58C814.614 163.048 814.726 162.581 814.96 162.18C815.198 161.778 815.52 161.468 815.926 161.249C816.332 161.025 816.787 160.913 817.291 160.913C818.107 160.913 818.74 161.158 819.188 161.648C819.636 162.138 819.86 162.789 819.86 163.601L819.853 168.662H818.39ZM809.325 168.662V161.102H810.627V163.286H810.795V168.662H809.325ZM813.861 168.662L813.868 163.979C813.868 163.428 813.728 162.996 813.448 162.684C813.172 162.371 812.801 162.215 812.335 162.215C811.873 162.215 811.499 162.373 811.215 162.691C810.935 163.008 810.795 163.423 810.795 163.937L810.095 163.489C810.095 162.994 810.214 162.553 810.452 162.166C810.69 161.778 811.012 161.473 811.418 161.249C811.824 161.025 812.283 160.913 812.797 160.913C813.333 160.913 813.791 161.027 814.169 161.256C814.547 161.48 814.834 161.795 815.03 162.201C815.23 162.607 815.331 163.078 815.331 163.615L815.324 168.662H813.861Z" fill="white"/>
<path d="M844.693 230.761V229.123H846.156V230.761H844.693ZM844.693 219.54V217.895H846.156V219.54H844.693ZM845.498 229.578C844.798 229.578 844.173 229.452 843.622 229.2C843.072 228.948 842.619 228.591 842.264 228.129C841.914 227.662 841.686 227.112 841.578 226.477L843.027 226.246C843.167 226.843 843.466 227.319 843.923 227.674C844.381 228.024 844.929 228.199 845.568 228.199C846.203 228.199 846.719 228.047 847.115 227.744C847.517 227.441 847.717 227.053 847.717 226.582C847.717 226.246 847.615 225.973 847.409 225.763C847.209 225.553 846.88 225.376 846.422 225.231L844.056 224.503C842.656 224.069 841.956 223.229 841.956 221.983C841.956 221.395 842.096 220.884 842.376 220.45C842.661 220.016 843.06 219.68 843.573 219.442C844.087 219.204 844.686 219.085 845.372 219.085C846.03 219.094 846.614 219.216 847.122 219.449C847.636 219.682 848.06 220.018 848.396 220.457C848.737 220.896 848.973 221.423 849.103 222.039L847.612 222.305C847.547 221.946 847.409 221.628 847.199 221.353C846.994 221.078 846.733 220.863 846.415 220.709C846.103 220.555 845.75 220.476 845.358 220.471C844.99 220.462 844.658 220.52 844.364 220.646C844.075 220.767 843.844 220.94 843.671 221.164C843.503 221.383 843.419 221.633 843.419 221.913C843.419 222.221 843.538 222.482 843.776 222.697C844.014 222.912 844.39 223.096 844.903 223.25L846.758 223.789C847.608 224.041 848.221 224.379 848.599 224.804C848.977 225.229 849.166 225.793 849.166 226.498C849.166 227.114 849.012 227.653 848.704 228.115C848.401 228.572 847.974 228.932 847.423 229.193C846.873 229.45 846.231 229.578 845.498 229.578ZM852.418 229.368V220.898L850.521 222.053V220.422L852.418 219.288H853.909V229.368H852.418ZM865.625 229.368L865.632 224.657C865.632 224.111 865.492 223.686 865.212 223.383C864.932 223.075 864.563 222.921 864.106 222.921C863.826 222.921 863.569 222.986 863.336 223.117C863.107 223.243 862.921 223.434 862.776 223.691C862.636 223.943 862.566 224.26 862.566 224.643L861.859 224.286C861.85 223.754 861.962 223.287 862.195 222.886C862.433 222.485 862.755 222.174 863.161 221.955C863.567 221.731 864.022 221.619 864.526 221.619C865.343 221.619 865.975 221.864 866.423 222.354C866.871 222.844 867.095 223.495 867.095 224.307L867.088 229.368H865.625ZM856.56 229.368V221.808H857.862V223.992H858.03V229.368H856.56ZM861.096 229.368L861.103 224.685C861.103 224.134 860.963 223.703 860.683 223.39C860.408 223.077 860.037 222.921 859.57 222.921C859.108 222.921 858.735 223.08 858.45 223.397C858.17 223.714 858.03 224.13 858.03 224.643L857.33 224.195C857.33 223.7 857.449 223.259 857.687 222.872C857.925 222.485 858.247 222.179 858.653 221.955C859.059 221.731 859.519 221.619 860.032 221.619C860.569 221.619 861.026 221.733 861.404 221.962C861.782 222.186 862.069 222.501 862.265 222.907C862.466 223.313 862.566 223.784 862.566 224.321L862.559 229.368H861.096Z" fill="white"/>
<path d="M786 178.583C786 176.374 787.791 174.583 790 174.583H822C824.209 174.583 826 176.374 826 178.583V281.016H786V178.583Z" fill="#006897"/>
<path d="M834 239.29C834 237.08 835.791 235.29 838 235.29H870C872.209 235.29 874 237.08 874 239.29V280.228H834V239.29Z" fill="#64CDFE"/>
<line x1="40" y1="281.304" x2="1042" y2="281.304" stroke="white" stroke-opacity="0.25"/>
<path d="M447.384 344.24C446.541 344.24 445.781 344.093 445.104 343.8C444.432 343.507 443.877 343.088 443.44 342.544C443.008 341.995 442.733 341.344 442.616 340.592L444.616 340.288C444.787 340.971 445.136 341.499 445.664 341.872C446.197 342.245 446.811 342.432 447.504 342.432C447.915 342.432 448.301 342.368 448.664 342.24C449.027 342.112 449.32 341.925 449.544 341.68C449.773 341.435 449.888 341.133 449.888 340.776C449.888 340.616 449.861 340.469 449.808 340.336C449.755 340.197 449.675 340.075 449.568 339.968C449.467 339.861 449.333 339.765 449.168 339.68C449.008 339.589 448.821 339.512 448.608 339.448L445.632 338.568C445.376 338.493 445.099 338.395 444.8 338.272C444.507 338.144 444.227 337.971 443.96 337.752C443.699 337.528 443.483 337.245 443.312 336.904C443.147 336.557 443.064 336.131 443.064 335.624C443.064 334.883 443.251 334.261 443.624 333.76C444.003 333.253 444.509 332.875 445.144 332.624C445.784 332.373 446.493 332.251 447.272 332.256C448.061 332.261 448.765 332.397 449.384 332.664C450.003 332.925 450.52 333.307 450.936 333.808C451.352 334.309 451.645 334.915 451.816 335.624L449.744 335.984C449.659 335.579 449.493 335.235 449.248 334.952C449.008 334.664 448.712 334.445 448.36 334.296C448.013 334.147 447.643 334.067 447.248 334.056C446.864 334.051 446.507 334.109 446.176 334.232C445.851 334.349 445.587 334.52 445.384 334.744C445.187 334.968 445.088 335.229 445.088 335.528C445.088 335.811 445.173 336.043 445.344 336.224C445.515 336.4 445.725 336.541 445.976 336.648C446.232 336.749 446.491 336.835 446.752 336.904L448.816 337.48C449.099 337.555 449.416 337.656 449.768 337.784C450.12 337.912 450.459 338.091 450.784 338.32C451.109 338.549 451.376 338.851 451.584 339.224C451.797 339.597 451.904 340.072 451.904 340.648C451.904 341.245 451.779 341.771 451.528 342.224C451.283 342.672 450.949 343.045 450.528 343.344C450.107 343.643 449.624 343.867 449.08 344.016C448.541 344.165 447.976 344.24 447.384 344.24ZM456.052 344.24C455.428 344.24 454.9 344.123 454.468 343.888C454.036 343.648 453.708 343.331 453.484 342.936C453.265 342.541 453.156 342.107 453.156 341.632C453.156 341.216 453.225 340.843 453.364 340.512C453.502 340.176 453.716 339.888 454.004 339.648C454.292 339.403 454.665 339.203 455.124 339.048C455.47 338.936 455.876 338.835 456.34 338.744C456.809 338.653 457.316 338.571 457.86 338.496C458.409 338.416 458.982 338.331 459.58 338.24L458.892 338.632C458.897 338.035 458.764 337.595 458.492 337.312C458.22 337.029 457.761 336.888 457.116 336.888C456.726 336.888 456.35 336.979 455.988 337.16C455.625 337.341 455.372 337.653 455.228 338.096L453.468 337.544C453.681 336.813 454.086 336.227 454.684 335.784C455.286 335.341 456.097 335.12 457.116 335.12C457.884 335.12 458.558 335.245 459.14 335.496C459.726 335.747 460.161 336.157 460.444 336.728C460.598 337.032 460.692 337.344 460.724 337.664C460.756 337.979 460.772 338.323 460.772 338.696V344H459.084V342.128L459.364 342.432C458.974 343.056 458.518 343.515 457.996 343.808C457.478 344.096 456.83 344.24 456.052 344.24ZM456.436 342.704C456.873 342.704 457.246 342.627 457.556 342.472C457.865 342.317 458.11 342.128 458.292 341.904C458.478 341.68 458.604 341.469 458.668 341.272C458.769 341.027 458.825 340.747 458.836 340.432C458.852 340.112 458.86 339.853 458.86 339.656L459.452 339.832C458.87 339.923 458.372 340.003 457.956 340.072C457.54 340.141 457.182 340.208 456.884 340.272C456.585 340.331 456.321 340.397 456.092 340.472C455.868 340.552 455.678 340.645 455.524 340.752C455.369 340.859 455.249 340.981 455.164 341.12C455.084 341.259 455.044 341.421 455.044 341.608C455.044 341.821 455.097 342.011 455.204 342.176C455.31 342.336 455.465 342.464 455.668 342.56C455.876 342.656 456.132 342.704 456.436 342.704ZM463.014 344V332.24H464.942V344H463.014ZM471.267 344.24C470.392 344.24 469.624 344.051 468.963 343.672C468.301 343.293 467.784 342.768 467.411 342.096C467.043 341.424 466.859 340.651 466.859 339.776C466.859 338.832 467.04 338.013 467.403 337.32C467.765 336.621 468.269 336.08 468.915 335.696C469.56 335.312 470.307 335.12 471.155 335.12C472.051 335.12 472.811 335.331 473.435 335.752C474.064 336.168 474.531 336.757 474.835 337.52C475.139 338.283 475.253 339.181 475.179 340.216H473.267V339.512C473.261 338.573 473.096 337.888 472.771 337.456C472.445 337.024 471.933 336.808 471.235 336.808C470.445 336.808 469.859 337.053 469.475 337.544C469.091 338.029 468.899 338.741 468.899 339.68C468.899 340.555 469.091 341.232 469.475 341.712C469.859 342.192 470.419 342.432 471.155 342.432C471.629 342.432 472.037 342.328 472.379 342.12C472.725 341.907 472.992 341.6 473.179 341.2L475.083 341.776C474.752 342.555 474.24 343.16 473.547 343.592C472.859 344.024 472.099 344.24 471.267 344.24ZM468.291 340.216V338.76H474.235V340.216H468.291ZM480.3 344.24C479.233 344.24 478.366 344 477.7 343.52C477.033 343.04 476.628 342.365 476.484 341.496L478.452 341.192C478.553 341.619 478.777 341.955 479.124 342.2C479.47 342.445 479.908 342.568 480.436 342.568C480.9 342.568 481.257 342.477 481.508 342.296C481.764 342.109 481.892 341.856 481.892 341.536C481.892 341.339 481.844 341.181 481.748 341.064C481.657 340.941 481.454 340.824 481.14 340.712C480.825 340.6 480.342 340.459 479.692 340.288C478.966 340.096 478.39 339.891 477.964 339.672C477.537 339.448 477.23 339.184 477.044 338.88C476.857 338.576 476.764 338.208 476.764 337.776C476.764 337.237 476.905 336.768 477.188 336.368C477.47 335.968 477.865 335.661 478.372 335.448C478.878 335.229 479.476 335.12 480.164 335.12C480.836 335.12 481.43 335.224 481.948 335.432C482.47 335.64 482.892 335.936 483.212 336.32C483.532 336.704 483.729 337.155 483.804 337.672L481.836 338.024C481.788 337.656 481.62 337.365 481.332 337.152C481.049 336.939 480.67 336.819 480.196 336.792C479.742 336.765 479.377 336.835 479.1 337C478.822 337.16 478.684 337.387 478.684 337.68C478.684 337.845 478.74 337.987 478.852 338.104C478.964 338.221 479.188 338.339 479.524 338.456C479.865 338.573 480.372 338.717 481.044 338.888C481.732 339.064 482.281 339.267 482.692 339.496C483.108 339.72 483.406 339.989 483.588 340.304C483.774 340.619 483.868 341 483.868 341.448C483.868 342.317 483.55 343 482.916 343.496C482.286 343.992 481.414 344.24 480.3 344.24ZM492.639 344.24C491.999 344.24 491.394 344.147 490.823 343.96C490.258 343.768 489.786 343.467 489.407 343.056C489.103 342.72 488.879 342.355 488.735 341.96C488.596 341.56 488.519 341.133 488.503 340.68C488.503 340.237 488.567 339.808 488.695 339.392C488.828 338.976 489.031 338.608 489.303 338.288C489.41 338.16 489.524 338.048 489.647 337.952C489.775 337.851 489.903 337.76 490.031 337.68C489.716 337.328 489.476 336.987 489.311 336.656C489.151 336.325 489.071 335.936 489.071 335.488C489.071 334.816 489.252 334.213 489.615 333.68C489.978 333.147 490.471 332.763 491.095 332.528C491.367 332.427 491.642 332.357 491.919 332.32C492.202 332.283 492.476 332.264 492.743 332.264C493.244 332.264 493.727 332.341 494.191 332.496C494.655 332.645 495.05 332.891 495.375 333.232C495.583 333.429 495.756 333.653 495.895 333.904C496.034 334.149 496.138 334.403 496.207 334.664L494.303 335.072C494.228 334.832 494.098 334.627 493.911 334.456C493.751 334.301 493.562 334.2 493.343 334.152C493.124 334.099 492.908 334.072 492.695 334.072C492.354 334.072 492.052 334.133 491.791 334.256C491.53 334.379 491.335 334.544 491.207 334.752C491.084 334.96 491.023 335.213 491.023 335.512C491.023 335.779 491.071 335.992 491.167 336.152C491.268 336.312 491.391 336.475 491.535 336.64C491.631 336.747 491.748 336.864 491.887 336.992C492.026 337.12 492.17 337.253 492.319 337.392L495.215 340.072C495.22 339.965 495.223 339.851 495.223 339.728C495.223 339.6 495.223 339.48 495.223 339.368V337.96H496.919V340.048C496.919 340.336 496.911 340.616 496.895 340.888C496.879 341.155 496.847 341.376 496.799 341.552L498.231 342.864L496.991 344.184L495.879 343.128C495.607 343.384 495.308 343.592 494.983 343.752C494.658 343.912 494.33 344.027 493.999 344.096C493.759 344.155 493.53 344.192 493.311 344.208C493.092 344.229 492.868 344.24 492.639 344.24ZM492.719 342.408C492.884 342.408 493.039 342.4 493.183 342.384C493.332 342.368 493.476 342.336 493.615 342.288C493.812 342.229 493.98 342.16 494.119 342.08C494.263 342 494.388 341.917 494.495 341.832L491.447 339.032C491.303 339.085 491.172 339.155 491.055 339.24C490.943 339.32 490.847 339.411 490.767 339.512C490.666 339.645 490.586 339.803 490.527 339.984C490.474 340.16 490.447 340.355 490.447 340.568C490.452 340.813 490.492 341.032 490.567 341.224C490.642 341.411 490.74 341.579 490.863 341.728C491.055 341.973 491.33 342.149 491.687 342.256C492.044 342.357 492.388 342.408 492.719 342.408ZM502.729 344V332.48H507.489C507.601 332.48 507.745 332.485 507.921 332.496C508.097 332.501 508.26 332.517 508.409 332.544C509.076 332.645 509.625 332.867 510.057 333.208C510.495 333.549 510.817 333.981 511.025 334.504C511.239 335.021 511.345 335.597 511.345 336.232C511.345 336.861 511.239 337.437 511.025 337.96C510.812 338.477 510.487 338.907 510.049 339.248C509.617 339.589 509.071 339.811 508.409 339.912C508.26 339.933 508.095 339.949 507.913 339.96C507.737 339.971 507.596 339.976 507.489 339.976H504.657V344H502.729ZM504.657 338.176H507.409C507.516 338.176 507.636 338.171 507.769 338.16C507.903 338.149 508.025 338.128 508.137 338.096C508.457 338.016 508.708 337.875 508.889 337.672C509.076 337.469 509.207 337.24 509.281 336.984C509.361 336.728 509.401 336.477 509.401 336.232C509.401 335.987 509.361 335.736 509.281 335.48C509.207 335.219 509.076 334.987 508.889 334.784C508.708 334.581 508.457 334.44 508.137 334.36C508.025 334.328 507.903 334.309 507.769 334.304C507.636 334.293 507.516 334.288 507.409 334.288H504.657V338.176ZM512.948 344V335.36H514.652V337.464L514.444 337.192C514.551 336.904 514.692 336.643 514.868 336.408C515.049 336.168 515.265 335.971 515.516 335.816C515.729 335.672 515.964 335.56 516.22 335.48C516.481 335.395 516.748 335.344 517.02 335.328C517.292 335.307 517.556 335.317 517.812 335.36V337.16C517.556 337.085 517.26 337.061 516.924 337.088C516.593 337.115 516.295 337.208 516.028 337.368C515.761 337.512 515.543 337.696 515.372 337.92C515.207 338.144 515.084 338.4 515.004 338.688C514.924 338.971 514.884 339.277 514.884 339.608V344H512.948ZM522.999 344.24C522.135 344.24 521.38 344.045 520.735 343.656C520.089 343.267 519.588 342.731 519.231 342.048C518.879 341.36 518.703 340.571 518.703 339.68C518.703 338.773 518.884 337.979 519.247 337.296C519.609 336.613 520.113 336.08 520.759 335.696C521.404 335.312 522.151 335.12 522.999 335.12C523.868 335.12 524.625 335.315 525.271 335.704C525.916 336.093 526.417 336.632 526.775 337.32C527.132 338.003 527.311 338.789 527.311 339.68C527.311 340.576 527.129 341.368 526.767 342.056C526.409 342.739 525.908 343.275 525.263 343.664C524.617 344.048 523.863 344.24 522.999 344.24ZM522.999 342.432C523.767 342.432 524.337 342.176 524.711 341.664C525.084 341.152 525.271 340.491 525.271 339.68C525.271 338.843 525.081 338.176 524.703 337.68C524.324 337.179 523.756 336.928 522.999 336.928C522.481 336.928 522.055 337.045 521.719 337.28C521.388 337.509 521.143 337.832 520.983 338.248C520.823 338.659 520.743 339.136 520.743 339.68C520.743 340.517 520.932 341.187 521.311 341.688C521.695 342.184 522.257 342.432 522.999 342.432ZM529.825 344V335.224C529.825 335.005 529.833 334.765 529.849 334.504C529.865 334.237 529.91 333.973 529.985 333.712C530.06 333.451 530.196 333.213 530.393 333C530.638 332.728 530.902 332.541 531.185 332.44C531.473 332.333 531.756 332.275 532.033 332.264C532.31 332.248 532.553 332.24 532.761 332.24H533.841V333.808H532.841C532.473 333.808 532.198 333.901 532.017 334.088C531.841 334.269 531.753 334.509 531.753 334.808V344H529.825ZM528.433 336.872V335.36H533.841V336.872H528.433ZM535.521 334.048V332.28H537.449V334.048H535.521ZM535.521 344V335.36H537.449V344H535.521ZM544.918 344C544.348 344.107 543.788 344.152 543.238 344.136C542.694 344.125 542.206 344.027 541.774 343.84C541.342 343.648 541.014 343.347 540.79 342.936C540.593 342.563 540.489 342.181 540.478 341.792C540.468 341.403 540.462 340.963 540.462 340.472V332.96H542.382V340.36C542.382 340.707 542.385 341.011 542.39 341.272C542.401 341.533 542.457 341.747 542.558 341.912C542.75 342.232 543.057 342.411 543.478 342.448C543.9 342.485 544.38 342.464 544.918 342.384V344ZM538.894 336.872V335.36H544.918V336.872H538.894ZM554.131 344.24C553.289 344.24 552.582 344.04 552.011 343.64C551.441 343.24 551.011 342.696 550.723 342.008C550.435 341.315 550.291 340.539 550.291 339.68C550.291 338.811 550.435 338.032 550.723 337.344C551.011 336.656 551.433 336.115 551.987 335.72C552.547 335.32 553.238 335.12 554.059 335.12C554.875 335.12 555.582 335.32 556.179 335.72C556.782 336.115 557.249 336.656 557.579 337.344C557.91 338.027 558.075 338.805 558.075 339.68C558.075 340.544 557.913 341.32 557.587 342.008C557.262 342.696 556.803 343.24 556.211 343.64C555.619 344.04 554.926 344.24 554.131 344.24ZM549.963 347.84V335.36H551.667V341.424H551.907V347.84H549.963ZM553.835 342.512C554.337 342.512 554.75 342.387 555.075 342.136C555.401 341.885 555.641 341.547 555.795 341.12C555.955 340.688 556.035 340.208 556.035 339.68C556.035 339.157 555.955 338.683 555.795 338.256C555.635 337.824 555.387 337.483 555.051 337.232C554.715 336.976 554.289 336.848 553.771 336.848C553.281 336.848 552.881 336.968 552.571 337.208C552.262 337.443 552.033 337.773 551.883 338.2C551.739 338.621 551.667 339.115 551.667 339.68C551.667 340.24 551.739 340.733 551.883 341.16C552.033 341.587 552.265 341.92 552.579 342.16C552.899 342.395 553.318 342.512 553.835 342.512ZM563.767 344.24C562.892 344.24 562.124 344.051 561.463 343.672C560.801 343.293 560.284 342.768 559.911 342.096C559.543 341.424 559.359 340.651 559.359 339.776C559.359 338.832 559.54 338.013 559.903 337.32C560.265 336.621 560.769 336.08 561.415 335.696C562.06 335.312 562.807 335.12 563.655 335.12C564.551 335.12 565.311 335.331 565.935 335.752C566.564 336.168 567.031 336.757 567.335 337.52C567.639 338.283 567.753 339.181 567.679 340.216H565.767V339.512C565.761 338.573 565.596 337.888 565.271 337.456C564.945 337.024 564.433 336.808 563.735 336.808C562.945 336.808 562.359 337.053 561.975 337.544C561.591 338.029 561.399 338.741 561.399 339.68C561.399 340.555 561.591 341.232 561.975 341.712C562.359 342.192 562.919 342.432 563.655 342.432C564.129 342.432 564.537 342.328 564.879 342.12C565.225 341.907 565.492 341.6 565.679 341.2L567.583 341.776C567.252 342.555 566.74 343.16 566.047 343.592C565.359 344.024 564.599 344.24 563.767 344.24ZM560.791 340.216V338.76H566.735V340.216H560.791ZM569.464 344V335.36H571.168V337.464L570.96 337.192C571.066 336.904 571.208 336.643 571.384 336.408C571.565 336.168 571.781 335.971 572.032 335.816C572.245 335.672 572.48 335.56 572.736 335.48C572.997 335.395 573.264 335.344 573.536 335.328C573.808 335.307 574.072 335.317 574.328 335.36V337.16C574.072 337.085 573.776 337.061 573.44 337.088C573.109 337.115 572.81 337.208 572.544 337.368C572.277 337.512 572.058 337.696 571.888 337.92C571.722 338.144 571.6 338.4 571.52 338.688C571.44 338.971 571.4 339.277 571.4 339.608V344H569.464ZM579.058 344V332.48H583.818C583.93 332.48 584.074 332.485 584.25 332.496C584.426 332.501 584.588 332.517 584.738 332.544C585.404 332.645 585.954 332.867 586.385 333.208C586.823 333.549 587.146 333.981 587.354 334.504C587.567 335.021 587.674 335.597 587.674 336.232C587.674 336.861 587.567 337.437 587.354 337.96C587.14 338.477 586.815 338.907 586.378 339.248C585.946 339.589 585.399 339.811 584.738 339.912C584.588 339.933 584.423 339.949 584.242 339.96C584.066 339.971 583.924 339.976 583.818 339.976H580.986V344H579.058ZM580.986 338.176H583.738C583.844 338.176 583.964 338.171 584.098 338.16C584.231 338.149 584.354 338.128 584.466 338.096C584.786 338.016 585.036 337.875 585.218 337.672C585.404 337.469 585.535 337.24 585.61 336.984C585.69 336.728 585.73 336.477 585.73 336.232C585.73 335.987 585.69 335.736 585.61 335.48C585.535 335.219 585.404 334.987 585.218 334.784C585.036 334.581 584.786 334.44 584.466 334.36C584.354 334.328 584.231 334.309 584.098 334.304C583.964 334.293 583.844 334.288 583.738 334.288H580.986V338.176ZM589.276 344V335.36H590.98V337.464L590.772 337.192C590.879 336.904 591.02 336.643 591.196 336.408C591.378 336.168 591.594 335.971 591.844 335.816C592.058 335.672 592.292 335.56 592.548 335.48C592.81 335.395 593.076 335.344 593.348 335.328C593.62 335.307 593.884 335.317 594.14 335.36V337.16C593.884 337.085 593.588 337.061 593.252 337.088C592.922 337.115 592.623 337.208 592.356 337.368C592.09 337.512 591.871 337.696 591.7 337.92C591.535 338.144 591.412 338.4 591.332 338.688C591.252 338.971 591.212 339.277 591.212 339.608V344H589.276ZM599.327 344.24C598.463 344.24 597.708 344.045 597.063 343.656C596.417 343.267 595.916 342.731 595.559 342.048C595.207 341.36 595.031 340.571 595.031 339.68C595.031 338.773 595.212 337.979 595.575 337.296C595.937 336.613 596.441 336.08 597.087 335.696C597.732 335.312 598.479 335.12 599.327 335.12C600.196 335.12 600.953 335.315 601.599 335.704C602.244 336.093 602.745 336.632 603.103 337.32C603.46 338.003 603.639 338.789 603.639 339.68C603.639 340.576 603.457 341.368 603.095 342.056C602.737 342.739 602.236 343.275 601.591 343.664C600.945 344.048 600.191 344.24 599.327 344.24ZM599.327 342.432C600.095 342.432 600.665 342.176 601.039 341.664C601.412 341.152 601.599 340.491 601.599 339.68C601.599 338.843 601.409 338.176 601.031 337.68C600.652 337.179 600.084 336.928 599.327 336.928C598.809 336.928 598.383 337.045 598.047 337.28C597.716 337.509 597.471 337.832 597.311 338.248C597.151 338.659 597.071 339.136 597.071 339.68C597.071 340.517 597.26 341.187 597.639 341.688C598.023 342.184 598.585 342.432 599.327 342.432ZM608.865 344.24C608.071 344.24 607.377 344.04 606.785 343.64C606.193 343.24 605.735 342.696 605.409 342.008C605.084 341.32 604.921 340.544 604.921 339.68C604.921 338.805 605.084 338.027 605.409 337.344C605.74 336.656 606.207 336.115 606.809 335.72C607.412 335.32 608.121 335.12 608.937 335.12C609.759 335.12 610.447 335.32 611.001 335.72C611.561 336.115 611.985 336.656 612.273 337.344C612.561 338.032 612.705 338.811 612.705 339.68C612.705 340.539 612.561 341.315 612.273 342.008C611.985 342.696 611.556 343.24 610.985 343.64C610.415 344.04 609.708 344.24 608.865 344.24ZM609.161 342.512C609.679 342.512 610.095 342.395 610.409 342.16C610.729 341.92 610.961 341.587 611.105 341.16C611.255 340.733 611.329 340.24 611.329 339.68C611.329 339.115 611.255 338.621 611.105 338.2C610.961 337.773 610.735 337.443 610.425 337.208C610.116 336.968 609.716 336.848 609.225 336.848C608.708 336.848 608.281 336.976 607.945 337.232C607.609 337.483 607.361 337.824 607.201 338.256C607.041 338.683 606.961 339.157 606.961 339.68C606.961 340.208 607.039 340.688 607.193 341.12C607.353 341.547 607.596 341.885 607.921 342.136C608.247 342.387 608.66 342.512 609.161 342.512ZM611.329 344V337.936H611.089V332.48H613.033V344H611.329ZM618.516 344.248C617.876 344.248 617.348 344.141 616.932 343.928C616.516 343.715 616.186 343.443 615.94 343.112C615.695 342.781 615.514 342.429 615.396 342.056C615.279 341.683 615.202 341.331 615.164 341C615.132 340.664 615.116 340.392 615.116 340.184V335.36H617.068V339.52C617.068 339.787 617.087 340.088 617.124 340.424C617.162 340.755 617.247 341.075 617.38 341.384C617.519 341.688 617.722 341.939 617.988 342.136C618.26 342.333 618.626 342.432 619.084 342.432C619.33 342.432 619.572 342.392 619.812 342.312C620.052 342.232 620.268 342.096 620.46 341.904C620.658 341.707 620.815 341.437 620.932 341.096C621.05 340.755 621.108 340.323 621.108 339.8L622.252 340.288C622.252 341.024 622.108 341.691 621.82 342.288C621.538 342.885 621.119 343.363 620.564 343.72C620.01 344.072 619.327 344.248 618.516 344.248ZM621.34 344V341.32H621.108V335.36H623.044V344H621.34ZM629.044 344.24C628.153 344.24 627.393 344.043 626.764 343.648C626.135 343.248 625.652 342.704 625.316 342.016C624.985 341.328 624.817 340.549 624.812 339.68C624.817 338.795 624.991 338.011 625.332 337.328C625.679 336.64 626.169 336.101 626.804 335.712C627.439 335.317 628.193 335.12 629.068 335.12C630.049 335.12 630.879 335.368 631.556 335.864C632.239 336.355 632.684 337.027 632.892 337.88L630.972 338.4C630.823 337.936 630.575 337.576 630.228 337.32C629.881 337.059 629.487 336.928 629.044 336.928C628.543 336.928 628.129 337.048 627.804 337.288C627.479 337.523 627.239 337.848 627.084 338.264C626.929 338.68 626.852 339.152 626.852 339.68C626.852 340.501 627.036 341.165 627.404 341.672C627.772 342.179 628.319 342.432 629.044 342.432C629.556 342.432 629.959 342.315 630.252 342.08C630.551 341.845 630.775 341.507 630.924 341.064L632.892 341.504C632.625 342.384 632.159 343.061 631.492 343.536C630.825 344.005 630.009 344.24 629.044 344.24ZM639.559 344C638.988 344.107 638.428 344.152 637.879 344.136C637.335 344.125 636.847 344.027 636.415 343.84C635.983 343.648 635.655 343.347 635.431 342.936C635.234 342.563 635.13 342.181 635.119 341.792C635.108 341.403 635.103 340.963 635.103 340.472V332.96H637.023V340.36C637.023 340.707 637.026 341.011 637.031 341.272C637.042 341.533 637.098 341.747 637.199 341.912C637.391 342.232 637.698 342.411 638.119 342.448C638.54 342.485 639.02 342.464 639.559 342.384V344ZM633.535 336.872V335.36H639.559V336.872H633.535Z" fill="white"/>
</svg>
