<svg width="601" height="482" viewBox="0 0 601 482" fill="none" xmlns="http://www.w3.org/2000/svg">
<rect x="0.866025" y="0.5" width="52.3182" height="52.3182" transform="matrix(0.866025 -0.5 2.20305e-08 1 92.2884 133.588)" stroke="white" stroke-opacity="0.5" stroke-width="2"/>
<rect x="0.866025" y="1.5" width="52.3182" height="52.3182" transform="matrix(0.866025 0.5 -2.20305e-08 1 45.8939 105.187)" stroke="white" stroke-opacity="0.5" stroke-width="2"/>
<rect x="-5.96046e-08" y="1" width="52.3182" height="52.3182" transform="matrix(0.866025 0.5 -0.866025 0.5 93.305 79.7133)" stroke="white" stroke-opacity="0.5" stroke-width="2"/>
<rect x="0.866025" y="0.5" width="52.3182" height="52.3182" transform="matrix(0.866025 -0.5 2.20305e-08 1 138.331 54.3732)" stroke="white" stroke-opacity="0.5" stroke-width="2"/>
<rect x="0.866025" y="1.5" width="52.3182" height="52.3182" transform="matrix(0.866025 0.5 -2.20305e-08 1 91.9339 25.9715)" stroke="white" stroke-opacity="0.5" stroke-width="2"/>
<rect x="-5.96046e-08" y="1" width="52.3182" height="52.3182" transform="matrix(0.866025 0.5 -0.866025 0.5 139.35 0.5)" stroke="white" stroke-opacity="0.5" stroke-width="2"/>
<rect x="0.866025" y="0.5" width="52.3182" height="52.3182" transform="matrix(0.866025 -0.5 2.20305e-08 1 185.109 133.588)" stroke="white" stroke-opacity="0.5" stroke-width="2"/>
<rect x="0.866025" y="1.5" width="52.3182" height="52.3182" transform="matrix(0.866025 0.5 -2.20305e-08 1 138.71 105.187)" stroke="white" stroke-opacity="0.5" stroke-width="2"/>
<rect x="-5.96046e-08" y="1" width="52.3182" height="52.3182" transform="matrix(0.866025 0.5 -0.866025 0.5 186.125 79.7133)" stroke="white" stroke-opacity="0.5" stroke-width="2"/>
<rect x="0.866025" y="0.5" width="52.3182" height="52.3182" transform="matrix(0.866025 -0.5 2.20305e-08 1 230.414 54.3732)" stroke="white" stroke-opacity="0.5" stroke-width="2"/>
<rect x="0.866025" y="1.5" width="52.3182" height="52.3182" transform="matrix(0.866025 0.5 -2.20305e-08 1 184.019 25.9715)" stroke="white" stroke-opacity="0.5" stroke-width="2"/>
<rect x="-5.96046e-08" y="1" width="52.3182" height="52.3182" transform="matrix(0.866025 0.5 -0.866025 0.5 231.431 0.5)" stroke="white" stroke-opacity="0.5" stroke-width="2"/>
<rect x="0.866025" y="0.5" width="52.3182" height="52.3182" transform="matrix(0.866025 -0.5 2.20305e-08 1 93.0208 292.95)" stroke="white" stroke-opacity="0.5" stroke-width="2"/>
<rect x="0.866025" y="1.5" width="52.3182" height="52.3182" transform="matrix(0.866025 0.5 -2.20305e-08 1 46.6258 264.549)" stroke="white" stroke-opacity="0.5" stroke-width="2"/>
<rect x="-5.96046e-08" y="1" width="52.3182" height="52.3182" transform="matrix(0.866025 0.5 -0.866025 0.5 94.0369 239.075)" stroke="white" stroke-opacity="0.5" stroke-width="2"/>
<rect x="0.866025" y="0.5" width="52.3182" height="52.3182" transform="matrix(0.866025 -0.5 2.20305e-08 1 46.8929 213.736)" stroke="white" stroke-opacity="0.5" stroke-width="2"/>
<rect x="0.866025" y="1.5" width="52.3182" height="52.3182" transform="matrix(0.866025 0.5 -2.20305e-08 1 0.493955 185.335)" stroke="white" stroke-opacity="0.5" stroke-width="2"/>
<rect x="-5.96046e-08" y="1" width="52.3182" height="52.3182" transform="matrix(0.866025 0.5 -0.866025 0.5 47.9095 159.861)" stroke="white" stroke-opacity="0.5" stroke-width="2"/>
<rect x="0.866025" y="0.5" width="52.3182" height="52.3182" transform="matrix(0.866025 -0.5 2.20305e-08 1 139.065 213.735)" stroke="white" stroke-opacity="0.5" stroke-width="2"/>
<rect x="0.866025" y="1.5" width="52.3182" height="52.3182" transform="matrix(0.866025 0.5 -2.20305e-08 1 92.6683 185.333)" stroke="white" stroke-opacity="0.5" stroke-width="2"/>
<rect x="-5.96046e-08" y="1" width="52.3182" height="52.3182" transform="matrix(0.866025 0.5 -0.866025 0.5 140.082 159.861)" stroke="white" stroke-opacity="0.5" stroke-width="2"/>
<rect x="0.866025" y="0.5" width="52.3182" height="52.3182" transform="matrix(0.866025 -0.5 2.20305e-08 1 185.841 292.95)" stroke="white" stroke-opacity="0.5" stroke-width="2"/>
<rect x="0.866025" y="1.5" width="52.3182" height="52.3182" transform="matrix(0.866025 0.5 -2.20305e-08 1 139.442 264.549)" stroke="white" stroke-opacity="0.5" stroke-width="2"/>
<rect x="-5.96046e-08" y="1" width="52.3182" height="52.3182" transform="matrix(0.866025 0.5 -0.866025 0.5 186.857 239.075)" stroke="white" stroke-opacity="0.5" stroke-width="2"/>
<rect x="0.866025" y="0.5" width="52.3182" height="52.3182" transform="matrix(0.866025 -0.5 2.20305e-08 1 231.148 213.735)" stroke="white" stroke-opacity="0.5" stroke-width="2"/>
<rect x="0.866025" y="1.5" width="52.3182" height="52.3182" transform="matrix(0.866025 0.5 -2.20305e-08 1 184.751 185.333)" stroke="white" stroke-opacity="0.5" stroke-width="2"/>
<rect x="-5.96046e-08" y="1" width="52.3182" height="52.3182" transform="matrix(0.866025 0.5 -0.866025 0.5 232.164 159.861)" stroke="white" stroke-opacity="0.5" stroke-width="2"/>
<rect x="0.866025" y="0.5" width="52.3182" height="52.3182" transform="matrix(0.866025 -0.5 2.20305e-08 1 277.545 188.24)" stroke="white" stroke-opacity="0.5" stroke-width="2"/>
<rect x="-5.96046e-08" y="1" width="52.3182" height="52.3182" transform="matrix(0.866025 0.5 -0.866025 0.5 278.561 134.365)" stroke="white" stroke-opacity="0.5" stroke-width="2"/>
<rect x="0.866025" y="0.5" width="52.3182" height="52.3182" transform="matrix(0.866025 -0.5 2.20305e-08 1 322.855 109.025)" stroke="white" stroke-opacity="0.5" stroke-width="2"/>
<rect x="0.866025" y="1.5" width="52.3182" height="52.3182" transform="matrix(0.866025 0.5 -2.20305e-08 1 276.456 80.6239)" stroke="white" stroke-opacity="0.5" stroke-width="2"/>
<rect x="-5.96046e-08" y="1" width="52.3182" height="52.3182" transform="matrix(0.866025 0.5 -0.866025 0.5 323.872 55.1524)" stroke="white" stroke-opacity="0.5" stroke-width="2"/>
<rect x="0.866025" y="0.5" width="52.3182" height="52.3182" transform="matrix(0.866025 -0.5 2.20305e-08 1 323.677 268.054)" stroke="white" stroke-opacity="0.5" stroke-width="2"/>
<rect x="0.866025" y="1.5" width="52.3182" height="52.3182" transform="matrix(0.866025 0.5 -2.20305e-08 1 277.279 239.653)" stroke="white" stroke-opacity="0.5" stroke-width="2"/>
<rect x="-5.96046e-08" y="1" width="52.3182" height="52.3182" transform="matrix(0.866025 0.5 -0.866025 0.5 324.694 214.179)" stroke="white" stroke-opacity="0.5" stroke-width="2"/>
<rect x="0.866025" y="0.5" width="52.3182" height="52.3182" transform="matrix(0.866025 -0.5 2.20305e-08 1 369.717 188.839)" stroke="white" stroke-opacity="0.5" stroke-width="2"/>
<rect x="0.866025" y="1.5" width="52.3182" height="52.3182" transform="matrix(0.866025 0.5 -2.20305e-08 1 323.322 160.437)" stroke="white" stroke-opacity="0.5" stroke-width="2"/>
<rect x="-5.96046e-08" y="1" width="52.3182" height="52.3182" transform="matrix(0.866025 0.5 -0.866025 0.5 370.736 134.966)" stroke="white" stroke-opacity="0.5" stroke-width="2"/>
<rect x="0.866025" y="0.5" width="52.3182" height="52.3182" transform="matrix(0.866025 -0.5 2.20305e-08 1 416.493 268.054)" stroke="white" stroke-opacity="0.5" stroke-width="2"/>
<rect x="0.866025" y="1.5" width="52.3182" height="52.3182" transform="matrix(0.866025 0.5 -2.20305e-08 1 370.097 239.653)" stroke="white" stroke-opacity="0.5" stroke-width="2"/>
<rect x="-5.96046e-08" y="1" width="52.3182" height="52.3182" transform="matrix(0.866025 0.5 -0.866025 0.5 417.509 214.179)" stroke="white" stroke-opacity="0.5" stroke-width="2"/>
<rect x="0.866025" y="0.5" width="52.3182" height="52.3182" transform="matrix(0.866025 -0.5 2.20305e-08 1 461.802 188.839)" stroke="white" stroke-opacity="0.5" stroke-width="2"/>
<rect x="0.866025" y="1.5" width="52.3182" height="52.3182" transform="matrix(0.866025 0.5 -2.20305e-08 1 415.403 160.437)" stroke="white" stroke-opacity="0.5" stroke-width="2"/>
<rect x="-5.96046e-08" y="1" width="52.3182" height="52.3182" transform="matrix(0.866025 0.5 -0.866025 0.5 462.82 134.966)" stroke="white" stroke-opacity="0.5" stroke-width="2"/>
<rect x="0.866025" y="0.5" width="52.3182" height="52.3182" transform="matrix(0.866025 -0.5 2.20305e-08 1 324.409 427.415)" stroke="white" stroke-opacity="0.5" stroke-width="2"/>
<rect x="0.866025" y="1.5" width="52.3182" height="52.3182" transform="matrix(0.866025 0.5 -2.20305e-08 1 278.011 399.014)" stroke="white" stroke-opacity="0.5" stroke-width="2"/>
<rect x="-5.96046e-08" y="1" width="52.3182" height="52.3182" transform="matrix(0.866025 0.5 -0.866025 0.5 325.426 373.54)" stroke="white" stroke-opacity="0.5" stroke-width="2"/>
<rect x="0.866025" y="0.5" width="52.3182" height="52.3182" transform="matrix(0.866025 -0.5 2.20305e-08 1 278.278 348.201)" stroke="white" stroke-opacity="0.5" stroke-width="2"/>
<rect x="0.866025" y="1.5" width="52.3182" height="52.3182" transform="matrix(0.866025 0.5 -2.20305e-08 1 231.882 319.801)" stroke="white" stroke-opacity="0.5" stroke-width="2"/>
<rect x="-5.96046e-08" y="1" width="52.3182" height="52.3182" transform="matrix(0.866025 0.5 -0.866025 0.5 279.293 294.327)" stroke="white" stroke-opacity="0.5" stroke-width="2"/>
<rect x="0.866025" y="0.5" width="52.3182" height="52.3182" transform="matrix(0.866025 -0.5 2.20305e-08 1 370.451 348.2)" stroke="white" stroke-opacity="0.5" stroke-width="2"/>
<rect x="0.866025" y="1.5" width="52.3182" height="52.3182" transform="matrix(0.866025 0.5 -2.20305e-08 1 324.054 319.799)" stroke="white" stroke-opacity="0.5" stroke-width="2"/>
<rect x="-5.96046e-08" y="1" width="52.3182" height="52.3182" transform="matrix(0.866025 0.5 -0.866025 0.5 371.468 294.327)" stroke="white" stroke-opacity="0.5" stroke-width="2"/>
<rect x="0.866025" y="0.5" width="52.3182" height="52.3182" transform="matrix(0.866025 -0.5 2.20305e-08 1 417.225 427.415)" stroke="white" stroke-opacity="0.5" stroke-width="2"/>
<rect x="0.866025" y="1.5" width="52.3182" height="52.3182" transform="matrix(0.866025 0.5 -2.20305e-08 1 370.831 399.014)" stroke="white" stroke-opacity="0.5" stroke-width="2"/>
<rect x="-5.96046e-08" y="1" width="52.3182" height="52.3182" transform="matrix(0.866025 0.5 -0.866025 0.5 418.241 373.54)" stroke="white" stroke-opacity="0.5" stroke-width="2"/>
<rect x="0.866025" y="0.5" width="52.3182" height="52.3182" transform="matrix(0.866025 -0.5 2.20305e-08 1 462.534 348.2)" stroke="white" stroke-opacity="0.5" stroke-width="2"/>
<rect x="0.866025" y="1.5" width="52.3182" height="52.3182" transform="matrix(0.866025 0.5 -2.20305e-08 1 416.137 319.799)" stroke="white" stroke-opacity="0.5" stroke-width="2"/>
<rect x="-5.96046e-08" y="1" width="52.3182" height="52.3182" transform="matrix(0.866025 0.5 -0.866025 0.5 463.552 294.327)" stroke="white" stroke-opacity="0.5" stroke-width="2"/>
<rect x="0.866025" y="0.5" width="52.3182" height="52.3182" transform="matrix(0.866025 -0.5 2.20305e-08 1 508.931 322.706)" stroke="white" stroke-opacity="0.5" stroke-width="2"/>
<rect x="-5.96046e-08" y="1" width="52.3182" height="52.3182" transform="matrix(0.866025 0.5 -0.866025 0.5 509.947 268.831)" stroke="white" stroke-opacity="0.5" stroke-width="2"/>
<rect x="0.866025" y="0.5" width="52.3182" height="52.3182" transform="matrix(0.866025 -0.5 2.20305e-08 1 554.24 243.49)" stroke="white" stroke-opacity="0.5" stroke-width="2"/>
<rect x="0.866025" y="1.5" width="52.3182" height="52.3182" transform="matrix(0.866025 0.5 -2.20305e-08 1 507.842 215.089)" stroke="white" stroke-opacity="0.5" stroke-width="2"/>
<rect x="-5.96046e-08" y="1" width="52.3182" height="52.3182" transform="matrix(0.866025 0.5 -0.866025 0.5 555.257 189.618)" stroke="white" stroke-opacity="0.5" stroke-width="2"/>
</svg>
