<svg width="30" height="30" viewBox="0 0 30 30" fill="none" xmlns="http://www.w3.org/2000/svg">
<path d="M10.7793 11.7207C10.1516 11.0931 9.13406 11.0931 8.50644 11.7207C7.87881 12.3483 7.87881 13.3659 8.50644 13.9936L13.8636 19.3507C14.4912 19.9783 15.5088 19.9783 16.1364 19.3507L21.4936 13.9936C22.1212 13.3659 22.1212 12.3483 21.4936 11.7207C20.8659 11.0931 19.8484 11.0931 19.2207 11.7207L15 15.9414L10.7793 11.7207Z" fill="white"/>
<path fill-rule="evenodd" clip-rule="evenodd" d="M30 15C30 23.2843 23.2843 30 15 30C6.71573 30 0 23.2843 0 15C0 6.71573 6.71573 0 15 0C23.2843 0 30 6.71573 30 15ZM26.7857 15C26.7857 21.5091 21.5091 26.7857 15 26.7857C8.49093 26.7857 3.21429 21.5091 3.21429 15C3.21429 8.49093 8.49093 3.21429 15 3.21429C21.5091 3.21429 26.7857 8.49093 26.7857 15Z" fill="white"/>
</svg>
