<svg width="722" height="482" viewBox="0 0 722 482" fill="none" xmlns="http://www.w3.org/2000/svg">
<g filter="url(#filter0_d_145_244)">
<rect width="337.139" height="339.05" rx="16" transform="matrix(0.865878 0.500255 -0.865878 0.500255 362.005 68)" fill="#64CDFE"/>
</g>
<path d="M360.807 27.7017L719.531 234.811L370.279 436.452L11.5544 229.343L360.807 27.7017Z" fill="white" fill-opacity="0.01"/>
<path d="M324.315 348.247L546.448 314.996L604.041 186.747L439.496 91.7468L217.359 124.996L159.77 253.247L324.315 348.247Z" stroke="#006897" stroke-width="13.0604" stroke-linejoin="round"/>
<path d="M340.77 243.749C363.488 256.866 400.323 256.866 423.042 243.749C445.761 230.633 445.761 209.366 423.042 196.249C400.323 183.133 363.488 183.133 340.77 196.25C318.051 209.366 318.051 230.633 340.77 243.749Z" stroke="#58BCFE" stroke-width="13.0604" stroke-linejoin="round"/>
<path d="M288.117 246.79L335.506 274.15L288.117 301.51L240.728 274.15L288.117 246.79Z" fill="white" fill-opacity="0.01"/>
<path d="M288.117 259.33L288.117 268.45M288.117 288.97L288.117 279.85" stroke="white" stroke-width="2" stroke-linecap="round" stroke-linejoin="round"/>
<path d="M313.786 274.15L297.99 274.15M262.448 274.15L278.244 274.15" stroke="white" stroke-width="2" stroke-linecap="round" stroke-linejoin="round"/>
<path d="M288.117 268.451L297.99 274.151L288.117 279.851L278.244 274.151L288.117 268.451Z" fill="#2F88FF" fill-opacity="0.25" stroke="white" stroke-width="2" stroke-linecap="round" stroke-linejoin="round"/>
<path d="M306.875 278.14C308.242 278.93 309.984 279.467 311.879 279.685C313.775 279.902 315.74 279.791 317.526 279.364C319.312 278.936 320.839 278.213 321.913 277.285C322.986 276.357 323.56 275.266 323.56 274.15C323.56 273.034 322.986 271.943 321.912 271.015C320.839 270.087 319.312 269.364 317.526 268.937C315.74 268.51 313.775 268.398 311.879 268.616C309.984 268.834 308.242 269.371 306.875 270.16M295.028 284.98C296.395 285.77 297.326 286.775 297.703 287.869C298.08 288.964 297.886 290.099 297.147 291.13C296.407 292.161 295.154 293.042 293.547 293.662C291.94 294.282 290.05 294.613 288.117 294.613C286.184 294.613 284.295 294.282 282.687 293.662C281.08 293.042 279.827 292.161 279.088 291.13C278.348 290.099 278.154 288.964 278.531 287.869C278.909 286.775 279.839 285.77 281.206 284.98M281.206 263.32C279.839 262.531 278.909 261.526 278.532 260.431C278.154 259.337 278.348 258.202 279.088 257.171C279.827 256.14 281.08 255.259 282.687 254.639C284.295 254.019 286.184 253.688 288.117 253.688C290.05 253.688 291.94 254.019 293.547 254.639C295.154 255.259 296.407 256.14 297.147 257.171C297.886 258.202 298.08 259.337 297.703 260.431C297.326 261.526 296.395 262.531 295.028 263.32M269.359 270.16C267.992 269.371 266.251 268.834 264.355 268.616C262.459 268.398 260.494 268.51 258.708 268.937C256.922 269.364 255.396 270.087 254.322 271.015C253.248 271.943 252.675 273.034 252.675 274.15C252.675 275.266 253.248 276.357 254.322 277.285C255.396 278.213 256.922 278.936 258.708 279.364C260.494 279.791 262.459 279.902 264.355 279.685C266.251 279.467 267.992 278.93 269.359 278.14" stroke="white" stroke-width="2" stroke-linecap="round" stroke-linejoin="round"/>
<path d="M432.257 299.229C438.8 303.007 447.376 304.896 455.952 304.896C464.527 304.896 473.103 303.007 479.646 299.229C486.189 295.452 489.461 290.501 489.461 285.549C489.461 280.598 486.189 275.647 479.646 271.869C473.103 268.092 464.527 266.203 455.952 266.203C447.376 266.203 438.8 268.092 432.257 271.869C425.714 275.647 422.443 280.598 422.443 285.549C422.443 290.501 425.714 295.452 432.257 299.229Z" fill="#2F88FF" fill-opacity="0.25" stroke="white" stroke-width="2" stroke-linejoin="round"/>
<path d="M446.474 280.078L446.474 288.286L474.908 288.286" stroke="white" stroke-width="2" stroke-linecap="round" stroke-linejoin="round"/>
<path d="M277.258 155.017L324.647 182.377L277.258 209.737L229.869 182.377L277.258 155.017Z" fill="white" fill-opacity="0.01"/>
<path d="M275.282 161.86C276.918 160.915 279.57 160.915 281.205 161.86L304.9 175.54C306.536 176.484 306.536 178.015 304.9 178.96L268.371 200.05L241.715 184.66C240.079 183.715 240.079 182.184 241.715 181.24L275.282 161.86Z" fill="#2F88FF" fill-opacity="0.25" stroke="white" stroke-width="2" stroke-linejoin="round"/>
<path d="M288.117 188.65C289.208 188.02 290.976 188.02 292.066 188.65L296.015 190.93C297.106 191.559 297.106 192.58 296.015 193.21L279.232 202.9C277.596 203.844 274.944 203.844 273.308 202.9L268.372 200.05L288.117 188.65Z" stroke="white" stroke-width="2" stroke-linejoin="round"/>
<path d="M276.268 168.131L284.166 172.691" stroke="white" stroke-width="2" stroke-linecap="round" stroke-linejoin="round"/>
<path d="M269.359 172.119L281.206 178.959" stroke="white" stroke-width="2" stroke-linecap="round" stroke-linejoin="round"/>
<path d="M399.675 115.119L447.064 142.479L399.675 169.839L352.286 142.479L399.675 115.119Z" fill="white" fill-opacity="0.01"/>
<path d="M377.959 142.48L372.035 139.06L366.112 142.48" stroke="white" stroke-width="2" stroke-linecap="round" stroke-linejoin="round"/>
<path d="M399.678 161.861L393.755 158.441L399.678 155.021" stroke="white" stroke-width="2" stroke-linecap="round" stroke-linejoin="round"/>
<path d="M421.4 142.48L427.323 145.9L433.247 142.48" stroke="white" stroke-width="2" stroke-linecap="round" stroke-linejoin="round"/>
<path d="M399.678 123.1L405.602 126.52L399.678 129.94" stroke="white" stroke-width="2" stroke-linecap="round" stroke-linejoin="round"/>
<path d="M405.314 126.688C396.429 125.636 386.829 127.1 379.935 131.08C378.929 131.661 378.015 132.276 377.194 132.918" stroke="white" stroke-width="2" stroke-linecap="round" stroke-linejoin="round"/>
<path d="M383.117 155.463C382.005 154.989 380.941 154.461 379.935 153.88C373.041 149.9 370.505 144.358 372.327 139.228" stroke="white" stroke-width="2" stroke-linecap="round" stroke-linejoin="round"/>
<path d="M422.165 152.043C421.344 152.685 420.43 153.299 419.424 153.881C412.53 157.86 402.93 159.324 394.045 158.273" stroke="white" stroke-width="2" stroke-linecap="round" stroke-linejoin="round"/>
<path d="M416.24 129.498C417.352 129.972 418.416 130.499 419.423 131.081C426.316 135.06 428.852 140.603 427.031 145.733" stroke="white" stroke-width="2" stroke-linecap="round" stroke-linejoin="round"/>
<path d="M512.227 188.08L559.615 215.44L512.227 242.8L464.838 215.44L512.227 188.08Z" fill="white" fill-opacity="0.01"/>
<path d="M489.521 225.13L496.432 220" stroke="white" stroke-width="2" stroke-linecap="round" stroke-linejoin="round"/>
<path d="M512.222 238.24L543.815 220L525.057 209.17L518.146 214.3L511.235 219.43L504.324 224.56L489.515 225.13L512.222 238.24Z" fill="#2F88FF" fill-opacity="0.25" stroke="white" stroke-width="2" stroke-linecap="round" stroke-linejoin="round"/>
<path d="M511.241 219.43L519.139 223.99" stroke="white" stroke-width="2" stroke-linecap="round" stroke-linejoin="round"/>
<path d="M518.151 214.299L527.036 219.429" stroke="white" stroke-width="2" stroke-linecap="round" stroke-linejoin="round"/>
<path d="M512.227 192.64L531.972 204.04L525.061 209.17L518.15 214.3L511.239 219.43L504.328 224.56L496.43 220L480.634 210.88L512.227 192.64Z" fill="#2F88FF" fill-opacity="0.25" stroke="white" stroke-width="2" stroke-linecap="round" stroke-linejoin="round"/>
<path d="M510.252 200.619L517.163 204.609" stroke="white" stroke-width="2" stroke-linecap="round" stroke-linejoin="round"/>
<path d="M502.356 205.18L510.255 209.74" stroke="white" stroke-width="2" stroke-linecap="round" stroke-linejoin="round"/>
<path d="M494.458 209.74L503.343 214.87" stroke="white" stroke-width="2" stroke-linecap="round" stroke-linejoin="round"/>
<defs>
<filter id="filter0_d_145_244" x="0.543945" y="0.688721" width="721.267" height="480.89" filterUnits="userSpaceOnUse" color-interpolation-filters="sRGB">
<feFlood flood-opacity="0" result="BackgroundImageFix"/>
<feColorMatrix in="SourceAlpha" type="matrix" values="0 0 0 0 0 0 0 0 0 0 0 0 0 0 0 0 0 0 127 0" result="hardAlpha"/>
<feMorphology radius="24" operator="dilate" in="SourceAlpha" result="effect1_dropShadow_145_244"/>
<feOffset dy="4"/>
<feGaussianBlur stdDeviation="26"/>
<feComposite in2="hardAlpha" operator="out"/>
<feColorMatrix type="matrix" values="0 0 0 0 0.843137 0 0 0 0 0.792157 0 0 0 0 0.984314 0 0 0 0.15 0"/>
<feBlend mode="normal" in2="BackgroundImageFix" result="effect1_dropShadow_145_244"/>
<feBlend mode="normal" in="SourceGraphic" in2="effect1_dropShadow_145_244" result="shape"/>
</filter>
</defs>
</svg>
