<svg width="50" height="50" viewBox="0 0 50 50" fill="none" xmlns="http://www.w3.org/2000/svg">
<g clip-path="url(#clip0_2289_2735)">
<path d="M38.8767 0H11.1233C4.98009 0 0 4.98009 0 11.1233V38.8767C0 45.0199 4.98009 50 11.1233 50H38.8767C45.0199 50 50 45.0199 50 38.8767V11.1233C50 4.98009 45.0199 0 38.8767 0Z" fill="url(#paint0_linear_2289_2735)"/>
<path d="M23.4732 43.7729C21.9815 43.2396 21.6615 42.5146 21.0499 38.2663C20.3382 33.3279 20.1832 30.2713 20.5949 29.3029C21.1415 28.0196 22.6249 27.2913 24.6999 27.2829C26.7582 27.2746 28.2549 28.0096 28.8049 29.3029C29.2182 30.2696 29.0632 33.3279 28.3515 38.2663C27.8682 41.7163 27.6015 42.5879 26.9349 43.1746C26.0182 43.9863 24.7182 44.2113 23.4849 43.7746L23.4732 43.7729ZM17.1015 38.7063C11.9515 36.1729 8.65153 31.8863 7.45153 26.1829C7.15153 24.7113 7.10153 21.1996 7.38486 19.8496C8.13486 16.2246 9.56819 13.3896 11.9515 10.8829C15.3849 7.26294 19.8015 5.34961 24.7182 5.34961C29.5849 5.34961 33.9849 7.22794 37.3349 10.7396C39.8849 13.3896 41.3182 16.1946 42.0515 19.8896C42.3015 21.1196 42.3015 24.4729 42.0682 25.8563C41.3015 30.2296 38.8682 34.2129 35.3182 36.8896C34.0515 37.8463 30.9515 39.5163 30.4515 39.5163C30.2682 39.5163 30.2515 39.3263 30.3349 38.5579C30.4849 37.3246 30.6349 37.0679 31.3349 36.7746C32.4515 36.3079 34.3515 34.9546 35.5182 33.7846C37.5349 31.7846 39.0182 29.1679 39.7015 26.4179C40.1349 24.7013 40.0849 20.8846 39.6015 19.1179C38.0849 13.5013 33.5015 9.13461 27.8849 7.96794C26.2515 7.63461 23.2849 7.63461 21.6349 7.96794C15.9515 9.13461 11.2515 13.7179 9.81819 19.4846C9.43486 21.0513 9.43486 24.8679 9.81819 26.4346C10.7682 30.2513 13.2349 33.7513 16.4682 35.8346C17.1015 36.2513 17.8682 36.6846 18.1849 36.8179C18.8849 37.1179 19.0349 37.3679 19.1682 38.6013C19.2515 39.3513 19.2349 39.5679 19.0515 39.5679C18.9349 39.5679 18.0849 39.2013 17.1849 38.7679L17.1015 38.7063ZM17.1682 31.9263C15.4349 30.5429 13.9015 28.0896 13.2682 25.6829C12.8849 24.2296 12.8849 21.4663 13.2849 20.0163C14.3349 16.1029 17.2182 13.0696 21.2182 11.6446C22.5849 11.1613 25.6182 11.0529 27.3015 11.4246C33.1015 12.7163 37.2182 18.5246 36.4182 24.2863C36.1015 26.6079 35.3015 28.5146 33.8849 30.2863C33.1849 31.1813 31.4849 32.6829 31.1849 32.6829C31.1349 32.6829 31.0849 32.1163 31.0849 31.4263V30.1663L31.9515 29.1329C35.2182 25.2196 34.9849 19.7529 31.4182 16.1663C30.0349 14.7696 28.4349 13.9496 26.3682 13.5713C25.0349 13.3246 24.7515 13.3246 23.3515 13.5546C21.2265 13.9013 19.5799 14.7246 18.1182 16.1713C14.5349 19.7213 14.3015 25.2163 17.5682 29.1329L18.4282 30.1663V31.4329C18.4282 32.1329 18.3732 32.6996 18.3049 32.6996C18.2382 32.6996 17.7549 32.3663 17.2382 31.9496L17.1682 31.9263ZM22.9515 25.1213C21.4682 24.4313 20.6682 23.1296 20.6515 21.4329C20.6515 19.9079 21.5015 18.5779 22.9682 17.7996C23.9015 17.3096 25.5515 17.3096 26.4849 17.8029C27.5015 18.3313 28.3349 19.3563 28.6515 20.4263C29.6182 23.7129 26.1349 26.5929 22.9849 25.1213H22.9515Z" fill="white"/>
<path d="M24.9819 25.7684C27.2775 25.7684 29.1385 23.9074 29.1385 21.6117C29.1385 19.3161 27.2775 17.4551 24.9819 17.4551C22.6862 17.4551 20.8252 19.3161 20.8252 21.6117C20.8252 23.9074 22.6862 25.7684 24.9819 25.7684Z" fill="white"/>
<path d="M25.3799 27.3779C25.6682 27.4163 26.2415 27.4913 26.7715 27.6613C27.3049 27.8279 27.7882 28.0896 28.1649 28.3579C28.5315 28.6246 28.7982 28.9013 28.9649 29.2379C29.1315 29.5746 29.2149 29.9746 29.2649 30.6296C29.2982 31.2863 29.2982 32.1963 29.1482 33.8963C28.9982 35.5912 28.6982 38.0762 28.4649 39.6679C28.2315 41.2679 28.0649 41.9679 27.8482 42.4846C27.6315 43.0179 27.3482 43.3679 27.0315 43.6179C26.7149 43.8679 26.3482 44.0179 25.9982 44.1012C25.6482 44.1846 25.3315 44.1846 25.0315 44.1846C24.7315 44.1846 24.4482 44.1846 24.0649 44.1012C23.6815 44.0179 23.1815 43.8679 22.8149 43.5679C22.4315 43.2679 22.1815 42.8346 21.9815 42.2679C21.7815 41.7012 21.6315 41.0179 21.4315 39.6512C21.2315 38.2846 20.9649 36.2512 20.7982 34.7013C20.6315 33.1513 20.5649 32.0846 20.5515 31.3679C20.5349 30.6513 20.5682 30.2963 20.6515 29.9513C20.7349 29.6179 20.8682 29.3013 21.0515 29.0346C21.2349 28.7679 21.4749 28.5346 21.7182 28.3513C21.9565 28.1679 22.2015 28.0346 22.4949 27.9313C22.7849 27.8146 23.1332 27.7146 23.5615 27.6313C23.9949 27.5479 24.4949 27.4646 24.7515 27.4313C25.0082 27.3929 25.0082 27.3929 25.2949 27.4313L25.3799 27.3779Z" fill="white"/>
</g>
<defs>
<linearGradient id="paint0_linear_2289_2735" x1="24.9483" y1="50.635" x2="24.525" y2="-2.34377e-06" gradientUnits="userSpaceOnUse">
<stop stop-color="#822CBE"/>
<stop offset="1" stop-color="#D772FB"/>
</linearGradient>
<clipPath id="clip0_2289_2735">
<rect width="50" height="50" fill="white"/>
</clipPath>
</defs>
</svg>
