<svg width="638" height="102" viewBox="0 0 638 102" fill="none" xmlns="http://www.w3.org/2000/svg">
<rect y="28" width="638" height="74" rx="16" fill="#141414"/>
<path d="M24 57C24 54.7909 25.7909 53 28 53H610C612.209 53 614 54.7909 614 57V73C614 75.2091 612.209 77 610 77H28C25.7909 77 24 75.2091 24 73V57Z" fill="#006897"/>
<path d="M24 57C24 54.7909 25.7909 53 28 53H378C380.209 53 382 54.7909 382 57V73C382 75.2091 380.209 77 378 77H28C25.7909 77 24 75.2091 24 73V57Z" fill="#64CDFE"/>
<path d="M3.32 18L7.064 6.48H9.472L13.216 18H11.48L8.032 7.488H8.464L5.056 18H3.32ZM5.264 15.4V13.832H11.28V15.4H5.264ZM20.7153 18V13.752C20.7153 13.416 20.6859 13.072 20.6273 12.72C20.5739 12.3627 20.4673 12.032 20.3073 11.728C20.1526 11.424 19.9313 11.1787 19.6433 10.992C19.3606 10.8053 18.9899 10.712 18.5312 10.712C18.2326 10.712 17.9499 10.7627 17.6833 10.864C17.4166 10.96 17.1819 11.1173 16.9793 11.336C16.7819 11.5547 16.6246 11.8427 16.5073 12.2C16.3953 12.5573 16.3393 12.992 16.3393 13.504L15.2993 13.112C15.2993 12.328 15.4459 11.6373 15.7393 11.04C16.0326 10.4373 16.4539 9.968 17.0033 9.632C17.5526 9.296 18.2166 9.128 18.9953 9.128C19.5926 9.128 20.0939 9.224 20.4993 9.416C20.9046 9.608 21.2326 9.86133 21.4833 10.176C21.7393 10.4853 21.9339 10.824 22.0673 11.192C22.2006 11.56 22.2913 11.92 22.3393 12.272C22.3873 12.624 22.4113 12.9333 22.4113 13.2V18H20.7153ZM14.6433 18V9.36H16.1393V11.856H16.3393V18H14.6433ZM30.559 18V13.752C30.559 13.416 30.5297 13.072 30.471 12.72C30.4177 12.3627 30.311 12.032 30.151 11.728C29.9963 11.424 29.775 11.1787 29.487 10.992C29.2043 10.8053 28.8337 10.712 28.375 10.712C28.0763 10.712 27.7937 10.7627 27.527 10.864C27.2603 10.96 27.0257 11.1173 26.823 11.336C26.6257 11.5547 26.4683 11.8427 26.351 12.2C26.239 12.5573 26.183 12.992 26.183 13.504L25.143 13.112C25.143 12.328 25.2897 11.6373 25.583 11.04C25.8763 10.4373 26.2977 9.968 26.847 9.632C27.3963 9.296 28.0603 9.128 28.839 9.128C29.4363 9.128 29.9377 9.224 30.343 9.416C30.7483 9.608 31.0763 9.86133 31.327 10.176C31.583 10.4853 31.7777 10.824 31.911 11.192C32.0443 11.56 32.135 11.92 32.183 12.272C32.231 12.624 32.255 12.9333 32.255 13.2V18H30.559ZM24.487 18V9.36H25.983V11.856H26.183V18H24.487ZM37.5948 18.232C36.9974 18.232 36.4961 18.136 36.0908 17.944C35.6854 17.752 35.3548 17.5013 35.0988 17.192C34.8481 16.8773 34.6561 16.536 34.5228 16.168C34.3894 15.8 34.2988 15.44 34.2508 15.088C34.2028 14.736 34.1788 14.4267 34.1788 14.16V9.36H35.8748V13.608C35.8748 13.944 35.9014 14.2907 35.9548 14.648C36.0134 15 36.1201 15.328 36.2748 15.632C36.4348 15.936 36.6561 16.1813 36.9388 16.368C37.2268 16.5547 37.6001 16.648 38.0588 16.648C38.3574 16.648 38.6401 16.6 38.9068 16.504C39.1734 16.4027 39.4054 16.2427 39.6028 16.024C39.8054 15.8053 39.9628 15.5173 40.0748 15.16C40.1921 14.8027 40.2508 14.368 40.2508 13.856L41.2908 14.248C41.2908 15.032 41.1441 15.7253 40.8508 16.328C40.5574 16.9253 40.1361 17.392 39.5868 17.728C39.0374 18.064 38.3734 18.232 37.5948 18.232ZM40.4508 18V15.504H40.2508V9.36H41.9388V18H40.4508ZM46.6225 18.24C45.9825 18.24 45.4465 18.1227 45.0145 17.888C44.5825 17.648 44.2545 17.3333 44.0305 16.944C43.8118 16.5493 43.7025 16.1173 43.7025 15.648C43.7025 15.2107 43.7798 14.8267 43.9345 14.496C44.0892 14.1653 44.3185 13.8853 44.6225 13.656C44.9265 13.4213 45.2998 13.232 45.7425 13.088C46.1265 12.976 46.5612 12.8773 47.0465 12.792C47.5318 12.7067 48.0412 12.6267 48.5745 12.552C49.1132 12.4773 49.6465 12.4027 50.1745 12.328L49.5665 12.664C49.5772 11.9867 49.4332 11.4853 49.1345 11.16C48.8412 10.8293 48.3345 10.664 47.6145 10.664C47.1612 10.664 46.7452 10.7707 46.3665 10.984C45.9878 11.192 45.7238 11.5387 45.5745 12.024L44.0145 11.544C44.2278 10.8027 44.6332 10.2133 45.2305 9.776C45.8332 9.33867 46.6332 9.12 47.6305 9.12C48.4038 9.12 49.0758 9.25333 49.6465 9.52C50.2225 9.78133 50.6438 10.1973 50.9105 10.768C51.0492 11.0507 51.1345 11.3493 51.1665 11.664C51.1985 11.9787 51.2145 12.3173 51.2145 12.68V18H49.7345V16.024L50.0225 16.28C49.6652 16.9413 49.2092 17.4347 48.6545 17.76C48.1052 18.08 47.4278 18.24 46.6225 18.24ZM46.9185 16.872C47.3932 16.872 47.8012 16.7893 48.1425 16.624C48.4838 16.4533 48.7585 16.2373 48.9665 15.976C49.1745 15.7147 49.3105 15.4427 49.3745 15.16C49.4652 14.904 49.5158 14.616 49.5265 14.296C49.5425 13.976 49.5505 13.72 49.5505 13.528L50.0945 13.728C49.5665 13.808 49.0865 13.88 48.6545 13.944C48.2225 14.008 47.8305 14.072 47.4785 14.136C47.1318 14.1947 46.8225 14.2667 46.5505 14.352C46.3212 14.432 46.1158 14.528 45.9345 14.64C45.7585 14.752 45.6172 14.888 45.5105 15.048C45.4092 15.208 45.3585 15.4027 45.3585 15.632C45.3585 15.856 45.4145 16.064 45.5265 16.256C45.6385 16.4427 45.8092 16.592 46.0385 16.704C46.2678 16.816 46.5612 16.872 46.9185 16.872ZM53.4519 18V6.24H55.1239V18H53.4519ZM60.7294 18V6.48H65.3854C65.4974 6.48 65.636 6.48533 65.8014 6.496C65.9667 6.50133 66.124 6.51733 66.2734 6.544C66.9134 6.64533 67.4467 6.864 67.8734 7.2C68.3054 7.536 68.628 7.96 68.8414 8.472C69.0547 8.984 69.1614 9.54933 69.1614 10.168C69.1614 11.0853 68.9267 11.8773 68.4574 12.544C67.988 13.2053 67.284 13.6187 66.3454 13.784L65.6654 13.864H62.4014V18H60.7294ZM67.4654 18L65.1934 13.312L66.8814 12.88L69.3774 18H67.4654ZM62.4014 12.28H65.3214C65.428 12.28 65.5454 12.2747 65.6734 12.264C65.8067 12.2533 65.932 12.2347 66.0494 12.208C66.3907 12.128 66.6654 11.9813 66.8734 11.768C67.0814 11.5493 67.2307 11.2987 67.3214 11.016C67.412 10.7333 67.4574 10.4507 67.4574 10.168C67.4574 9.88533 67.412 9.60533 67.3214 9.328C67.2307 9.04533 67.0814 8.79733 66.8734 8.584C66.6654 8.36533 66.3907 8.216 66.0494 8.136C65.932 8.104 65.8067 8.08267 65.6734 8.072C65.5454 8.06133 65.428 8.056 65.3214 8.056H62.4014V12.28ZM74.9676 18.24C74.109 18.24 73.3543 18.0533 72.7036 17.68C72.0583 17.3013 71.5543 16.776 71.1916 16.104C70.8343 15.4267 70.6556 14.6427 70.6556 13.752C70.6556 12.808 70.8316 11.9893 71.1836 11.296C71.541 10.6027 72.037 10.0667 72.6716 9.688C73.3063 9.30933 74.045 9.12 74.8876 9.12C75.7676 9.12 76.517 9.32533 77.1356 9.736C77.7543 10.1413 78.2156 10.72 78.5196 11.472C78.829 12.224 78.9516 13.1173 78.8876 14.152H77.2156V13.544C77.205 12.5413 77.013 11.8 76.6396 11.32C76.2716 10.84 75.709 10.6 74.9516 10.6C74.1143 10.6 73.485 10.864 73.0636 11.392C72.6423 11.92 72.4316 12.6827 72.4316 13.68C72.4316 14.6293 72.6423 15.3653 73.0636 15.888C73.485 16.4053 74.093 16.664 74.8876 16.664C75.4103 16.664 75.861 16.5467 76.2396 16.312C76.6236 16.072 76.9223 15.7307 77.1356 15.288L78.7756 15.808C78.4396 16.5813 77.9303 17.1813 77.2476 17.608C76.565 18.0293 75.805 18.24 74.9676 18.24ZM71.8876 14.152V12.848H78.0556V14.152H71.8876ZM82.706 18L79.57 9.36H81.258L83.554 15.904L85.85 9.36H87.538L84.402 18H82.706ZM92.4989 18.24C91.6402 18.24 90.8855 18.0533 90.2349 17.68C89.5895 17.3013 89.0855 16.776 88.7229 16.104C88.3655 15.4267 88.1869 14.6427 88.1869 13.752C88.1869 12.808 88.3629 11.9893 88.7149 11.296C89.0722 10.6027 89.5682 10.0667 90.2029 9.688C90.8375 9.30933 91.5762 9.12 92.4189 9.12C93.2989 9.12 94.0482 9.32533 94.6669 9.736C95.2855 10.1413 95.7469 10.72 96.0509 11.472C96.3602 12.224 96.4829 13.1173 96.4189 14.152H94.7469V13.544C94.7362 12.5413 94.5442 11.8 94.1709 11.32C93.8029 10.84 93.2402 10.6 92.4829 10.6C91.6455 10.6 91.0162 10.864 90.5949 11.392C90.1735 11.92 89.9629 12.6827 89.9629 13.68C89.9629 14.6293 90.1735 15.3653 90.5949 15.888C91.0162 16.4053 91.6242 16.664 92.4189 16.664C92.9415 16.664 93.3922 16.5467 93.7709 16.312C94.1549 16.072 94.4535 15.7307 94.6669 15.288L96.3069 15.808C95.9709 16.5813 95.4615 17.1813 94.7789 17.608C94.0962 18.0293 93.3362 18.24 92.4989 18.24ZM89.4189 14.152V12.848H95.5869V14.152H89.4189ZM104.043 18V13.752C104.043 13.416 104.014 13.072 103.955 12.72C103.902 12.3627 103.795 12.032 103.635 11.728C103.481 11.424 103.259 11.1787 102.971 10.992C102.689 10.8053 102.318 10.712 101.859 10.712C101.561 10.712 101.278 10.7627 101.011 10.864C100.745 10.96 100.51 11.1173 100.307 11.336C100.11 11.5547 99.9527 11.8427 99.8354 12.2C99.7234 12.5573 99.6674 12.992 99.6674 13.504L98.6274 13.112C98.6274 12.328 98.774 11.6373 99.0674 11.04C99.3607 10.4373 99.782 9.968 100.331 9.632C100.881 9.296 101.545 9.128 102.323 9.128C102.921 9.128 103.422 9.224 103.827 9.416C104.233 9.608 104.561 9.86133 104.811 10.176C105.067 10.4853 105.262 10.824 105.395 11.192C105.529 11.56 105.619 11.92 105.667 12.272C105.715 12.624 105.739 12.9333 105.739 13.2V18H104.043ZM97.9714 18V9.36H99.4674V11.856H99.6674V18H97.9714ZM111.079 18.232C110.482 18.232 109.98 18.136 109.575 17.944C109.17 17.752 108.839 17.5013 108.583 17.192C108.332 16.8773 108.14 16.536 108.007 16.168C107.874 15.8 107.783 15.44 107.735 15.088C107.687 14.736 107.663 14.4267 107.663 14.16V9.36H109.359V13.608C109.359 13.944 109.386 14.2907 109.439 14.648C109.498 15 109.604 15.328 109.759 15.632C109.919 15.936 110.14 16.1813 110.423 16.368C110.711 16.5547 111.084 16.648 111.543 16.648C111.842 16.648 112.124 16.6 112.391 16.504C112.658 16.4027 112.89 16.2427 113.087 16.024C113.29 15.8053 113.447 15.5173 113.559 15.16C113.676 14.8027 113.735 14.368 113.735 13.856L114.775 14.248C114.775 15.032 114.628 15.7253 114.335 16.328C114.042 16.9253 113.62 17.392 113.071 17.728C112.522 18.064 111.858 18.232 111.079 18.232ZM113.935 18V15.504H113.735V9.36H115.423V18H113.935ZM121.499 18.24C120.64 18.24 119.886 18.0533 119.235 17.68C118.59 17.3013 118.086 16.776 117.723 16.104C117.366 15.4267 117.187 14.6427 117.187 13.752C117.187 12.808 117.363 11.9893 117.715 11.296C118.072 10.6027 118.568 10.0667 119.203 9.688C119.838 9.30933 120.576 9.12 121.419 9.12C122.299 9.12 123.048 9.32533 123.667 9.736C124.286 10.1413 124.747 10.72 125.051 11.472C125.36 12.224 125.483 13.1173 125.419 14.152H123.747V13.544C123.736 12.5413 123.544 11.8 123.171 11.32C122.803 10.84 122.24 10.6 121.483 10.6C120.646 10.6 120.016 10.864 119.595 11.392C119.174 11.92 118.963 12.6827 118.963 13.68C118.963 14.6293 119.174 15.3653 119.595 15.888C120.016 16.4053 120.624 16.664 121.419 16.664C121.942 16.664 122.392 16.5467 122.771 16.312C123.155 16.072 123.454 15.7307 123.667 15.288L125.307 15.808C124.971 16.5813 124.462 17.1813 123.779 17.608C123.096 18.0293 122.336 18.24 121.499 18.24ZM118.419 14.152V12.848H124.587V14.152H118.419ZM133.289 18V8.056H129.457V6.48H138.793V8.056H134.961V18H133.289ZM141.388 18.24C140.748 18.24 140.212 18.1227 139.78 17.888C139.348 17.648 139.02 17.3333 138.796 16.944C138.577 16.5493 138.468 16.1173 138.468 15.648C138.468 15.2107 138.545 14.8267 138.7 14.496C138.855 14.1653 139.084 13.8853 139.388 13.656C139.692 13.4213 140.065 13.232 140.508 13.088C140.892 12.976 141.327 12.8773 141.812 12.792C142.297 12.7067 142.807 12.6267 143.34 12.552C143.879 12.4773 144.412 12.4027 144.94 12.328L144.332 12.664C144.343 11.9867 144.199 11.4853 143.9 11.16C143.607 10.8293 143.1 10.664 142.38 10.664C141.927 10.664 141.511 10.7707 141.132 10.984C140.753 11.192 140.489 11.5387 140.34 12.024L138.78 11.544C138.993 10.8027 139.399 10.2133 139.996 9.776C140.599 9.33867 141.399 9.12 142.396 9.12C143.169 9.12 143.841 9.25333 144.412 9.52C144.988 9.78133 145.409 10.1973 145.676 10.768C145.815 11.0507 145.9 11.3493 145.932 11.664C145.964 11.9787 145.98 12.3173 145.98 12.68V18H144.5V16.024L144.788 16.28C144.431 16.9413 143.975 17.4347 143.42 17.76C142.871 18.08 142.193 18.24 141.388 18.24ZM141.684 16.872C142.159 16.872 142.567 16.7893 142.908 16.624C143.249 16.4533 143.524 16.2373 143.732 15.976C143.94 15.7147 144.076 15.4427 144.14 15.16C144.231 14.904 144.281 14.616 144.292 14.296C144.308 13.976 144.316 13.72 144.316 13.528L144.86 13.728C144.332 13.808 143.852 13.88 143.42 13.944C142.988 14.008 142.596 14.072 142.244 14.136C141.897 14.1947 141.588 14.2667 141.316 14.352C141.087 14.432 140.881 14.528 140.7 14.64C140.524 14.752 140.383 14.888 140.276 15.048C140.175 15.208 140.124 15.4027 140.124 15.632C140.124 15.856 140.18 16.064 140.292 16.256C140.404 16.4427 140.575 16.592 140.804 16.704C141.033 16.816 141.327 16.872 141.684 16.872ZM148.058 18V9.36H149.546V11.456L149.338 11.184C149.444 10.9067 149.583 10.6533 149.754 10.424C149.924 10.1893 150.122 9.99733 150.346 9.848C150.564 9.688 150.807 9.56533 151.074 9.48C151.346 9.38933 151.623 9.336 151.906 9.32C152.188 9.29867 152.46 9.312 152.722 9.36V10.928C152.439 10.8533 152.124 10.832 151.778 10.864C151.436 10.896 151.122 11.0053 150.834 11.192C150.562 11.368 150.346 11.5813 150.186 11.832C150.031 12.0827 149.919 12.3627 149.85 12.672C149.78 12.976 149.746 13.2987 149.746 13.64V18H148.058ZM157.493 22.08C157.029 22.08 156.578 22.008 156.141 21.864C155.709 21.72 155.314 21.5067 154.957 21.224C154.599 20.9467 154.303 20.6027 154.069 20.192L155.613 19.408C155.799 19.776 156.066 20.0453 156.413 20.216C156.759 20.3867 157.125 20.472 157.509 20.472C157.983 20.472 158.389 20.3867 158.725 20.216C159.061 20.0507 159.314 19.8 159.485 19.464C159.661 19.128 159.746 18.712 159.741 18.216V15.8H159.941V9.36H161.421V18.232C161.421 18.4613 161.413 18.68 161.397 18.888C161.381 19.096 161.351 19.304 161.309 19.512C161.186 20.0933 160.951 20.5733 160.605 20.952C160.263 21.3307 159.826 21.6133 159.293 21.8C158.765 21.9867 158.165 22.08 157.493 22.08ZM157.365 18.24C156.559 18.24 155.863 18.04 155.277 17.64C154.695 17.24 154.245 16.696 153.925 16.008C153.61 15.3147 153.453 14.536 153.453 13.672C153.453 12.8027 153.613 12.0267 153.933 11.344C154.253 10.656 154.706 10.1147 155.293 9.72C155.885 9.32 156.586 9.12 157.397 9.12C158.213 9.12 158.898 9.32 159.453 9.72C160.013 10.1147 160.434 10.656 160.717 11.344C161.005 12.032 161.149 12.808 161.149 13.672C161.149 14.536 161.005 15.312 160.717 16C160.429 16.688 160.005 17.2347 159.445 17.64C158.885 18.04 158.191 18.24 157.365 18.24ZM157.597 16.728C158.146 16.728 158.594 16.5973 158.941 16.336C159.287 16.0747 159.541 15.7147 159.701 15.256C159.861 14.7973 159.941 14.2693 159.941 13.672C159.941 13.0747 159.858 12.5467 159.693 12.088C159.533 11.6293 159.282 11.272 158.941 11.016C158.605 10.76 158.175 10.632 157.653 10.632C157.098 10.632 156.642 10.768 156.285 11.04C155.927 11.312 155.661 11.6773 155.485 12.136C155.314 12.5947 155.229 13.1067 155.229 13.672C155.229 14.2427 155.314 14.76 155.485 15.224C155.661 15.6827 155.922 16.048 156.269 16.32C156.621 16.592 157.063 16.728 157.597 16.728ZM167.499 18.24C166.64 18.24 165.886 18.0533 165.235 17.68C164.59 17.3013 164.086 16.776 163.723 16.104C163.366 15.4267 163.187 14.6427 163.187 13.752C163.187 12.808 163.363 11.9893 163.715 11.296C164.072 10.6027 164.568 10.0667 165.203 9.688C165.838 9.30933 166.576 9.12 167.419 9.12C168.299 9.12 169.048 9.32533 169.667 9.736C170.286 10.1413 170.747 10.72 171.051 11.472C171.36 12.224 171.483 13.1173 171.419 14.152H169.747V13.544C169.736 12.5413 169.544 11.8 169.171 11.32C168.803 10.84 168.24 10.6 167.483 10.6C166.646 10.6 166.016 10.864 165.595 11.392C165.174 11.92 164.963 12.6827 164.963 13.68C164.963 14.6293 165.174 15.3653 165.595 15.888C166.016 16.4053 166.624 16.664 167.419 16.664C167.942 16.664 168.392 16.5467 168.771 16.312C169.155 16.072 169.454 15.7307 169.667 15.288L171.307 15.808C170.971 16.5813 170.462 17.1813 169.779 17.608C169.096 18.0293 168.336 18.24 167.499 18.24ZM164.419 14.152V12.848H170.587V14.152H164.419ZM178.158 18C177.614 18.1067 177.08 18.152 176.558 18.136C176.035 18.12 175.568 18.0187 175.158 17.832C174.747 17.6453 174.438 17.352 174.23 16.952C174.043 16.5947 173.942 16.232 173.926 15.864C173.915 15.4907 173.91 15.0693 173.91 14.6V6.96H175.59V14.52C175.59 14.8667 175.592 15.168 175.598 15.424C175.608 15.68 175.664 15.896 175.766 16.072C175.958 16.4027 176.262 16.592 176.678 16.64C177.099 16.6827 177.592 16.664 178.158 16.584V18ZM172.254 10.704V9.36H178.158V10.704H172.254ZM183.183 18V6.48H187.839C187.951 6.48 188.089 6.48533 188.255 6.496C188.42 6.50133 188.577 6.51733 188.727 6.544C189.367 6.64533 189.9 6.864 190.326 7.2C190.759 7.536 191.081 7.96 191.295 8.472C191.508 8.984 191.615 9.54933 191.615 10.168C191.615 10.792 191.508 11.36 191.295 11.872C191.081 12.384 190.759 12.808 190.326 13.144C189.9 13.48 189.367 13.6987 188.727 13.8C188.577 13.8213 188.417 13.8373 188.247 13.848C188.081 13.8587 187.945 13.864 187.839 13.864H184.855V18H183.183ZM184.855 12.28H187.775C187.881 12.28 187.999 12.2747 188.127 12.264C188.26 12.2533 188.385 12.2347 188.503 12.208C188.844 12.128 189.119 11.9813 189.327 11.768C189.535 11.5493 189.684 11.2987 189.775 11.016C189.865 10.7333 189.911 10.4507 189.911 10.168C189.911 9.88533 189.865 9.60533 189.775 9.328C189.684 9.04533 189.535 8.79733 189.327 8.584C189.119 8.36533 188.844 8.216 188.503 8.136C188.385 8.104 188.26 8.08267 188.127 8.072C187.999 8.06133 187.881 8.056 187.775 8.056H184.855V12.28ZM193.214 18V9.36H194.702V11.456L194.494 11.184C194.6 10.9067 194.739 10.6533 194.91 10.424C195.08 10.1893 195.278 9.99733 195.502 9.848C195.72 9.688 195.963 9.56533 196.23 9.48C196.502 9.38933 196.779 9.336 197.062 9.32C197.344 9.29867 197.616 9.312 197.878 9.36V10.928C197.595 10.8533 197.28 10.832 196.934 10.864C196.592 10.896 196.278 11.0053 195.99 11.192C195.718 11.368 195.502 11.5813 195.342 11.832C195.187 12.0827 195.075 12.3627 195.006 12.672C194.936 12.976 194.902 13.2987 194.902 13.64V18H193.214ZM202.997 18.24C202.133 18.24 201.384 18.0453 200.749 17.656C200.114 17.2667 199.624 16.7307 199.277 16.048C198.936 15.36 198.765 14.568 198.765 13.672C198.765 12.7707 198.941 11.9787 199.293 11.296C199.645 10.608 200.138 10.0747 200.773 9.696C201.408 9.312 202.149 9.12 202.997 9.12C203.861 9.12 204.61 9.31467 205.245 9.704C205.88 10.0933 206.37 10.6293 206.717 11.312C207.064 11.9947 207.237 12.7813 207.237 13.672C207.237 14.5733 207.061 15.368 206.709 16.056C206.362 16.7387 205.872 17.2747 205.237 17.664C204.602 18.048 203.856 18.24 202.997 18.24ZM202.997 16.664C203.824 16.664 204.44 16.3867 204.845 15.832C205.256 15.272 205.461 14.552 205.461 13.672C205.461 12.7707 205.253 12.0507 204.837 11.512C204.426 10.968 203.813 10.696 202.997 10.696C202.437 10.696 201.976 10.824 201.613 11.08C201.25 11.3307 200.981 11.68 200.805 12.128C200.629 12.5707 200.541 13.0853 200.541 13.672C200.541 14.5787 200.749 15.304 201.165 15.848C201.581 16.392 202.192 16.664 202.997 16.664ZM212.555 22.08C212.091 22.08 211.64 22.008 211.203 21.864C210.771 21.72 210.376 21.5067 210.019 21.224C209.662 20.9467 209.366 20.6027 209.131 20.192L210.675 19.408C210.862 19.776 211.128 20.0453 211.475 20.216C211.822 20.3867 212.187 20.472 212.571 20.472C213.046 20.472 213.451 20.3867 213.787 20.216C214.123 20.0507 214.376 19.8 214.547 19.464C214.723 19.128 214.808 18.712 214.803 18.216V15.8H215.003V9.36H216.483V18.232C216.483 18.4613 216.475 18.68 216.459 18.888C216.443 19.096 216.414 19.304 216.371 19.512C216.248 20.0933 216.014 20.5733 215.667 20.952C215.326 21.3307 214.888 21.6133 214.355 21.8C213.827 21.9867 213.227 22.08 212.555 22.08ZM212.427 18.24C211.622 18.24 210.926 18.04 210.339 17.64C209.758 17.24 209.307 16.696 208.987 16.008C208.672 15.3147 208.515 14.536 208.515 13.672C208.515 12.8027 208.675 12.0267 208.995 11.344C209.315 10.656 209.768 10.1147 210.355 9.72C210.947 9.32 211.648 9.12 212.459 9.12C213.275 9.12 213.96 9.32 214.515 9.72C215.075 10.1147 215.496 10.656 215.779 11.344C216.067 12.032 216.211 12.808 216.211 13.672C216.211 14.536 216.067 15.312 215.779 16C215.491 16.688 215.067 17.2347 214.507 17.64C213.947 18.04 213.254 18.24 212.427 18.24ZM212.659 16.728C213.208 16.728 213.656 16.5973 214.003 16.336C214.35 16.0747 214.603 15.7147 214.763 15.256C214.923 14.7973 215.003 14.2693 215.003 13.672C215.003 13.0747 214.92 12.5467 214.755 12.088C214.595 11.6293 214.344 11.272 214.003 11.016C213.667 10.76 213.238 10.632 212.715 10.632C212.16 10.632 211.704 10.768 211.347 11.04C210.99 11.312 210.723 11.6773 210.547 12.136C210.376 12.5947 210.291 13.1067 210.291 13.672C210.291 14.2427 210.376 14.76 210.547 15.224C210.723 15.6827 210.984 16.048 211.331 16.32C211.683 16.592 212.126 16.728 212.659 16.728ZM218.729 18V9.36H220.217V11.456L220.009 11.184C220.116 10.9067 220.255 10.6533 220.425 10.424C220.596 10.1893 220.793 9.99733 221.017 9.848C221.236 9.688 221.479 9.56533 221.745 9.48C222.017 9.38933 222.295 9.336 222.577 9.32C222.86 9.29867 223.132 9.312 223.393 9.36V10.928C223.111 10.8533 222.796 10.832 222.449 10.864C222.108 10.896 221.793 11.0053 221.505 11.192C221.233 11.368 221.017 11.5813 220.857 11.832C220.703 12.0827 220.591 12.3627 220.521 12.672C220.452 12.976 220.417 13.2987 220.417 13.64V18H218.729ZM228.593 18.24C227.734 18.24 226.979 18.0533 226.329 17.68C225.683 17.3013 225.179 16.776 224.817 16.104C224.459 15.4267 224.281 14.6427 224.281 13.752C224.281 12.808 224.457 11.9893 224.809 11.296C225.166 10.6027 225.662 10.0667 226.297 9.688C226.931 9.30933 227.67 9.12 228.513 9.12C229.393 9.12 230.142 9.32533 230.761 9.736C231.379 10.1413 231.841 10.72 232.145 11.472C232.454 12.224 232.577 13.1173 232.513 14.152H230.841V13.544C230.83 12.5413 230.638 11.8 230.265 11.32C229.897 10.84 229.334 10.6 228.577 10.6C227.739 10.6 227.11 10.864 226.689 11.392C226.267 11.92 226.057 12.6827 226.057 13.68C226.057 14.6293 226.267 15.3653 226.689 15.888C227.11 16.4053 227.718 16.664 228.513 16.664C229.035 16.664 229.486 16.5467 229.865 16.312C230.249 16.072 230.547 15.7307 230.761 15.288L232.401 15.808C232.065 16.5813 231.555 17.1813 230.873 17.608C230.19 18.0293 229.43 18.24 228.593 18.24ZM225.513 14.152V12.848H231.681V14.152H225.513ZM237.612 18.232C236.561 18.232 235.705 18 235.044 17.536C234.382 17.072 233.977 16.4187 233.828 15.576L235.539 15.312C235.646 15.76 235.892 16.1147 236.276 16.376C236.665 16.632 237.148 16.76 237.724 16.76C238.246 16.76 238.654 16.6533 238.948 16.44C239.246 16.2267 239.396 15.9333 239.396 15.56C239.396 15.3413 239.342 15.1653 239.236 15.032C239.134 14.8933 238.918 14.7627 238.588 14.64C238.257 14.5173 237.753 14.3653 237.076 14.184C236.334 13.992 235.745 13.7867 235.308 13.568C234.876 13.344 234.566 13.0853 234.38 12.792C234.198 12.4933 234.108 12.1333 234.108 11.712C234.108 11.1893 234.246 10.7333 234.524 10.344C234.801 9.95467 235.19 9.65333 235.692 9.44C236.198 9.22667 236.79 9.12 237.468 9.12C238.129 9.12 238.718 9.224 239.236 9.432C239.753 9.64 240.172 9.936 240.492 10.32C240.812 10.6987 241.004 11.144 241.068 11.656L239.356 11.968C239.297 11.552 239.102 11.224 238.772 10.984C238.441 10.744 238.012 10.6133 237.484 10.592C236.977 10.5707 236.566 10.656 236.252 10.848C235.937 11.0347 235.78 11.2933 235.78 11.624C235.78 11.816 235.838 11.9787 235.956 12.112C236.078 12.2453 236.313 12.3733 236.66 12.496C237.006 12.6187 237.518 12.7653 238.196 12.936C238.921 13.1227 239.497 13.3307 239.924 13.56C240.35 13.784 240.654 14.0533 240.836 14.368C241.022 14.6773 241.116 15.0533 241.116 15.496C241.116 16.3493 240.804 17.0187 240.18 17.504C239.561 17.9893 238.705 18.232 237.612 18.232ZM246.19 18.232C245.139 18.232 244.283 18 243.622 17.536C242.96 17.072 242.555 16.4187 242.406 15.576L244.118 15.312C244.224 15.76 244.47 16.1147 244.854 16.376C245.243 16.632 245.726 16.76 246.302 16.76C246.824 16.76 247.232 16.6533 247.526 16.44C247.824 16.2267 247.974 15.9333 247.974 15.56C247.974 15.3413 247.92 15.1653 247.814 15.032C247.712 14.8933 247.496 14.7627 247.166 14.64C246.835 14.5173 246.331 14.3653 245.654 14.184C244.912 13.992 244.323 13.7867 243.886 13.568C243.454 13.344 243.144 13.0853 242.958 12.792C242.776 12.4933 242.686 12.1333 242.686 11.712C242.686 11.1893 242.824 10.7333 243.102 10.344C243.379 9.95467 243.768 9.65333 244.27 9.44C244.776 9.22667 245.368 9.12 246.046 9.12C246.707 9.12 247.296 9.224 247.814 9.432C248.331 9.64 248.75 9.936 249.07 10.32C249.39 10.6987 249.582 11.144 249.646 11.656L247.934 11.968C247.875 11.552 247.68 11.224 247.35 10.984C247.019 10.744 246.59 10.6133 246.062 10.592C245.555 10.5707 245.144 10.656 244.83 10.848C244.515 11.0347 244.358 11.2933 244.358 11.624C244.358 11.816 244.416 11.9787 244.534 12.112C244.656 12.2453 244.891 12.3733 245.238 12.496C245.584 12.6187 246.096 12.7653 246.774 12.936C247.499 13.1227 248.075 13.3307 248.502 13.56C248.928 13.784 249.232 14.0533 249.414 14.368C249.6 14.6773 249.694 15.0533 249.694 15.496C249.694 16.3493 249.382 17.0187 248.758 17.504C248.139 17.9893 247.283 18.232 246.19 18.232Z" fill="white"/>
<path d="M606.322 17.18C605.762 17.18 605.258 17.048 604.81 16.784C604.362 16.516 604.006 16.15 603.742 15.686C603.482 15.222 603.352 14.694 603.352 14.102V11.348C603.352 10.72 603.482 10.168 603.742 9.692C604.006 9.216 604.37 8.846 604.834 8.582C605.302 8.318 605.84 8.186 606.448 8.186C606.904 8.186 607.332 8.272 607.732 8.444C608.132 8.616 608.478 8.872 608.77 9.212L607.852 10.07C607.688 9.858 607.482 9.69 607.234 9.566C606.99 9.438 606.728 9.374 606.448 9.374C606.088 9.374 605.772 9.46 605.5 9.632C605.228 9.8 605.014 10.022 604.858 10.298C604.706 10.574 604.63 10.87 604.63 11.186V12.77L604.384 12.494C604.632 12.17 604.94 11.914 605.308 11.726C605.676 11.538 606.07 11.444 606.49 11.444C607.026 11.444 607.504 11.57 607.924 11.822C608.348 12.07 608.68 12.408 608.92 12.836C609.164 13.264 609.286 13.746 609.286 14.282C609.286 14.822 609.15 15.312 608.878 15.752C608.61 16.188 608.25 16.536 607.798 16.796C607.35 17.052 606.858 17.18 606.322 17.18ZM606.322 15.974C606.634 15.974 606.918 15.898 607.174 15.746C607.43 15.594 607.634 15.39 607.786 15.134C607.938 14.878 608.014 14.594 608.014 14.282C608.014 13.97 607.938 13.686 607.786 13.43C607.638 13.174 607.436 12.97 607.18 12.818C606.924 12.666 606.64 12.59 606.328 12.59C606.016 12.59 605.73 12.666 605.47 12.818C605.214 12.97 605.01 13.174 604.858 13.43C604.706 13.686 604.63 13.97 604.63 14.282C604.63 14.59 604.706 14.872 604.858 15.128C605.01 15.384 605.214 15.59 605.47 15.746C605.726 15.898 606.01 15.974 606.322 15.974ZM614.465 17V15.494H610.565V14.306L613.373 8.36H614.807L611.999 14.306H614.465V11.966H615.737V14.306H616.595V15.494H615.737V17H614.465ZM619.115 17L618.275 16.16L626.081 8.36L626.921 9.206L619.115 17ZM625.121 17.18C624.725 17.18 624.363 17.084 624.035 16.892C623.711 16.696 623.451 16.436 623.255 16.112C623.059 15.784 622.961 15.42 622.961 15.02C622.961 14.628 623.061 14.268 623.261 13.94C623.461 13.612 623.725 13.35 624.053 13.154C624.381 12.958 624.737 12.86 625.121 12.86C625.517 12.86 625.879 12.958 626.207 13.154C626.535 13.346 626.795 13.606 626.987 13.934C627.183 14.258 627.281 14.62 627.281 15.02C627.281 15.42 627.183 15.784 626.987 16.112C626.795 16.436 626.535 16.696 626.207 16.892C625.879 17.084 625.517 17.18 625.121 17.18ZM625.121 16.094C625.317 16.094 625.495 16.046 625.655 15.95C625.819 15.85 625.949 15.718 626.045 15.554C626.145 15.39 626.195 15.212 626.195 15.02C626.195 14.828 626.145 14.65 626.045 14.486C625.949 14.322 625.819 14.192 625.655 14.096C625.495 13.996 625.317 13.946 625.121 13.946C624.929 13.946 624.751 13.996 624.587 14.096C624.427 14.192 624.297 14.322 624.197 14.486C624.101 14.65 624.053 14.828 624.053 15.02C624.053 15.212 624.101 15.39 624.197 15.554C624.297 15.718 624.427 15.85 624.587 15.95C624.751 16.046 624.929 16.094 625.121 16.094ZM620.075 12.5C619.679 12.5 619.317 12.404 618.989 12.212C618.661 12.016 618.399 11.756 618.203 11.432C618.011 11.104 617.915 10.74 617.915 10.34C617.915 9.948 618.015 9.588 618.215 9.26C618.415 8.932 618.679 8.67 619.007 8.474C619.335 8.278 619.691 8.18 620.075 8.18C620.471 8.18 620.831 8.278 621.155 8.474C621.483 8.666 621.745 8.926 621.941 9.254C622.137 9.578 622.235 9.94 622.235 10.34C622.235 10.74 622.137 11.104 621.941 11.432C621.745 11.756 621.483 12.016 621.155 12.212C620.831 12.404 620.471 12.5 620.075 12.5ZM620.075 11.414C620.267 11.414 620.445 11.366 620.609 11.27C620.773 11.17 620.903 11.038 620.999 10.874C621.099 10.71 621.149 10.532 621.149 10.34C621.149 10.148 621.099 9.97 620.999 9.806C620.903 9.642 620.773 9.512 620.609 9.416C620.445 9.316 620.267 9.266 620.075 9.266C619.883 9.266 619.705 9.316 619.541 9.416C619.381 9.512 619.251 9.642 619.151 9.806C619.051 9.97 619.001 10.148 619.001 10.34C619.001 10.532 619.051 10.71 619.151 10.874C619.251 11.038 619.381 11.17 619.541 11.27C619.701 11.366 619.879 11.414 620.075 11.414Z" fill="white"/>
</svg>
