<svg width="30" height="30" viewBox="0 0 30 30" fill="none" xmlns="http://www.w3.org/2000/svg">
<path d="M11.7207 19.2207C11.0931 19.8484 11.0931 20.8659 11.7207 21.4936C12.3483 22.1212 13.3659 22.1212 13.9936 21.4936L19.3507 16.1364C19.9783 15.5088 19.9783 14.4912 19.3507 13.8636L13.9936 8.50643C13.3659 7.87881 12.3483 7.87881 11.7207 8.50643C11.0931 9.13406 11.0931 10.1516 11.7207 10.7793L15.9414 15L11.7207 19.2207Z" fill="white"/>
<path fill-rule="evenodd" clip-rule="evenodd" d="M15 0C23.2843 -3.62117e-07 30 6.71573 30 15C30 23.2843 23.2843 30 15 30C6.71573 30 3.62117e-07 23.2843 0 15C-3.62117e-07 6.71573 6.71573 3.62117e-07 15 0ZM15 3.21429C21.5091 3.21429 26.7857 8.49093 26.7857 15C26.7857 21.5091 21.5091 26.7857 15 26.7857C8.49093 26.7857 3.21429 21.5091 3.21429 15C3.21429 8.49093 8.49093 3.21429 15 3.21429Z" fill="white"/>
</svg>
