<svg width="447" height="374" viewBox="0 0 447 374" fill="none" xmlns="http://www.w3.org/2000/svg">
<path d="M0 16C0 7.16345 7.16344 0 16 0H431C439.837 0 447 7.16344 447 16V358C447 366.837 439.837 374 431 374H16C7.16345 374 0 366.837 0 358V16Z" fill="#282832"/>
<path d="M73.5 294L73.1276 293.072L73.5 294ZM106.571 289.5L106.857 290.458L106.571 289.5ZM135.5 259L135.017 258.124L135.5 259ZM175 250L175.355 250.935L175 250ZM204.5 222L204.838 222.941L204.5 222ZM240 201.5L240.367 202.43L240 201.5ZM268 171.5L268.322 172.447L268 171.5ZM309 160L309.287 160.958L309 160ZM346.938 114.155C346.748 113.636 346.173 113.371 345.655 113.562L337.209 116.67C336.69 116.861 336.425 117.436 336.616 117.954C336.806 118.472 337.381 118.738 337.899 118.547L345.407 115.784L348.17 123.291C348.361 123.81 348.936 124.075 349.454 123.885C349.972 123.694 350.238 123.119 350.047 122.601L346.938 114.155ZM44 318.5C44.7215 319.192 44.7216 319.192 44.7217 319.192C44.7218 319.192 44.722 319.192 44.7222 319.192C44.7228 319.191 44.7236 319.19 44.7247 319.189C44.727 319.187 44.7304 319.183 44.7351 319.178C44.7443 319.169 44.7583 319.154 44.7768 319.135C44.8139 319.096 44.8694 319.039 44.9424 318.964C45.0882 318.813 45.304 318.591 45.5823 318.308C46.1389 317.74 46.9456 316.923 47.9444 315.931C49.9426 313.946 52.7067 311.26 55.7726 308.453C58.8403 305.645 62.2003 302.725 65.3914 300.269C68.6011 297.799 71.5719 295.851 73.8724 294.928L73.1276 293.072C70.558 294.103 67.4063 296.195 64.1715 298.684C60.9182 301.188 57.512 304.15 54.4222 306.978C51.3306 309.808 48.5461 312.514 46.5349 314.512C45.529 315.511 44.7159 316.334 44.1539 316.908C43.8729 317.194 43.6545 317.419 43.5062 317.572C43.4321 317.648 43.3754 317.707 43.3371 317.747C43.318 317.767 43.3035 317.782 43.2937 317.792C43.2887 317.797 43.285 317.801 43.2825 317.803C43.2812 317.805 43.2802 317.806 43.2796 317.806C43.2792 317.807 43.279 317.807 43.2788 317.807C43.2786 317.807 43.2785 317.808 44 318.5ZM73.8724 294.928C79.2199 292.782 84.4554 292.513 89.9026 292.372C95.3151 292.231 100.963 292.219 106.857 290.458L106.285 288.542C100.696 290.211 95.3379 290.23 89.8507 290.373C84.3981 290.514 78.8398 290.78 73.1276 293.072L73.8724 294.928ZM106.857 290.458C110.208 289.457 113.019 287.342 115.506 284.72C117.99 282.102 120.202 278.923 122.334 275.732C124.483 272.515 126.544 269.296 128.775 266.478C131.003 263.664 133.339 261.334 135.983 259.876L135.017 258.124C132.036 259.768 129.505 262.334 127.207 265.237C124.911 268.136 122.786 271.454 120.671 274.621C118.539 277.812 116.41 280.862 114.055 283.344C111.705 285.821 109.182 287.676 106.285 288.542L106.857 290.458ZM135.983 259.876C144.366 255.254 149.46 254.781 154.779 254.591C160.21 254.397 165.954 254.506 175.355 250.935L174.645 249.065C165.581 252.509 160.132 252.399 154.708 252.592C149.173 252.79 143.749 253.31 135.017 258.124L135.983 259.876ZM175.355 250.935C180.09 249.136 183.21 246.841 185.504 244.281C187.78 241.741 189.208 238.971 190.581 236.337C191.967 233.679 193.297 231.156 195.394 228.876C197.473 226.614 200.343 224.554 204.838 222.941L204.162 221.059C199.39 222.771 196.238 225.002 193.921 227.522C191.622 230.024 190.183 232.775 188.808 235.413C187.42 238.075 186.097 240.622 184.014 242.947C181.949 245.252 179.102 247.372 174.645 249.065L175.355 250.935ZM204.838 222.941C211.531 220.539 217.277 216.614 222.888 212.722C228.532 208.808 234.034 204.932 240.367 202.43L239.633 200.57C233.045 203.173 227.348 207.195 221.749 211.079C216.116 214.986 210.573 218.758 204.162 221.059L204.838 222.941ZM240.367 202.43C245.105 200.559 248.125 198.069 250.264 195.263C252.38 192.485 253.602 189.431 254.781 186.553C255.974 183.639 257.126 180.9 259.091 178.485C261.033 176.097 263.813 173.981 268.322 172.447L267.678 170.553C262.843 172.199 259.739 174.519 257.539 177.223C255.362 179.899 254.113 182.907 252.93 185.795C251.733 188.717 250.602 191.519 248.673 194.05C246.765 196.554 244.046 198.826 239.633 200.57L240.367 202.43ZM268.322 172.447C274.518 170.338 281.577 168.418 288.689 166.546C295.787 164.678 302.945 162.858 309.287 160.958L308.713 159.042C302.413 160.929 295.304 162.737 288.18 164.612C281.068 166.483 273.948 168.419 267.678 170.553L268.322 172.447ZM309.287 160.958C314.17 159.495 318.947 155.81 323.329 151.238C327.727 146.65 331.811 141.079 335.295 135.711C338.782 130.338 341.683 125.144 343.712 121.294C344.727 119.369 345.524 117.778 346.069 116.667C346.341 116.112 346.55 115.677 346.691 115.379C346.762 115.23 346.816 115.116 346.852 115.039C346.87 115 346.884 114.971 346.893 114.951C346.898 114.941 346.901 114.933 346.904 114.928C346.905 114.925 346.906 114.923 346.907 114.922C346.907 114.921 346.907 114.92 346.907 114.92C346.908 114.92 346.908 114.919 346 114.5C345.092 114.081 345.092 114.081 345.092 114.081C345.092 114.081 345.092 114.081 345.092 114.082C345.091 114.083 345.09 114.085 345.089 114.087C345.087 114.091 345.084 114.098 345.08 114.107C345.071 114.126 345.058 114.154 345.041 114.191C345.006 114.265 344.954 114.376 344.885 114.521C344.747 114.811 344.542 115.239 344.273 115.787C343.736 116.882 342.947 118.456 341.943 120.362C339.932 124.175 337.062 129.314 333.617 134.622C330.17 139.934 326.163 145.391 321.885 149.855C317.59 154.335 313.105 157.727 308.713 159.042L309.287 160.958Z" fill="#006897"/>
<path d="M157.964 272.545C157.964 270.336 159.755 268.545 161.964 268.545H181.348C183.557 268.545 185.348 270.336 185.348 272.545V350H157.964V272.545Z" fill="#64CDFE"/>
<path d="M59.3833 329.273C59.3833 327.064 61.1742 325.273 63.3833 325.273H82.7668C84.9759 325.273 86.7668 327.064 86.7668 329.273V350H59.3833V329.273Z" fill="#64CDFE"/>
<path d="M190.824 253.636C190.824 251.427 192.615 249.636 194.824 249.636H214.208C216.417 249.636 218.208 251.427 218.208 253.636V348.545H190.824V253.636Z" fill="#64CDFE"/>
<path d="M355.125 130C355.125 127.791 356.916 126 359.125 126H378.509C380.718 126 382.509 127.791 382.509 130V350H355.125V130Z" fill="#64CDFE"/>
<path d="M322.265 160.545C322.265 158.336 324.056 156.545 326.265 156.545H345.649C347.858 156.545 349.649 158.336 349.649 160.545V350H322.265V160.545Z" fill="#64CDFE"/>
<path d="M223.685 224.545C223.685 222.336 225.475 220.545 227.685 220.545H247.068C249.277 220.545 251.068 222.336 251.068 224.545V350H223.685V224.545Z" fill="#64CDFE"/>
<path d="M125.104 288.689C125.104 286.479 126.895 284.689 129.104 284.689H148.488C150.697 284.689 152.488 286.479 152.488 288.689V349.312H125.104V288.689Z" fill="#64CDFE"/>
<path d="M92.2437 313.273C92.2437 311.064 94.0345 309.273 96.2437 309.273H115.627C117.836 309.273 119.627 311.064 119.627 313.273V350H92.2437V313.273Z" fill="#64CDFE"/>
<path d="M289.405 182.364C289.405 180.155 291.196 178.364 293.405 178.364H312.788C314.997 178.364 316.788 180.155 316.788 182.364V350H289.405V182.364Z" fill="#64CDFE"/>
<path d="M256.545 205.636C256.545 203.427 258.336 201.636 260.545 201.636H279.928C282.138 201.636 283.928 203.427 283.928 205.636V348.545H256.545V205.636Z" fill="#64CDFE"/>
<line x1="32" y1="349.216" x2="414" y2="349.216" stroke="white" stroke-opacity="0.25"/>
<path d="M29.384 58.24C28.5413 58.24 27.7813 58.0933 27.104 57.8C26.432 57.5067 25.8773 57.088 25.44 56.544C25.008 55.9947 24.7333 55.344 24.616 54.592L26.616 54.288C26.7867 54.9707 27.136 55.4987 27.664 55.872C28.1973 56.2453 28.8107 56.432 29.504 56.432C29.9147 56.432 30.3013 56.368 30.664 56.24C31.0267 56.112 31.32 55.9253 31.544 55.68C31.7733 55.4347 31.888 55.1333 31.888 54.776C31.888 54.616 31.8613 54.4693 31.808 54.336C31.7547 54.1973 31.6747 54.0747 31.568 53.968C31.4667 53.8613 31.3333 53.7653 31.168 53.68C31.008 53.5893 30.8213 53.512 30.608 53.448L27.632 52.568C27.376 52.4933 27.0987 52.3947 26.8 52.272C26.5067 52.144 26.2267 51.9707 25.96 51.752C25.6987 51.528 25.4827 51.2453 25.312 50.904C25.1467 50.5573 25.064 50.1307 25.064 49.624C25.064 48.8827 25.2507 48.2613 25.624 47.76C26.0027 47.2533 26.5093 46.8747 27.144 46.624C27.784 46.3733 28.4933 46.2507 29.272 46.256C30.0613 46.2613 30.7653 46.3973 31.384 46.664C32.0027 46.9253 32.52 47.3067 32.936 47.808C33.352 48.3093 33.6453 48.9147 33.816 49.624L31.744 49.984C31.6587 49.5787 31.4933 49.2347 31.248 48.952C31.008 48.664 30.712 48.4453 30.36 48.296C30.0133 48.1467 29.6427 48.0667 29.248 48.056C28.864 48.0507 28.5067 48.1093 28.176 48.232C27.8507 48.3493 27.5867 48.52 27.384 48.744C27.1867 48.968 27.088 49.2293 27.088 49.528C27.088 49.8107 27.1733 50.0427 27.344 50.224C27.5147 50.4 27.7253 50.5413 27.976 50.648C28.232 50.7493 28.4907 50.8347 28.752 50.904L30.816 51.48C31.0987 51.5547 31.416 51.656 31.768 51.784C32.12 51.912 32.4587 52.0907 32.784 52.32C33.1093 52.5493 33.376 52.8507 33.584 53.224C33.7973 53.5973 33.904 54.072 33.904 54.648C33.904 55.2453 33.7787 55.7707 33.528 56.224C33.2827 56.672 32.9493 57.0453 32.528 57.344C32.1067 57.6427 31.624 57.8667 31.08 58.016C30.5413 58.1653 29.976 58.24 29.384 58.24ZM38.0516 58.24C37.4276 58.24 36.8996 58.1227 36.4676 57.888C36.0356 57.648 35.7076 57.3307 35.4836 56.936C35.265 56.5413 35.1556 56.1067 35.1556 55.632C35.1556 55.216 35.225 54.8427 35.3636 54.512C35.5023 54.176 35.7156 53.888 36.0036 53.648C36.2916 53.4027 36.665 53.2027 37.1236 53.048C37.4703 52.936 37.8756 52.8347 38.3396 52.744C38.809 52.6533 39.3156 52.5707 39.8596 52.496C40.409 52.416 40.9823 52.3307 41.5796 52.24L40.8916 52.632C40.897 52.0347 40.7636 51.5947 40.4916 51.312C40.2196 51.0293 39.761 50.888 39.1156 50.888C38.7263 50.888 38.3503 50.9787 37.9876 51.16C37.625 51.3413 37.3716 51.6533 37.2276 52.096L35.4676 51.544C35.681 50.8133 36.0863 50.2267 36.6836 49.784C37.2863 49.3413 38.097 49.12 39.1156 49.12C39.8836 49.12 40.5583 49.2453 41.1396 49.496C41.7263 49.7467 42.161 50.1573 42.4436 50.728C42.5983 51.032 42.6916 51.344 42.7236 51.664C42.7556 51.9787 42.7716 52.3227 42.7716 52.696V58H41.0836V56.128L41.3636 56.432C40.9743 57.056 40.5183 57.5147 39.9956 57.808C39.4783 58.096 38.8303 58.24 38.0516 58.24ZM38.4356 56.704C38.873 56.704 39.2463 56.6267 39.5556 56.472C39.865 56.3173 40.1103 56.128 40.2916 55.904C40.4783 55.68 40.6036 55.4693 40.6676 55.272C40.769 55.0267 40.825 54.7467 40.8356 54.432C40.8516 54.112 40.8596 53.8533 40.8596 53.656L41.4516 53.832C40.8703 53.9227 40.3716 54.0027 39.9556 54.072C39.5396 54.1413 39.1823 54.208 38.8836 54.272C38.585 54.3307 38.321 54.3973 38.0916 54.472C37.8676 54.552 37.6783 54.6453 37.5236 54.752C37.369 54.8587 37.249 54.9813 37.1636 55.12C37.0836 55.2587 37.0436 55.4213 37.0436 55.608C37.0436 55.8213 37.097 56.0107 37.2036 56.176C37.3103 56.336 37.465 56.464 37.6676 56.56C37.8756 56.656 38.1316 56.704 38.4356 56.704ZM45.0144 58V46.24H46.9424V58H45.0144ZM53.2668 58.24C52.3921 58.24 51.6241 58.0507 50.9628 57.672C50.3014 57.2933 49.7841 56.768 49.4108 56.096C49.0428 55.424 48.8588 54.6507 48.8588 53.776C48.8588 52.832 49.0401 52.0133 49.4028 51.32C49.7654 50.6213 50.2694 50.08 50.9148 49.696C51.5601 49.312 52.3068 49.12 53.1548 49.12C54.0508 49.12 54.8108 49.3307 55.4348 49.752C56.0641 50.168 56.5308 50.7573 56.8348 51.52C57.1388 52.2827 57.2534 53.1813 57.1788 54.216H55.2668V53.512C55.2614 52.5733 55.0961 51.888 54.7708 51.456C54.4454 51.024 53.9334 50.808 53.2348 50.808C52.4454 50.808 51.8588 51.0533 51.4748 51.544C51.0908 52.0293 50.8988 52.7413 50.8988 53.68C50.8988 54.5547 51.0908 55.232 51.4748 55.712C51.8588 56.192 52.4188 56.432 53.1548 56.432C53.6294 56.432 54.0374 56.328 54.3788 56.12C54.7254 55.9067 54.9921 55.6 55.1788 55.2L57.0828 55.776C56.7521 56.5547 56.2401 57.16 55.5468 57.592C54.8588 58.024 54.0988 58.24 53.2668 58.24ZM50.2908 54.216V52.76H56.2348V54.216H50.2908ZM62.2998 58.24C61.2331 58.24 60.3664 58 59.6998 57.52C59.0331 57.04 58.6278 56.3653 58.4838 55.496L60.4518 55.192C60.5531 55.6187 60.7771 55.9547 61.1238 56.2C61.4704 56.4453 61.9078 56.568 62.4358 56.568C62.8998 56.568 63.2571 56.4773 63.5078 56.296C63.7638 56.1093 63.8918 55.856 63.8918 55.536C63.8918 55.3387 63.8438 55.1813 63.7478 55.064C63.6571 54.9413 63.4544 54.824 63.1398 54.712C62.8251 54.6 62.3424 54.4587 61.6918 54.288C60.9664 54.096 60.3904 53.8907 59.9638 53.672C59.5371 53.448 59.2304 53.184 59.0438 52.88C58.8571 52.576 58.7638 52.208 58.7638 51.776C58.7638 51.2373 58.9051 50.768 59.1878 50.368C59.4704 49.968 59.8651 49.6613 60.3718 49.448C60.8784 49.2293 61.4758 49.12 62.1638 49.12C62.8358 49.12 63.4304 49.224 63.9478 49.432C64.4704 49.64 64.8918 49.936 65.2118 50.32C65.5318 50.704 65.7291 51.1547 65.8038 51.672L63.8358 52.024C63.7878 51.656 63.6198 51.3653 63.3318 51.152C63.0491 50.9387 62.6704 50.8187 62.1958 50.792C61.7424 50.7653 61.3771 50.8347 61.0998 51C60.8224 51.16 60.6838 51.3867 60.6838 51.68C60.6838 51.8453 60.7398 51.9867 60.8518 52.104C60.9638 52.2213 61.1878 52.3387 61.5238 52.456C61.8651 52.5733 62.3718 52.7173 63.0438 52.888C63.7318 53.064 64.2811 53.2667 64.6918 53.496C65.1078 53.72 65.4064 53.9893 65.5878 54.304C65.7744 54.6187 65.8678 55 65.8678 55.448C65.8678 56.3173 65.5504 57 64.9158 57.496C64.2864 57.992 63.4144 58.24 62.2998 58.24ZM70.8231 58V46.48H75.5831C75.6951 46.48 75.8391 46.4853 76.0151 46.496C76.1911 46.5013 76.3538 46.5173 76.5031 46.544C77.1698 46.6453 77.7191 46.8667 78.1511 47.208C78.5885 47.5493 78.9111 47.9813 79.1191 48.504C79.3325 49.0213 79.4391 49.5973 79.4391 50.232C79.4391 51.1707 79.2018 51.9787 78.7271 52.656C78.2525 53.328 77.5245 53.744 76.5431 53.904L75.7191 53.976H72.7511V58H70.8231ZM77.4391 58L75.1671 53.312L77.1271 52.88L79.6231 58H77.4391ZM72.7511 52.176H75.5031C75.6098 52.176 75.7298 52.1707 75.8631 52.16C75.9965 52.1493 76.1191 52.128 76.2311 52.096C76.5511 52.016 76.8018 51.8747 76.9831 51.672C77.1698 51.4693 77.3005 51.24 77.3751 50.984C77.4551 50.728 77.4951 50.4773 77.4951 50.232C77.4951 49.9867 77.4551 49.736 77.3751 49.48C77.3005 49.2187 77.1698 48.9867 76.9831 48.784C76.8018 48.5813 76.5511 48.44 76.2311 48.36C76.1191 48.328 75.9965 48.3093 75.8631 48.304C75.7298 48.2933 75.6098 48.288 75.5031 48.288H72.7511V52.176ZM85.3136 58.24C84.439 58.24 83.671 58.0507 83.0096 57.672C82.3483 57.2933 81.831 56.768 81.4576 56.096C81.0896 55.424 80.9056 54.6507 80.9056 53.776C80.9056 52.832 81.087 52.0133 81.4496 51.32C81.8123 50.6213 82.3163 50.08 82.9616 49.696C83.607 49.312 84.3536 49.12 85.2016 49.12C86.0976 49.12 86.8576 49.3307 87.4816 49.752C88.111 50.168 88.5776 50.7573 88.8816 51.52C89.1856 52.2827 89.3003 53.1813 89.2256 54.216H87.3136V53.512C87.3083 52.5733 87.143 51.888 86.8176 51.456C86.4923 51.024 85.9803 50.808 85.2816 50.808C84.4923 50.808 83.9056 51.0533 83.5216 51.544C83.1376 52.0293 82.9456 52.7413 82.9456 53.68C82.9456 54.5547 83.1376 55.232 83.5216 55.712C83.9056 56.192 84.4656 56.432 85.2016 56.432C85.6763 56.432 86.0843 56.328 86.4256 56.12C86.7723 55.9067 87.039 55.6 87.2256 55.2L89.1296 55.776C88.799 56.5547 88.287 57.16 87.5936 57.592C86.9056 58.024 86.1456 58.24 85.3136 58.24ZM82.3376 54.216V52.76H88.2816V54.216H82.3376ZM94.9283 58.24C94.0856 58.24 93.3789 58.04 92.8083 57.64C92.2376 57.24 91.8083 56.696 91.5203 56.008C91.2323 55.3147 91.0883 54.5387 91.0883 53.68C91.0883 52.8107 91.2323 52.032 91.5203 51.344C91.8083 50.656 92.2296 50.1147 92.7843 49.72C93.3443 49.32 94.0349 49.12 94.8563 49.12C95.6723 49.12 96.3789 49.32 96.9763 49.72C97.5789 50.1147 98.0456 50.656 98.3763 51.344C98.7069 52.0267 98.8723 52.8053 98.8723 53.68C98.8723 54.544 98.7096 55.32 98.3843 56.008C98.0589 56.696 97.6003 57.24 97.0083 57.64C96.4163 58.04 95.7229 58.24 94.9283 58.24ZM90.7603 61.84V49.36H92.4643V55.424H92.7043V61.84H90.7603ZM94.6323 56.512C95.1336 56.512 95.5469 56.3867 95.8723 56.136C96.1976 55.8853 96.4376 55.5467 96.5923 55.12C96.7523 54.688 96.8323 54.208 96.8323 53.68C96.8323 53.1573 96.7523 52.6827 96.5923 52.256C96.4323 51.824 96.1843 51.4827 95.8483 51.232C95.5123 50.976 95.0856 50.848 94.5683 50.848C94.0776 50.848 93.6776 50.968 93.3683 51.208C93.0589 51.4427 92.8296 51.7733 92.6803 52.2C92.5363 52.6213 92.4643 53.1147 92.4643 53.68C92.4643 54.24 92.5363 54.7333 92.6803 55.16C92.8296 55.5867 93.0616 55.92 93.3763 56.16C93.6963 56.3947 94.1149 56.512 94.6323 56.512ZM104.452 58.24C103.588 58.24 102.833 58.0453 102.188 57.656C101.542 57.2667 101.041 56.7307 100.684 56.048C100.332 55.36 100.156 54.5707 100.156 53.68C100.156 52.7733 100.337 51.9787 100.7 51.296C101.062 50.6133 101.566 50.08 102.212 49.696C102.857 49.312 103.604 49.12 104.452 49.12C105.321 49.12 106.078 49.3147 106.724 49.704C107.369 50.0933 107.87 50.632 108.228 51.32C108.585 52.0027 108.764 52.7893 108.764 53.68C108.764 54.576 108.582 55.368 108.22 56.056C107.862 56.7387 107.361 57.2747 106.716 57.664C106.07 58.048 105.316 58.24 104.452 58.24ZM104.452 56.432C105.22 56.432 105.79 56.176 106.164 55.664C106.537 55.152 106.724 54.4907 106.724 53.68C106.724 52.8427 106.534 52.176 106.156 51.68C105.777 51.1787 105.209 50.928 104.452 50.928C103.934 50.928 103.508 51.0453 103.172 51.28C102.841 51.5093 102.596 51.832 102.436 52.248C102.276 52.6587 102.196 53.136 102.196 53.68C102.196 54.5173 102.385 55.1867 102.764 55.688C103.148 56.184 103.71 56.432 104.452 56.432ZM110.526 58V49.36H112.23V51.464L112.022 51.192C112.129 50.904 112.27 50.6427 112.446 50.408C112.628 50.168 112.844 49.9707 113.094 49.816C113.308 49.672 113.542 49.56 113.798 49.48C114.06 49.3947 114.326 49.344 114.598 49.328C114.87 49.3067 115.134 49.3173 115.39 49.36V51.16C115.134 51.0853 114.838 51.0613 114.502 51.088C114.172 51.1147 113.873 51.208 113.606 51.368C113.34 51.512 113.121 51.696 112.95 51.92C112.785 52.144 112.662 52.4 112.582 52.688C112.502 52.9707 112.462 53.2773 112.462 53.608V58H110.526ZM121.981 58C121.41 58.1067 120.85 58.152 120.301 58.136C119.757 58.1253 119.269 58.0267 118.837 57.84C118.405 57.648 118.077 57.3467 117.853 56.936C117.656 56.5627 117.552 56.1813 117.541 55.792C117.53 55.4027 117.525 54.9627 117.525 54.472V46.96H119.445V54.36C119.445 54.7067 119.448 55.0107 119.453 55.272C119.464 55.5333 119.52 55.7467 119.621 55.912C119.813 56.232 120.12 56.4107 120.541 56.448C120.962 56.4853 121.442 56.464 121.981 56.384V58ZM115.957 50.872V49.36H121.981V50.872H115.957Z" fill="white"/>
<path d="M283.424 57.24C282.544 57.24 281.811 57.0107 281.224 56.552C280.643 56.0933 280.235 55.4747 280 54.696L281.904 54.24C281.963 54.5653 282.133 54.8453 282.416 55.08C282.699 55.3147 283.011 55.432 283.352 55.432C283.576 55.432 283.813 55.3733 284.064 55.256C284.315 55.1333 284.501 54.9387 284.624 54.672C284.699 54.5013 284.741 54.2987 284.752 54.064C284.768 53.824 284.776 53.5467 284.776 53.232V45.48H286.728V53.232C286.728 53.5893 286.725 53.904 286.72 54.176C286.72 54.4427 286.693 54.696 286.64 54.936C286.592 55.1707 286.493 55.4133 286.344 55.664C286.029 56.208 285.619 56.608 285.112 56.864C284.605 57.1147 284.043 57.24 283.424 57.24ZM291.552 57.24C290.928 57.24 290.4 57.1227 289.968 56.888C289.536 56.648 289.208 56.3307 288.984 55.936C288.765 55.5413 288.656 55.1067 288.656 54.632C288.656 54.216 288.725 53.8427 288.864 53.512C289.002 53.176 289.216 52.888 289.504 52.648C289.792 52.4027 290.165 52.2027 290.624 52.048C290.97 51.936 291.376 51.8347 291.84 51.744C292.309 51.6533 292.816 51.5707 293.36 51.496C293.909 51.416 294.482 51.3307 295.08 51.24L294.392 51.632C294.397 51.0347 294.264 50.5947 293.992 50.312C293.72 50.0293 293.261 49.888 292.616 49.888C292.226 49.888 291.85 49.9787 291.488 50.16C291.125 50.3413 290.872 50.6533 290.728 51.096L288.968 50.544C289.181 49.8133 289.586 49.2267 290.184 48.784C290.786 48.3413 291.597 48.12 292.616 48.12C293.384 48.12 294.058 48.2453 294.64 48.496C295.226 48.7467 295.661 49.1573 295.944 49.728C296.098 50.032 296.192 50.344 296.224 50.664C296.256 50.9787 296.272 51.3227 296.272 51.696V57H294.584V55.128L294.864 55.432C294.474 56.056 294.018 56.5147 293.496 56.808C292.978 57.096 292.33 57.24 291.552 57.24ZM291.936 55.704C292.373 55.704 292.746 55.6267 293.056 55.472C293.365 55.3173 293.61 55.128 293.792 54.904C293.978 54.68 294.104 54.4693 294.168 54.272C294.269 54.0267 294.325 53.7467 294.336 53.432C294.352 53.112 294.36 52.8533 294.36 52.656L294.952 52.832C294.37 52.9227 293.872 53.0027 293.456 53.072C293.04 53.1413 292.682 53.208 292.384 53.272C292.085 53.3307 291.821 53.3973 291.592 53.472C291.368 53.552 291.178 53.6453 291.024 53.752C290.869 53.8587 290.749 53.9813 290.664 54.12C290.584 54.2587 290.544 54.4213 290.544 54.608C290.544 54.8213 290.597 55.0107 290.704 55.176C290.81 55.336 290.965 55.464 291.168 55.56C291.376 55.656 291.632 55.704 291.936 55.704ZM304.33 57V52.84C304.33 52.568 304.312 52.2667 304.274 51.936C304.237 51.6053 304.149 51.288 304.01 50.984C303.877 50.6747 303.674 50.4213 303.402 50.224C303.136 50.0267 302.773 49.928 302.314 49.928C302.069 49.928 301.826 49.968 301.586 50.048C301.346 50.128 301.128 50.2667 300.93 50.464C300.738 50.656 300.584 50.9227 300.466 51.264C300.349 51.6 300.29 52.032 300.29 52.56L299.146 52.072C299.146 51.336 299.288 50.6693 299.57 50.072C299.858 49.4747 300.28 49 300.834 48.648C301.389 48.2907 302.072 48.112 302.882 48.112C303.522 48.112 304.05 48.2187 304.466 48.432C304.882 48.6453 305.213 48.9173 305.458 49.248C305.704 49.5787 305.885 49.9307 306.002 50.304C306.12 50.6773 306.194 51.032 306.226 51.368C306.264 51.6987 306.282 51.968 306.282 52.176V57H304.33ZM298.338 57V48.36H300.058V51.04H300.29V57H298.338ZM315.717 57.24C314.901 57.24 314.181 57.0667 313.557 56.72C312.933 56.368 312.445 55.88 312.093 55.256C311.746 54.632 311.573 53.912 311.573 53.096V49.384C311.573 48.568 311.746 47.848 312.093 47.224C312.445 46.6 312.933 46.1147 313.557 45.768C314.181 45.416 314.901 45.24 315.717 45.24C316.533 45.24 317.25 45.416 317.869 45.768C318.493 46.1147 318.981 46.6 319.333 47.224C319.685 47.848 319.861 48.568 319.861 49.384V53.096C319.861 53.912 319.685 54.632 319.333 55.256C318.981 55.88 318.493 56.368 317.869 56.72C317.25 57.0667 316.533 57.24 315.717 57.24ZM315.717 55.408C316.122 55.408 316.49 55.312 316.821 55.12C317.152 54.9227 317.413 54.6613 317.605 54.336C317.797 54.0053 317.893 53.6373 317.893 53.232V49.24C317.893 48.8293 317.797 48.4613 317.605 48.136C317.413 47.8053 317.152 47.544 316.821 47.352C316.49 47.1547 316.122 47.056 315.717 47.056C315.312 47.056 314.944 47.1547 314.613 47.352C314.282 47.544 314.021 47.8053 313.829 48.136C313.637 48.4613 313.541 48.8293 313.541 49.24V53.232C313.541 53.6373 313.637 54.0053 313.829 54.336C314.021 54.6613 314.282 54.9227 314.613 55.12C314.944 55.312 315.312 55.408 315.717 55.408ZM324.104 57V47.584L321.944 48.904V46.776L324.104 45.48H326.072V57H324.104ZM332.163 52.712V51.2H336.963V52.712H332.163ZM341.445 57L345.077 45.48H347.901L351.533 57H349.549L346.253 46.664H346.685L343.429 57H341.445ZM343.469 54.504V52.704H349.517V54.504H343.469ZM357.131 57.24C356.289 57.24 355.582 57.04 355.011 56.64C354.441 56.24 354.011 55.696 353.723 55.008C353.435 54.3147 353.291 53.5387 353.291 52.68C353.291 51.8107 353.435 51.032 353.723 50.344C354.011 49.656 354.433 49.1147 354.987 48.72C355.547 48.32 356.238 48.12 357.059 48.12C357.875 48.12 358.582 48.32 359.179 48.72C359.782 49.1147 360.249 49.656 360.579 50.344C360.91 51.0267 361.075 51.8053 361.075 52.68C361.075 53.544 360.913 54.32 360.587 55.008C360.262 55.696 359.803 56.24 359.211 56.64C358.619 57.04 357.926 57.24 357.131 57.24ZM352.963 60.84V48.36H354.667V54.424H354.907V60.84H352.963ZM356.835 55.512C357.337 55.512 357.75 55.3867 358.075 55.136C358.401 54.8853 358.641 54.5467 358.795 54.12C358.955 53.688 359.035 53.208 359.035 52.68C359.035 52.1573 358.955 51.6827 358.795 51.256C358.635 50.824 358.387 50.4827 358.051 50.232C357.715 49.976 357.289 49.848 356.771 49.848C356.281 49.848 355.881 49.968 355.571 50.208C355.262 50.4427 355.033 50.7733 354.883 51.2C354.739 51.6213 354.667 52.1147 354.667 52.68C354.667 53.24 354.739 53.7333 354.883 54.16C355.033 54.5867 355.265 54.92 355.579 55.16C355.899 55.3947 356.318 55.512 356.835 55.512ZM362.839 57V48.36H364.543V50.464L364.335 50.192C364.441 49.904 364.583 49.6427 364.759 49.408C364.94 49.168 365.156 48.9707 365.407 48.816C365.62 48.672 365.855 48.56 366.111 48.48C366.372 48.3947 366.639 48.344 366.911 48.328C367.183 48.3067 367.447 48.3173 367.703 48.36V50.16C367.447 50.0853 367.151 50.0613 366.815 50.088C366.484 50.1147 366.185 50.208 365.919 50.368C365.652 50.512 365.433 50.696 365.263 50.92C365.097 51.144 364.975 51.4 364.895 51.688C364.815 51.9707 364.775 52.2773 364.775 52.608V57H362.839ZM369.389 47.048V45.28H371.317V47.048H369.389ZM369.389 57V48.36H371.317V57H369.389ZM373.874 57V45.24H375.802V57H373.874ZM381.081 56.984V55.304L386.009 50.912C386.393 50.5707 386.66 50.248 386.809 49.944C386.959 49.64 387.033 49.3467 387.033 49.064C387.033 48.68 386.951 48.3387 386.785 48.04C386.62 47.736 386.391 47.496 386.097 47.32C385.809 47.144 385.476 47.056 385.097 47.056C384.697 47.056 384.343 47.1493 384.033 47.336C383.729 47.5173 383.492 47.76 383.321 48.064C383.151 48.368 383.071 48.696 383.081 49.048H381.097C381.097 48.28 381.268 47.6107 381.609 47.04C381.956 46.4693 382.431 46.0267 383.033 45.712C383.641 45.3973 384.343 45.24 385.137 45.24C385.873 45.24 386.535 45.4053 387.121 45.736C387.708 46.0613 388.169 46.5147 388.505 47.096C388.841 47.672 389.009 48.336 389.009 49.088C389.009 49.6373 388.935 50.0987 388.785 50.472C388.636 50.8453 388.412 51.1893 388.113 51.504C387.82 51.8187 387.455 52.168 387.017 52.552L383.521 55.648L383.345 55.168H389.009V56.984H381.081ZM392.933 57V47.584L390.773 48.904V46.776L392.933 45.48H394.901V57H392.933Z" fill="white" fill-opacity="0.25"/>
</svg>
