<svg width="595" height="301" viewBox="0 0 595 301" fill="none" xmlns="http://www.w3.org/2000/svg">
<mask id="mask0_143_5027" style="mask-type:alpha" maskUnits="userSpaceOnUse" x="0" y="0" width="595" height="301">
<rect width="594.331" height="301" fill="#D9D9D9"/>
</mask>
<g mask="url(#mask0_143_5027)">
<path d="M591.99 309.961C591.99 261.289 579.695 213.405 556.247 170.753C532.799 128.102 498.957 92.0638 457.862 65.984L375.801 195.292C395.116 207.549 411.021 224.487 422.042 244.533C433.062 264.58 438.841 287.085 438.841 309.961H591.99Z" fill="#019E4A"/>
<path d="M152.225 63.8053C110.841 89.4239 76.5982 125.081 52.6747 167.468C28.7512 209.855 15.9221 257.598 15.3778 306.267L168.517 307.98C168.773 285.105 174.802 262.666 186.046 242.744C197.291 222.822 213.385 206.063 232.835 194.023L152.225 63.8053Z" fill="#ED5414"/>
<path d="M468.766 70.92C418.982 35.6307 359.305 17.0076 298.287 17.7199C237.268 18.4322 178.042 38.4433 129.096 74.8852L220.555 197.726C243.559 180.598 271.396 171.193 300.074 170.858C328.753 170.523 356.801 179.276 380.199 195.862L468.766 70.92Z" fill="#FFB600"/>
<path d="M448.337 305.012C448.337 266.694 433.115 229.945 406.02 202.849C378.925 175.754 342.176 160.532 303.857 160.532C265.539 160.532 228.79 175.754 201.695 202.849C174.599 229.945 159.377 266.694 159.377 305.012L303.857 305.012H448.337Z" fill="white"/>
<g clip-path="url(#clip0_143_5027)">
<path d="M492.484 176.587C474.751 176.587 460.377 190.963 460.377 208.694C460.377 226.425 474.751 240.801 492.484 240.801C510.215 240.801 524.591 226.425 524.591 208.694C524.591 190.963 510.215 176.587 492.484 176.587ZM503.186 192.138C505.402 192.138 507.2 194.535 507.2 197.489C507.2 200.443 505.402 202.84 503.186 202.84C500.971 202.84 499.173 200.443 499.173 197.489C499.173 194.535 500.971 192.138 503.186 192.138ZM481.581 192.173C483.797 192.173 485.595 194.57 485.595 197.524C485.595 200.477 483.797 202.875 481.581 202.875C479.366 202.875 477.568 200.477 477.568 197.524C477.568 194.57 479.366 192.173 481.581 192.173ZM492.15 228.258C481.166 228.258 473.803 221.068 472.479 209.111H475.072C477.172 218.364 482.857 222.992 492.128 222.992C501.399 222.992 507.085 218.366 509.185 209.111H511.86C510.539 221.071 503.133 228.258 492.15 228.258Z" fill="white"/>
</g>
<g clip-path="url(#clip1_143_5027)">
<path d="M299.84 60.1968C282.106 60.1968 267.733 74.5699 267.733 92.3034C267.733 110.034 282.106 124.41 299.84 124.41C317.57 124.41 331.946 110.034 331.946 92.3034C331.946 74.5699 317.57 60.1968 299.84 60.1968ZM310.376 75.4153C312.591 75.4153 314.389 77.8126 314.389 80.7664C314.389 83.7203 312.591 86.1176 310.376 86.1176C308.161 86.1176 306.363 83.7203 306.363 80.7664C306.363 77.8126 308.158 75.4153 310.376 75.4153ZM288.971 75.4153C291.187 75.4153 292.985 77.8126 292.985 80.7664C292.985 83.7203 291.187 86.1176 288.971 86.1176C286.756 86.1176 284.958 83.7203 284.958 80.7664C284.958 77.8126 286.753 75.4153 288.971 75.4153ZM299.652 103.699C287.278 103.699 283.444 110.171 283.444 110.171C283.444 110.171 287.01 98.987 299.671 98.987C312.407 98.987 315.558 110.553 315.558 110.553C315.558 110.553 312.027 103.699 299.652 103.699Z" fill="white"/>
</g>
<g clip-path="url(#clip2_143_5027)">
<path d="M119.24 236.787C101.508 236.787 87.1338 222.412 87.1338 204.68C87.1338 186.948 101.508 172.573 119.24 172.573C136.972 172.573 151.347 186.948 151.347 204.68C151.347 222.412 136.972 236.787 119.24 236.787ZM119.192 216.239C128.134 216.239 133.367 221.376 133.367 221.376V218.807C133.367 218.807 128.134 213.67 119.192 213.67C110.251 213.67 105.114 218.807 105.114 218.807V221.376C105.114 221.376 110.251 216.239 119.192 216.239ZM129.827 187.9L128.39 190.03L136.908 195.775L138.344 193.645L129.827 187.9ZM100.137 193.645L101.573 195.775L110.091 190.03L108.654 187.9L100.137 193.645ZM107.682 200.827C109.101 200.827 110.251 199.677 110.251 198.259C110.251 196.84 109.101 195.69 107.682 195.69C106.263 195.69 105.114 196.84 105.114 198.259C105.114 199.677 106.263 200.827 107.682 200.827ZM130.799 200.827C132.217 200.827 133.367 199.677 133.367 198.259C133.367 196.84 132.217 195.69 130.799 195.69C129.38 195.69 128.23 196.84 128.23 198.259C128.23 199.677 129.38 200.827 130.799 200.827Z" fill="white"/>
</g>
<g clip-path="url(#clip3_143_5027)">
<path d="M376.952 256.679C388.211 251.326 393 237.858 387.646 226.598C382.293 215.338 368.825 210.55 357.565 215.903L314.379 236.435C307.623 234.498 300.166 234.903 293.312 238.12C278.345 245.142 271.824 263.122 278.819 278.101C278.849 278.165 278.88 278.231 278.91 278.295C286.049 293.309 304.004 299.693 319.018 292.555C325.912 289.277 330.984 283.718 333.766 277.211L376.952 256.679ZM289.104 273.448L289.046 273.326C284.682 263.98 288.765 252.721 298.106 248.338C305.34 244.944 311.021 247.214 315.371 248.462L362.412 226.097C368.033 223.425 374.78 225.823 377.452 231.444C380.125 237.065 377.726 243.813 372.105 246.485L325.064 268.85C323.3 272.977 321.464 278.893 314.172 282.361C304.804 286.815 293.558 282.817 289.104 273.448ZM312.556 278.963C305.05 282.532 296.071 279.339 292.502 271.833C288.933 264.326 292.125 255.347 299.632 251.779C304.662 249.387 310.351 250.035 314.632 252.979L364.027 229.495C367.781 227.711 372.27 229.307 374.054 233.06C375.839 236.813 374.243 241.303 370.489 243.087L321.094 266.571C320.675 271.75 317.586 276.571 312.556 278.963Z" fill="#141414"/>
</g>
</g>
<defs>
<clipPath id="clip0_143_5027">
<rect width="64.2133" height="64.2133" fill="white" transform="translate(460.377 176.587)"/>
</clipPath>
<clipPath id="clip1_143_5027">
<rect width="64.2133" height="64.2133" fill="white" transform="translate(267.733 60.1968)"/>
</clipPath>
<clipPath id="clip2_143_5027">
<rect width="64.2133" height="64.2133" fill="white" transform="translate(87.1338 172.573)"/>
</clipPath>
<clipPath id="clip3_143_5027">
<rect width="60.2" height="120.4" fill="white" transform="translate(374.722 199.414) rotate(64.5719)"/>
</clipPath>
</defs>
</svg>
