<svg width="34" height="33" viewBox="0 0 34 33" fill="none" xmlns="http://www.w3.org/2000/svg">
<circle cx="16.5" cy="17" r="7" fill="white"/>
<path fill-rule="evenodd" clip-rule="evenodd" d="M10.2548 9.67614C12.068 7.86294 14.4787 6.85365 17.043 6.85365C19.6072 6.85365 22.0179 7.86825 23.8311 9.68145C24.9816 10.8319 25.8035 12.2144 26.251 13.7573H33.4573V4.07154C33.4573 1.79925 31.701 0.0429688 29.4287 0.0429688H4.74297C2.47068 0.0429688 0.542969 1.79925 0.542969 4.07154V13.7573H7.83485C8.28245 12.2144 9.10437 10.8266 10.2548 9.67614ZM30.7144 7.1744C30.7144 7.78031 30.2233 8.27154 29.6173 8.27154H26.3258C25.7199 8.27154 25.2287 7.7804 25.2287 7.1744V3.88297C25.2287 3.27705 25.7198 2.78583 26.3258 2.78583H29.6173C30.2232 2.78583 30.7144 3.27697 30.7144 3.88297V7.1744Z" fill="white"/>
<path fill-rule="evenodd" clip-rule="evenodd" d="M23.8311 23.2525C22.0179 25.0657 19.6072 26.0535 17.043 26.0535C14.4787 26.0535 12.068 25.0711 10.2548 23.2579C8.44497 21.448 7.44691 18.9857 7.44314 16.5H0.542969V28.7571C0.542969 31.0294 2.47068 32.9571 4.74297 32.9571H29.4287C31.701 32.9571 33.4573 31.0294 33.4573 28.7571V16.5H26.6428C26.6391 18.9857 25.6411 21.4426 23.8311 23.2525Z" fill="white"/>
</svg>
