<svg width="50" height="50" viewBox="0 0 50 50" fill="none" xmlns="http://www.w3.org/2000/svg">
<path d="M48.8766 12.9516C48.3026 10.8038 46.6112 9.11248 44.4634 8.53843C40.57 7.49512 24.9597 7.49512 24.9597 7.49512C24.9597 7.49512 9.34953 7.49512 5.45612 8.53843C3.30868 9.11248 1.61695 10.8038 1.0429 12.9516C0 16.8446 0 24.9672 0 24.9672C0 24.9672 0 33.0897 1.0429 36.9823C1.61695 39.1302 3.30868 40.8219 5.45612 41.396C9.34953 42.4389 24.9597 42.4389 24.9597 42.4389C24.9597 42.4389 40.57 42.4389 44.4634 41.396C46.6112 40.8219 48.3026 39.1302 48.8766 36.9823C49.9199 33.0897 49.9199 24.9672 49.9199 24.9672C49.9199 24.9672 49.9199 16.8446 48.8766 12.9516Z" fill="#ED1F24"/>
<path d="M19.9678 32.4547L32.937 24.9666L19.9678 17.4785V32.4547Z" fill="white"/>
</svg>
