<svg width="44" height="40" viewBox="0 0 44 40" fill="none" xmlns="http://www.w3.org/2000/svg">
<path d="M41.9813 37.3766C41.9813 38.8263 40.8072 40.0005 39.3575 40.0005H2.62383C1.17548 40.0005 0 38.8263 0 37.3766V8.51446C0 7.0661 1.17548 5.89062 2.62383 5.89062H14.9389C19.9178 5.89062 23.0158 11.2964 20.4987 15.5923C19.4098 17.1744 20.458 19.3312 22.3865 19.4703C22.4784 19.4781 22.5663 19.4808 22.6568 19.4782H26.8948C29.5635 19.4782 31.0814 22.5303 29.4712 24.6584C28.1321 26.428 25.4485 26.3518 24.212 24.509L22.4217 21.8408C20.2462 18.5985 15.4846 18.5768 13.2797 21.7991L10.8831 25.3015C10.1757 26.3354 8.72221 26.5151 7.78432 25.6847L7.20885 25.1752C6.66849 24.6968 5.84303 24.7453 5.36243 25.2837C4.87929 25.8249 4.92785 26.6557 5.47075 27.137L7.09145 28.5738C8.65432 29.9593 11.0782 29.6598 12.2567 27.9355L13.4333 26.2141C15.5516 23.1149 20.1299 23.1344 22.2217 26.2516L22.3435 26.4332C24.4311 29.5442 28.9613 29.6734 31.2228 26.6863L35.6172 20.8818C36.2866 19.9976 37.3315 19.4782 38.4404 19.4782C40.396 19.4782 41.9813 21.0635 41.9813 23.0191V37.3766Z" fill="white"/>
<path d="M32.6056 0.831427L25.1014 13.7669C24.3733 14.8348 25.0752 16.2911 26.3648 16.3868C26.4238 16.3921 26.4842 16.3934 26.5445 16.3908H41.566C42.8582 16.4327 43.711 15.0618 43.1022 13.9217C43.0747 13.8679 43.0432 13.8168 43.0091 13.7669L35.5049 0.831427C34.8568 -0.277142 33.2537 -0.277142 32.6056 0.831427Z" fill="white"/>
</svg>
