<svg width="37" height="40" viewBox="0 0 37 40" fill="none" xmlns="http://www.w3.org/2000/svg">
<path d="M30.6731 21.4286C29.7463 21.4286 28.8752 21.6633 28.1089 22.0763C26.8159 22.7733 25.2202 23.2212 23.9437 22.4944C22.0101 21.3935 22.0101 18.6065 23.9437 17.5056C25.2202 16.7788 26.8158 17.2269 28.1088 17.9239C28.8747 18.3367 29.7458 18.5714 30.6731 18.5714C33.7529 18.5714 36.25 16.0129 36.25 12.8571C36.25 9.70143 33.7529 7.14286 30.6731 7.14286C27.5932 7.14286 25.0962 9.70143 25.0962 12.8571C25.0962 14.1067 24.6987 15.4396 23.6128 16.0579L23.0947 16.3529C21.1892 17.4379 18.8221 16.0618 18.8221 13.8691C18.8221 12.4324 19.957 11.279 21.1558 10.4872C22.6869 9.47592 23.7019 7.72255 23.7019 5.71429C23.7019 2.55857 21.2049 0 18.125 0C15.0451 0 12.5481 2.55857 12.5481 5.71429C12.5481 7.72249 13.563 9.47581 15.0941 10.4871C16.2929 11.279 17.4279 12.4325 17.4279 13.8693C17.4279 16.062 15.0608 17.4382 13.1553 16.3534L12.6363 16.0579C11.5506 15.4399 11.1538 14.1064 11.1538 12.8571C11.1538 9.70143 8.65678 7.14286 5.57692 7.14286C2.49707 7.14286 0 9.70143 0 12.8571C0 16.0129 2.49707 18.5714 5.57692 18.5714C6.50431 18.5714 7.37539 18.3367 8.14138 17.9238C9.43425 17.2268 11.0298 16.7788 12.3062 17.5055C14.2397 18.6063 14.2396 21.3934 12.306 22.494C11.0291 23.2209 9.43282 22.772 8.13923 22.0752C7.3739 21.6629 6.50351 21.4286 5.57692 21.4286C2.49707 21.4286 0 23.9871 0 27.1429C0 30.2986 2.49707 32.8571 5.57692 32.8571C8.65678 32.8571 11.1538 30.2986 11.1538 27.1429C11.1538 25.8936 11.5506 24.5601 12.6363 23.9421L13.1553 23.6466C15.0608 22.5618 17.4279 23.938 17.4279 26.1307C17.4279 27.5675 16.2929 28.721 15.0941 29.5129C13.563 30.5242 12.5481 32.2775 12.5481 34.2857C12.5481 37.4414 15.0451 40 18.125 40C21.2049 40 23.7019 37.4414 23.7019 34.2857C23.7019 32.2775 22.687 30.5242 21.1559 29.5129C19.9571 28.721 18.8221 27.5675 18.8221 26.1307C18.8221 23.938 21.1892 22.5618 23.0947 23.6466L23.6137 23.9421C24.6991 24.56 25.0962 25.8938 25.0962 27.1429C25.0962 30.2986 27.5932 32.8571 30.6731 32.8571C33.7529 32.8571 36.25 30.2986 36.25 27.1429C36.25 23.9871 33.7529 21.4286 30.6731 21.4286Z" fill="#9A45F4"/>
</svg>
