<svg width="32" height="40" viewBox="0 0 32 40" fill="none" xmlns="http://www.w3.org/2000/svg">
<path fill-rule="evenodd" clip-rule="evenodd" d="M22.3007 6.11476C22.3007 2.73774 19.4337 0 15.8972 0C12.3605 0 9.49367 2.73774 9.49367 6.11476C9.49367 9.49178 12.3607 12.2295 15.8972 12.2295C19.4337 12.2295 22.3007 9.49178 22.3007 6.11476ZM5.57939 22.9092C5.57935 22.914 5.58321 22.918 5.58801 22.918C5.59281 22.9181 5.59667 22.922 5.59667 22.9268V37.2017C5.59667 38.7471 4.34381 40 2.79833 40C1.25286 40 0 38.7472 0 37.2017V21.377C0 17.1803 3.58805 13.7377 8.00005 13.7377H8.50385C9.36918 13.7377 10.1776 14.169 10.6595 14.8878L11.9082 16.7502C12.826 18.1193 14.9523 17.6024 15.1393 15.9647L15.1605 15.7789C15.1819 15.5908 15.1534 15.4003 15.0777 15.2268C14.7676 14.5164 15.2882 13.7212 16.0634 13.7212H16.243C17.0194 13.7212 17.5409 14.5177 17.2304 15.2294C17.1553 15.4013 17.1265 15.5898 17.1467 15.7763L17.166 15.9545C17.342 17.5785 19.4484 18.0994 20.361 16.7446L21.6205 14.8746C22.0993 14.1639 22.9001 13.7377 23.757 13.7377H24C28.3948 13.7377 32 17.164 32 21.377V37.2015C32 38.747 30.7471 39.9998 29.2017 39.9998C27.6562 39.9998 26.4033 38.747 26.4033 37.2015V22.9179C26.4033 22.4425 26.0772 22.1475 25.5965 22.1475C25.0986 22.1475 24.7897 22.4589 24.7897 22.9179V31.9998C24.7897 36.4181 21.2079 39.9998 16.7897 39.9998H15.193C10.7747 39.9998 7.19302 36.4181 7.19302 31.9998V22.9179C7.19302 22.4425 6.88406 22.1475 6.38619 22.1475C5.89147 22.1475 5.58328 22.4549 5.57939 22.9092Z" fill="#00ABD0"/>
</svg>
