<svg width="430" height="873" viewBox="0 0 430 873" fill="none" xmlns="http://www.w3.org/2000/svg" preserveAspectRatio="none">
<g opacity="0.8">
<mask id="mask0_251_1453" style="mask-type:alpha" maskUnits="userSpaceOnUse" x="0" y="0" width="430" height="873">
<rect width="430" height="873" fill="white"/>
</mask>
<g mask="url(#mask0_251_1453)">
<path fill-rule="evenodd" clip-rule="evenodd" d="M395.503 156.723C360.192 150.172 333.453 119.209 333.453 82C333.453 44.7915 360.192 13.8282 395.503 7.27746C357.124 10.5705 327 42.7673 327 82C327 121.233 357.124 153.43 395.503 156.723ZM409.77 156.602C409.664 156.613 409.558 156.624 409.453 156.634C371.53 152.893 341.905 120.906 341.905 82C341.905 43.0937 371.53 11.1066 409.453 7.36562C409.558 7.37607 409.664 7.38674 409.77 7.39763C374.773 14.1988 348.353 45.014 348.353 82C348.353 118.986 374.773 149.801 409.77 156.602ZM413.176 156.173C377.056 150.776 349.353 119.623 349.353 82C349.353 44.3767 377.056 13.2237 413.176 7.82709C413.57 7.88593 413.963 7.94783 414.355 8.01276C380.792 15.8981 355.804 46.031 355.804 82C355.804 117.969 380.792 148.102 414.355 155.987C413.963 156.052 413.57 156.114 413.176 156.173ZM356.804 82C356.804 45.6811 382.62 15.3917 416.902 8.4805C417.468 8.59456 418.031 8.71498 418.593 8.8417C386.659 17.8416 363.252 47.1874 363.252 82C363.252 116.813 386.659 146.158 418.593 155.158C418.031 155.285 417.468 155.405 416.902 155.52C382.62 148.608 356.804 118.319 356.804 82ZM420.626 154.669C388.215 146.386 364.252 116.992 364.252 82C364.252 47.0084 388.215 17.6137 420.626 9.33104C421.308 9.50531 421.986 9.68891 422.66 9.88172C392.47 19.942 370.704 48.4291 370.704 82C370.704 115.571 392.47 144.058 422.66 154.118C421.986 154.311 421.308 154.495 420.626 154.669ZM371.704 82C371.704 48.3632 393.847 19.8983 424.352 10.3872C425.117 10.6256 425.876 10.876 426.63 11.138C398.263 22.165 378.156 49.7344 378.156 82C378.156 114.266 398.263 141.835 426.63 152.862C425.876 153.124 425.117 153.374 424.352 153.613C393.847 144.102 371.704 115.637 371.704 82ZM428.078 152.342C399.513 141.748 379.156 114.251 379.156 82C379.156 49.7488 399.513 22.2522 428.078 11.6581C456.643 22.2522 477 49.7488 477 82C477 114.251 456.643 141.748 428.078 152.342ZM428.078 153.408C427.404 153.654 426.726 153.891 426.043 154.118C426.718 154.311 427.396 154.495 428.079 154.669C428.761 154.495 429.439 154.311 430.113 154.118C429.43 153.891 428.752 153.654 428.078 153.408ZM431.805 153.613C431.04 153.374 430.28 153.124 429.526 152.862C457.893 141.835 478 114.266 478 82C478 49.7344 457.893 22.165 429.526 11.138C430.28 10.8759 431.04 10.6255 431.805 10.387C462.31 19.898 484.453 48.3631 484.453 82C484.453 115.637 462.31 144.102 431.805 153.613ZM431.805 154.66C431.243 154.833 430.679 154.999 430.112 155.158C430.674 155.285 431.238 155.406 431.805 155.52C432.371 155.406 432.935 155.285 433.497 155.158C432.93 154.999 432.366 154.833 431.805 154.66ZM435.531 154.669C434.849 154.495 434.171 154.311 433.496 154.118C463.687 144.058 485.453 115.571 485.453 82C485.453 48.4289 463.687 19.9417 433.496 9.88157C434.171 9.68877 434.849 9.50517 435.531 9.33091C467.942 17.6133 491.905 47.0082 491.905 82C491.905 116.992 467.942 146.387 435.531 154.669ZM435.531 155.701C435.139 155.8 434.746 155.895 434.352 155.988C434.743 156.053 435.135 156.114 435.528 156.173C435.922 156.114 436.315 156.052 436.707 155.987C436.314 155.895 435.922 155.799 435.531 155.701ZM439.254 155.52C438.689 155.406 438.125 155.285 437.564 155.158C469.498 146.159 492.905 116.813 492.905 82C492.905 47.1872 469.498 17.8413 437.564 8.84157C438.125 8.71486 438.689 8.59444 439.254 8.48039C473.537 15.3914 499.353 45.6809 499.353 82C499.353 118.319 473.537 148.609 439.254 155.52ZM439.254 156.54C439.148 156.561 439.041 156.582 438.935 156.602C439.041 156.613 439.148 156.624 439.254 156.635C439.361 156.624 439.467 156.613 439.574 156.602C439.467 156.582 439.361 156.561 439.254 156.54ZM442.98 156.173C442.587 156.114 442.194 156.052 441.802 155.987C475.365 148.102 500.353 117.969 500.353 82C500.353 46.0309 475.365 15.8979 441.802 8.01266C442.194 7.94773 442.587 7.88584 442.98 7.82701C479.101 13.2234 506.805 44.3765 506.805 82C506.805 119.624 479.101 150.777 442.98 156.173ZM446.704 156.634C446.598 156.624 446.493 156.613 446.387 156.602C481.384 149.801 507.805 118.986 507.805 82C507.805 45.0139 481.384 14.1986 446.387 7.39756C446.492 7.38667 446.598 7.37601 446.704 7.36557C484.627 11.1063 514.252 43.0935 514.252 82C514.252 120.907 484.627 152.894 446.704 156.634ZM450.43 157.91C449.196 157.97 447.953 158 446.704 158C445.455 158 444.213 157.97 442.978 157.91C441.744 157.97 440.501 158 439.252 158C438.004 158 436.762 157.97 435.528 157.91C434.295 157.97 433.053 158 431.804 158C430.555 158 429.313 157.97 428.079 157.91C426.844 157.97 425.602 158 424.353 158C423.104 158 421.863 157.97 420.629 157.91C419.395 157.97 418.154 158 416.905 158C415.656 158 414.414 157.97 413.179 157.91C411.945 157.97 410.703 158 409.453 158C408.204 158 406.961 157.97 405.727 157.91C404.492 157.97 403.249 158 402 158C360.026 158 326 123.974 326 82C326 40.0264 360.026 6 402 6C403.249 6 404.492 6.03015 405.727 6.08977C406.961 6.03015 408.204 6 409.453 6C410.703 6 411.945 6.03014 413.179 6.08973C414.414 6.03014 415.656 6 416.905 6C418.154 6 419.395 6.03011 420.629 6.08963C421.863 6.03011 423.104 6 424.353 6C425.602 6 426.844 6.03014 428.079 6.08973C429.313 6.03014 430.555 6 431.804 6C433.053 6 434.295 6.03011 435.528 6.08963C436.762 6.03011 438.004 6 439.252 6C440.501 6 441.744 6.03014 442.978 6.08973C444.213 6.03014 445.455 6 446.704 6C447.953 6 449.196 6.03014 450.43 6.08975C451.665 6.03014 452.907 6 454.156 6C496.13 6 530.156 40.0264 530.156 82C530.156 123.974 496.13 158 454.156 158C452.907 158 451.665 157.97 450.43 157.91ZM460.655 7.27763C499.033 10.5716 529.156 42.768 529.156 82C529.156 121.232 499.033 153.428 460.655 156.722C495.965 150.171 522.704 119.208 522.704 82C522.704 44.7918 495.965 13.8287 460.655 7.27763ZM439.574 7.39756C439.467 7.38659 439.361 7.37586 439.254 7.36534C439.148 7.37584 439.041 7.38657 438.935 7.39752C439.041 7.41824 439.148 7.43919 439.254 7.46036C439.361 7.4392 439.467 7.41827 439.574 7.39756ZM436.707 8.01266C436.315 7.94772 435.922 7.88582 435.528 7.82697C435.135 7.88568 434.743 7.94743 434.352 8.01221C434.746 8.10474 435.139 8.20034 435.531 8.29898C435.922 8.2005 436.314 8.10505 436.707 8.01266ZM433.497 8.84157C432.935 8.71469 432.371 8.59412 431.804 8.47993C431.238 8.5941 430.674 8.71465 430.112 8.8415C430.679 9.00127 431.243 9.16744 431.805 9.33995C432.366 9.16747 432.93 9.00131 433.497 8.84157ZM430.113 9.88157C429.439 9.68874 428.761 9.50512 428.079 9.33085C427.396 9.50517 426.718 9.68884 426.043 9.88172C426.726 10.1092 427.404 10.346 428.078 10.5922C428.752 10.346 429.43 10.1091 430.113 9.88157ZM422.66 155.158C423.226 154.999 423.791 154.832 424.352 154.66C424.914 154.832 425.478 154.999 426.045 155.158C425.483 155.285 424.919 155.406 424.353 155.52C423.786 155.406 423.222 155.285 422.66 155.158ZM426.901 155.988C427.295 155.895 427.687 155.8 428.079 155.701C428.47 155.8 428.863 155.895 429.257 155.988C428.865 156.053 428.472 156.115 428.079 156.173C427.685 156.115 427.292 156.053 426.901 155.988ZM431.486 156.603C431.592 156.582 431.698 156.561 431.805 156.54C431.91 156.561 432.016 156.582 432.122 156.602C432.015 156.613 431.909 156.624 431.802 156.635C431.697 156.624 431.591 156.614 431.486 156.603ZM521.704 82C521.704 42.7683 491.582 10.5721 453.203 7.27771C488.514 13.829 515.252 44.7919 515.252 82C515.252 119.208 488.514 150.171 453.203 156.722C491.582 153.428 521.704 121.232 521.704 82ZM431.802 7.36534C431.909 7.37584 432.015 7.38657 432.122 7.39752C432.016 7.41809 431.91 7.43888 431.804 7.45989C431.698 7.43879 431.592 7.41791 431.486 7.39724C431.591 7.38639 431.697 7.37576 431.802 7.36534ZM428.079 7.82667C428.472 7.88546 428.865 7.94732 429.257 8.01221C428.863 8.10472 428.47 8.2003 428.079 8.29891C427.687 8.2003 427.295 8.10472 426.901 8.01221C427.292 7.94732 427.685 7.88546 428.079 7.82667ZM424.353 8.47993C424.919 8.5941 425.483 8.71465 426.045 8.8415C425.478 9.00132 424.914 9.16754 424.352 9.34011C423.791 9.16761 423.226 9.00145 422.66 8.8417C423.222 8.71477 423.786 8.59416 424.353 8.47993ZM420.626 155.701C420.235 155.799 419.843 155.895 419.45 155.987C419.842 156.052 420.235 156.114 420.629 156.173C421.022 156.114 421.414 156.053 421.805 155.988C421.411 155.895 421.018 155.8 420.626 155.701ZM424.353 156.54C424.247 156.561 424.141 156.582 424.035 156.602L424.164 156.616L424.355 156.635C424.46 156.624 424.566 156.614 424.671 156.603C424.565 156.582 424.459 156.561 424.353 156.54ZM424.672 7.39725C424.566 7.38639 424.46 7.37576 424.355 7.36534C424.248 7.37584 424.142 7.38657 424.035 7.39752C424.141 7.41809 424.247 7.43888 424.353 7.45989C424.459 7.43879 424.565 7.41791 424.672 7.39725ZM421.805 8.01221C421.414 7.94743 421.022 7.88568 420.629 7.82697C420.235 7.88585 419.842 7.94778 419.45 8.01276C419.843 8.10517 420.235 8.20062 420.626 8.29911C421.018 8.20043 421.411 8.10479 421.805 8.01221ZM416.583 156.602C416.689 156.582 416.796 156.561 416.902 156.54C417.009 156.561 417.116 156.582 417.222 156.602L417.023 156.623L416.903 156.635L416.732 156.618L416.583 156.602ZM416.903 7.36534C417.01 7.37584 417.116 7.38657 417.222 7.39752C417.116 7.41828 417.009 7.43926 416.902 7.46046C416.796 7.43929 416.689 7.41835 416.583 7.39763C416.689 7.38664 416.796 7.37588 416.903 7.36534ZM334.453 82C334.453 121.232 364.576 153.428 402.954 156.722C367.644 150.171 340.905 119.208 340.905 82C340.905 44.792 367.644 13.829 402.954 7.27771C364.576 10.5721 334.453 42.7683 334.453 82Z" fill="#086C88"/>
<path fill-rule="evenodd" clip-rule="evenodd" d="M-136.442 750.958C-205.665 742.495 -259.277 683.509 -259.277 612C-259.277 540.491 -205.665 481.505 -136.442 473.042C-211.619 474.869 -272 536.383 -272 612C-272 687.617 -211.619 749.131 -136.442 750.958ZM-115.832 749.95C-116.975 750.091 -118.122 750.218 -119.273 750.331C-189.598 743.437 -244.547 684.136 -244.547 612C-244.547 539.864 -189.598 480.563 -119.274 473.669C-118.122 473.782 -116.975 473.909 -115.832 474.05C-181.715 485.433 -231.828 542.864 -231.828 612C-231.828 681.136 -181.715 738.567 -115.832 749.95ZM-112.414 749.486C-179.42 739.539 -230.828 681.773 -230.828 612C-230.828 542.227 -179.42 484.461 -112.414 474.514C-110.969 474.728 -109.532 474.965 -108.102 475.224C-171.002 488.96 -218.094 544.981 -218.094 612C-218.094 679.019 -171.002 735.04 -108.102 748.776C-109.532 749.035 -110.969 749.272 -112.414 749.486ZM-217.094 612C-217.094 544.63 -169.166 488.455 -105.547 475.711C-103.93 476.034 -102.323 476.386 -100.727 476.766C-160.423 492.773 -204.375 547.254 -204.375 612C-204.375 676.746 -160.423 731.227 -100.727 747.234C-102.323 747.614 -103.93 747.966 -105.547 748.289C-169.166 735.545 -217.094 679.37 -217.094 612ZM-98.6873 746.733C-158.861 731.455 -203.375 676.926 -203.375 612C-203.375 547.074 -158.861 492.545 -98.6874 477.267C-96.9513 477.708 -95.2282 478.182 -93.5188 478.687C-149.866 496.794 -190.645 549.635 -190.645 612C-190.645 674.365 -149.866 727.206 -93.5188 745.313C-95.2281 745.818 -96.9512 746.292 -98.6873 746.733ZM-189.645 612C-189.645 549.569 -148.486 496.751 -91.8223 479.201C-90.003 479.764 -88.1997 480.364 -86.4133 480.999C-139.308 500.993 -176.922 552.104 -176.922 612C-176.922 671.896 -139.308 723.007 -86.4132 743.001C-88.1997 743.636 -90.003 744.236 -91.8222 744.799C-148.486 727.249 -189.645 674.431 -189.645 612ZM-84.9609 742.475C-138.055 722.92 -175.922 671.882 -175.922 612C-175.922 552.118 -138.055 501.08 -84.9609 481.525C-31.8665 501.08 6 552.118 6 612C6 671.882 -31.8665 722.92 -84.9609 742.475ZM-84.9609 743.541C-86.6673 744.164 -88.3891 744.755 -90.1257 745.313C-88.4176 745.818 -86.6958 746.291 -84.961 746.732C-83.2262 746.291 -81.5043 745.818 -79.7962 745.313C-81.5328 744.755 -83.2547 744.164 -84.9609 743.541ZM-78.0997 744.799C-79.9189 744.236 -81.7222 743.636 -83.5086 743.001C-30.6135 723.007 7 671.896 7 612C7 552.104 -30.6135 500.993 -83.5086 480.999C-81.7221 480.364 -79.9189 479.764 -78.0996 479.201C-21.4363 496.751 19.7227 549.569 19.7227 612C19.7227 674.431 -21.4363 727.249 -78.0997 744.799ZM-78.0996 745.846C-79.6949 746.336 -81.3024 746.799 -82.9215 747.233C-81.3234 747.613 -79.7147 747.966 -78.0957 748.29C-76.4782 747.966 -74.8708 747.614 -73.2741 747.234C-74.8944 746.8 -76.503 746.337 -78.0996 745.846ZM-71.2344 746.733C-72.9706 746.292 -74.6936 745.818 -76.403 745.313C-20.0555 727.206 20.7227 674.365 20.7227 612C20.7227 549.635 -20.0555 496.794 -76.403 478.687C-74.6937 478.182 -72.9706 477.708 -71.2345 477.267C-11.061 492.545 33.4529 547.074 33.4529 612C33.4529 676.926 -11.061 731.455 -71.2344 746.733ZM-71.2345 747.764C-72.6612 748.124 -74.0967 748.461 -75.5404 748.777C-74.1132 749.035 -72.6783 749.271 -71.2363 749.485C-69.7936 749.271 -68.3581 749.035 -66.9302 748.776C-68.3734 748.461 -69.8083 748.124 -71.2345 747.764ZM-64.375 748.289C-65.9919 747.966 -67.5987 747.614 -69.1949 747.234C-9.49924 731.227 34.4529 676.746 34.4529 612C34.4529 547.254 -9.49915 492.773 -69.1948 476.766C-67.5987 476.386 -65.9919 476.034 -64.375 475.711C-0.755981 488.455 47.1719 544.63 47.1719 612C47.1719 679.37 -0.755981 735.545 -64.375 748.289ZM-64.375 749.309C-65.5183 749.537 -66.6667 749.75 -67.8198 749.949C-66.6738 750.091 -65.5235 750.218 -64.3691 750.331C-63.217 750.218 -62.069 750.091 -60.9253 749.95C-62.0801 749.751 -63.2301 749.537 -64.375 749.309ZM-57.5078 749.486C-58.9525 749.272 -60.39 749.035 -61.8198 748.776C1.07968 735.04 48.1719 679.019 48.1719 612C48.1719 544.981 1.07971 488.96 -61.8198 475.224C-60.3899 474.965 -58.9525 474.728 -57.5078 474.514C9.4978 484.461 60.9062 542.227 60.9062 612C60.9062 681.773 9.49783 739.539 -57.5078 749.486ZM-57.5078 750.497C-58.0793 750.581 -58.652 750.662 -59.2258 750.739C-58.6546 750.774 -58.0826 750.806 -57.5096 750.833C-56.9357 750.806 -56.3628 750.774 -55.7909 750.739C-56.3643 750.662 -56.9366 750.581 -57.5078 750.497ZM-50.6482 750.331C-51.7998 750.218 -52.9471 750.091 -54.0902 749.95C11.7931 738.567 61.9062 681.136 61.9062 612C61.9062 542.864 11.793 485.433 -54.0903 474.05C-52.9472 473.909 -51.7998 473.782 -50.6483 473.669C19.676 480.563 74.6252 539.864 74.6252 612C74.6252 684.136 19.6761 743.437 -50.6482 750.331ZM-43.7832 750.834C-44.3583 750.806 -44.9324 750.774 -45.5057 750.739C22.8907 741.525 75.6252 682.921 75.6252 612C75.6252 541.079 22.8907 482.475 -45.5057 473.261C-44.9325 473.226 -44.3583 473.194 -43.7832 473.166C29.7972 476.743 88.3555 537.533 88.3555 612C88.3555 686.467 29.7972 747.257 -43.7832 750.834ZM-43.7832 751.835C-46.0565 751.945 -48.344 752 -50.6445 752C-52.9463 752 -55.2351 751.944 -57.5097 751.835C-59.7842 751.944 -62.073 752 -64.3748 752C-66.6747 752 -68.9616 751.945 -71.2343 751.835C-73.507 751.945 -75.7939 752 -78.0938 752C-80.3962 752 -82.6857 751.944 -84.9609 751.835C-87.2362 751.944 -89.5257 752 -91.8281 752C-94.128 752 -96.4149 751.945 -98.6876 751.835C-100.96 751.945 -103.247 752 -105.547 752C-107.849 752 -110.138 751.944 -112.412 751.835C-114.687 751.944 -116.976 752 -119.277 752C-121.578 752 -123.865 751.945 -126.139 751.835C-128.412 751.945 -130.7 752 -133 752C-210.32 752 -273 689.32 -273 612C-273 534.68 -210.32 472 -133 472C-130.7 472 -128.412 472.055 -126.139 472.165C-123.865 472.055 -121.578 472 -119.277 472C-116.976 472 -114.687 472.056 -112.412 472.165C-110.138 472.056 -107.849 472 -105.547 472C-103.247 472 -100.96 472.055 -98.6876 472.165C-96.4149 472.055 -94.128 472 -91.8281 472C-89.5257 472 -87.2362 472.056 -84.9609 472.165C-82.6857 472.056 -80.3962 472 -78.0938 472C-75.7939 472 -73.507 472.055 -71.2343 472.165C-68.9616 472.055 -66.6747 472 -64.3748 472C-62.073 472 -59.7842 472.056 -57.5097 472.165C-55.2351 472.056 -52.9463 472 -50.6445 472C-48.344 472 -46.0565 472.055 -43.7832 472.165C-41.5099 472.055 -39.2223 472 -36.9218 472C40.398 472 103.078 534.68 103.078 612C103.078 689.32 40.398 752 -36.9218 752C-39.2223 752 -41.5099 751.945 -43.7832 751.835ZM-33.4794 473.042C41.6976 474.869 102.078 536.383 102.078 612C102.078 687.617 41.6976 749.131 -33.4794 750.958C35.7431 742.495 89.3555 683.509 89.3555 612C89.3555 540.491 35.7431 481.505 -33.4794 473.042ZM-55.7909 473.261C-56.3629 473.226 -56.9358 473.194 -57.5097 473.167C-58.0826 473.194 -58.6547 473.226 -59.2258 473.261C-58.652 473.338 -58.0794 473.419 -57.5078 473.503C-56.9366 473.419 -56.3643 473.338 -55.7909 473.261ZM-60.9253 474.05C-62.069 473.909 -63.217 473.782 -64.3691 473.669C-65.5236 473.782 -66.6738 473.909 -67.8198 474.051C-66.6666 474.25 -65.5183 474.463 -64.375 474.691C-63.2301 474.463 -62.0801 474.249 -60.9253 474.05ZM-66.9302 475.224C-68.3581 474.965 -69.7936 474.729 -71.2363 474.515C-72.6784 474.729 -74.1132 474.965 -75.5404 475.223C-74.0966 475.539 -72.6612 475.876 -71.2345 476.236C-69.8083 475.876 -68.3734 475.539 -66.9302 475.224ZM-73.2741 476.766C-74.8708 476.386 -76.4782 476.034 -78.0958 475.71C-79.7147 476.034 -81.3235 476.387 -82.9215 476.767C-81.3024 477.201 -79.695 477.664 -78.0996 478.154C-76.5031 477.663 -74.8944 477.2 -73.2741 476.766ZM-79.7962 478.687C-81.5043 478.182 -83.2261 477.709 -84.9609 477.268C-86.6958 477.709 -88.4176 478.182 -90.1257 478.687C-88.3891 479.245 -86.6672 479.836 -84.9609 480.459C-83.2546 479.836 -81.5328 479.245 -79.7962 478.687ZM-96.6478 747.234C-95.0275 746.8 -93.4188 746.337 -91.8223 745.846C-90.227 746.336 -88.6195 746.799 -87.0005 747.233C-88.5985 747.613 -90.2073 747.966 -91.8262 748.29C-93.4437 747.966 -95.0511 747.614 -96.6478 747.234ZM-89.2706 748.777C-87.8256 748.461 -86.3889 748.123 -84.9609 747.763C-83.5329 748.123 -82.0962 748.461 -80.6512 748.777C-82.0803 749.035 -83.517 749.272 -84.9609 749.486C-86.4048 749.272 -87.8416 749.035 -89.2706 748.777ZM-81.5435 749.95C-80.3893 749.751 -79.2401 749.537 -78.0958 749.31C-76.9531 749.537 -75.8054 749.75 -74.6528 749.949C-75.7981 750.09 -76.9476 750.218 -78.1013 750.331C-79.2529 750.218 -80.4003 750.091 -81.5435 749.95ZM-72.9589 750.739C-72.3836 750.662 -71.8094 750.581 -71.2364 750.496C-70.6628 750.581 -70.0882 750.662 -69.5124 750.739C-70.0854 750.774 -70.6594 750.806 -71.2343 750.834C-71.8101 750.806 -72.385 750.774 -72.9589 750.739ZM-71.2343 473.166C-70.6594 473.194 -70.0855 473.226 -69.5125 473.261C-70.0882 473.338 -70.6628 473.419 -71.2363 473.504C-71.8094 473.419 -72.3836 473.338 -72.9589 473.261C-72.385 473.226 -71.8101 473.194 -71.2343 473.166ZM-78.1015 473.669C-76.9477 473.782 -75.7981 473.91 -74.6529 474.051C-75.8054 474.25 -76.9531 474.463 -78.0958 474.69C-79.2401 474.463 -80.3893 474.249 -81.5434 474.05C-80.4004 473.909 -79.253 473.782 -78.1015 473.669ZM-84.9609 474.514C-83.517 474.728 -82.0803 474.965 -80.6512 475.223C-82.0963 475.539 -83.5329 475.877 -84.9609 476.237C-86.3889 475.877 -87.8256 475.539 -89.2707 475.223C-87.8416 474.965 -86.4049 474.728 -84.9609 474.514ZM-91.8261 475.71C-90.2072 476.034 -88.5984 476.387 -87.0004 476.767C-88.6194 477.201 -90.2269 477.664 -91.8223 478.154C-93.4188 477.663 -95.0275 477.2 -96.6477 476.766C-95.051 476.386 -93.4436 476.034 -91.8261 475.71ZM-98.6874 747.764C-100.114 748.124 -101.548 748.461 -102.992 748.776C-101.564 749.035 -100.128 749.271 -98.6857 749.485C-97.2436 749.271 -95.8088 749.035 -94.3816 748.777C-95.8253 748.461 -97.2607 748.124 -98.6874 747.764ZM-91.826 749.31C-92.9687 749.537 -94.1165 749.75 -95.269 749.949C-94.1237 750.091 -92.9741 750.218 -91.8204 750.331C-90.6689 750.218 -89.5215 750.091 -88.3784 749.95C-89.5325 749.751 -90.6818 749.537 -91.826 749.31ZM-84.9609 750.497C-85.5321 750.581 -86.1044 750.662 -86.6778 750.739C-86.1064 750.774 -85.5341 750.805 -84.9608 750.833C-84.3876 750.805 -83.8153 750.774 -83.2439 750.739C-83.8173 750.662 -84.3897 750.581 -84.9609 750.497ZM-83.244 473.261C-83.8154 473.226 -84.3877 473.195 -84.9609 473.167C-85.5342 473.195 -86.1065 473.226 -86.6779 473.261C-86.1044 473.338 -85.5321 473.419 -84.9609 473.503C-84.3897 473.419 -83.8174 473.338 -83.244 473.261ZM-88.3784 474.05C-89.5215 473.909 -90.6689 473.782 -91.8204 473.669C-92.9741 473.782 -94.1237 473.91 -95.269 474.051C-94.1165 474.25 -92.9688 474.463 -91.8261 474.69C-90.6818 474.463 -89.5325 474.249 -88.3784 474.05ZM-94.3815 475.223C-95.8087 474.965 -97.2435 474.729 -98.6855 474.515C-100.128 474.729 -101.564 474.965 -102.992 475.224C-101.548 475.539 -100.114 475.876 -98.6874 476.236C-97.2607 475.876 -95.8252 475.539 -94.3815 475.223ZM-108.997 749.95C-107.842 749.751 -106.692 749.537 -105.547 749.309C-104.404 749.537 -103.255 749.75 -102.102 749.949C-103.248 750.091 -104.398 750.218 -105.553 750.331C-106.705 750.218 -107.853 750.091 -108.997 749.95ZM-100.409 750.739C-99.8337 750.662 -99.259 750.581 -98.6855 750.496C-98.1124 750.581 -97.5382 750.662 -96.9629 750.739C-97.5369 750.774 -98.1118 750.806 -98.6876 750.834C-99.2625 750.806 -99.8364 750.774 -100.409 750.739ZM-98.6876 473.166C-98.1118 473.194 -97.5369 473.226 -96.963 473.261C-97.5383 473.338 -98.1125 473.419 -98.6855 473.504C-99.259 473.419 -99.8337 473.338 -100.409 473.261C-99.8364 473.226 -99.2625 473.194 -98.6876 473.166ZM-105.553 473.669C-104.398 473.782 -103.248 473.909 -102.102 474.051C-103.255 474.25 -104.404 474.463 -105.547 474.691C-106.692 474.463 -107.842 474.249 -108.997 474.05C-107.853 473.909 -106.705 473.782 -105.553 473.669ZM-112.414 750.497C-112.985 750.581 -113.558 750.662 -114.131 750.739C-113.559 750.774 -112.986 750.806 -112.412 750.833C-111.839 750.806 -111.267 750.774 -110.696 750.739C-111.27 750.662 -111.843 750.581 -112.414 750.497ZM-110.696 473.261C-111.267 473.226 -111.839 473.194 -112.412 473.167C-112.986 473.194 -113.559 473.226 -114.131 473.261C-113.558 473.338 -112.985 473.419 -112.414 473.503C-111.843 473.419 -111.27 473.338 -110.696 473.261ZM-126.139 750.834C-125.564 750.806 -124.989 750.774 -124.416 750.739C-192.812 741.525 -245.547 682.921 -245.547 612C-245.547 541.079 -192.813 482.475 -124.416 473.261C-124.989 473.226 -125.564 473.194 -126.139 473.166C-199.719 476.743 -258.277 537.533 -258.277 612C-258.277 686.467 -199.719 747.257 -126.139 750.834Z" fill="#ED8A33" fill-opacity="0.3"/>
<path fill-rule="evenodd" clip-rule="evenodd" d="M366.272 238.668C400.981 243.622 433.437 222.94 444.481 190.995C436.044 226.228 401.999 249.888 365.416 244.666C328.828 239.444 302.76 207.198 304.524 171.005C306.184 204.77 331.559 233.713 366.272 238.668ZM445.459 180.803C445.457 180.471 445.452 180.141 445.445 179.81C433.519 210.159 401.955 229.5 368.268 224.691C334.581 219.883 309.689 192.486 306.728 160.013C306.629 160.33 306.532 160.648 306.436 160.966C306.668 195.534 332.156 225.658 367.411 230.69C402.668 235.722 435.568 213.929 445.459 180.803ZM368.409 223.702C402.442 228.559 434.279 208.422 445.344 177.223C445.315 176.714 445.28 176.206 445.24 175.699C432.497 204.384 401.876 222.359 369.266 217.704C336.655 213.049 312.285 187.225 308.077 156.12C307.896 156.596 307.72 157.076 307.549 157.558C309.445 190.605 334.376 218.844 368.409 223.702ZM308.847 154.176C312.279 185.652 336.619 212.034 369.407 216.714C402.194 221.394 432.943 202.876 445.045 173.617C444.976 172.984 444.898 172.353 444.812 171.725C431.317 198.643 401.714 215.205 370.262 210.716C338.81 206.227 315.025 182.046 309.598 152.428C309.34 153.007 309.09 153.589 308.847 154.176ZM370.403 209.726C401.921 214.225 431.554 197.287 444.552 169.979C444.435 169.257 444.306 168.538 444.167 167.823C430.015 192.909 401.492 208.043 371.26 203.728C341.028 199.413 317.879 176.904 311.309 148.861C310.975 149.51 310.651 150.165 310.336 150.826C315.176 180.677 338.887 205.227 370.403 209.726ZM312.028 147.501C318.142 175.679 341.184 198.425 371.401 202.738C401.619 207.051 430.105 191.66 443.858 166.316C437.744 138.138 414.702 115.393 384.484 111.079C354.267 106.766 325.781 122.158 312.028 147.501ZM444.576 164.957C438.007 136.914 414.857 114.405 384.626 110.09C354.394 105.774 325.871 120.909 311.718 145.995C311.579 145.278 311.451 144.558 311.333 143.835C324.332 116.529 353.964 99.5932 385.481 104.092C416.998 108.59 440.709 133.142 445.548 162.995C445.234 163.655 444.91 164.309 444.576 164.957ZM444.913 166.467C445.047 167.101 445.173 167.738 445.29 168.377C445.548 167.799 445.798 167.216 446.041 166.629C445.972 165.997 445.894 165.368 445.809 164.74C445.518 165.32 445.219 165.896 444.913 166.467ZM446.585 163.143C446.666 163.656 446.741 164.17 446.811 164.686C446.992 164.209 447.168 163.73 447.339 163.248C447.309 162.738 447.275 162.23 447.234 161.722C447.023 162.199 446.806 162.672 446.585 163.143ZM448.06 159.787C448.096 160.122 448.128 160.457 448.159 160.793C448.258 160.477 448.355 160.16 448.45 159.842C448.448 159.511 448.443 159.18 448.437 158.849C448.313 159.163 448.188 159.476 448.06 159.787ZM448.336 156.262C448.165 156.744 447.989 157.222 447.809 157.698C443.6 126.593 419.231 100.769 386.62 96.1139C354.009 91.4593 323.388 109.434 310.645 138.119C310.605 137.611 310.57 137.102 310.541 136.591C321.607 105.394 353.443 85.258 387.476 90.1156C421.509 94.9734 446.441 123.214 448.336 156.262ZM449.346 156.406C449.348 156.448 449.35 156.49 449.352 156.531L449.383 156.407C449.385 156.366 449.386 156.326 449.388 156.285C449.374 156.326 449.36 156.366 449.346 156.406ZM449.448 152.854C449.353 153.173 449.256 153.491 449.156 153.807C446.197 121.333 421.304 93.934 387.617 89.1256C353.931 84.3174 322.367 103.657 310.44 134.005C310.433 133.674 310.429 133.343 310.427 133.011C320.318 99.8865 353.217 78.095 388.474 83.1273C423.73 88.1596 449.219 118.285 449.448 152.854ZM450.381 149.419C450.371 149.461 450.361 149.502 450.35 149.544C448.575 115.889 423.24 87.0796 388.615 82.1374C353.99 77.1951 321.607 97.7657 310.487 129.58C310.488 129.54 310.49 129.5 310.492 129.459C319.07 94.4201 353.01 70.9357 389.472 76.14C425.931 81.344 451.944 113.382 450.381 149.419ZM452.126 146.113C452.017 147.277 451.879 148.443 451.713 149.613C451.546 150.779 451.352 151.936 451.132 153.081C451.023 154.251 450.884 155.425 450.716 156.601C450.549 157.775 450.354 158.938 450.132 160.09C450.023 161.253 449.885 162.419 449.718 163.588C449.551 164.762 449.356 165.924 449.134 167.076C449.025 168.24 448.887 169.407 448.72 170.576C448.553 171.747 448.359 172.906 448.138 174.054C448.029 175.221 447.891 176.392 447.723 177.565C447.556 178.738 447.361 179.901 447.139 181.053C447.03 182.217 446.892 183.383 446.725 184.552C446.559 185.719 446.365 186.876 446.145 188.021C446.035 189.191 445.897 190.364 445.729 191.54C440.11 230.905 403.644 258.262 364.278 252.644C324.913 247.025 297.556 210.558 303.175 171.193C303.342 170.026 303.535 168.87 303.755 167.724C303.865 166.554 304.003 165.381 304.171 164.205C304.339 163.031 304.534 161.868 304.755 160.717C304.864 159.553 305.002 158.387 305.169 157.217C305.336 156.047 305.53 154.888 305.751 153.739C305.861 152.572 305.999 151.402 306.166 150.229C306.334 149.055 306.529 147.893 306.75 146.741C306.859 145.577 306.997 144.41 307.164 143.241C307.332 142.067 307.527 140.904 307.748 139.752C307.858 138.589 307.995 137.422 308.162 136.253C308.329 135.087 308.522 133.93 308.742 132.785C308.852 131.615 308.99 130.441 309.158 129.265C309.326 128.091 309.521 126.928 309.742 125.777C309.852 124.613 309.99 123.447 310.156 122.277C315.775 82.9121 352.242 55.5552 391.607 61.174C430.972 66.7928 458.329 103.26 452.711 142.625C452.543 143.798 452.348 144.961 452.126 146.113ZM312.401 115.835C320.838 80.6013 354.883 56.9422 391.466 62.1639C428.054 67.3863 454.122 99.6323 452.358 135.825C450.698 102.059 425.323 73.1166 390.609 68.1618C355.9 63.2076 323.445 83.8894 312.401 115.835ZM309.524 136.322C309.514 136.363 309.504 136.405 309.494 136.446L309.489 136.569C309.503 136.528 309.517 136.488 309.531 136.447C309.529 136.405 309.527 136.364 309.524 136.322ZM309.72 139.047C309.621 139.363 309.524 139.681 309.429 139.999C309.431 140.332 309.435 140.664 309.442 140.995C309.566 140.681 309.692 140.367 309.819 140.055C309.784 139.719 309.751 139.383 309.72 139.047ZM310.071 142.144C309.89 142.621 309.714 143.1 309.543 143.582C309.572 144.092 309.607 144.6 309.647 145.107C309.859 144.631 310.075 144.157 310.297 143.687C310.216 143.174 310.141 142.66 310.071 142.144ZM311.073 142.09C324.569 115.173 354.17 98.6125 385.622 103.102C417.074 107.591 440.861 131.773 446.287 161.392C446.545 160.813 446.795 160.229 447.039 159.641C443.606 128.166 419.266 101.784 386.479 97.1039C353.691 92.424 322.943 110.942 310.841 140.201C310.91 140.832 310.987 141.462 311.073 142.09ZM310.595 145.438C310.337 146.017 310.086 146.6 309.843 147.188C309.912 147.821 309.989 148.452 310.075 149.081C310.367 148.499 310.666 147.922 310.973 147.351C310.838 146.716 310.712 146.078 310.595 145.438ZM445.815 171.674C445.745 171.157 445.669 170.641 445.588 170.127C445.809 169.658 446.025 169.186 446.236 168.71C446.277 169.219 446.311 169.729 446.341 170.241C446.17 170.721 445.995 171.199 445.815 171.674ZM447.161 167.786C447.131 167.448 447.098 167.111 447.062 166.775C447.19 166.463 447.316 166.149 447.44 165.835C447.446 166.167 447.451 166.5 447.453 166.834C447.358 167.152 447.261 167.469 447.161 167.786ZM448.355 163.523L448.348 163.392L448.39 163.273L448.384 163.405L448.355 163.523ZM390.468 69.1517C353.878 63.929 319.827 87.598 311.398 122.843C322.435 90.8861 354.897 70.1949 389.613 75.15C424.32 80.1039 449.692 109.036 451.36 142.793C453.114 106.608 427.049 74.3731 390.468 69.1517ZM308.498 143.425L308.526 143.31L308.533 143.438L308.493 143.554L308.498 143.425ZM308.432 146.985C308.527 146.668 308.624 146.352 308.723 146.037C308.753 146.373 308.786 146.708 308.821 147.043C308.694 147.353 308.569 147.665 308.446 147.978C308.439 147.647 308.435 147.316 308.432 146.985ZM308.547 150.565C308.717 150.085 308.893 149.607 309.073 149.132C309.143 149.649 309.218 150.164 309.299 150.678C309.078 151.147 308.862 151.62 308.651 152.095C308.611 151.586 308.576 151.076 308.547 150.565ZM446.066 173.763C446.101 174.098 446.134 174.433 446.165 174.768C446.264 174.453 446.36 174.138 446.455 173.821C446.453 173.489 446.448 173.158 446.442 172.828C446.319 173.141 446.193 173.452 446.066 173.763ZM447.351 170.385L447.357 170.51L447.388 170.387L447.393 170.264L447.351 170.385ZM307.53 150.295L307.5 150.418L307.495 150.542L307.537 150.421L307.53 150.295ZM307.726 153.02C307.627 153.337 307.529 153.654 307.434 153.972C307.437 154.306 307.441 154.638 307.448 154.971C307.572 154.656 307.697 154.343 307.825 154.03C307.79 153.694 307.757 153.358 307.726 153.02ZM446.361 177.492L446.354 177.367L446.395 177.252L446.39 177.375L446.361 177.492ZM306.502 157.406L306.532 157.283L306.539 157.413L306.496 157.536L306.502 157.406ZM445.399 184.234L445.394 184.359C436.815 219.398 402.875 242.882 366.414 237.678C329.955 232.474 303.941 200.436 305.505 164.399L305.534 164.277C307.311 197.931 332.645 226.738 367.27 231.68C401.896 236.622 434.28 216.05 445.399 184.234ZM443.489 197.964C432.451 229.92 399.99 250.611 365.274 245.656C330.568 240.702 305.196 211.77 303.527 178.013C301.774 214.197 327.839 246.432 364.42 251.654C401.009 256.876 435.06 233.208 443.489 197.964Z" fill="#086C88"/>
</g>
</g>
</svg>
