<svg width="1512" height="650" viewBox="0 0 1512 650" fill="none" xmlns="http://www.w3.org/2000/svg" preserveAspectRatio="none">
<g opacity="0.8">
<mask id="mask0_61_912" style="mask-type:alpha" maskUnits="userSpaceOnUse" x="0" y="0" width="1512" height="650">
<rect width="1512" height="650" fill="white"/>
</mask>
<g mask="url(#mask0_61_912)">
<path fill-rule="evenodd" clip-rule="evenodd" d="M1453.5 212.723C1418.19 206.172 1391.45 175.209 1391.45 138C1391.45 100.791 1418.19 69.8282 1453.5 63.2775C1415.12 66.5705 1385 98.7673 1385 138C1385 177.233 1415.12 209.43 1453.5 212.723ZM1467.77 212.602C1467.66 212.613 1467.56 212.624 1467.45 212.634C1429.53 208.893 1399.91 176.906 1399.91 138C1399.91 99.0937 1429.53 67.1066 1467.45 63.3656C1467.56 63.3761 1467.66 63.3867 1467.77 63.3976C1432.77 70.1988 1406.35 101.014 1406.35 138C1406.35 174.986 1432.77 205.801 1467.77 212.602ZM1471.18 212.173C1435.06 206.776 1407.35 175.623 1407.35 138C1407.35 100.377 1435.06 69.2237 1471.18 63.8271C1471.57 63.8859 1471.96 63.9478 1472.35 64.0128C1438.79 71.8981 1413.8 102.031 1413.8 138C1413.8 173.969 1438.79 204.102 1472.35 211.987C1471.96 212.052 1471.57 212.114 1471.18 212.173ZM1414.8 138C1414.8 101.681 1440.62 71.3917 1474.9 64.4805C1475.47 64.5946 1476.03 64.715 1476.59 64.8417C1444.66 73.8416 1421.25 103.187 1421.25 138C1421.25 172.813 1444.66 202.158 1476.59 211.158C1476.03 211.285 1475.47 211.405 1474.9 211.52C1440.62 204.608 1414.8 174.319 1414.8 138ZM1478.63 210.669C1446.22 202.386 1422.25 172.992 1422.25 138C1422.25 103.008 1446.22 73.6137 1478.63 65.331C1479.31 65.5053 1479.99 65.6889 1480.66 65.8817C1450.47 75.942 1428.7 104.429 1428.7 138C1428.7 171.571 1450.47 200.058 1480.66 210.118C1479.99 210.311 1479.31 210.495 1478.63 210.669ZM1429.7 138C1429.7 104.363 1451.85 75.8983 1482.35 66.3872C1483.12 66.6256 1483.88 66.876 1484.63 67.138C1456.26 78.165 1436.16 105.734 1436.16 138C1436.16 170.266 1456.26 197.835 1484.63 208.862C1483.88 209.124 1483.12 209.374 1482.35 209.613C1451.85 200.102 1429.7 171.637 1429.7 138ZM1486.08 208.342C1457.51 197.748 1437.16 170.251 1437.16 138C1437.16 105.749 1457.51 78.2522 1486.08 67.6581C1514.64 78.2522 1535 105.749 1535 138C1535 170.251 1514.64 197.748 1486.08 208.342ZM1486.08 209.408C1485.4 209.654 1484.73 209.891 1484.04 210.118C1484.72 210.311 1485.4 210.495 1486.08 210.669C1486.76 210.495 1487.44 210.311 1488.11 210.118C1487.43 209.891 1486.75 209.654 1486.08 209.408ZM1489.8 209.613C1489.04 209.374 1488.28 209.124 1487.53 208.862C1515.89 197.835 1536 170.266 1536 138C1536 105.734 1515.89 78.165 1487.53 67.138C1488.28 66.8759 1489.04 66.6255 1489.8 66.387C1520.31 75.898 1542.45 104.363 1542.45 138C1542.45 171.637 1520.31 200.102 1489.8 209.613ZM1489.8 210.66C1489.24 210.833 1488.68 210.999 1488.11 211.158C1488.67 211.285 1489.24 211.406 1489.8 211.52C1490.37 211.406 1490.94 211.285 1491.5 211.158C1490.93 210.999 1490.37 210.833 1489.8 210.66ZM1493.53 210.669C1492.85 210.495 1492.17 210.311 1491.5 210.118C1521.69 200.058 1543.45 171.571 1543.45 138C1543.45 104.429 1521.69 75.9417 1491.5 65.8816C1492.17 65.6888 1492.85 65.5052 1493.53 65.3309C1525.94 73.6133 1549.91 103.008 1549.91 138C1549.91 172.992 1525.94 202.387 1493.53 210.669ZM1493.53 211.701C1493.14 211.8 1492.75 211.895 1492.35 211.988C1492.74 212.053 1493.14 212.114 1493.53 212.173C1493.92 212.114 1494.32 212.052 1494.71 211.987C1494.31 211.895 1493.92 211.799 1493.53 211.701ZM1497.25 211.52C1496.69 211.406 1496.13 211.285 1495.56 211.158C1527.5 202.159 1550.91 172.813 1550.91 138C1550.91 103.187 1527.5 73.8413 1495.56 64.8416C1496.13 64.7149 1496.69 64.5944 1497.25 64.4804C1531.54 71.3914 1557.35 101.681 1557.35 138C1557.35 174.319 1531.54 204.609 1497.25 211.52ZM1497.25 212.54C1497.15 212.561 1497.04 212.582 1496.93 212.602C1497.04 212.613 1497.15 212.624 1497.25 212.635C1497.36 212.624 1497.47 212.613 1497.57 212.602C1497.47 212.582 1497.36 212.561 1497.25 212.54ZM1500.98 212.173C1500.59 212.114 1500.19 212.052 1499.8 211.987C1533.37 204.102 1558.35 173.969 1558.35 138C1558.35 102.031 1533.37 71.8979 1499.8 64.0127C1500.19 63.9477 1500.59 63.8858 1500.98 63.827C1537.1 69.2234 1564.8 100.376 1564.8 138C1564.8 175.624 1537.1 206.777 1500.98 212.173ZM1504.7 212.634C1504.6 212.624 1504.49 212.613 1504.39 212.602C1539.38 205.801 1565.8 174.986 1565.8 138C1565.8 101.014 1539.38 70.1986 1504.39 63.3976C1504.49 63.3867 1504.6 63.376 1504.7 63.3656C1542.63 67.1063 1572.25 99.0935 1572.25 138C1572.25 176.907 1542.63 208.894 1504.7 212.634ZM1508.43 213.91C1507.2 213.97 1505.95 214 1504.7 214C1503.45 214 1502.21 213.97 1500.98 213.91C1499.74 213.97 1498.5 214 1497.25 214C1496 214 1494.76 213.97 1493.53 213.91C1492.29 213.97 1491.05 214 1489.8 214C1488.56 214 1487.31 213.97 1486.08 213.91C1484.84 213.97 1483.6 214 1482.35 214C1481.1 214 1479.86 213.97 1478.63 213.91C1477.4 213.97 1476.15 214 1474.91 214C1473.66 214 1472.41 213.97 1471.18 213.91C1469.94 213.97 1468.7 214 1467.45 214C1466.2 214 1464.96 213.97 1463.73 213.91C1462.49 213.97 1461.25 214 1460 214C1418.03 214 1384 179.974 1384 138C1384 96.0264 1418.03 62 1460 62C1461.25 62 1462.49 62.0302 1463.73 62.0898C1464.96 62.0302 1466.2 62 1467.45 62C1468.7 62 1469.94 62.0301 1471.18 62.0897C1472.41 62.0301 1473.66 62 1474.91 62C1476.15 62 1477.4 62.0301 1478.63 62.0896C1479.86 62.0301 1481.1 62 1482.35 62C1483.6 62 1484.84 62.0301 1486.08 62.0897C1487.31 62.0301 1488.56 62 1489.8 62C1491.05 62 1492.29 62.0301 1493.53 62.0896C1494.76 62.0301 1496 62 1497.25 62C1498.5 62 1499.74 62.0301 1500.98 62.0897C1502.21 62.0301 1503.45 62 1504.7 62C1505.95 62 1507.2 62.0301 1508.43 62.0897C1509.66 62.0301 1510.91 62 1512.16 62C1554.13 62 1588.16 96.0264 1588.16 138C1588.16 179.974 1554.13 214 1512.16 214C1510.91 214 1509.66 213.97 1508.43 213.91ZM1518.65 63.2776C1557.03 66.5716 1587.16 98.768 1587.16 138C1587.16 177.232 1557.03 209.428 1518.65 212.722C1553.97 206.171 1580.7 175.208 1580.7 138C1580.7 100.792 1553.97 69.8287 1518.65 63.2776ZM1497.57 63.3976C1497.47 63.3866 1497.36 63.3759 1497.25 63.3653C1497.15 63.3758 1497.04 63.3866 1496.93 63.3975C1497.04 63.4182 1497.15 63.4392 1497.25 63.4604C1497.36 63.4392 1497.47 63.4183 1497.57 63.3976ZM1494.71 64.0127C1494.32 63.9477 1493.92 63.8858 1493.53 63.827C1493.14 63.8857 1492.74 63.9474 1492.35 64.0122C1492.75 64.1047 1493.14 64.2003 1493.53 64.299C1493.92 64.2005 1494.31 64.1051 1494.71 64.0127ZM1491.5 64.8416C1490.94 64.7147 1490.37 64.5941 1489.8 64.4799C1489.24 64.5941 1488.67 64.7146 1488.11 64.8415C1488.68 65.0013 1489.24 65.1674 1489.8 65.3399C1490.37 65.1675 1490.93 65.0013 1491.5 64.8416ZM1488.11 65.8816C1487.44 65.6887 1486.76 65.5051 1486.08 65.3308C1485.4 65.5052 1484.72 65.6888 1484.04 65.8817C1484.73 66.1092 1485.4 66.346 1486.08 66.5922C1486.75 66.346 1487.43 66.1091 1488.11 65.8816ZM1480.66 211.158C1481.23 210.999 1481.79 210.832 1482.35 210.66C1482.91 210.832 1483.48 210.999 1484.05 211.158C1483.48 211.285 1482.92 211.406 1482.35 211.52C1481.79 211.406 1481.22 211.285 1480.66 211.158ZM1484.9 211.988C1485.29 211.895 1485.69 211.8 1486.08 211.701C1486.47 211.8 1486.86 211.895 1487.26 211.988C1486.86 212.053 1486.47 212.115 1486.08 212.173C1485.68 212.115 1485.29 212.053 1484.9 211.988ZM1489.49 212.603C1489.59 212.582 1489.7 212.561 1489.8 212.54C1489.91 212.561 1490.02 212.582 1490.12 212.602C1490.02 212.613 1489.91 212.624 1489.8 212.635C1489.7 212.624 1489.59 212.614 1489.49 212.603ZM1579.7 138C1579.7 98.7683 1549.58 66.5721 1511.2 63.2777C1546.51 69.829 1573.25 100.792 1573.25 138C1573.25 175.208 1546.51 206.171 1511.2 212.722C1549.58 209.428 1579.7 177.232 1579.7 138ZM1489.8 63.3653C1489.91 63.3758 1490.02 63.3866 1490.12 63.3975C1490.02 63.4181 1489.91 63.4389 1489.8 63.4599C1489.7 63.4388 1489.59 63.4179 1489.49 63.3972C1489.59 63.3864 1489.7 63.3758 1489.8 63.3653ZM1486.08 63.8267C1486.47 63.8855 1486.86 63.9473 1487.26 64.0122C1486.86 64.1047 1486.47 64.2003 1486.08 64.2989C1485.69 64.2003 1485.29 64.1047 1484.9 64.0122C1485.29 63.9473 1485.68 63.8855 1486.08 63.8267ZM1482.35 64.4799C1482.92 64.5941 1483.48 64.7146 1484.05 64.8415C1483.48 65.0013 1482.91 65.1675 1482.35 65.3401C1481.79 65.1676 1481.23 65.0015 1480.66 64.8417C1481.22 64.7148 1481.79 64.5942 1482.35 64.4799ZM1478.63 211.701C1478.24 211.799 1477.84 211.895 1477.45 211.987C1477.84 212.052 1478.23 212.114 1478.63 212.173C1479.02 212.114 1479.41 212.053 1479.8 211.988C1479.41 211.895 1479.02 211.8 1478.63 211.701ZM1482.35 212.54C1482.25 212.561 1482.14 212.582 1482.04 212.602L1482.16 212.616L1482.35 212.635C1482.46 212.624 1482.57 212.614 1482.67 212.603C1482.57 212.582 1482.46 212.561 1482.35 212.54ZM1482.67 63.3972C1482.57 63.3864 1482.46 63.3758 1482.35 63.3653C1482.25 63.3758 1482.14 63.3866 1482.04 63.3975C1482.14 63.4181 1482.25 63.4389 1482.35 63.4599C1482.46 63.4388 1482.57 63.4179 1482.67 63.3972ZM1479.8 64.0122C1479.41 63.9474 1479.02 63.8857 1478.63 63.827C1478.23 63.8858 1477.84 63.9478 1477.45 64.0128C1477.84 64.1052 1478.24 64.2006 1478.63 64.2991C1479.02 64.2004 1479.41 64.1048 1479.8 64.0122ZM1474.58 212.602C1474.69 212.582 1474.8 212.561 1474.9 212.54C1475.01 212.561 1475.12 212.582 1475.22 212.602L1475.02 212.623L1474.9 212.635L1474.73 212.618L1474.58 212.602ZM1474.9 63.3653C1475.01 63.3758 1475.12 63.3866 1475.22 63.3975C1475.12 63.4183 1475.01 63.4393 1474.9 63.4605C1474.8 63.4393 1474.69 63.4183 1474.58 63.3976C1474.69 63.3866 1474.8 63.3759 1474.9 63.3653ZM1392.45 138C1392.45 177.232 1422.58 209.428 1460.95 212.722C1425.64 206.171 1398.91 175.208 1398.91 138C1398.91 100.792 1425.64 69.829 1460.95 63.2777C1422.58 66.5721 1392.45 98.7683 1392.45 138Z" fill="#086C88"/>
<path fill-rule="evenodd" clip-rule="evenodd" d="M-122.329 846C-225.451 835.797 -306 748.805 -306 643C-306 537.195 -225.451 450.203 -122.329 440C-234.292 440.178 -325 530.996 -325 643C-325 755.004 -234.292 845.822 -122.329 846ZM-95.4211 844.276C-97.6033 844.561 -99.7965 844.812 -102 845.027C-204.726 834.981 -285 748.365 -285 643C-285 537.635 -204.726 451.019 -102 440.973C-99.7965 441.188 -97.6034 441.439 -95.4211 441.724C-192.188 457.672 -266 541.716 -266 643C-266 744.284 -192.188 828.328 -95.4211 844.276ZM-92 843.799C-189.889 829.299 -265 744.921 -265 643C-265 541.079 -189.889 456.701 -92 442.201C-89.5044 442.571 -87.0235 442.986 -84.5583 443.446C-176.796 463.021 -246 544.929 -246 643C-246 741.071 -176.796 822.979 -84.5583 842.554C-87.0235 843.014 -89.5043 843.429 -92 843.799ZM-245 643C-245 544.578 -174.958 462.516 -82 443.94C-79.328 444.474 -76.6749 445.06 -74.0419 445.698C-161.499 468.705 -226 548.32 -226 643C-226 737.68 -161.499 817.296 -74.0419 840.302C-76.6749 840.94 -79.328 841.526 -82 842.06C-174.958 823.484 -245 741.422 -245 643ZM-72 839.796C-159.936 817.523 -225 737.86 -225 643C-225 548.14 -159.936 468.477 -72 446.204C-69.2094 446.911 -66.4418 447.675 -63.6985 448.496C-146.206 474.645 -206 551.84 -206 643C-206 734.16 -146.206 811.355 -63.6985 837.504C-66.4418 838.325 -69.2094 839.089 -72 839.796ZM-205 643C-205 551.773 -144.824 474.601 -62 449.013C-59.1235 449.902 -56.2743 450.853 -53.454 451.864C-130.878 480.821 -186 555.473 -186 643C-186 730.527 -130.878 805.179 -53.454 834.136C-56.2743 835.147 -59.1235 836.098 -62 836.987C-144.824 811.399 -205 734.227 -205 643ZM-52 833.608C-129.623 805.092 -185 730.513 -185 643C-185 555.487 -129.623 480.908 -52 452.392C25.6234 480.908 81 555.487 81 643C81 730.513 25.6234 805.092 -52 833.608ZM-52 834.673C-54.7401 835.674 -57.5078 836.618 -60.3015 837.504C-57.5583 838.325 -54.7906 839.089 -52 839.796C-49.2094 839.089 -46.4418 838.325 -43.6985 837.504C-46.4922 836.618 -49.2598 835.674 -52 834.673ZM-42 836.987C-44.8765 836.098 -47.7257 835.147 -50.546 834.136C26.8776 805.179 82 730.527 82 643C82 555.473 26.8777 480.821 -50.546 451.864C-47.7257 450.853 -44.8765 449.902 -42 449.013C40.8237 474.601 101 551.773 101 643C101 734.227 40.8237 811.399 -42 836.987ZM-42 838.034C-44.6305 838.842 -47.2835 839.598 -49.9581 840.302C-47.3251 840.94 -44.672 841.526 -42 842.06C-39.328 841.526 -36.6749 840.94 -34.0419 840.302C-36.7165 839.598 -39.3696 838.842 -42 838.034ZM-32 839.796C-34.7906 839.089 -37.5583 838.325 -40.3015 837.504C42.206 811.355 102 734.16 102 643C102 551.84 42.206 474.645 -40.3015 448.496C-37.5582 447.675 -34.7906 446.911 -32 446.204C55.9355 468.477 121 548.14 121 643C121 737.86 55.9356 817.523 -32 839.796ZM-32 840.828C-34.463 841.448 -36.9439 842.024 -39.4417 842.554C-36.9765 843.014 -34.4956 843.429 -32 843.799C-29.5043 843.429 -27.0235 843.014 -24.5583 842.554C-27.0561 842.024 -29.537 841.448 -32 840.828ZM-22 842.06C-24.672 841.526 -27.3251 840.94 -29.9581 840.302C57.4994 817.295 122 737.68 122 643C122 548.32 57.4993 468.705 -29.9581 445.698C-27.3251 445.06 -24.672 444.474 -22 443.94C70.9577 462.516 141 544.578 141 643C141 741.422 70.9577 823.484 -22 842.06ZM-22 843.08C-24.1807 843.514 -26.3738 843.912 -28.5789 844.276C-26.3967 844.561 -24.2035 844.812 -22 845.027C-19.7965 844.812 -17.6034 844.561 -15.4211 844.276C-17.6262 843.912 -19.8194 843.514 -22 843.08ZM-12 843.799C-14.4956 843.429 -16.9765 843.014 -19.4417 842.554C72.7963 822.979 142 741.071 142 643C142 544.929 72.7963 463.021 -19.4417 443.446C-16.9765 442.986 -14.4956 442.571 -12 442.201C85.8885 456.701 161 541.079 161 643C161 744.921 85.8885 829.299 -12 843.799ZM-12 844.81C-13.6108 845.047 -15.2277 845.266 -16.8504 845.465C-15.2388 845.582 -13.6219 845.679 -12.0001 845.758C-10.3782 845.679 -8.76132 845.582 -7.14966 845.465C-8.77243 845.266 -10.3893 845.047 -12 844.81ZM-2.00003 845.027C-4.20352 844.812 -6.39667 844.561 -8.57892 844.276C88.188 828.328 162 744.284 162 643C162 541.716 88.188 457.672 -8.57889 441.724C-6.39664 441.439 -4.20349 441.188 -2 440.973C100.726 451.019 181 537.635 181 643C181 748.365 100.726 834.981 -2.00003 845.027ZM7.99988 845.758C6.37805 845.679 4.7612 845.582 3.14957 845.465C103.95 833.072 182 747.151 182 643C182 538.849 103.95 452.928 3.14963 440.535C4.76126 440.418 6.37814 440.321 8 440.242C115.469 445.455 201 534.239 201 643C201 751.761 115.469 840.545 7.99988 845.758ZM8 846.759C4.6868 846.919 1.35284 847 -2 847C-5.35284 847 -8.6868 846.919 -12 846.759C-15.3132 846.919 -18.6472 847 -22 847C-25.3528 847 -28.6868 846.919 -32 846.759C-35.3132 846.919 -38.6472 847 -42 847C-45.3528 847 -48.6868 846.919 -52 846.759C-55.3132 846.919 -58.6472 847 -62 847C-65.3528 847 -68.6868 846.919 -72 846.759C-75.3132 846.919 -78.6472 847 -82 847C-85.3528 847 -88.6868 846.919 -92 846.759C-95.3132 846.919 -98.6472 847 -102 847C-105.353 847 -108.687 846.919 -112 846.759C-115.313 846.919 -118.647 847 -122 847C-234.666 847 -326 755.666 -326 643C-326 530.334 -234.666 439 -122 439C-118.647 439 -115.313 439.081 -112 439.241C-108.687 439.081 -105.353 439 -102 439C-98.6472 439 -95.3132 439.081 -92 439.241C-88.6868 439.081 -85.3528 439 -82 439C-78.6472 439 -75.3132 439.081 -72 439.241C-68.6868 439.081 -65.3528 439 -62 439C-58.6472 439 -55.3132 439.081 -52 439.241C-48.6868 439.081 -45.3528 439 -42 439C-38.6472 439 -35.3132 439.081 -32 439.241C-28.6868 439.081 -25.3528 439 -22 439C-18.6472 439 -15.3132 439.081 -12 439.241C-8.6868 439.081 -5.35284 439 -2 439C1.35284 439 4.6868 439.081 8 439.241C11.3132 439.081 14.6472 439 18 439C130.666 439 222 530.334 222 643C222 755.666 130.666 847 18 847C14.6472 847 11.3132 846.919 8 846.759ZM18.3294 440C130.292 440.178 221 530.996 221 643C221 755.004 130.292 845.822 18.3294 846C121.451 835.797 202 748.805 202 643C202 537.195 121.451 450.203 18.3294 440ZM-7.14963 440.535C-8.76126 440.418 -10.3781 440.321 -12 440.242C-13.6219 440.321 -15.2387 440.418 -16.8504 440.535C-15.2276 440.734 -13.6107 440.953 -12 441.19C-10.3893 440.953 -8.7724 440.734 -7.14963 440.535ZM-15.4211 441.724C-17.6034 441.439 -19.7965 441.188 -22 440.973C-24.2035 441.188 -26.3966 441.439 -28.5789 441.724C-26.3738 442.088 -24.1806 442.486 -22 442.92C-19.8194 442.486 -17.6262 442.088 -15.4211 441.724ZM-24.5583 443.446C-27.0235 442.986 -29.5044 442.571 -32 442.201C-34.4956 442.571 -36.9765 442.986 -39.4417 443.446C-36.9439 443.976 -34.463 444.552 -32 445.172C-29.537 444.552 -27.0561 443.976 -24.5583 443.446ZM-34.0419 445.698C-36.6749 445.06 -39.328 444.474 -42 443.94C-44.672 444.474 -47.3251 445.06 -49.9581 445.698C-47.2835 446.402 -44.6304 447.158 -42 447.966C-39.3696 447.158 -36.7165 446.402 -34.0419 445.698ZM-43.6985 448.496C-46.4418 447.675 -49.2094 446.911 -52 446.204C-54.7906 446.911 -57.5582 447.675 -60.3015 448.496C-57.5078 449.382 -54.7401 450.326 -52 451.327C-49.2599 450.326 -46.4922 449.382 -43.6985 448.496ZM-69.9581 840.302C-67.2835 839.598 -64.6305 838.842 -62 838.034C-59.3696 838.842 -56.7165 839.598 -54.0419 840.302C-56.6749 840.94 -59.328 841.526 -62 842.06C-64.672 841.526 -67.3251 840.94 -69.9581 840.302ZM-59.4417 842.554C-56.9439 842.024 -54.463 841.448 -52 840.828C-49.537 841.448 -47.0561 842.024 -44.5583 842.554C-47.0235 843.014 -49.5043 843.429 -52 843.799C-54.4956 843.429 -56.9765 843.014 -59.4417 842.554ZM-48.5789 844.276C-46.3738 843.912 -44.1807 843.514 -42 843.08C-39.8194 843.514 -37.6262 843.912 -35.4211 844.276C-37.6034 844.561 -39.7965 844.812 -42 845.027C-44.2035 844.812 -46.3967 844.561 -48.5789 844.276ZM-36.8504 845.465C-35.2277 845.266 -33.6108 845.047 -32 844.81C-30.3893 845.047 -28.7724 845.266 -27.1497 845.465C-28.7613 845.582 -30.3782 845.679 -32.0001 845.758C-33.6219 845.679 -35.2388 845.582 -36.8504 845.465ZM-32 440.242C-30.3781 440.321 -28.7613 440.418 -27.1496 440.535C-28.7724 440.734 -30.3893 440.953 -32 441.19C-33.6107 440.953 -35.2276 440.734 -36.8504 440.535C-35.2387 440.418 -33.6219 440.321 -32 440.242ZM-42 440.973C-39.7965 441.188 -37.6034 441.439 -35.4211 441.724C-37.6262 442.088 -39.8194 442.486 -42 442.92C-44.1806 442.486 -46.3738 442.088 -48.5789 441.724C-46.3966 441.439 -44.2035 441.188 -42 440.973ZM-52 442.201C-49.5044 442.571 -47.0235 442.986 -44.5583 443.446C-47.0561 443.976 -49.537 444.552 -52 445.172C-54.463 444.552 -56.9439 443.976 -59.4417 443.446C-56.9765 442.986 -54.4956 442.571 -52 442.201ZM-62 443.94C-59.328 444.474 -56.6749 445.06 -54.0419 445.698C-56.7165 446.402 -59.3696 447.158 -62 447.966C-64.6304 447.158 -67.2835 446.402 -69.9581 445.698C-67.3251 445.06 -64.672 444.474 -62 443.94ZM-72 840.828C-74.4631 841.448 -76.9439 842.024 -79.4417 842.554C-76.9765 843.014 -74.4956 843.429 -72 843.799C-69.5043 843.429 -67.0235 843.014 -64.5583 842.554C-67.0561 842.024 -69.537 841.448 -72 840.828ZM-62 843.08C-64.1807 843.514 -66.3738 843.912 -68.5789 844.276C-66.3967 844.561 -64.2035 844.812 -62 845.027C-59.7965 844.812 -57.6034 844.561 -55.4211 844.276C-57.6262 843.912 -59.8194 843.514 -62 843.08ZM-52 844.81C-53.6108 845.047 -55.2277 845.266 -56.8504 845.465C-55.2388 845.582 -53.6219 845.679 -52.0001 845.758C-50.3782 845.679 -48.7613 845.582 -47.1497 845.465C-48.7724 845.266 -50.3893 845.047 -52 844.81ZM-47.1496 440.535C-48.7613 440.418 -50.3781 440.321 -52 440.242C-53.6219 440.321 -55.2387 440.418 -56.8504 440.535C-55.2276 440.734 -53.6107 440.953 -52 441.19C-50.3893 440.953 -48.7724 440.734 -47.1496 440.535ZM-55.4211 441.724C-57.6034 441.439 -59.7965 441.188 -62 440.973C-64.2035 441.188 -66.3966 441.439 -68.5789 441.724C-66.3738 442.088 -64.1806 442.486 -62 442.92C-59.8194 442.486 -57.6262 442.088 -55.4211 441.724ZM-64.5583 443.446C-67.0235 442.986 -69.5044 442.571 -72 442.201C-74.4956 442.571 -76.9765 442.986 -79.4417 443.446C-76.9439 443.976 -74.463 444.552 -72 445.172C-69.537 444.552 -67.0561 443.976 -64.5583 443.446ZM-88.5789 844.276C-86.3738 843.912 -84.1806 843.514 -82 843.08C-79.8194 843.514 -77.6262 843.912 -75.4211 844.276C-77.6034 844.561 -79.7965 844.812 -82 845.027C-84.2035 844.812 -86.3967 844.561 -88.5789 844.276ZM-76.8504 845.465C-75.2277 845.266 -73.6108 845.047 -72 844.81C-70.3893 845.047 -68.7724 845.266 -67.1497 845.465C-68.7613 845.582 -70.3782 845.679 -72.0001 845.758C-73.622 845.679 -75.2388 845.582 -76.8504 845.465ZM-72 440.242C-70.3781 440.321 -68.7613 440.418 -67.1496 440.535C-68.7724 440.734 -70.3893 440.953 -72 441.19C-73.6107 440.953 -75.2276 440.734 -76.8504 440.535C-75.2387 440.418 -73.6219 440.321 -72 440.242ZM-82 440.973C-79.7965 441.188 -77.6034 441.439 -75.4211 441.724C-77.6262 442.088 -79.8194 442.486 -82 442.92C-84.1806 442.486 -86.3738 442.088 -88.5789 441.724C-86.3966 441.439 -84.2035 441.188 -82 440.973ZM-92 844.81C-93.6108 845.047 -95.2277 845.266 -96.8504 845.465C-95.2388 845.582 -93.622 845.679 -92.0001 845.758C-90.3782 845.679 -88.7613 845.582 -87.1497 845.465C-88.7724 845.266 -90.3893 845.047 -92 844.81ZM-87.1496 440.535C-88.7613 440.418 -90.3781 440.321 -92 440.242C-93.6219 440.321 -95.2387 440.418 -96.8504 440.535C-95.2276 440.734 -93.6107 440.953 -92 441.19C-90.3893 440.953 -88.7724 440.734 -87.1496 440.535ZM-112 845.758C-110.378 845.679 -108.761 845.582 -107.15 845.465C-207.95 833.072 -286 747.151 -286 643C-286 538.849 -207.95 452.928 -107.15 440.535C-108.761 440.418 -110.378 440.321 -112 440.242C-219.469 445.455 -305 534.239 -305 643C-305 751.761 -219.469 840.545 -112 845.758Z" fill="#ED8A33" fill-opacity="0.7"/>
<path fill-rule="evenodd" clip-rule="evenodd" d="M381.671 80.9997C278.549 70.7972 198 -16.1948 198 -122C198 -227.805 278.549 -314.797 381.671 -325C269.708 -324.822 179 -234.004 179 -122C179 -9.99603 269.708 80.8219 381.671 80.9997ZM408.579 79.2757C406.397 79.561 404.203 79.8118 402 80.0273C299.274 69.9814 219 -16.6349 219 -122C219 -227.365 299.274 -313.981 402 -324.027C404.203 -323.812 406.397 -323.561 408.579 -323.276C311.812 -307.328 238 -223.284 238 -122C238 -20.7161 311.812 63.3282 408.579 79.2757ZM412 78.7986C314.111 64.2986 239 -20.0791 239 -122C239 -223.921 314.111 -308.299 412 -322.799C414.496 -322.429 416.976 -322.014 419.442 -321.554C327.204 -301.979 258 -220.071 258 -122C258 -23.9287 327.204 57.9792 419.442 77.5542C416.977 78.0139 414.496 78.429 412 78.7986ZM259 -122C259 -220.422 329.042 -302.484 422 -321.06C424.672 -320.526 427.325 -319.94 429.958 -319.302C342.501 -296.295 278 -216.68 278 -122C278 -27.3198 342.501 52.2955 429.958 75.302C427.325 75.9398 424.672 76.5262 422 77.0601C329.042 58.4839 259 -23.5784 259 -122ZM432 74.7961C344.064 52.5229 279 -27.1403 279 -122C279 -216.86 344.064 -296.523 432 -318.796C434.791 -318.089 437.558 -317.325 440.301 -316.504C357.794 -290.355 298 -213.16 298 -122C298 -30.8396 357.794 46.3551 440.301 72.5035C437.558 73.3246 434.791 74.0893 432 74.7961ZM299 -122C299 -213.227 359.176 -290.399 442 -315.987C444.876 -315.098 447.726 -314.147 450.546 -313.136C373.122 -284.179 318 -209.527 318 -122C318 -34.4732 373.122 40.179 450.546 69.1358C447.726 70.1474 444.876 71.0983 442 71.987C359.176 46.3989 299 -30.7731 299 -122ZM452 68.608C374.377 40.0923 319 -34.4869 319 -122C319 -209.513 374.377 -284.092 452 -312.608C529.623 -284.092 585 -209.513 585 -122C585 -34.4869 529.623 40.0923 452 68.608ZM452 69.6733C449.26 70.6743 446.492 71.6182 443.699 72.5035C446.442 73.3246 449.209 74.0893 452 74.7961C454.791 74.0893 457.558 73.3246 460.301 72.5035C457.508 71.6182 454.74 70.6743 452 69.6733ZM462 71.987C459.123 71.0983 456.274 70.1474 453.454 69.1358C530.878 40.1791 586 -34.4732 586 -122C586 -209.527 530.878 -284.179 453.454 -313.136C456.274 -314.147 459.124 -315.098 462 -315.987C544.824 -290.399 605 -213.227 605 -122C605 -30.7731 544.824 46.3988 462 71.987ZM462 73.0336C459.37 73.8419 456.716 74.5984 454.042 75.302C456.675 75.9397 459.328 76.5262 462 77.0601C464.672 76.5262 467.325 75.9398 469.958 75.302C467.284 74.5984 464.63 73.8419 462 73.0336ZM472 74.7961C469.209 74.0893 466.442 73.3246 463.699 72.5035C546.206 46.3551 606 -30.8396 606 -122C606 -213.16 546.206 -290.355 463.699 -316.504C466.442 -317.325 469.209 -318.089 472 -318.796C559.936 -296.523 625 -216.86 625 -122C625 -27.1403 559.936 52.5228 472 74.7961ZM472 75.8278C469.537 76.4484 467.056 77.0241 464.558 77.5542C467.023 78.0139 469.504 78.429 472 78.7986C474.496 78.429 476.977 78.0139 479.442 77.5542C476.944 77.0241 474.463 76.4484 472 75.8278ZM482 77.0601C479.328 76.5262 476.675 75.9397 474.042 75.302C561.499 52.2955 626 -27.3198 626 -122C626 -216.68 561.499 -296.295 474.042 -319.302C476.675 -319.94 479.328 -320.526 482 -321.06C574.958 -302.484 645 -220.422 645 -122C645 -23.5785 574.958 58.4839 482 77.0601ZM482 78.08C479.819 78.5135 477.626 78.9123 475.421 79.2757C477.603 79.561 479.796 79.8118 482 80.0273C484.203 79.8118 486.397 79.561 488.579 79.2757C486.374 78.9123 484.181 78.5135 482 78.08ZM492 78.7986C489.504 78.429 487.023 78.0139 484.558 77.5542C576.796 57.9792 646 -23.9287 646 -122C646 -220.071 576.796 -301.979 484.558 -321.554C487.024 -322.014 489.504 -322.429 492 -322.799C589.889 -308.299 665 -223.921 665 -122C665 -20.0791 589.889 64.2986 492 78.7986ZM492 79.8096C490.389 80.047 488.772 80.2656 487.15 80.4651C488.761 80.5816 490.378 80.6793 492 80.758C493.622 80.6793 495.239 80.5816 496.85 80.4651C495.228 80.2656 493.611 80.047 492 79.8096ZM502 80.0273C499.796 79.8118 497.603 79.561 495.421 79.2757C592.188 63.3282 666 -20.7161 666 -122C666 -223.284 592.188 -307.328 495.421 -323.276C497.603 -323.561 499.797 -323.812 502 -324.027C604.726 -313.981 685 -227.365 685 -122C685 -16.6349 604.726 69.9814 502 80.0273ZM512 80.758C510.378 80.6793 508.761 80.5816 507.15 80.4651C607.95 68.0724 686 -17.849 686 -122C686 -226.151 607.95 -312.072 507.15 -324.465C508.761 -324.582 510.378 -324.679 512 -324.758C619.469 -319.545 705 -230.761 705 -122C705 -13.2391 619.469 75.5449 512 80.758ZM512 81.7592C508.687 81.9191 505.353 82 502 82C498.647 82 495.313 81.9191 492 81.7592C488.687 81.9191 485.353 82 482 82C478.647 82 475.313 81.9191 472 81.7592C468.687 81.9191 465.353 82 462 82C458.647 82 455.313 81.9191 452 81.7592C448.687 81.9191 445.353 82 442 82C438.647 82 435.313 81.9191 432 81.7592C428.687 81.9191 425.353 82 422 82C418.647 82 415.313 81.9191 412 81.7592C408.687 81.9191 405.353 82 402 82C398.647 82 395.313 81.9191 392 81.7592C388.687 81.9191 385.353 82 382 82C269.334 82 178 -9.33392 178 -122C178 -234.666 269.334 -326 382 -326C385.353 -326 388.687 -325.919 392 -325.759C395.313 -325.919 398.647 -326 402 -326C405.353 -326 408.687 -325.919 412 -325.759C415.313 -325.919 418.647 -326 422 -326C425.353 -326 428.687 -325.919 432 -325.759C435.313 -325.919 438.647 -326 442 -326C445.353 -326 448.687 -325.919 452 -325.759C455.313 -325.919 458.647 -326 462 -326C465.353 -326 468.687 -325.919 472 -325.759C475.313 -325.919 478.647 -326 482 -326C485.353 -326 488.687 -325.919 492 -325.759C495.313 -325.919 498.647 -326 502 -326C505.353 -326 508.687 -325.919 512 -325.759C515.313 -325.919 518.647 -326 522 -326C634.666 -326 726 -234.666 726 -122C726 -9.33392 634.666 82 522 82C518.647 82 515.313 81.9191 512 81.7592ZM522.329 -325C634.292 -324.822 725 -234.004 725 -122C725 -9.99603 634.292 80.8219 522.329 80.9997C625.451 70.7972 706 -16.1948 706 -122C706 -227.805 625.451 -314.797 522.329 -325ZM496.85 -324.465C495.239 -324.582 493.622 -324.679 492 -324.758C490.378 -324.679 488.761 -324.582 487.15 -324.465C488.772 -324.266 490.389 -324.047 492 -323.81C493.611 -324.047 495.228 -324.266 496.85 -324.465ZM488.579 -323.276C486.397 -323.561 484.203 -323.812 482 -324.027C479.797 -323.812 477.603 -323.561 475.421 -323.276C477.626 -322.912 479.819 -322.514 482 -322.08C484.181 -322.514 486.374 -322.912 488.579 -323.276ZM479.442 -321.554C476.976 -322.014 474.496 -322.429 472 -322.799C469.504 -322.429 467.024 -322.014 464.558 -321.554C467.056 -321.024 469.537 -320.448 472 -319.828C474.463 -320.448 476.944 -321.024 479.442 -321.554ZM469.958 -319.302C467.325 -319.94 464.672 -320.526 462 -321.06C459.328 -320.526 456.675 -319.94 454.042 -319.302C456.716 -318.598 459.37 -317.842 462 -317.034C464.63 -317.842 467.284 -318.598 469.958 -319.302ZM460.301 -316.504C457.558 -317.325 454.791 -318.089 452 -318.796C449.209 -318.089 446.442 -317.325 443.699 -316.504C446.492 -315.618 449.26 -314.674 452 -313.673C454.74 -314.674 457.508 -315.618 460.301 -316.504ZM434.042 75.302C436.716 74.5984 439.37 73.8419 442 73.0336C444.63 73.8419 447.284 74.5984 449.958 75.302C447.325 75.9398 444.672 76.5262 442 77.0601C439.328 76.5262 436.675 75.9397 434.042 75.302ZM444.558 77.5542C447.056 77.0241 449.537 76.4484 452 75.8278C454.463 76.4484 456.944 77.0241 459.442 77.5542C456.977 78.0139 454.496 78.429 452 78.7986C449.504 78.429 447.023 78.0139 444.558 77.5542ZM455.421 79.2757C457.626 78.9123 459.819 78.5135 462 78.08C464.181 78.5135 466.374 78.9123 468.579 79.2757C466.397 79.561 464.203 79.8118 462 80.0273C459.796 79.8118 457.603 79.561 455.421 79.2757ZM467.15 80.4651C468.772 80.2656 470.389 80.047 472 79.8096C473.611 80.047 475.228 80.2656 476.85 80.4651C475.239 80.5816 473.622 80.6793 472 80.758C470.378 80.6793 468.761 80.5816 467.15 80.4651ZM472 -324.758C473.622 -324.679 475.239 -324.582 476.85 -324.465C475.228 -324.266 473.611 -324.047 472 -323.81C470.389 -324.047 468.772 -324.266 467.15 -324.465C468.761 -324.582 470.378 -324.679 472 -324.758ZM462 -324.027C464.203 -323.812 466.397 -323.561 468.579 -323.276C466.374 -322.912 464.181 -322.514 462 -322.08C459.819 -322.514 457.626 -322.912 455.421 -323.276C457.603 -323.561 459.797 -323.812 462 -324.027ZM452 -322.799C454.496 -322.429 456.976 -322.014 459.442 -321.554C456.944 -321.024 454.463 -320.448 452 -319.828C449.537 -320.448 447.056 -321.024 444.558 -321.554C447.024 -322.014 449.504 -322.429 452 -322.799ZM442 -321.06C444.672 -320.526 447.325 -319.94 449.958 -319.302C447.284 -318.598 444.63 -317.842 442 -317.034C439.37 -317.842 436.716 -318.598 434.042 -319.302C436.675 -319.94 439.328 -320.526 442 -321.06ZM432 75.8278C429.537 76.4484 427.056 77.0241 424.558 77.5542C427.024 78.0139 429.504 78.429 432 78.7986C434.496 78.429 436.976 78.0139 439.442 77.5542C436.944 77.0241 434.463 76.4484 432 75.8278ZM442 78.08C439.819 78.5135 437.626 78.9123 435.421 79.2757C437.603 79.561 439.796 79.8118 442 80.0273C444.203 79.8118 446.397 79.561 448.579 79.2757C446.374 78.9123 444.181 78.5135 442 78.08ZM452 79.8096C450.389 80.047 448.772 80.2656 447.15 80.4651C448.761 80.5816 450.378 80.6793 452 80.758C453.622 80.6793 455.239 80.5816 456.85 80.4651C455.228 80.2656 453.611 80.047 452 79.8096ZM456.85 -324.465C455.239 -324.582 453.622 -324.679 452 -324.758C450.378 -324.679 448.761 -324.582 447.15 -324.465C448.772 -324.266 450.389 -324.047 452 -323.81C453.611 -324.047 455.228 -324.266 456.85 -324.465ZM448.579 -323.276C446.397 -323.561 444.203 -323.812 442 -324.027C439.797 -323.812 437.603 -323.561 435.421 -323.276C437.626 -322.912 439.819 -322.514 442 -322.08C444.181 -322.514 446.374 -322.912 448.579 -323.276ZM439.442 -321.554C436.976 -322.014 434.496 -322.429 432 -322.799C429.504 -322.429 427.024 -322.014 424.558 -321.554C427.056 -321.024 429.537 -320.448 432 -319.828C434.463 -320.448 436.944 -321.024 439.442 -321.554ZM415.421 79.2757C417.626 78.9123 419.819 78.5135 422 78.08C424.181 78.5135 426.374 78.9123 428.579 79.2757C426.397 79.561 424.203 79.8118 422 80.0273C419.796 79.8118 417.603 79.561 415.421 79.2757ZM427.15 80.4651C428.772 80.2656 430.389 80.047 432 79.8096C433.611 80.047 435.228 80.2656 436.85 80.4651C435.239 80.5816 433.622 80.6793 432 80.758C430.378 80.6793 428.761 80.5816 427.15 80.4651ZM432 -324.758C433.622 -324.679 435.239 -324.582 436.85 -324.465C435.228 -324.266 433.611 -324.047 432 -323.81C430.389 -324.047 428.772 -324.266 427.15 -324.465C428.761 -324.582 430.378 -324.679 432 -324.758ZM422 -324.027C424.203 -323.812 426.397 -323.561 428.579 -323.276C426.374 -322.912 424.181 -322.514 422 -322.08C419.819 -322.514 417.626 -322.912 415.421 -323.276C417.603 -323.561 419.797 -323.812 422 -324.027ZM412 79.8096C410.389 80.047 408.772 80.2656 407.15 80.4651C408.761 80.5816 410.378 80.6793 412 80.758C413.622 80.6793 415.239 80.5816 416.85 80.4651C415.228 80.2656 413.611 80.047 412 79.8096ZM416.85 -324.465C415.239 -324.582 413.622 -324.679 412 -324.758C410.378 -324.679 408.761 -324.582 407.15 -324.465C408.772 -324.266 410.389 -324.047 412 -323.81C413.611 -324.047 415.228 -324.266 416.85 -324.465ZM392 80.758C393.622 80.6793 395.239 80.5816 396.85 80.4651C296.05 68.0724 218 -17.8491 218 -122C218 -226.151 296.05 -312.072 396.85 -324.465C395.239 -324.582 393.622 -324.679 392 -324.758C284.531 -319.545 199 -230.761 199 -122C199 -13.2391 284.531 75.5448 392 80.758Z" fill="#9AC9E3" fill-opacity="0.4"/>
<mask id="path-5-inside-1_61_912" fill="white">
<path fill-rule="evenodd" clip-rule="evenodd" d="M1475.39 196.287C1475.39 196.328 1475.38 196.369 1475.38 196.409L1475.35 196.531C1475.35 196.489 1475.35 196.448 1475.35 196.406C1475.36 196.367 1475.37 196.327 1475.39 196.287ZM1476.38 189.421C1476.37 189.463 1476.36 189.504 1476.35 189.546C1474.58 155.89 1449.24 127.08 1414.61 122.137C1379.99 117.195 1347.61 137.765 1336.49 169.578C1336.49 169.537 1336.49 169.497 1336.49 169.456C1345.07 134.419 1379.01 110.936 1415.47 116.14C1451.93 121.344 1477.94 153.383 1476.38 189.421ZM1478.13 186.115C1478.02 187.278 1477.88 188.444 1477.71 189.613C1477.55 190.78 1477.35 191.938 1477.13 193.084C1477.02 194.253 1476.88 195.426 1476.72 196.601C1476.55 197.775 1476.35 198.939 1476.13 200.091C1476.02 201.254 1475.88 202.42 1475.72 203.588C1475.55 204.759 1475.36 205.92 1475.13 207.069C1475.03 208.235 1474.89 209.404 1474.72 210.576C1474.55 211.746 1474.36 212.905 1474.14 214.053C1474.03 215.22 1473.89 216.391 1473.72 217.564C1473.56 218.739 1473.36 219.902 1473.14 221.055C1473.03 222.218 1472.89 223.384 1472.73 224.552C1472.56 225.722 1472.36 226.88 1472.14 228.028C1472.03 229.196 1471.9 230.367 1471.73 231.54C1466.11 270.905 1429.64 298.262 1390.28 292.644C1350.91 287.025 1323.56 250.558 1329.17 211.193C1329.34 210.024 1329.54 208.865 1329.76 207.717C1329.87 206.55 1330 205.379 1330.17 204.205C1330.34 203.031 1330.53 201.867 1330.76 200.714C1330.86 199.552 1331 198.386 1331.17 197.217C1331.34 196.047 1331.53 194.889 1331.75 193.741C1331.86 192.573 1332 191.402 1332.17 190.229C1332.33 189.058 1332.53 187.897 1332.75 186.748C1332.86 185.582 1333 184.413 1333.16 183.241C1333.33 182.066 1333.53 180.903 1333.75 179.75C1333.86 178.587 1333.99 177.422 1334.16 176.253C1334.33 175.085 1334.52 173.928 1334.74 172.782C1334.85 171.613 1334.99 170.44 1335.16 169.265C1335.33 168.091 1335.52 166.927 1335.74 165.775C1335.85 164.612 1335.99 163.446 1336.16 162.277C1341.78 122.912 1378.24 95.5551 1417.61 101.174C1456.97 106.793 1484.33 143.259 1478.71 182.625C1478.54 183.799 1478.35 184.963 1478.13 186.115ZM1338.4 155.833C1346.84 120.601 1380.88 96.9422 1417.47 102.164C1454.05 107.386 1480.12 139.633 1478.36 175.827C1476.7 142.061 1451.32 113.117 1416.61 108.162C1381.9 103.208 1349.45 123.889 1338.4 155.833ZM1335.52 176.319C1335.51 176.361 1335.5 176.402 1335.49 176.444L1335.49 176.569C1335.5 176.529 1335.52 176.488 1335.53 176.447C1335.53 176.405 1335.53 176.362 1335.52 176.319ZM1336.43 173.009C1346.32 139.885 1379.22 118.095 1414.47 123.127C1449.73 128.16 1475.22 158.286 1475.45 192.857C1475.35 193.174 1475.26 193.491 1475.16 193.807C1472.2 161.333 1447.3 133.934 1413.62 129.126C1379.93 124.317 1348.37 143.657 1336.44 174.005C1336.43 173.673 1336.43 173.341 1336.43 173.009ZM1335.72 179.047C1335.62 179.363 1335.52 179.681 1335.43 180C1335.43 180.332 1335.44 180.664 1335.44 180.996C1335.57 180.681 1335.69 180.367 1335.82 180.055C1335.78 179.719 1335.75 179.383 1335.72 179.047ZM1336.65 178.12C1349.39 149.434 1380.01 131.459 1412.62 136.114C1445.23 140.768 1469.6 166.593 1473.81 197.698C1473.99 197.222 1474.17 196.743 1474.34 196.262C1472.44 163.214 1447.51 134.973 1413.48 130.116C1379.44 125.258 1347.61 145.394 1336.54 176.591C1336.57 177.102 1336.6 177.611 1336.65 178.12ZM1336.84 180.201C1348.94 150.942 1379.69 132.424 1412.48 137.104C1445.27 141.784 1469.61 168.165 1473.04 199.641C1472.8 200.229 1472.54 200.813 1472.29 201.392C1466.86 171.773 1443.07 147.591 1411.62 143.102C1380.17 138.612 1350.57 155.173 1337.07 182.09C1336.99 181.462 1336.91 180.833 1336.84 180.201ZM1336.07 182.144C1335.89 182.621 1335.71 183.1 1335.54 183.583C1335.57 184.092 1335.61 184.6 1335.65 185.108C1335.86 184.631 1336.08 184.157 1336.3 183.687C1336.22 183.174 1336.14 182.66 1336.07 182.144ZM1336.59 185.437C1336.34 186.017 1336.09 186.601 1335.84 187.189C1335.91 187.821 1335.99 188.452 1336.07 189.08C1336.37 188.498 1336.67 187.921 1336.97 187.35C1336.84 186.715 1336.71 186.077 1336.59 185.437ZM1337.72 185.994C1351.87 160.908 1380.39 145.774 1410.63 150.089C1440.86 154.405 1464.01 176.914 1470.58 204.958C1470.91 204.31 1471.23 203.655 1471.55 202.995C1466.71 173.142 1443 148.59 1411.48 144.092C1379.96 139.593 1350.33 156.529 1337.33 183.835C1337.45 184.558 1337.58 185.277 1337.72 185.994ZM1338.03 187.5C1351.78 162.158 1380.27 146.766 1410.48 151.079C1440.7 155.393 1463.74 178.139 1469.86 206.317C1456.1 231.66 1427.62 247.051 1397.4 242.738C1367.18 238.425 1344.14 215.679 1338.03 187.5ZM1337.31 188.86C1336.97 189.509 1336.65 190.164 1336.34 190.825C1341.18 220.677 1364.89 245.227 1396.4 249.726C1427.92 254.225 1457.55 237.287 1470.55 209.98C1470.43 209.258 1470.31 208.539 1470.17 207.824C1456.01 232.909 1427.49 248.043 1397.26 243.728C1367.03 239.413 1343.88 216.903 1337.31 188.86ZM1470.91 206.468C1471.05 207.102 1471.17 207.739 1471.29 208.378C1471.55 207.799 1471.8 207.216 1472.04 206.629C1471.97 205.997 1471.89 205.367 1471.81 204.74C1471.52 205.321 1471.22 205.897 1470.91 206.468ZM1472.58 203.143C1472.67 203.655 1472.74 204.17 1472.81 204.686C1472.99 204.209 1473.17 203.729 1473.34 203.247C1473.31 202.737 1473.27 202.229 1473.23 201.722C1473.02 202.198 1472.81 202.672 1472.58 203.143ZM1474.06 199.787C1474.1 200.121 1474.13 200.456 1474.16 200.791C1474.26 200.476 1474.36 200.159 1474.45 199.841C1474.45 199.51 1474.44 199.179 1474.44 198.849C1474.31 199.163 1474.19 199.475 1474.06 199.787ZM1474.35 203.391L1474.39 203.272L1474.38 203.402L1474.36 203.52L1474.35 203.391ZM1473.44 205.834C1473.32 206.148 1473.19 206.462 1473.06 206.775C1473.1 207.111 1473.13 207.447 1473.16 207.784C1473.26 207.467 1473.36 207.15 1473.45 206.831C1473.45 206.498 1473.45 206.166 1473.44 205.834ZM1472.24 208.71C1472.02 209.186 1471.81 209.658 1471.59 210.128C1471.67 210.642 1471.74 211.157 1471.81 211.674C1471.99 211.199 1472.17 210.72 1472.34 210.239C1472.31 209.728 1472.28 209.218 1472.24 208.71ZM1396.26 250.716C1364.81 246.227 1341.02 222.046 1335.6 192.428C1335.34 193.006 1335.09 193.589 1334.85 194.176C1338.28 225.652 1362.62 252.034 1395.41 256.714C1428.19 261.394 1458.94 242.875 1471.04 213.617C1470.97 212.985 1470.9 212.354 1470.81 211.725C1457.32 238.644 1427.71 255.205 1396.26 250.716ZM1335.07 189.132C1335.14 189.648 1335.22 190.164 1335.3 190.677C1335.08 191.147 1334.86 191.619 1334.65 192.095C1334.61 191.586 1334.58 191.077 1334.55 190.566C1334.72 190.085 1334.89 189.607 1335.07 189.132ZM1334.72 186.038C1334.75 186.374 1334.79 186.708 1334.82 187.043C1334.69 187.354 1334.57 187.666 1334.45 187.979C1334.44 187.649 1334.43 187.318 1334.43 186.987C1334.53 186.669 1334.62 186.353 1334.72 186.038ZM1334.53 183.311L1334.53 183.439L1334.49 183.556L1334.5 183.428L1334.53 183.311ZM1415.61 115.15C1380.9 110.195 1348.44 130.884 1337.4 162.839C1345.83 127.596 1379.88 103.929 1416.47 109.152C1453.05 114.373 1479.12 146.61 1477.36 182.796C1475.69 149.038 1450.32 120.104 1415.61 115.15ZM1392.27 278.668C1426.98 283.622 1459.44 262.941 1470.48 230.996C1462.04 266.229 1428 289.887 1391.42 284.666C1354.83 279.443 1328.76 247.196 1330.52 211.003C1332.18 244.769 1357.56 273.713 1392.27 278.668ZM1471.46 220.805C1471.46 220.473 1471.45 220.141 1471.44 219.81C1459.52 250.159 1427.95 269.5 1394.27 264.691C1360.58 259.883 1335.69 232.486 1332.73 200.013C1332.63 200.329 1332.53 200.646 1332.44 200.964C1332.67 235.533 1358.15 265.657 1393.41 270.69C1428.67 275.722 1461.57 253.93 1471.46 220.805ZM1394.41 263.702C1428.44 268.559 1460.28 248.422 1471.34 217.223C1471.31 216.714 1471.28 216.206 1471.24 215.699C1458.5 244.383 1427.88 262.359 1395.27 257.704C1362.65 253.049 1338.28 227.224 1334.08 196.119C1333.9 196.596 1333.72 197.075 1333.55 197.558C1335.44 230.605 1360.38 258.844 1394.41 263.702ZM1472.07 213.763C1472.1 214.098 1472.13 214.433 1472.16 214.768C1472.26 214.453 1472.36 214.136 1472.46 213.819C1472.45 213.487 1472.45 213.156 1472.44 212.826C1472.32 213.14 1472.19 213.452 1472.07 213.763ZM1473.35 210.383L1473.36 210.508L1473.39 210.383L1473.39 210.262L1473.35 210.383ZM1333.53 190.297L1333.5 190.423L1333.49 190.544L1333.54 190.422L1333.53 190.297ZM1333.73 193.021C1333.63 193.338 1333.53 193.656 1333.43 193.974C1333.44 194.307 1333.44 194.639 1333.45 194.971C1333.57 194.656 1333.7 194.342 1333.82 194.03C1333.79 193.694 1333.76 193.358 1333.73 193.021ZM1472.36 217.494L1472.35 217.367L1472.39 217.249L1472.39 217.375L1472.36 217.494ZM1332.5 197.406L1332.53 197.285L1332.54 197.414L1332.5 197.533L1332.5 197.406ZM1471.4 224.236L1471.39 224.363C1462.81 259.4 1428.87 282.882 1392.41 277.678C1355.95 272.474 1329.94 240.433 1331.5 204.394L1331.53 204.275C1333.31 237.929 1358.64 266.737 1393.27 271.68C1427.9 276.622 1460.28 256.051 1471.4 224.236ZM1469.49 237.97C1458.45 269.923 1425.99 290.61 1391.27 285.656C1356.57 280.701 1331.19 251.765 1329.53 218.006C1327.77 254.193 1353.84 286.432 1390.42 291.654C1427.01 296.876 1461.05 273.211 1469.49 237.97Z"/>
</mask>
<path fill-rule="evenodd" clip-rule="evenodd" d="M1475.39 196.287C1475.39 196.328 1475.38 196.369 1475.38 196.409L1475.35 196.531C1475.35 196.489 1475.35 196.448 1475.35 196.406C1475.36 196.367 1475.37 196.327 1475.39 196.287ZM1476.38 189.421C1476.37 189.463 1476.36 189.504 1476.35 189.546C1474.58 155.89 1449.24 127.08 1414.61 122.137C1379.99 117.195 1347.61 137.765 1336.49 169.578C1336.49 169.537 1336.49 169.497 1336.49 169.456C1345.07 134.419 1379.01 110.936 1415.47 116.14C1451.93 121.344 1477.94 153.383 1476.38 189.421ZM1478.13 186.115C1478.02 187.278 1477.88 188.444 1477.71 189.613C1477.55 190.78 1477.35 191.938 1477.13 193.084C1477.02 194.253 1476.88 195.426 1476.72 196.601C1476.55 197.775 1476.35 198.939 1476.13 200.091C1476.02 201.254 1475.88 202.42 1475.72 203.588C1475.55 204.759 1475.36 205.92 1475.13 207.069C1475.03 208.235 1474.89 209.404 1474.72 210.576C1474.55 211.746 1474.36 212.905 1474.14 214.053C1474.03 215.22 1473.89 216.391 1473.72 217.564C1473.56 218.739 1473.36 219.902 1473.14 221.055C1473.03 222.218 1472.89 223.384 1472.73 224.552C1472.56 225.722 1472.36 226.88 1472.14 228.028C1472.03 229.196 1471.9 230.367 1471.73 231.54C1466.11 270.905 1429.64 298.262 1390.28 292.644C1350.91 287.025 1323.56 250.558 1329.17 211.193C1329.34 210.024 1329.54 208.865 1329.76 207.717C1329.87 206.55 1330 205.379 1330.17 204.205C1330.34 203.031 1330.53 201.867 1330.76 200.714C1330.86 199.552 1331 198.386 1331.17 197.217C1331.34 196.047 1331.53 194.889 1331.75 193.741C1331.86 192.573 1332 191.402 1332.17 190.229C1332.33 189.058 1332.53 187.897 1332.75 186.748C1332.86 185.582 1333 184.413 1333.16 183.241C1333.33 182.066 1333.53 180.903 1333.75 179.75C1333.86 178.587 1333.99 177.422 1334.16 176.253C1334.33 175.085 1334.52 173.928 1334.74 172.782C1334.85 171.613 1334.99 170.44 1335.16 169.265C1335.33 168.091 1335.52 166.927 1335.74 165.775C1335.85 164.612 1335.99 163.446 1336.16 162.277C1341.78 122.912 1378.24 95.5551 1417.61 101.174C1456.97 106.793 1484.33 143.259 1478.71 182.625C1478.54 183.799 1478.35 184.963 1478.13 186.115ZM1338.4 155.833C1346.84 120.601 1380.88 96.9422 1417.47 102.164C1454.05 107.386 1480.12 139.633 1478.36 175.827C1476.7 142.061 1451.32 113.117 1416.61 108.162C1381.9 103.208 1349.45 123.889 1338.4 155.833ZM1335.52 176.319C1335.51 176.361 1335.5 176.402 1335.49 176.444L1335.49 176.569C1335.5 176.529 1335.52 176.488 1335.53 176.447C1335.53 176.405 1335.53 176.362 1335.52 176.319ZM1336.43 173.009C1346.32 139.885 1379.22 118.095 1414.47 123.127C1449.73 128.16 1475.22 158.286 1475.45 192.857C1475.35 193.174 1475.26 193.491 1475.16 193.807C1472.2 161.333 1447.3 133.934 1413.62 129.126C1379.93 124.317 1348.37 143.657 1336.44 174.005C1336.43 173.673 1336.43 173.341 1336.43 173.009ZM1335.72 179.047C1335.62 179.363 1335.52 179.681 1335.43 180C1335.43 180.332 1335.44 180.664 1335.44 180.996C1335.57 180.681 1335.69 180.367 1335.82 180.055C1335.78 179.719 1335.75 179.383 1335.72 179.047ZM1336.65 178.12C1349.39 149.434 1380.01 131.459 1412.62 136.114C1445.23 140.768 1469.6 166.593 1473.81 197.698C1473.99 197.222 1474.17 196.743 1474.34 196.262C1472.44 163.214 1447.51 134.973 1413.48 130.116C1379.44 125.258 1347.61 145.394 1336.54 176.591C1336.57 177.102 1336.6 177.611 1336.65 178.12ZM1336.84 180.201C1348.94 150.942 1379.69 132.424 1412.48 137.104C1445.27 141.784 1469.61 168.165 1473.04 199.641C1472.8 200.229 1472.54 200.813 1472.29 201.392C1466.86 171.773 1443.07 147.591 1411.62 143.102C1380.17 138.612 1350.57 155.173 1337.07 182.09C1336.99 181.462 1336.91 180.833 1336.84 180.201ZM1336.07 182.144C1335.89 182.621 1335.71 183.1 1335.54 183.583C1335.57 184.092 1335.61 184.6 1335.65 185.108C1335.86 184.631 1336.08 184.157 1336.3 183.687C1336.22 183.174 1336.14 182.66 1336.07 182.144ZM1336.59 185.437C1336.34 186.017 1336.09 186.601 1335.84 187.189C1335.91 187.821 1335.99 188.452 1336.07 189.08C1336.37 188.498 1336.67 187.921 1336.97 187.35C1336.84 186.715 1336.71 186.077 1336.59 185.437ZM1337.72 185.994C1351.87 160.908 1380.39 145.774 1410.63 150.089C1440.86 154.405 1464.01 176.914 1470.58 204.958C1470.91 204.31 1471.23 203.655 1471.55 202.995C1466.71 173.142 1443 148.59 1411.48 144.092C1379.96 139.593 1350.33 156.529 1337.33 183.835C1337.45 184.558 1337.58 185.277 1337.72 185.994ZM1338.03 187.5C1351.78 162.158 1380.27 146.766 1410.48 151.079C1440.7 155.393 1463.74 178.139 1469.86 206.317C1456.1 231.66 1427.62 247.051 1397.4 242.738C1367.18 238.425 1344.14 215.679 1338.03 187.5ZM1337.31 188.86C1336.97 189.509 1336.65 190.164 1336.34 190.825C1341.18 220.677 1364.89 245.227 1396.4 249.726C1427.92 254.225 1457.55 237.287 1470.55 209.98C1470.43 209.258 1470.31 208.539 1470.17 207.824C1456.01 232.909 1427.49 248.043 1397.26 243.728C1367.03 239.413 1343.88 216.903 1337.31 188.86ZM1470.91 206.468C1471.05 207.102 1471.17 207.739 1471.29 208.378C1471.55 207.799 1471.8 207.216 1472.04 206.629C1471.97 205.997 1471.89 205.367 1471.81 204.74C1471.52 205.321 1471.22 205.897 1470.91 206.468ZM1472.58 203.143C1472.67 203.655 1472.74 204.17 1472.81 204.686C1472.99 204.209 1473.17 203.729 1473.34 203.247C1473.31 202.737 1473.27 202.229 1473.23 201.722C1473.02 202.198 1472.81 202.672 1472.58 203.143ZM1474.06 199.787C1474.1 200.121 1474.13 200.456 1474.16 200.791C1474.26 200.476 1474.36 200.159 1474.45 199.841C1474.45 199.51 1474.44 199.179 1474.44 198.849C1474.31 199.163 1474.19 199.475 1474.06 199.787ZM1474.35 203.391L1474.39 203.272L1474.38 203.402L1474.36 203.52L1474.35 203.391ZM1473.44 205.834C1473.32 206.148 1473.19 206.462 1473.06 206.775C1473.1 207.111 1473.13 207.447 1473.16 207.784C1473.26 207.467 1473.36 207.15 1473.45 206.831C1473.45 206.498 1473.45 206.166 1473.44 205.834ZM1472.24 208.71C1472.02 209.186 1471.81 209.658 1471.59 210.128C1471.67 210.642 1471.74 211.157 1471.81 211.674C1471.99 211.199 1472.17 210.72 1472.34 210.239C1472.31 209.728 1472.28 209.218 1472.24 208.71ZM1396.26 250.716C1364.81 246.227 1341.02 222.046 1335.6 192.428C1335.34 193.006 1335.09 193.589 1334.85 194.176C1338.28 225.652 1362.62 252.034 1395.41 256.714C1428.19 261.394 1458.94 242.875 1471.04 213.617C1470.97 212.985 1470.9 212.354 1470.81 211.725C1457.32 238.644 1427.71 255.205 1396.26 250.716ZM1335.07 189.132C1335.14 189.648 1335.22 190.164 1335.3 190.677C1335.08 191.147 1334.86 191.619 1334.65 192.095C1334.61 191.586 1334.58 191.077 1334.55 190.566C1334.72 190.085 1334.89 189.607 1335.07 189.132ZM1334.72 186.038C1334.75 186.374 1334.79 186.708 1334.82 187.043C1334.69 187.354 1334.57 187.666 1334.45 187.979C1334.44 187.649 1334.43 187.318 1334.43 186.987C1334.53 186.669 1334.62 186.353 1334.72 186.038ZM1334.53 183.311L1334.53 183.439L1334.49 183.556L1334.5 183.428L1334.53 183.311ZM1415.61 115.15C1380.9 110.195 1348.44 130.884 1337.4 162.839C1345.83 127.596 1379.88 103.929 1416.47 109.152C1453.05 114.373 1479.12 146.61 1477.36 182.796C1475.69 149.038 1450.32 120.104 1415.61 115.15ZM1392.27 278.668C1426.98 283.622 1459.44 262.941 1470.48 230.996C1462.04 266.229 1428 289.887 1391.42 284.666C1354.83 279.443 1328.76 247.196 1330.52 211.003C1332.18 244.769 1357.56 273.713 1392.27 278.668ZM1471.46 220.805C1471.46 220.473 1471.45 220.141 1471.44 219.81C1459.52 250.159 1427.95 269.5 1394.27 264.691C1360.58 259.883 1335.69 232.486 1332.73 200.013C1332.63 200.329 1332.53 200.646 1332.44 200.964C1332.67 235.533 1358.15 265.657 1393.41 270.69C1428.67 275.722 1461.57 253.93 1471.46 220.805ZM1394.41 263.702C1428.44 268.559 1460.28 248.422 1471.34 217.223C1471.31 216.714 1471.28 216.206 1471.24 215.699C1458.5 244.383 1427.88 262.359 1395.27 257.704C1362.65 253.049 1338.28 227.224 1334.08 196.119C1333.9 196.596 1333.72 197.075 1333.55 197.558C1335.44 230.605 1360.38 258.844 1394.41 263.702ZM1472.07 213.763C1472.1 214.098 1472.13 214.433 1472.16 214.768C1472.26 214.453 1472.36 214.136 1472.46 213.819C1472.45 213.487 1472.45 213.156 1472.44 212.826C1472.32 213.14 1472.19 213.452 1472.07 213.763ZM1473.35 210.383L1473.36 210.508L1473.39 210.383L1473.39 210.262L1473.35 210.383ZM1333.53 190.297L1333.5 190.423L1333.49 190.544L1333.54 190.422L1333.53 190.297ZM1333.73 193.021C1333.63 193.338 1333.53 193.656 1333.43 193.974C1333.44 194.307 1333.44 194.639 1333.45 194.971C1333.57 194.656 1333.7 194.342 1333.82 194.03C1333.79 193.694 1333.76 193.358 1333.73 193.021ZM1472.36 217.494L1472.35 217.367L1472.39 217.249L1472.39 217.375L1472.36 217.494ZM1332.5 197.406L1332.53 197.285L1332.54 197.414L1332.5 197.533L1332.5 197.406ZM1471.4 224.236L1471.39 224.363C1462.81 259.4 1428.87 282.882 1392.41 277.678C1355.95 272.474 1329.94 240.433 1331.5 204.394L1331.53 204.275C1333.31 237.929 1358.64 266.737 1393.27 271.68C1427.9 276.622 1460.28 256.051 1471.4 224.236ZM1469.49 237.97C1458.45 269.923 1425.99 290.61 1391.27 285.656C1356.57 280.701 1331.19 251.765 1329.53 218.006C1327.77 254.193 1353.84 286.432 1390.42 291.654C1427.01 296.876 1461.05 273.211 1469.49 237.97Z" fill="#086C88"/>
<path d="M1475.38 196.409L1476.35 196.648L1476.38 196.552L1476.38 196.453L1475.38 196.409ZM1475.39 196.287L1476.39 196.329L1474.44 195.957L1475.39 196.287ZM1475.35 196.531L1474.35 196.583L1476.32 196.769L1475.35 196.531ZM1475.35 196.406L1474.4 196.075L1474.34 196.262L1474.35 196.461L1475.35 196.406ZM1476.35 189.546L1475.35 189.599L1477.32 189.785L1476.35 189.546ZM1476.38 189.421L1477.35 189.659L1477.38 189.563L1477.38 189.465L1476.38 189.421ZM1336.49 169.578L1335.49 169.536L1337.43 169.908L1336.49 169.578ZM1336.49 169.456L1335.52 169.219L1335.5 169.314L1335.49 169.413L1336.49 169.456ZM1478.13 186.115L1477.14 185.926L1477.13 185.973L1477.13 186.021L1478.13 186.115ZM1477.13 193.084L1476.15 192.895L1476.14 192.943L1476.14 192.991L1477.13 193.084ZM1476.13 200.091L1475.15 199.902L1475.14 199.95L1475.14 199.998L1476.13 200.091ZM1475.13 207.069L1474.15 206.88L1474.14 206.927L1474.14 206.975L1475.13 207.069ZM1474.14 214.053L1473.16 213.864L1473.15 213.911L1473.14 213.959L1474.14 214.053ZM1473.14 221.055L1472.16 220.866L1472.15 220.913L1472.14 220.961L1473.14 221.055ZM1472.14 228.028L1471.16 227.839L1471.15 227.886L1471.15 227.935L1472.14 228.028ZM1329.76 207.717L1330.74 207.906L1330.75 207.859L1330.75 207.811L1329.76 207.717ZM1330.76 200.714L1331.74 200.903L1331.75 200.856L1331.75 200.808L1330.76 200.714ZM1331.75 193.741L1332.73 193.93L1332.74 193.882L1332.75 193.834L1331.75 193.741ZM1332.75 186.748L1333.73 186.937L1333.74 186.89L1333.74 186.842L1332.75 186.748ZM1333.75 179.75L1334.73 179.939L1334.74 179.892L1334.74 179.844L1333.75 179.75ZM1334.74 172.782L1335.72 172.97L1335.73 172.923L1335.74 172.875L1334.74 172.782ZM1335.74 165.775L1336.72 165.964L1336.73 165.916L1336.74 165.868L1335.74 165.775ZM1338.4 155.833L1337.43 155.6L1339.35 156.16L1338.4 155.833ZM1478.36 175.827L1477.36 175.876L1479.36 175.875L1478.36 175.827ZM1335.52 176.319L1336.52 176.267L1334.55 176.08L1335.52 176.319ZM1335.49 176.444L1334.52 176.206L1334.5 176.302L1334.49 176.401L1335.49 176.444ZM1335.49 176.569L1334.49 176.527L1336.43 176.899L1335.49 176.569ZM1335.53 176.447L1336.47 176.779L1336.54 176.591L1336.53 176.393L1335.53 176.447ZM1336.43 173.009L1335.47 172.723L1335.43 172.866L1335.43 173.015L1336.43 173.009ZM1475.45 192.857L1476.41 193.143L1476.45 192.999L1476.45 192.85L1475.45 192.857ZM1475.16 193.807L1474.16 193.898L1476.11 194.107L1475.16 193.807ZM1336.44 174.005L1335.44 174.025L1337.37 174.37L1336.44 174.005ZM1335.72 179.047L1336.72 178.956L1334.77 178.747L1335.72 179.047ZM1335.43 180L1334.47 179.714L1334.43 179.857L1334.43 180.007L1335.43 180ZM1335.44 180.996L1334.44 181.017L1336.37 181.362L1335.44 180.996ZM1335.82 180.055L1336.74 180.434L1336.84 180.201L1336.81 179.95L1335.82 180.055ZM1336.65 178.12L1335.65 178.199L1337.56 178.526L1336.65 178.12ZM1473.81 197.698L1472.82 197.832L1474.74 198.052L1473.81 197.698ZM1474.34 196.262L1475.28 196.596L1475.35 196.406L1475.33 196.205L1474.34 196.262ZM1336.54 176.591L1335.6 176.257L1335.53 176.447L1335.54 176.649L1336.54 176.591ZM1336.84 180.201L1335.92 179.819L1335.82 180.055L1335.85 180.309L1336.84 180.201ZM1473.04 199.641L1473.96 200.023L1474.06 199.787L1474.03 199.532L1473.04 199.641ZM1472.29 201.392L1471.3 201.572L1471.88 204.75L1473.2 201.799L1472.29 201.392ZM1337.07 182.09L1336.08 182.225L1336.52 185.426L1337.97 182.538L1337.07 182.09ZM1336.07 182.144L1337.06 182.01L1335.14 181.789L1336.07 182.144ZM1335.54 183.583L1334.6 183.248L1334.53 183.439L1334.54 183.64L1335.54 183.583ZM1335.65 185.108L1334.65 185.186L1336.56 185.514L1335.65 185.108ZM1336.3 183.687L1337.2 184.113L1337.33 183.835L1337.28 183.531L1336.3 183.687ZM1336.59 185.437L1337.58 185.257L1337 182.08L1335.68 185.03L1336.59 185.437ZM1335.84 187.189L1334.92 186.806L1334.82 187.043L1334.85 187.297L1335.84 187.189ZM1336.07 189.08L1335.08 189.215L1335.52 192.416L1336.97 189.528L1336.07 189.08ZM1336.97 187.35L1337.85 187.822L1338.03 187.5L1337.95 187.143L1336.97 187.35ZM1337.72 185.994L1336.74 186.185L1337.25 188.851L1338.59 186.485L1337.72 185.994ZM1470.58 204.958L1469.6 205.186L1470.22 207.831L1471.47 205.415L1470.58 204.958ZM1471.55 202.995L1472.45 203.424L1472.59 203.143L1472.54 202.835L1471.55 202.995ZM1337.33 183.835L1336.43 183.405L1336.3 183.687L1336.35 183.995L1337.33 183.835ZM1338.03 187.5L1337.15 187.023L1336.97 187.349L1337.05 187.712L1338.03 187.5ZM1469.86 206.317L1470.74 206.794L1470.91 206.468L1470.83 206.105L1469.86 206.317ZM1337.31 188.86L1338.28 188.632L1337.66 185.987L1336.42 188.402L1337.31 188.86ZM1336.34 190.825L1335.43 190.395L1335.3 190.677L1335.35 190.985L1336.34 190.825ZM1470.55 209.98L1471.45 210.41L1471.59 210.128L1471.54 209.82L1470.55 209.98ZM1470.17 207.824L1471.15 207.633L1470.63 204.966L1469.3 207.332L1470.17 207.824ZM1470.91 206.468L1470.03 205.996L1469.86 206.317L1469.93 206.675L1470.91 206.468ZM1471.29 208.378L1470.31 208.558L1470.89 211.735L1472.2 208.785L1471.29 208.378ZM1472.04 206.629L1472.96 207.011L1473.06 206.775L1473.03 206.52L1472.04 206.629ZM1471.81 204.74L1472.8 204.605L1472.36 201.404L1470.91 204.292L1471.81 204.74ZM1472.58 203.143L1471.68 202.717L1471.55 202.995L1471.6 203.298L1472.58 203.143ZM1472.81 204.686L1471.82 204.82L1473.75 205.04L1472.81 204.686ZM1473.34 203.247L1474.28 203.581L1474.35 203.391L1474.34 203.189L1473.34 203.247ZM1473.23 201.722L1474.23 201.643L1472.32 201.316L1473.23 201.722ZM1474.06 199.787L1473.13 199.408L1473.04 199.641L1473.07 199.892L1474.06 199.787ZM1474.16 200.791L1473.16 200.882L1475.11 201.091L1474.16 200.791ZM1474.45 199.841L1475.41 200.128L1475.45 199.984L1475.45 199.835L1474.45 199.841ZM1474.44 198.849L1475.44 198.828L1473.51 198.483L1474.44 198.849ZM1474.39 203.272L1475.39 203.315L1473.45 202.941L1474.39 203.272ZM1474.35 203.391L1473.4 203.06L1473.34 203.247L1473.35 203.444L1474.35 203.391ZM1474.38 203.402L1475.36 203.641L1475.38 203.544L1475.38 203.444L1474.38 203.402ZM1474.36 203.52L1473.36 203.574L1475.33 203.759L1474.36 203.52ZM1473.06 206.775L1472.14 206.396L1472.04 206.629L1472.07 206.879L1473.06 206.775ZM1473.44 205.834L1474.44 205.813L1472.51 205.468L1473.44 205.834ZM1473.16 207.784L1472.17 207.875L1474.12 208.084L1473.16 207.784ZM1473.45 206.831L1474.41 207.117L1474.45 206.974L1474.45 206.824L1473.45 206.831ZM1471.59 210.128L1470.68 209.702L1470.55 209.98L1470.6 210.284L1471.59 210.128ZM1472.24 208.71L1473.23 208.631L1471.32 208.304L1472.24 208.71ZM1471.81 211.674L1470.82 211.808L1472.75 212.029L1471.81 211.674ZM1472.34 210.239L1473.28 210.574L1473.35 210.383L1473.34 210.182L1472.34 210.239ZM1335.6 192.428L1336.58 192.247L1336 189.07L1334.68 192.021L1335.6 192.428ZM1334.85 194.176L1333.92 193.794L1333.82 194.03L1333.85 194.284L1334.85 194.176ZM1471.04 213.617L1471.97 214L1472.07 213.763L1472.04 213.509L1471.04 213.617ZM1470.81 211.725L1471.8 211.59L1471.37 208.389L1469.92 211.277L1470.81 211.725ZM1335.3 190.677L1336.2 191.103L1336.33 190.825L1336.29 190.521L1335.3 190.677ZM1335.07 189.132L1336.06 188.998L1334.14 188.777L1335.07 189.132ZM1334.65 192.095L1333.65 192.174L1335.56 192.501L1334.65 192.095ZM1334.55 190.566L1333.6 190.232L1333.54 190.422L1333.55 190.623L1334.55 190.566ZM1334.82 187.043L1335.75 187.422L1335.84 187.189L1335.82 186.938L1334.82 187.043ZM1334.72 186.038L1335.72 185.947L1333.77 185.738L1334.72 186.038ZM1334.45 187.979L1333.45 188L1335.38 188.345L1334.45 187.979ZM1334.43 186.987L1333.47 186.7L1333.43 186.844L1333.43 186.993L1334.43 186.987ZM1334.53 183.439L1335.48 183.769L1335.54 183.583L1335.53 183.385L1334.53 183.439ZM1334.53 183.311L1335.52 183.257L1333.56 183.072L1334.53 183.311ZM1334.49 183.556L1333.49 183.513L1335.44 183.887L1334.49 183.556ZM1334.5 183.428L1333.53 183.189L1333.5 183.286L1333.5 183.385L1334.5 183.428ZM1337.4 162.839L1336.43 162.606L1338.34 163.165L1337.4 162.839ZM1477.36 182.796L1476.36 182.845L1478.36 182.844L1477.36 182.796ZM1470.48 230.996L1471.45 231.229L1469.54 230.669L1470.48 230.996ZM1330.52 211.003L1331.52 210.954L1329.53 210.954L1330.52 211.003ZM1471.44 219.81L1472.44 219.789L1470.51 219.444L1471.44 219.81ZM1471.46 220.805L1472.42 221.091L1472.46 220.948L1472.46 220.798L1471.46 220.805ZM1332.73 200.013L1333.72 199.922L1331.77 199.713L1332.73 200.013ZM1332.44 200.964L1331.48 200.678L1331.44 200.821L1331.44 200.971L1332.44 200.964ZM1471.34 217.223L1472.29 217.558L1472.35 217.367L1472.34 217.166L1471.34 217.223ZM1471.24 215.699L1472.24 215.62L1470.33 215.293L1471.24 215.699ZM1334.08 196.119L1335.07 195.985L1333.14 195.764L1334.08 196.119ZM1333.55 197.558L1332.61 197.223L1332.54 197.413L1332.55 197.615L1333.55 197.558ZM1472.16 214.768L1471.17 214.859L1473.12 215.068L1472.16 214.768ZM1472.07 213.763L1471.14 213.384L1471.04 213.618L1471.07 213.868L1472.07 213.763ZM1472.46 213.819L1473.41 214.105L1473.46 213.961L1473.46 213.812L1472.46 213.819ZM1472.44 212.826L1473.44 212.805L1471.51 212.46L1472.44 212.826ZM1473.36 210.508L1472.36 210.562L1474.33 210.747L1473.36 210.508ZM1473.35 210.383L1472.41 210.053L1472.34 210.239L1472.35 210.437L1473.35 210.383ZM1473.39 210.383L1474.36 210.621L1474.38 210.524L1474.39 210.425L1473.39 210.383ZM1473.39 210.262L1474.39 210.304L1472.45 209.931L1473.39 210.262ZM1333.5 190.423L1332.53 190.184L1332.5 190.281L1332.5 190.38L1333.5 190.423ZM1333.53 190.297L1334.53 190.244L1332.56 190.058L1333.53 190.297ZM1333.49 190.544L1332.49 190.501L1334.44 190.875L1333.49 190.544ZM1333.54 190.422L1334.48 190.753L1334.55 190.566L1334.53 190.368L1333.54 190.422ZM1333.43 193.974L1332.48 193.688L1332.43 193.832L1332.43 193.981L1333.43 193.974ZM1333.73 193.021L1334.72 192.931L1332.77 192.722L1333.73 193.021ZM1333.45 194.971L1332.45 194.992L1334.38 195.337L1333.45 194.971ZM1333.82 194.03L1334.75 194.409L1334.85 194.176L1334.82 193.925L1333.82 194.03ZM1472.35 217.367L1471.41 217.037L1471.34 217.223L1471.35 217.421L1472.35 217.367ZM1472.36 217.494L1471.36 217.548L1473.33 217.733L1472.36 217.494ZM1472.39 217.249L1473.39 217.292L1471.45 216.918L1472.39 217.249ZM1472.39 217.375L1473.36 217.614L1473.38 217.517L1473.39 217.418L1472.39 217.375ZM1332.53 197.285L1333.53 197.231L1331.56 197.046L1332.53 197.285ZM1332.5 197.406L1331.53 197.167L1331.51 197.264L1331.5 197.363L1332.5 197.406ZM1332.54 197.414L1333.48 197.744L1333.55 197.558L1333.54 197.36L1332.54 197.414ZM1332.5 197.533L1331.5 197.491L1333.44 197.864L1332.5 197.533ZM1471.39 224.363L1472.36 224.601L1472.39 224.505L1472.39 224.406L1471.39 224.363ZM1471.4 224.236L1472.4 224.278L1470.45 223.906L1471.4 224.236ZM1331.5 204.394L1330.53 204.155L1330.51 204.252L1330.51 204.351L1331.5 204.394ZM1331.53 204.275L1332.53 204.222L1330.56 204.036L1331.53 204.275ZM1469.49 237.97L1470.46 238.203L1468.54 237.644L1469.49 237.97ZM1329.53 218.006L1330.53 217.957L1328.53 217.957L1329.53 218.006ZM1476.38 196.453C1476.38 196.412 1476.38 196.37 1476.39 196.329L1474.39 196.246C1474.39 196.286 1474.38 196.326 1474.38 196.366L1476.38 196.453ZM1476.32 196.769L1476.35 196.648L1474.41 196.171L1474.38 196.292L1476.32 196.769ZM1474.35 196.461C1474.35 196.502 1474.35 196.543 1474.35 196.583L1476.35 196.478C1476.35 196.436 1476.35 196.394 1476.34 196.352L1474.35 196.461ZM1476.29 196.738C1476.3 196.698 1476.32 196.658 1476.33 196.617L1474.44 195.957C1474.43 195.996 1474.42 196.035 1474.4 196.075L1476.29 196.738ZM1477.32 189.785C1477.33 189.743 1477.34 189.701 1477.35 189.659L1475.41 189.184C1475.4 189.224 1475.39 189.265 1475.38 189.306L1477.32 189.785ZM1414.47 123.127C1448.62 128.001 1473.6 156.41 1475.35 189.599L1477.35 189.493C1475.55 155.369 1449.86 126.159 1414.76 121.147L1414.47 123.127ZM1337.43 169.908C1348.4 138.537 1380.33 118.254 1414.47 123.127L1414.76 121.147C1379.65 116.136 1346.82 136.992 1335.54 169.248L1337.43 169.908ZM1335.49 169.413C1335.49 169.454 1335.49 169.495 1335.49 169.536L1337.49 169.62C1337.49 169.58 1337.49 169.54 1337.49 169.5L1335.49 169.413ZM1415.61 115.15C1378.64 109.872 1344.22 133.686 1335.52 169.219L1337.46 169.694C1345.92 135.151 1379.38 111.999 1415.33 117.13L1415.61 115.15ZM1477.38 189.465C1478.97 152.918 1452.59 120.427 1415.61 115.15L1415.33 117.13C1451.28 122.26 1476.92 153.848 1475.38 189.378L1477.38 189.465ZM1478.7 189.754C1478.87 188.569 1479.01 187.387 1479.12 186.209L1477.13 186.021C1477.02 187.168 1476.89 188.318 1476.72 189.471L1478.7 189.754ZM1478.11 193.273C1478.34 192.111 1478.53 190.938 1478.7 189.754L1476.72 189.471C1476.56 190.623 1476.37 191.765 1476.15 192.895L1478.11 193.273ZM1477.71 196.742C1477.88 195.551 1478.02 194.362 1478.13 193.177L1476.14 192.991C1476.03 194.144 1475.89 195.3 1475.73 196.459L1477.71 196.742ZM1477.11 200.28C1477.34 199.112 1477.54 197.932 1477.71 196.742L1475.73 196.459C1475.56 197.618 1475.37 198.766 1475.15 199.902L1477.11 200.28ZM1476.71 203.729C1476.88 202.545 1477.02 201.363 1477.13 200.185L1475.14 199.998C1475.03 201.144 1474.89 202.294 1474.73 203.447L1476.71 203.729ZM1476.12 207.258C1476.34 206.093 1476.54 204.916 1476.71 203.729L1474.73 203.447C1474.56 204.602 1474.37 205.746 1474.15 206.88L1476.12 207.258ZM1475.71 210.718C1475.88 209.53 1476.02 208.344 1476.13 207.162L1474.14 206.975C1474.03 208.126 1473.9 209.279 1473.73 210.435L1475.71 210.718ZM1475.12 214.241C1475.34 213.078 1475.54 211.903 1475.71 210.718L1473.73 210.435C1473.57 211.589 1473.37 212.732 1473.16 213.864L1475.12 214.241ZM1474.71 217.706C1474.88 216.516 1475.02 215.329 1475.13 214.146L1473.14 213.959C1473.03 215.111 1472.9 216.266 1472.73 217.423L1474.71 217.706ZM1474.12 221.244C1474.35 220.076 1474.54 218.896 1474.71 217.706L1472.73 217.423C1472.57 218.581 1472.38 219.729 1472.16 220.866L1474.12 221.244ZM1473.72 224.694C1473.88 223.509 1474.02 222.327 1474.13 221.148L1472.14 220.961C1472.04 222.108 1471.9 223.258 1471.74 224.411L1473.72 224.694ZM1473.13 228.217C1473.35 227.053 1473.55 225.879 1473.72 224.694L1471.74 224.411C1471.57 225.564 1471.38 226.707 1471.16 227.839L1473.13 228.217ZM1472.72 231.682C1472.89 230.492 1473.03 229.305 1473.14 228.121L1471.15 227.935C1471.04 229.086 1470.9 230.241 1470.74 231.399L1472.72 231.682ZM1390.14 293.634C1430.05 299.33 1467.02 271.593 1472.72 231.682L1470.74 231.399C1465.2 270.217 1429.24 297.194 1390.42 291.654L1390.14 293.634ZM1328.18 211.052C1322.49 250.963 1350.22 287.937 1390.14 293.634L1390.42 291.654C1351.6 286.113 1324.62 250.153 1330.16 211.334L1328.18 211.052ZM1328.77 207.529C1328.55 208.692 1328.35 209.866 1328.18 211.052L1330.16 211.334C1330.33 210.181 1330.52 209.038 1330.74 207.906L1328.77 207.529ZM1329.18 204.064C1329.01 205.253 1328.87 206.44 1328.76 207.624L1330.75 207.811C1330.86 206.659 1331 205.504 1331.16 204.346L1329.18 204.064ZM1329.77 200.526C1329.55 201.694 1329.35 202.873 1329.18 204.064L1331.16 204.346C1331.33 203.188 1331.52 202.04 1331.74 200.903L1329.77 200.526ZM1330.18 197.076C1330.01 198.26 1329.87 199.442 1329.76 200.621L1331.75 200.808C1331.86 199.661 1331.99 198.511 1332.16 197.358L1330.18 197.076ZM1330.77 193.552C1330.55 194.715 1330.35 195.89 1330.18 197.076L1332.16 197.358C1332.32 196.205 1332.52 195.062 1332.73 193.93L1330.77 193.552ZM1331.18 190.088C1331.01 191.277 1330.87 192.464 1330.76 193.647L1332.75 193.834C1332.85 192.683 1332.99 191.528 1333.16 190.37L1331.18 190.088ZM1331.77 186.559C1331.54 187.724 1331.35 188.901 1331.18 190.088L1333.16 190.37C1333.32 189.215 1333.51 188.07 1333.73 186.937L1331.77 186.559ZM1332.17 183.099C1332 184.287 1331.86 185.473 1331.75 186.655L1333.74 186.842C1333.85 185.691 1333.99 184.538 1334.15 183.382L1332.17 183.099ZM1332.77 179.561C1332.54 180.729 1332.34 181.909 1332.17 183.099L1334.15 183.382C1334.32 182.224 1334.51 181.076 1334.73 179.939L1332.77 179.561ZM1333.17 176.112C1333 177.296 1332.86 178.478 1332.75 179.656L1334.74 179.844C1334.85 178.697 1334.99 177.547 1335.15 176.394L1333.17 176.112ZM1333.76 172.593C1333.54 173.755 1333.34 174.928 1333.17 176.112L1335.15 176.394C1335.32 175.242 1335.51 174.101 1335.72 172.97L1333.76 172.593ZM1334.17 169.124C1334 170.315 1333.86 171.503 1333.75 172.688L1335.74 172.875C1335.85 171.722 1335.98 170.565 1336.15 169.406L1334.17 169.124ZM1334.76 165.586C1334.54 166.754 1334.34 167.934 1334.17 169.124L1336.15 169.406C1336.31 168.248 1336.51 167.1 1336.72 165.964L1334.76 165.586ZM1335.17 162.136C1335 163.32 1334.86 164.502 1334.75 165.681L1336.74 165.868C1336.85 164.721 1336.98 163.571 1337.15 162.419L1335.17 162.136ZM1417.75 100.184C1377.84 94.4871 1340.86 122.224 1335.17 162.136L1337.15 162.419C1342.69 123.6 1378.65 96.6231 1417.47 102.164L1417.75 100.184ZM1479.7 182.766C1485.4 142.854 1457.66 105.881 1417.75 100.184L1417.47 102.164C1456.28 107.705 1483.26 143.665 1477.72 182.483L1479.7 182.766ZM1479.11 186.304C1479.33 185.136 1479.53 183.956 1479.7 182.766L1477.72 182.483C1477.56 183.642 1477.36 184.789 1477.14 185.926L1479.11 186.304ZM1417.61 101.174C1380.51 95.8786 1345.99 119.87 1337.43 155.6L1339.37 156.066C1347.69 121.331 1381.26 98.0058 1417.32 103.154L1417.61 101.174ZM1479.36 175.875C1481.15 139.171 1454.71 106.47 1417.61 101.174L1417.32 103.154C1453.4 108.303 1479.1 140.096 1477.36 175.778L1479.36 175.875ZM1479.36 175.778C1477.67 141.542 1451.95 112.196 1416.75 107.172L1416.47 109.152C1450.7 114.038 1475.72 142.579 1477.36 175.876L1479.36 175.778ZM1416.75 107.172C1381.56 102.149 1348.65 123.118 1337.46 155.507L1339.35 156.16C1350.24 124.66 1382.24 104.267 1416.47 109.152L1416.75 107.172ZM1334.55 176.08C1334.54 176.122 1334.53 176.164 1334.52 176.206L1336.46 176.682C1336.47 176.641 1336.49 176.6 1336.5 176.559L1334.55 176.08ZM1334.49 176.401L1334.49 176.527L1336.49 176.612L1336.49 176.486L1334.49 176.401ZM1336.43 176.899C1336.45 176.859 1336.46 176.819 1336.47 176.779L1334.59 176.116C1334.57 176.157 1334.56 176.198 1334.54 176.239L1336.43 176.899ZM1334.53 176.372C1334.53 176.415 1334.53 176.458 1334.53 176.502L1336.53 176.393C1336.53 176.351 1336.53 176.309 1336.52 176.267L1334.53 176.372ZM1414.61 122.137C1378.86 117.034 1345.5 139.132 1335.47 172.723L1337.38 173.295C1347.14 140.639 1379.57 119.156 1414.33 124.117L1414.61 122.137ZM1476.45 192.85C1476.22 157.792 1450.37 127.241 1414.61 122.137L1414.33 124.117C1449.09 129.079 1474.22 158.781 1474.45 192.863L1476.45 192.85ZM1476.11 194.107C1476.21 193.786 1476.31 193.465 1476.41 193.143L1474.49 192.57C1474.4 192.884 1474.3 193.196 1474.2 193.507L1476.11 194.107ZM1413.48 130.116C1446.69 134.857 1471.24 161.875 1474.16 193.898L1476.15 193.716C1473.15 160.791 1447.91 133.011 1413.76 128.136L1413.48 130.116ZM1337.37 174.37C1349.13 144.444 1380.26 125.374 1413.48 130.116L1413.76 128.136C1379.6 123.26 1347.6 142.869 1335.51 173.639L1337.37 174.37ZM1335.43 173.015C1335.43 173.352 1335.43 173.689 1335.44 174.025L1337.44 173.984C1337.43 173.657 1337.43 173.33 1337.43 173.002L1335.43 173.015ZM1334.77 178.747C1334.67 179.068 1334.57 179.391 1334.47 179.714L1336.39 180.286C1336.48 179.972 1336.58 179.658 1336.67 179.346L1334.77 178.747ZM1334.43 180.007C1334.43 180.344 1334.44 180.68 1334.44 181.017L1336.44 180.975C1336.43 180.648 1336.43 180.321 1336.43 179.993L1334.43 180.007ZM1336.37 181.362C1336.49 181.051 1336.62 180.742 1336.74 180.434L1334.89 179.676C1334.76 179.993 1334.64 180.311 1334.51 180.63L1336.37 181.362ZM1334.72 179.137C1334.76 179.479 1334.79 179.82 1334.82 180.16L1336.81 179.95C1336.78 179.619 1336.75 179.288 1336.72 178.956L1334.72 179.137ZM1337.56 178.526C1350.13 150.238 1380.32 132.514 1412.48 137.104L1412.76 135.124C1379.7 130.404 1348.65 148.63 1335.73 177.714L1337.56 178.526ZM1412.48 137.104C1444.63 141.693 1468.67 167.158 1472.82 197.832L1474.8 197.563C1470.53 166.027 1445.83 139.843 1412.76 135.124L1412.48 137.104ZM1474.74 198.052C1474.93 197.57 1475.11 197.084 1475.28 196.596L1473.39 195.928C1473.23 196.402 1473.05 196.874 1472.87 197.343L1474.74 198.052ZM1475.33 196.205C1473.41 162.69 1448.13 134.052 1413.62 129.126L1413.33 131.105C1446.89 135.895 1471.47 163.737 1473.34 196.319L1475.33 196.205ZM1413.62 129.126C1379.1 124.199 1346.82 144.62 1335.6 176.257L1337.48 176.926C1348.39 146.168 1379.78 126.316 1413.33 131.105L1413.62 129.126ZM1335.54 176.649C1335.57 177.166 1335.61 177.683 1335.65 178.199L1337.64 178.041C1337.6 177.54 1337.57 177.037 1337.54 176.534L1335.54 176.649ZM1412.62 136.114C1379.37 131.368 1348.19 150.148 1335.92 179.819L1337.77 180.583C1349.7 151.736 1380.01 133.48 1412.34 138.094L1412.62 136.114ZM1474.03 199.532C1470.55 167.614 1445.87 140.86 1412.62 136.114L1412.34 138.094C1444.66 142.707 1468.66 168.717 1472.04 199.749L1474.03 199.532ZM1473.2 201.799C1473.46 201.212 1473.72 200.62 1473.96 200.023L1472.11 199.259C1471.87 199.838 1471.63 200.414 1471.37 200.985L1473.2 201.799ZM1411.48 144.092C1442.49 148.518 1465.95 172.363 1471.3 201.572L1473.27 201.212C1467.77 171.183 1443.65 146.664 1411.76 142.112L1411.48 144.092ZM1337.97 182.538C1351.28 155.994 1380.47 139.665 1411.48 144.092L1411.76 142.112C1379.87 137.56 1349.86 154.352 1336.18 181.642L1337.97 182.538ZM1335.85 180.309C1335.92 180.95 1336 181.589 1336.08 182.225L1338.06 181.955C1337.98 181.336 1337.9 180.715 1337.84 180.092L1335.85 180.309ZM1335.14 181.789C1334.95 182.273 1334.77 182.759 1334.6 183.248L1336.49 183.917C1336.65 183.442 1336.83 182.969 1337.01 182.499L1335.14 181.789ZM1334.54 183.64C1334.57 184.157 1334.61 184.672 1334.65 185.186L1336.64 185.029C1336.6 184.529 1336.57 184.028 1336.54 183.525L1334.54 183.64ZM1336.56 185.514C1336.77 185.044 1336.98 184.577 1337.2 184.113L1335.39 183.261C1335.17 183.738 1334.95 184.218 1334.73 184.702L1336.56 185.514ZM1335.08 182.278C1335.15 182.801 1335.23 183.323 1335.31 183.843L1337.28 183.531C1337.2 183.026 1337.13 182.518 1337.06 182.01L1335.08 182.278ZM1335.68 185.03C1335.42 185.618 1335.17 186.21 1334.92 186.806L1336.77 187.571C1337.01 186.991 1337.25 186.416 1337.51 185.845L1335.68 185.03ZM1334.85 187.297C1334.92 187.939 1335 188.578 1335.08 189.215L1337.07 188.945C1336.98 188.325 1336.9 187.704 1336.84 187.08L1334.85 187.297ZM1336.97 189.528C1337.26 188.955 1337.55 188.386 1337.85 187.822L1336.09 186.877C1335.78 187.457 1335.48 188.042 1335.18 188.632L1336.97 189.528ZM1335.61 185.618C1335.73 186.267 1335.86 186.913 1335.99 187.556L1337.95 187.143C1337.82 186.517 1337.69 185.888 1337.58 185.257L1335.61 185.618ZM1338.59 186.485C1352.55 161.746 1380.67 146.824 1410.48 151.079L1410.77 149.099C1380.11 144.724 1351.2 160.07 1336.85 185.502L1338.59 186.485ZM1410.48 151.079C1440.29 155.334 1463.12 177.53 1469.6 205.186L1471.55 204.73C1464.89 176.298 1441.42 153.475 1410.77 149.099L1410.48 151.079ZM1471.47 205.415C1471.8 204.758 1472.13 204.094 1472.45 203.424L1470.65 202.565C1470.34 203.216 1470.02 203.861 1469.69 204.5L1471.47 205.415ZM1472.54 202.835C1467.63 172.562 1443.58 147.664 1411.62 143.102L1411.34 145.081C1442.41 149.517 1465.79 173.721 1470.56 203.155L1472.54 202.835ZM1411.62 143.102C1379.66 138.539 1349.61 155.716 1336.43 183.405L1338.24 184.265C1351.05 157.343 1380.27 140.647 1411.34 145.081L1411.62 143.102ZM1336.35 183.995C1336.47 184.728 1336.6 185.458 1336.74 186.185L1338.7 185.803C1338.56 185.097 1338.44 184.387 1338.32 183.675L1336.35 183.995ZM1410.63 150.089C1379.98 145.715 1351.09 161.325 1337.15 187.023L1338.91 187.977C1352.47 162.99 1380.55 147.817 1410.34 152.069L1410.63 150.089ZM1470.83 206.105C1464.64 177.531 1441.27 154.464 1410.63 150.089L1410.34 152.069C1440.13 156.322 1462.85 178.746 1468.88 206.529L1470.83 206.105ZM1397.26 243.728C1427.9 248.102 1456.79 232.492 1470.74 206.794L1468.98 205.84C1455.42 230.827 1427.33 246 1397.54 241.748L1397.26 243.728ZM1337.05 187.712C1343.25 216.286 1366.61 239.354 1397.26 243.728L1397.54 241.748C1367.75 237.496 1345.03 215.071 1339 187.288L1337.05 187.712ZM1336.42 188.402C1336.08 189.06 1335.75 189.725 1335.43 190.395L1337.24 191.255C1337.55 190.603 1337.87 189.957 1338.2 189.317L1336.42 188.402ZM1335.35 190.985C1340.26 221.257 1364.3 246.154 1396.26 250.716L1396.54 248.736C1365.47 244.301 1342.09 220.097 1337.32 190.665L1335.35 190.985ZM1396.26 250.716C1428.22 255.278 1458.27 238.101 1471.45 210.41L1469.65 209.55C1456.83 236.474 1427.62 253.171 1396.54 248.736L1396.26 250.716ZM1471.54 209.82C1471.42 209.088 1471.29 208.359 1471.15 207.633L1469.19 208.014C1469.32 208.72 1469.45 209.428 1469.56 210.14L1471.54 209.82ZM1397.12 244.718C1427.77 249.093 1456.69 233.747 1471.04 208.315L1469.3 207.332C1455.34 232.071 1427.21 246.993 1397.4 242.738L1397.12 244.718ZM1336.34 189.088C1343 217.519 1366.46 240.343 1397.12 244.718L1397.4 242.738C1367.59 238.483 1344.76 216.288 1338.28 188.632L1336.34 189.088ZM1469.93 206.675C1470.07 207.3 1470.19 207.928 1470.31 208.558L1472.27 208.197C1472.15 207.549 1472.03 206.904 1471.89 206.261L1469.93 206.675ZM1472.2 208.785C1472.46 208.198 1472.72 207.607 1472.96 207.011L1471.12 206.247C1470.88 206.826 1470.63 207.4 1470.38 207.971L1472.2 208.785ZM1473.03 206.52C1472.96 205.88 1472.89 205.241 1472.8 204.605L1470.82 204.875C1470.9 205.494 1470.98 206.114 1471.05 206.737L1473.03 206.52ZM1471.79 206.94C1472.1 206.361 1472.41 205.777 1472.7 205.188L1470.91 204.292C1470.63 204.864 1470.33 205.432 1470.03 205.996L1471.79 206.94ZM1471.6 203.298C1471.68 203.804 1471.75 204.311 1471.82 204.82L1473.8 204.551C1473.73 204.028 1473.65 203.507 1473.57 202.987L1471.6 203.298ZM1473.75 205.04C1473.93 204.557 1474.11 204.07 1474.28 203.581L1472.4 202.913C1472.23 203.388 1472.05 203.861 1471.88 204.331L1473.75 205.04ZM1474.34 203.189C1474.31 202.673 1474.27 202.157 1474.23 201.643L1472.24 201.801C1472.28 202.301 1472.31 202.802 1472.34 203.304L1474.34 203.189ZM1473.49 203.568C1473.71 203.091 1473.93 202.611 1474.15 202.128L1472.32 201.316C1472.11 201.786 1471.9 202.253 1471.68 202.717L1473.49 203.568ZM1473.07 199.892C1473.1 200.221 1473.13 200.551 1473.16 200.882L1475.16 200.701C1475.12 200.361 1475.09 200.021 1475.05 199.682L1473.07 199.892ZM1475.11 201.091C1475.21 200.771 1475.31 200.45 1475.41 200.128L1473.49 199.555C1473.4 199.869 1473.3 200.181 1473.21 200.492L1475.11 201.091ZM1475.45 199.835C1475.45 199.499 1475.44 199.163 1475.44 198.828L1473.44 198.87C1473.44 199.195 1473.45 199.522 1473.45 199.848L1475.45 199.835ZM1474.99 200.166C1475.12 199.85 1475.24 199.533 1475.37 199.215L1473.51 198.483C1473.38 198.793 1473.26 199.101 1473.13 199.408L1474.99 200.166ZM1473.45 202.941L1473.4 203.06L1475.29 203.722L1475.33 203.603L1473.45 202.941ZM1475.38 203.444L1475.39 203.315L1473.39 203.23L1473.39 203.359L1475.38 203.444ZM1475.33 203.759L1475.36 203.641L1473.41 203.163L1473.38 203.282L1475.33 203.759ZM1473.35 203.444L1473.36 203.574L1475.35 203.467L1475.35 203.337L1473.35 203.444ZM1473.99 207.153C1474.12 206.837 1474.24 206.519 1474.37 206.199L1472.51 205.468C1472.39 205.778 1472.26 206.088 1472.14 206.396L1473.99 207.153ZM1474.16 207.693C1474.13 207.352 1474.09 207.01 1474.06 206.67L1472.07 206.879C1472.1 207.211 1472.14 207.542 1472.17 207.875L1474.16 207.693ZM1472.5 206.545C1472.4 206.859 1472.31 207.172 1472.21 207.484L1474.12 208.084C1474.22 207.763 1474.31 207.44 1474.41 207.117L1472.5 206.545ZM1472.44 205.854C1472.45 206.182 1472.45 206.509 1472.45 206.838L1474.45 206.824C1474.45 206.487 1474.45 206.15 1474.44 205.813L1472.44 205.854ZM1472.49 210.554C1472.72 210.078 1472.94 209.598 1473.15 209.116L1471.32 208.304C1471.11 208.773 1470.9 209.239 1470.68 209.702L1472.49 210.554ZM1472.81 211.54C1472.73 211.016 1472.66 210.494 1472.58 209.972L1470.6 210.284C1470.68 210.791 1470.75 211.299 1470.82 211.808L1472.81 211.54ZM1471.4 209.905C1471.23 210.379 1471.06 210.851 1470.88 211.32L1472.75 212.029C1472.93 211.546 1473.11 211.061 1473.28 210.574L1471.4 209.905ZM1471.24 208.789C1471.28 209.29 1471.31 209.793 1471.34 210.296L1473.34 210.182C1473.31 209.664 1473.27 209.147 1473.23 208.631L1471.24 208.789ZM1334.61 192.608C1340.12 222.636 1364.23 247.154 1396.12 251.706L1396.4 249.726C1365.39 245.299 1341.93 221.455 1336.58 192.247L1334.61 192.608ZM1335.77 194.558C1336.01 193.979 1336.26 193.405 1336.51 192.835L1334.68 192.021C1334.42 192.607 1334.17 193.198 1333.92 193.794L1335.77 194.558ZM1395.55 255.724C1363.22 251.11 1339.22 225.1 1335.84 194.067L1333.85 194.284C1337.33 226.203 1362.01 252.958 1395.27 257.704L1395.55 255.724ZM1470.12 213.235C1458.19 242.081 1427.87 260.338 1395.55 255.724L1395.27 257.704C1428.52 262.45 1459.7 243.67 1471.97 214L1470.12 213.235ZM1469.82 211.861C1469.91 212.48 1469.98 213.102 1470.05 213.726L1472.04 213.509C1471.97 212.867 1471.89 212.228 1471.8 211.59L1469.82 211.861ZM1396.12 251.706C1428.01 256.258 1458.02 239.465 1471.71 212.174L1469.92 211.277C1456.61 237.823 1427.42 254.153 1396.4 249.726L1396.12 251.706ZM1336.29 190.521C1336.21 190.015 1336.13 189.507 1336.06 188.998L1334.08 189.266C1334.15 189.79 1334.23 190.312 1334.31 190.833L1336.29 190.521ZM1335.56 192.501C1335.77 192.032 1335.99 191.566 1336.2 191.103L1334.39 190.251C1334.17 190.727 1333.95 191.207 1333.74 191.689L1335.56 192.501ZM1333.55 190.623C1333.58 191.141 1333.61 191.658 1333.65 192.174L1335.65 192.016C1335.61 191.515 1335.57 191.012 1335.54 190.509L1333.55 190.623ZM1334.14 188.777C1333.95 189.259 1333.78 189.744 1333.6 190.232L1335.49 190.901C1335.66 190.427 1335.83 189.955 1336.01 189.487L1334.14 188.777ZM1335.82 186.938C1335.78 186.608 1335.75 186.278 1335.72 185.947L1333.73 186.129C1333.76 186.469 1333.79 186.809 1333.83 187.148L1335.82 186.938ZM1335.38 188.345C1335.5 188.036 1335.62 187.728 1335.75 187.422L1333.9 186.664C1333.77 186.979 1333.64 187.296 1333.51 187.614L1335.38 188.345ZM1333.43 186.993C1333.43 187.329 1333.44 187.665 1333.45 188L1335.45 187.959C1335.44 187.633 1335.43 187.307 1335.43 186.98L1333.43 186.993ZM1333.77 185.738C1333.67 186.058 1333.57 186.379 1333.47 186.7L1335.39 187.273C1335.48 186.96 1335.58 186.648 1335.68 186.338L1333.77 185.738ZM1335.53 183.385L1335.52 183.257L1333.53 183.364L1333.53 183.492L1335.53 183.385ZM1335.44 183.887L1335.48 183.769L1333.59 183.108L1333.55 183.225L1335.44 183.887ZM1333.5 183.385L1333.49 183.513L1335.49 183.598L1335.5 183.47L1333.5 183.385ZM1333.56 183.072L1333.53 183.189L1335.47 183.666L1335.5 183.549L1333.56 183.072ZM1338.34 163.165C1349.23 131.655 1381.24 111.254 1415.47 116.14L1415.75 114.16C1380.56 109.136 1347.65 130.114 1336.45 162.512L1338.34 163.165ZM1416.61 108.162C1379.5 102.866 1344.98 126.866 1336.43 162.606L1338.37 163.072C1346.68 128.326 1380.25 104.993 1416.33 110.142L1416.61 108.162ZM1478.36 182.844C1480.14 146.148 1453.71 113.457 1416.61 108.162L1416.33 110.142C1452.39 115.29 1478.09 147.072 1476.36 182.747L1478.36 182.844ZM1415.47 116.14C1449.7 121.025 1474.72 149.556 1476.36 182.845L1478.36 182.746C1476.67 148.519 1450.94 119.183 1415.75 114.16L1415.47 116.14ZM1469.54 230.669C1458.64 262.17 1426.64 282.563 1392.41 277.678L1392.13 279.658C1427.32 284.681 1460.23 263.712 1471.43 231.323L1469.54 230.669ZM1391.27 285.656C1428.37 290.951 1462.9 266.959 1471.45 231.229L1469.51 230.763C1461.19 265.499 1427.62 288.824 1391.56 283.676L1391.27 285.656ZM1329.53 210.954C1327.74 247.658 1354.17 280.36 1391.27 285.656L1391.56 283.676C1355.48 278.527 1329.78 246.734 1331.52 211.052L1329.53 210.954ZM1392.41 277.678C1358.18 272.792 1333.16 244.25 1331.52 210.954L1329.53 211.052C1331.21 245.287 1356.93 274.634 1392.13 279.658L1392.41 277.678ZM1470.44 219.831C1470.45 220.157 1470.46 220.484 1470.46 220.812L1472.46 220.798C1472.46 220.462 1472.45 220.125 1472.44 219.789L1470.44 219.831ZM1394.13 265.681C1428.28 270.557 1460.28 250.947 1472.38 220.176L1470.51 219.444C1458.75 249.372 1427.63 268.443 1394.41 263.702L1394.13 265.681ZM1331.73 200.104C1334.73 233.028 1359.97 260.806 1394.13 265.681L1394.41 263.702C1361.19 258.96 1336.64 231.944 1333.72 199.922L1331.73 200.104ZM1333.39 201.25C1333.49 200.937 1333.58 200.624 1333.68 200.312L1331.77 199.713C1331.67 200.034 1331.57 200.355 1331.48 200.678L1333.39 201.25ZM1393.55 269.7C1358.79 264.738 1333.66 235.038 1333.44 200.958L1331.44 200.971C1331.67 236.027 1357.52 266.576 1393.27 271.68L1393.55 269.7ZM1470.5 220.519C1460.75 253.177 1428.31 274.661 1393.55 269.7L1393.27 271.68C1429.02 276.783 1462.39 254.684 1472.42 221.091L1470.5 220.519ZM1470.4 216.889C1459.49 247.648 1428.1 267.501 1394.55 262.712L1394.27 264.691C1428.78 269.618 1461.06 249.196 1472.29 217.558L1470.4 216.889ZM1470.24 215.778C1470.28 216.277 1470.32 216.778 1470.35 217.281L1472.34 217.166C1472.31 216.649 1472.28 216.134 1472.24 215.62L1470.24 215.778ZM1395.12 258.694C1428.19 263.413 1459.23 245.187 1472.15 216.105L1470.33 215.293C1457.76 243.58 1427.56 261.304 1395.41 256.714L1395.12 258.694ZM1333.09 196.253C1337.35 227.79 1362.06 253.974 1395.12 258.694L1395.41 256.714C1363.25 252.124 1339.22 226.659 1335.07 195.985L1333.09 196.253ZM1334.49 197.892C1334.66 197.417 1334.83 196.944 1335.01 196.474L1333.14 195.764C1332.96 196.248 1332.78 196.734 1332.61 197.223L1334.49 197.892ZM1394.55 262.712C1361 257.923 1336.42 230.082 1334.55 197.5L1332.55 197.615C1334.47 231.128 1359.75 259.765 1394.27 264.691L1394.55 262.712ZM1473.16 214.677C1473.13 214.337 1473.1 213.998 1473.06 213.658L1471.07 213.868C1471.11 214.198 1471.14 214.528 1471.17 214.859L1473.16 214.677ZM1471.5 213.532C1471.4 213.845 1471.31 214.157 1471.21 214.469L1473.12 215.068C1473.22 214.748 1473.32 214.427 1473.41 214.105L1471.5 213.532ZM1471.44 212.847C1471.45 213.172 1471.45 213.499 1471.46 213.825L1473.46 213.812C1473.45 213.476 1473.45 213.14 1473.44 212.805L1471.44 212.847ZM1472.99 214.142C1473.12 213.827 1473.25 213.51 1473.37 213.192L1471.51 212.46C1471.39 212.769 1471.27 213.078 1471.14 213.384L1472.99 214.142ZM1474.36 210.454L1474.35 210.33L1472.35 210.437L1472.36 210.562L1474.36 210.454ZM1472.42 210.144L1472.39 210.269L1474.33 210.747L1474.36 210.621L1472.42 210.144ZM1472.39 210.219L1472.39 210.34L1474.39 210.425L1474.39 210.304L1472.39 210.219ZM1474.29 210.714L1474.34 210.593L1472.45 209.931L1472.41 210.053L1474.29 210.714ZM1334.47 190.661L1334.5 190.536L1332.56 190.058L1332.53 190.184L1334.47 190.661ZM1334.49 190.586L1334.5 190.465L1332.5 190.38L1332.49 190.501L1334.49 190.586ZM1332.59 190.091L1332.55 190.213L1334.44 190.875L1334.48 190.753L1332.59 190.091ZM1332.53 190.351L1332.54 190.476L1334.53 190.368L1334.53 190.244L1332.53 190.351ZM1334.39 194.261C1334.49 193.946 1334.58 193.633 1334.68 193.321L1332.77 192.722C1332.67 193.043 1332.57 193.365 1332.48 193.688L1334.39 194.261ZM1334.45 194.95C1334.44 194.623 1334.44 194.296 1334.43 193.968L1332.43 193.981C1332.44 194.318 1332.44 194.655 1332.45 194.992L1334.45 194.95ZM1332.9 193.651C1332.77 193.968 1332.64 194.286 1332.52 194.605L1334.38 195.337C1334.5 195.026 1334.62 194.717 1334.75 194.409L1332.9 193.651ZM1332.73 193.112C1332.76 193.454 1332.79 193.795 1332.83 194.135L1334.82 193.925C1334.78 193.594 1334.75 193.263 1334.72 192.931L1332.73 193.112ZM1471.35 217.421L1471.36 217.548L1473.36 217.441L1473.35 217.314L1471.35 217.421ZM1471.45 216.918L1471.41 217.037L1473.3 217.698L1473.34 217.58L1471.45 216.918ZM1473.39 217.418L1473.39 217.292L1471.4 217.207L1471.39 217.333L1473.39 217.418ZM1473.33 217.733L1473.36 217.614L1471.42 217.137L1471.39 217.256L1473.33 217.733ZM1331.56 197.046L1331.53 197.167L1333.47 197.645L1333.5 197.524L1331.56 197.046ZM1333.54 197.36L1333.53 197.231L1331.53 197.339L1331.54 197.467L1333.54 197.36ZM1333.44 197.864L1333.48 197.744L1331.59 197.083L1331.55 197.203L1333.44 197.864ZM1331.5 197.363L1331.5 197.491L1333.5 197.576L1333.5 197.448L1331.5 197.363ZM1472.39 224.406L1472.4 224.278L1470.4 224.193L1470.39 224.32L1472.39 224.406ZM1392.27 278.668C1429.25 283.945 1463.66 260.132 1472.36 224.601L1470.42 224.125C1461.96 258.667 1428.5 281.819 1392.56 276.688L1392.27 278.668ZM1330.51 204.351C1328.92 240.898 1355.3 273.39 1392.27 278.668L1392.56 276.688C1356.61 271.557 1330.96 239.968 1332.5 204.438L1330.51 204.351ZM1330.56 204.036L1330.53 204.155L1332.48 204.633L1332.51 204.514L1330.56 204.036ZM1393.41 270.69C1359.27 265.816 1334.28 237.409 1332.53 204.222L1330.54 204.328C1332.34 238.45 1358.02 267.659 1393.13 272.67L1393.41 270.69ZM1470.45 223.906C1459.49 255.279 1427.55 275.563 1393.41 270.69L1393.13 272.67C1428.24 277.681 1461.07 256.823 1472.34 224.566L1470.45 223.906ZM1391.13 286.646C1426.33 291.669 1459.24 270.694 1470.43 238.297L1468.54 237.644C1457.66 269.152 1425.65 289.552 1391.42 284.666L1391.13 286.646ZM1328.53 218.055C1330.22 252.284 1355.94 281.622 1391.13 286.646L1391.42 284.666C1357.19 279.78 1332.17 251.247 1330.53 217.957L1328.53 218.055ZM1390.56 290.664C1354.49 285.516 1328.79 253.731 1330.53 218.054L1328.53 217.957C1326.75 254.655 1353.18 287.348 1390.28 292.644L1390.56 290.664ZM1468.51 237.738C1460.2 272.481 1426.63 295.812 1390.56 290.664L1390.28 292.644C1427.38 297.94 1461.91 273.941 1470.46 238.203L1468.51 237.738Z" fill="black" mask="url(#path-5-inside-1_61_912)"/>
</g>
</g>
</svg>
