<svg width="24" height="36" viewBox="0 0 24 36" fill="none" xmlns="http://www.w3.org/2000/svg">
<path d="M11.2527 15.3475C11.5584 14.7281 12.4415 14.7281 12.7472 15.3475L15.2348 20.3878C15.3562 20.6338 15.5909 20.8043 15.8623 20.8437L21.4246 21.652C22.1081 21.7513 22.3811 22.5913 21.8864 23.0734L17.8615 26.9968C17.6651 27.1882 17.5754 27.4641 17.6219 27.7344L18.572 33.2743C18.6888 33.9551 17.9742 34.4742 17.3629 34.1528L12.3877 31.5372C12.1449 31.4096 11.8549 31.4096 11.6122 31.5372L6.63702 34.1528C6.02569 34.4742 5.3111 33.9551 5.42785 33.2743L6.37802 27.7344C6.42444 27.4641 6.33477 27.1882 6.13835 26.9968L2.11344 23.0734C1.61877 22.5913 1.89177 21.7513 2.57527 21.652L8.1376 20.8437C8.40902 20.8043 8.64369 20.6338 8.7651 20.3878L11.2527 15.3475Z" fill="#2F88FF" stroke="white" stroke-opacity="0.8" stroke-width="2" stroke-linecap="round" stroke-linejoin="round"/>
<path d="M22 1.33337H2V9.66671L12 13.8334L22 9.66671V1.33337Z" fill="#2F88FF" stroke="white" stroke-opacity="0.8" stroke-width="2" stroke-linecap="round" stroke-linejoin="round"/>
</svg>
