<svg width="240" height="240" viewBox="0 0 240 240" fill="none" xmlns="http://www.w3.org/2000/svg">
<path d="M0 0H240V240H0V0Z" fill="white" fill-opacity="0.01"/>
<path d="M95.1742 220C90.2747 204.022 82.8832 192.111 72.9997 184.266C58.1742 172.498 34.6183 179.812 25.9171 167.675C17.2158 155.537 32.0133 133.216 37.2059 120.045C42.3985 106.875 17.3031 102.218 20.233 98.479C22.1863 95.9865 34.8677 88.7935 58.2777 76.9005C64.9292 38.9673 89.4982 20.0007 131.985 20.0007C195.715 20.0007 219.994 74.0305 219.994 108.395C219.994 142.76 190.595 179.781 148.715 187.764C144.97 193.218 150.371 203.963 164.918 220" stroke="white" stroke-width="4" stroke-linecap="round" stroke-linejoin="round"/>
<path fill-rule="evenodd" clip-rule="evenodd" d="M97.4955 72.4994C94.229 85.1704 95.201 94.0684 100.411 99.1919C105.622 104.316 114.502 107.666 127.053 109.244C124.205 125.587 127.677 133.255 137.468 132.246C147.259 131.237 153.141 127.168 155.116 120.041C170.418 124.341 178.711 120.742 179.995 109.244C181.923 91.9959 172.622 78.2369 168.809 78.2369C164.995 78.2369 155.116 77.7729 155.116 72.4994C155.116 67.2254 143.576 64.2459 133.161 64.2459C122.746 64.2459 129.014 57.2254 114.713 59.9994C105.178 61.8484 99.4395 66.0149 97.4955 72.4994Z" fill="#103045" stroke="white" stroke-width="4" stroke-linejoin="round"/>
<path d="M152.492 127.501C147.408 130.656 140.43 135.903 137.492 140.001C130.148 150.249 124.19 156.488 122.887 163.042" stroke="white" stroke-width="4" stroke-linecap="round"/>
</svg>
