<svg xmlns="http://www.w3.org/2000/svg" xmlns:xlink="http://www.w3.org/1999/xlink" viewBox="0 0 502.35 387.37"><defs><style>.cls-1{opacity:0.35;}.cls-2{fill:url(#linear-gradient);}.cls-3{fill:url(#linear-gradient-2);}.cls-4{fill:url(#linear-gradient-3);}.cls-5{fill:#fff;}.cls-6{fill:none;stroke:#fff;stroke-miterlimit:10;stroke-width:2px;}</style><linearGradient id="linear-gradient" x1="240.81" y1="194.68" x2="501.35" y2="194.68" gradientUnits="userSpaceOnUse"><stop offset="0" stop-color="#bbd5f4"/><stop offset="1" stop-color="#4585ff"/></linearGradient><linearGradient id="linear-gradient-2" x1="1" y1="194.78" x2="240.81" y2="194.78" xlink:href="#linear-gradient"/><linearGradient id="linear-gradient-3" x1="4.41" y1="143.34" x2="497.65" y2="143.34" gradientUnits="userSpaceOnUse"><stop offset="0" stop-color="#006db7"/><stop offset="0.63" stop-color="#0025b7"/><stop offset="1" stop-color="#0000b7"/></linearGradient></defs><title>ICRMT</title><g id="Layer_2" data-name="Layer 2"><g id="Impulse_CRM_Transparent" data-name="Impulse CRM Transparent"><g class="cls-1"><path class="cls-2" d="M501.11,238.93v-24a21.45,21.45,0,0,0,0-6.4v-65.8a21.39,21.39,0,0,0,0-6.39h0a20.43,20.43,0,0,0-11.26-15.35L254.38,4.15a20.68,20.68,0,0,0-13.57-1.68V387.09a20.78,20.78,0,0,0,13-2.1L490.29,260.48A20.58,20.58,0,0,0,501.11,238.93Z"/><path class="cls-3" d="M235.47,4.4,12,122.77A20.52,20.52,0,0,0,1,141.66v71c0,.4,0,.79,0,1.19V243.1a20.51,20.51,0,0,0,10.68,18.75L234.16,384.79a20.71,20.71,0,0,0,6.65,2.3V2.47A20.48,20.48,0,0,0,235.47,4.4Z"/><path class="cls-4" d="M232.7,281.34,16.71,162a23.82,23.82,0,0,1,.37-41.9l217-114.94a23.8,23.8,0,0,1,21.73-.29L484.41,118.25a23.82,23.82,0,0,1,.52,42.41L255.32,281.57A23.81,23.81,0,0,1,232.7,281.34Z"/></g><path class="cls-5" d="M276.12,306.23l4-2.13.44,28-4,2.14Z"/><path class="cls-5" d="M312.91,302.3l.2,12.24-3.81,2-.18-11.6c-.07-3.79-1.44-4.91-3.75-3.67-2.5,1.35-4.2,4.45-4.13,8.68l.17,10.84-3.81,2.05-.18-11.6c-.06-3.8-1.43-4.91-3.74-3.67-2.53,1.36-4.2,4.44-4.14,8.68l.18,10.84-3.81,2.05-.34-21.35,3.63-2,0,2.72a12.56,12.56,0,0,1,5.28-5.83c2.38-1.28,4.37-1.18,5.54.61a14.26,14.26,0,0,1,6-6.84C310,294.42,312.81,295.87,312.91,302.3Z"/><path class="cls-5" d="M335.08,291.94c.1,6.64-3.33,12.84-8.08,15.4-2.07,1.12-3.92,1.18-5.26-.07l.17,10.35-3.81,2.05-.46-29.11,3.62-1.95.05,2.8a12.4,12.4,0,0,1,5.34-5.94C331.4,282.91,335,285.34,335.08,291.94ZM331.21,294c-.07-4.08-2.18-5.56-4.92-4.08s-4.8,5.2-4.74,9.28,2.21,5.55,4.95,4.07S331.27,298.1,331.21,294Z"/><path class="cls-5" d="M354.27,270.83l.34,21.35-3.62,2,0-2.72a12.43,12.43,0,0,1-5.2,5.82c-4.17,2.24-7.05.77-7.15-5.67l-.19-12.2,3.8-2.05.19,11.52c.06,3.88,1.49,5,3.89,3.67,2.65-1.43,4.42-4.56,4.35-8.83l-.17-10.8Z"/><path class="cls-5" d="M359.14,259.82l3.8-2.05.47,29.67-3.8,2.05Z"/><path class="cls-5" d="M366.52,283.63l1.4-4.58a7.84,7.84,0,0,0,5.7-.94c2.4-1.29,3.39-2.71,3.37-4.19-.07-4.08-10.05,5.17-10.19-3.35-.06-4,2.67-8.17,7.05-10.53,2.16-1.16,4.64-1.81,6.12-1.44l-1.4,4.59a6.61,6.61,0,0,0-4.69.91c-2.31,1.24-3.39,2.83-3.37,4.23.07,4.32,10.06-4.93,10.19,3.43.07,4-2.7,8.11-7.26,10.57C370.73,283.79,368,284.21,366.52,283.63Z"/><path class="cls-5" d="M399.18,259l-12.76,6.87c.5,2.87,2.51,3.8,5.34,2.28a10.62,10.62,0,0,0,4.38-4.7l2.09,2a15.06,15.06,0,0,1-6.49,7c-5.45,2.93-9.06.24-9.16-6.12s3.39-12.84,8.23-15.45,8.3-.07,8.4,6.61C399.22,257.91,399.2,258.53,399.18,259Zm-12.85,3.57,9.23-5c-.35-2.91-2.18-4.06-4.68-2.72S386.65,259.28,386.33,262.6Z"/><path class="cls-5" d="M410.06,248.2c-.13-8.36,4.64-17,11.19-20.55,3.47-1.87,6.48-1.84,8.51.14l-2.51,4.53c-1.58-1.36-3.52-1.4-5.74-.21-4.42,2.38-7.55,8.18-7.46,13.94s3.35,8.12,7.77,5.74a13.93,13.93,0,0,0,5.64-6.39l2.61,1.82a20,20,0,0,1-8.39,9.24C415.16,260,410.19,256.56,410.06,248.2Z"/><path class="cls-5" d="M447.89,241.94l-4.48-5.85c-.28.18-.55.33-.82.48l-4.82,2.59.13,8.16-4,2.13-.44-28,8.77-4.73c5.6-3,9.14-1.13,9.23,5.07a16,16,0,0,1-4.39,11.28l5.05,6.56Zm-5.73-20.71-4.63,2.5.18,11.15,4.63-2.49a9.15,9.15,0,0,0,5.17-8.44C447.46,220.43,445.63,219.36,442.16,221.23Z"/><path class="cls-5" d="M475.79,226.91l-.33-18.54L468.7,227.5l-1.76.95-7.25-11.34.29,18.32-3.77,2-.45-28,3.26-1.76,8.76,14,8-23,3.26-1.75.47,28Z"/><path class="cls-6" d="M501.11,237.93v-24a21.45,21.45,0,0,0,0-6.4v-65.8a21.39,21.39,0,0,0,0-6.39h0a20.43,20.43,0,0,0-11.26-15.35L254.38,3.15a20.68,20.68,0,0,0-13.57-1.68V386.09a20.78,20.78,0,0,0,13-2.1L490.29,259.48A20.58,20.58,0,0,0,501.11,237.93Z"/><path class="cls-6" d="M235.47,3.4,12,121.77A20.52,20.52,0,0,0,1,140.66v71c0,.4,0,.79,0,1.19V242.1a20.51,20.51,0,0,0,10.68,18.75L234.16,383.79a20.71,20.71,0,0,0,6.65,2.3V1.47A20.48,20.48,0,0,0,235.47,3.4Z"/><path class="cls-6" d="M232.7,280.34,16.71,161a23.82,23.82,0,0,1,.37-41.9l217-114.94a23.8,23.8,0,0,1,21.73-.29L484.41,117.25a23.82,23.82,0,0,1,.52,42.41L255.32,280.57A23.81,23.81,0,0,1,232.7,280.34Z"/></g></g></svg>