<svg xmlns="http://www.w3.org/2000/svg" xmlns:xlink="http://www.w3.org/1999/xlink" viewBox="0 0 502.35 390.21"><defs><style>.cls-1{opacity:0.35;}.cls-2{fill:url(#linear-gradient);}.cls-3{fill:url(#linear-gradient-2);}.cls-4{fill:url(#linear-gradient-3);}.cls-5{fill:#3d0075;}.cls-6{fill:#fff;}.cls-7{fill:none;stroke:#fff;stroke-miterlimit:10;stroke-width:2px;}</style><linearGradient id="linear-gradient" x1="1" y1="197.62" x2="240.81" y2="197.62" gradientUnits="userSpaceOnUse"><stop offset="0" stop-color="#bbd5f4"/><stop offset="1" stop-color="#4585ff"/></linearGradient><linearGradient id="linear-gradient-2" x1="240.81" y1="197.52" x2="501.35" y2="197.52" xlink:href="#linear-gradient"/><linearGradient id="linear-gradient-3" x1="4.41" y1="140.97" x2="497.65" y2="140.97" gradientUnits="userSpaceOnUse"><stop offset="0" stop-color="#0023b5"/><stop offset="0.51" stop-color="#101080"/><stop offset="0.97" stop-color="#1e0055"/><stop offset="0.98" stop-color="#604690"/><stop offset="0.99" stop-color="#b9a4df"/><stop offset="1" stop-color="#dccaff"/></linearGradient></defs><title>IPT</title><g id="Layer_2" data-name="Layer 2"><g id="Impulse_Pay_Transparent" data-name="Impulse Pay Transparent"><g class="cls-1"><path class="cls-2" d="M235.47,7.25,12,125.61A20.52,20.52,0,0,0,1,144.5v71c0,.4,0,.8,0,1.19V246a20.5,20.5,0,0,0,10.68,18.74L234.16,387.63a20.71,20.71,0,0,0,6.65,2.3V5.31A20.15,20.15,0,0,0,235.47,7.25Z"/><path class="cls-3" d="M501.11,241.78V217.73a21.45,21.45,0,0,0,0-6.4v-65.8a21.39,21.39,0,0,0,0-6.39h0a20.43,20.43,0,0,0-11.26-15.35L254.38,7a20.68,20.68,0,0,0-13.57-1.68V389.93a20.78,20.78,0,0,0,13-2.1L490.29,263.32A20.56,20.56,0,0,0,501.11,241.78Z"/><path class="cls-4" d="M232.7,279l-216-119.35a23.82,23.82,0,0,1,.37-41.9l217-114.94a23.8,23.8,0,0,1,21.73-.29L484.41,115.87c17.41,8.63,17.71,33.36.52,42.42L255.32,279.19A23.81,23.81,0,0,1,232.7,279Z"/><path class="cls-5" d="M279.32,301.82l4.28-2.31.48,30.3-4.28,2.31Z"/><path class="cls-5" d="M319.14,297.57l.21,13.24L315.23,313,315,300.48c-.07-4.11-1.55-5.32-4.06-4-2.7,1.45-4.54,4.8-4.47,9.39l.19,11.73-4.12,2.22-.2-12.55c-.07-4.12-1.55-5.33-4.06-4-2.73,1.48-4.54,4.81-4.47,9.4l.19,11.73-4.12,2.22-.37-23.12,3.92-2.11,0,2.94a13.54,13.54,0,0,1,5.72-6.31c2.57-1.38,4.73-1.28,6,.66a15.45,15.45,0,0,1,6.53-7.4C316,289,319,290.6,319.14,297.57Z"/><path class="cls-5" d="M343.13,286.35c.12,7.18-3.6,13.9-8.74,16.67-2.24,1.21-4.24,1.28-5.69-.08l.18,11.21-4.12,2.22-.5-31.51,3.92-2.12.05,3a13.55,13.55,0,0,1,5.78-6.43C339.16,276.57,343,279.2,343.13,286.35ZM339,288.6c-.07-4.41-2.36-6-5.33-4.42s-5.19,5.64-5.12,10.05,2.39,6,5.35,4.4S339,293,339,288.6Z"/><path class="cls-5" d="M363.92,263.5l.36,23.11-3.92,2.11-.05-2.94a13.38,13.38,0,0,1-5.62,6.3c-4.51,2.43-7.63.84-7.74-6.13l-.21-13.2,4.12-2.22.2,12.46c.07,4.2,1.61,5.38,4.22,4,2.87-1.54,4.77-4.93,4.7-9.56l-.19-11.68Z"/><path class="cls-5" d="M369.17,251.58l4.13-2.22.51,32.12-4.13,2.22Z"/><path class="cls-5" d="M377.16,277.36l1.52-5a8.48,8.48,0,0,0,6.17-1c2.6-1.4,3.68-2.94,3.65-4.54-.07-4.41-10.88,5.6-11-3.62-.07-4.37,2.89-8.84,7.63-11.4,2.34-1.26,5-2,6.63-1.56l-1.52,5a7.18,7.18,0,0,0-5.07,1c-2.51,1.35-3.68,3.07-3.65,4.59.07,4.67,10.89-5.34,11,3.7.07,4.33-2.92,8.78-7.87,11.44C381.72,277.52,378.77,278,377.16,277.36Z"/><path class="cls-5" d="M412.51,250.72l-13.81,7.44c.55,3.11,2.73,4.12,5.79,2.47a11.43,11.43,0,0,0,4.74-5.09l2.26,2.15a16.29,16.29,0,0,1-7,7.58c-5.91,3.18-9.81.26-9.92-6.62s3.67-13.89,8.91-16.72,9-.07,9.09,7.15C412.56,249.52,412.54,250.18,412.51,250.72Zm-13.9,3.86,10-5.38c-.38-3.15-2.36-4.4-5.07-2.94S399,251,398.61,254.58Z"/><path class="cls-5" d="M445.19,223.34a18,18,0,0,1-9.65,16.07l-5.21,2.81.14,8.74-4.29,2.31L425.7,223l9.5-5.12C441.26,214.59,445.09,216.63,445.19,223.34Zm-4.32,2.33c-.06-3.81-2-5-5.8-2.95l-5,2.7.19,12,5-2.7A9.84,9.84,0,0,0,440.87,225.67Z"/><path class="cls-5" d="M463.74,219.37l.22,13.55L460.07,235,460,232.2a11.66,11.66,0,0,1-5.48,6.1c-4,2.17-6.61.63-6.67-3.39-.07-3.85,1.86-7.95,7.2-10.83l4.55-2.45v-.34c-.05-3.16-1.53-4.24-4.47-2.66a15,15,0,0,0-5.3,5.17l-1.68-3.07a20.42,20.42,0,0,1,7.41-6.87C460.65,211.13,463.64,212.7,463.74,219.37Zm-4,8.54,0-2.68-4.25,2.29c-2.8,1.51-3.54,3.3-3.51,5,0,2,1.3,2.53,3.41,1.39A9.19,9.19,0,0,0,459.72,227.91Z"/><path class="cls-5" d="M485,198.26l-7.85,29.42c-1.53,6.11-3.75,8.91-6.68,10.49-1.75.94-3.61,1.16-4.75.42l1.59-4.87a2.88,2.88,0,0,0,3.06,0c1.45-.78,2.29-2.15,3-4.87l.29-1.07-8.05-19.06,4.28-2.31,5.81,14.11,5.3-20.09Z"/></g><path class="cls-6" d="M279.32,301.82l4.28-2.31.48,30.3-4.28,2.31Z"/><path class="cls-6" d="M319.14,297.57l.21,13.24L315.23,313,315,300.48c-.07-4.11-1.55-5.32-4.06-4-2.7,1.45-4.54,4.8-4.47,9.39l.19,11.73-4.12,2.22-.2-12.55c-.07-4.12-1.55-5.33-4.06-4-2.73,1.48-4.54,4.81-4.47,9.4l.19,11.73-4.12,2.22-.37-23.12,3.92-2.11,0,2.94a13.54,13.54,0,0,1,5.72-6.31c2.57-1.38,4.73-1.28,6,.66a15.45,15.45,0,0,1,6.53-7.4C316,289,319,290.6,319.14,297.57Z"/><path class="cls-6" d="M343.13,286.35c.12,7.18-3.6,13.9-8.74,16.67-2.24,1.21-4.24,1.28-5.69-.08l.18,11.21-4.12,2.22-.5-31.51,3.92-2.12.05,3a13.55,13.55,0,0,1,5.78-6.43C339.16,276.57,343,279.2,343.13,286.35ZM339,288.6c-.07-4.41-2.36-6-5.33-4.42s-5.19,5.64-5.12,10.05,2.39,6,5.35,4.4S339,293,339,288.6Z"/><path class="cls-6" d="M363.92,263.5l.36,23.11-3.92,2.11-.05-2.94a13.38,13.38,0,0,1-5.62,6.3c-4.51,2.43-7.63.84-7.74-6.13l-.21-13.2,4.12-2.22.2,12.46c.07,4.2,1.61,5.38,4.22,4,2.87-1.54,4.77-4.93,4.7-9.56l-.19-11.68Z"/><path class="cls-6" d="M369.17,251.58l4.13-2.22.51,32.12-4.13,2.22Z"/><path class="cls-6" d="M377.16,277.36l1.52-5a8.48,8.48,0,0,0,6.17-1c2.6-1.4,3.68-2.94,3.65-4.54-.07-4.41-10.88,5.6-11-3.62-.07-4.37,2.89-8.84,7.63-11.4,2.34-1.26,5-2,6.63-1.56l-1.52,5a7.18,7.18,0,0,0-5.07,1c-2.51,1.35-3.68,3.07-3.65,4.59.07,4.67,10.89-5.34,11,3.7.07,4.33-2.92,8.78-7.87,11.44C381.72,277.52,378.77,278,377.16,277.36Z"/><path class="cls-6" d="M412.51,250.72l-13.81,7.44c.55,3.11,2.73,4.12,5.79,2.47a11.43,11.43,0,0,0,4.74-5.09l2.26,2.15a16.29,16.29,0,0,1-7,7.58c-5.91,3.18-9.81.26-9.92-6.62s3.67-13.89,8.91-16.72,9-.07,9.09,7.15C412.56,249.52,412.54,250.18,412.51,250.72Zm-13.9,3.86,10-5.38c-.38-3.15-2.36-4.4-5.07-2.94S399,251,398.61,254.58Z"/><path class="cls-6" d="M445.19,223.34a18,18,0,0,1-9.65,16.07l-5.21,2.81.14,8.74-4.29,2.31L425.7,223l9.5-5.12C441.26,214.59,445.09,216.63,445.19,223.34Zm-4.32,2.33c-.06-3.81-2-5-5.8-2.95l-5,2.7.19,12,5-2.7A9.84,9.84,0,0,0,440.87,225.67Z"/><path class="cls-6" d="M463.74,219.37l.22,13.55L460.07,235,460,232.2a11.66,11.66,0,0,1-5.48,6.1c-4,2.17-6.61.63-6.67-3.39-.07-3.85,1.86-7.95,7.2-10.83l4.55-2.45v-.34c-.05-3.16-1.53-4.24-4.47-2.66a15,15,0,0,0-5.3,5.17l-1.68-3.07a20.42,20.42,0,0,1,7.41-6.87C460.65,211.13,463.64,212.7,463.74,219.37Zm-4,8.54,0-2.68-4.25,2.29c-2.8,1.51-3.54,3.3-3.51,5,0,2,1.3,2.53,3.41,1.39A9.19,9.19,0,0,0,459.72,227.91Z"/><path class="cls-6" d="M485,198.26l-7.85,29.42c-1.53,6.11-3.75,8.91-6.68,10.49-1.75.94-3.61,1.16-4.75.42l1.59-4.87a2.88,2.88,0,0,0,3.06,0c1.45-.78,2.29-2.15,3-4.87l.29-1.07-8.05-19.06,4.28-2.31,5.81,14.11,5.3-20.09Z"/><path class="cls-6" d="M279.32,301.82l4.28-2.31.48,30.3-4.28,2.31Z"/><path class="cls-6" d="M319.14,297.57l.21,13.24L315.23,313,315,300.48c-.07-4.11-1.55-5.32-4.06-4-2.7,1.45-4.54,4.8-4.47,9.39l.19,11.73-4.12,2.22-.2-12.55c-.07-4.12-1.55-5.33-4.06-4-2.73,1.48-4.54,4.81-4.47,9.4l.19,11.73-4.12,2.22-.37-23.12,3.92-2.11,0,2.94a13.54,13.54,0,0,1,5.72-6.31c2.57-1.38,4.73-1.28,6,.66a15.45,15.45,0,0,1,6.53-7.4C316,289,319,290.6,319.14,297.57Z"/><path class="cls-6" d="M343.13,286.35c.12,7.18-3.6,13.9-8.74,16.67-2.24,1.21-4.24,1.28-5.69-.08l.18,11.21-4.12,2.22-.5-31.51,3.92-2.12.05,3a13.55,13.55,0,0,1,5.78-6.43C339.16,276.57,343,279.2,343.13,286.35ZM339,288.6c-.07-4.41-2.36-6-5.33-4.42s-5.19,5.64-5.12,10.05,2.39,6,5.35,4.4S339,293,339,288.6Z"/><path class="cls-6" d="M363.92,263.5l.36,23.11-3.92,2.11-.05-2.94a13.38,13.38,0,0,1-5.62,6.3c-4.51,2.43-7.63.84-7.74-6.13l-.21-13.2,4.12-2.22.2,12.46c.07,4.2,1.61,5.38,4.22,4,2.87-1.54,4.77-4.93,4.7-9.56l-.19-11.68Z"/><path class="cls-6" d="M369.17,251.58l4.13-2.22.51,32.12-4.13,2.22Z"/><path class="cls-6" d="M377.16,277.36l1.52-5a8.48,8.48,0,0,0,6.17-1c2.6-1.4,3.68-2.94,3.65-4.54-.07-4.41-10.88,5.6-11-3.62-.07-4.37,2.89-8.84,7.63-11.4,2.34-1.26,5-2,6.63-1.56l-1.52,5a7.18,7.18,0,0,0-5.07,1c-2.51,1.35-3.68,3.07-3.65,4.59.07,4.67,10.89-5.34,11,3.7.07,4.33-2.92,8.78-7.87,11.44C381.72,277.52,378.77,278,377.16,277.36Z"/><path class="cls-6" d="M412.51,250.72l-13.81,7.44c.55,3.11,2.73,4.12,5.79,2.47a11.43,11.43,0,0,0,4.74-5.09l2.26,2.15a16.29,16.29,0,0,1-7,7.58c-5.91,3.18-9.81.26-9.92-6.62s3.67-13.89,8.91-16.72,9-.07,9.09,7.15C412.56,249.52,412.54,250.18,412.51,250.72Zm-13.9,3.86,10-5.38c-.38-3.15-2.36-4.4-5.07-2.94S399,251,398.61,254.58Z"/><path class="cls-6" d="M445.19,223.34a18,18,0,0,1-9.65,16.07l-5.21,2.81.14,8.74-4.29,2.31L425.7,223l9.5-5.12C441.26,214.59,445.09,216.63,445.19,223.34Zm-4.32,2.33c-.06-3.81-2-5-5.8-2.95l-5,2.7.19,12,5-2.7A9.84,9.84,0,0,0,440.87,225.67Z"/><path class="cls-6" d="M463.74,219.37l.22,13.55L460.07,235,460,232.2a11.66,11.66,0,0,1-5.48,6.1c-4,2.17-6.61.63-6.67-3.39-.07-3.85,1.86-7.95,7.2-10.83l4.55-2.45v-.34c-.05-3.16-1.53-4.24-4.47-2.66a15,15,0,0,0-5.3,5.17l-1.68-3.07a20.42,20.42,0,0,1,7.41-6.87C460.65,211.13,463.64,212.7,463.74,219.37Zm-4,8.54,0-2.68-4.25,2.29c-2.8,1.51-3.54,3.3-3.51,5,0,2,1.3,2.53,3.41,1.39A9.19,9.19,0,0,0,459.72,227.91Z"/><path class="cls-6" d="M485,198.26l-7.85,29.42c-1.53,6.11-3.75,8.91-6.68,10.49-1.75.94-3.61,1.16-4.75.42l1.59-4.87a2.88,2.88,0,0,0,3.06,0c1.45-.78,2.29-2.15,3-4.87l.29-1.07-8.05-19.06,4.28-2.31,5.81,14.11,5.3-20.09Z"/><path class="cls-7" d="M235.47,4.25,12,122.61A20.52,20.52,0,0,0,1,141.5v71c0,.4,0,.8,0,1.19V243a20.5,20.5,0,0,0,10.68,18.74L234.16,384.63a20.71,20.71,0,0,0,6.65,2.3V2.31A20.15,20.15,0,0,0,235.47,4.25Z"/><path class="cls-7" d="M501.11,238.78V214.73a21.45,21.45,0,0,0,0-6.4v-65.8a21.39,21.39,0,0,0,0-6.39h0a20.43,20.43,0,0,0-11.26-15.35L254.38,4a20.68,20.68,0,0,0-13.57-1.68V386.93a20.78,20.78,0,0,0,13-2.1L490.29,260.32A20.56,20.56,0,0,0,501.11,238.78Z"/><path class="cls-7" d="M232.7,281l-216-119.35a23.82,23.82,0,0,1,.37-41.9l217-114.94a23.8,23.8,0,0,1,21.73-.29L484.41,117.87c17.41,8.63,17.71,33.36.52,42.42L255.32,281.19A23.81,23.81,0,0,1,232.7,281Z"/></g></g></svg>