<svg xmlns="http://www.w3.org/2000/svg" xmlns:xlink="http://www.w3.org/1999/xlink" viewBox="0 0 153.14 441.7"><defs><style>.cls-1{fill:url(#linear-gradient);}.cls-2{fill:url(#linear-gradient-2);}.cls-3{fill:#3d0075;}.cls-4{font-size:26.21px;fill:#fff;font-family:Montserrat-SemiBold, Montserrat;font-weight:600;}.cls-5{letter-spacing:-0.01em;}.cls-6{letter-spacing:-0.02em;}.cls-7{letter-spacing:0em;}.cls-8{letter-spacing:-0.02em;}.cls-9{letter-spacing:-0.01em;}</style><linearGradient id="linear-gradient" x1="60.55" y1="69.69" x2="5.52" y2="489.3" gradientUnits="userSpaceOnUse"><stop offset="0" stop-color="#1a1a1a"/><stop offset="0.15" stop-color="#271e34"/><stop offset="0.48" stop-color="#472875"/><stop offset="0.95" stop-color="#7a37de"/><stop offset="1" stop-color="#7f39e9"/></linearGradient><linearGradient id="linear-gradient-2" x1="100.68" y1="468.56" x2="116.52" y2="160.25" xlink:href="#linear-gradient"/></defs><title>Network Integrations</title><g id="Layer_2" data-name="Layer 2"><g id="Network_Integrations" data-name="Network Integrations"><path class="cls-1" d="M71.76.73,3.37,37A6.27,6.27,0,0,0,0,42.74v354.8a6.29,6.29,0,0,0,3.27,5.74l68.09,37.63a6.32,6.32,0,0,0,4.58.6V.12A6.28,6.28,0,0,0,71.76.73Z"/><path class="cls-2" d="M153.06,396.27v-7.36a6.44,6.44,0,0,0,0-2V43.06a6.44,6.44,0,0,0,0-2h0a6.23,6.23,0,0,0-3.44-4.7L77.55.65A6.75,6.75,0,0,0,75.94.12V441.51a6.26,6.26,0,0,0,1.44-.54l72.37-38.11A6.29,6.29,0,0,0,153.06,396.27Z"/><path class="cls-3" d="M70.68,85.36,5.59,49.4a7.78,7.78,0,0,1,.12-13.68L71.11,1.08a7.77,7.77,0,0,1,7.1-.1L147.1,35.15A7.78,7.78,0,0,1,147.27,49L78.07,85.44A7.78,7.78,0,0,1,70.68,85.36Z"/><text class="cls-4" transform="translate(45.23 388.96) rotate(-90)">Ne<tspan class="cls-5" x="37.53" y="0">t</tspan><tspan class="cls-6" x="48.38" y="0">w</tspan><tspan x="72.07" y="0">o</tspan><tspan class="cls-7" x="88.97" y="0">r</tspan><tspan x="99.85" y="0">k In</tspan><tspan class="cls-8" x="150.06" y="0">t</tspan><tspan x="160.7" y="0">eg</tspan><tspan class="cls-9" x="195.18" y="0">r</tspan><tspan x="205.98" y="0">ations</tspan></text></g></g></svg>