<svg xmlns="http://www.w3.org/2000/svg" xmlns:xlink="http://www.w3.org/1999/xlink" viewBox="0 0 155.14 443.88"><defs><style>.cls-1{opacity:0.35;}.cls-2{fill:url(#linear-gradient);}.cls-3{fill:url(#linear-gradient-2);}.cls-4{fill:#3d0075;}.cls-5{font-size:26.21px;fill:#fff;font-family:Montserrat-SemiBold, Montserrat;font-weight:600;}.cls-6{letter-spacing:-0.01em;}.cls-7{letter-spacing:-0.02em;}.cls-8{letter-spacing:0em;}.cls-9{letter-spacing:-0.02em;}.cls-10{letter-spacing:-0.01em;}.cls-11{fill:none;stroke:#fff;stroke-miterlimit:10;stroke-width:2px;}</style><linearGradient id="linear-gradient" x1="62.55" y1="70.78" x2="7.52" y2="490.39" gradientUnits="userSpaceOnUse"><stop offset="0" stop-color="#1a1a1a"/><stop offset="0.15" stop-color="#271e34"/><stop offset="0.48" stop-color="#472875"/><stop offset="0.95" stop-color="#7a37de"/><stop offset="1" stop-color="#7f39e9"/></linearGradient><linearGradient id="linear-gradient-2" x1="102.68" y1="469.66" x2="118.52" y2="161.34" xlink:href="#linear-gradient"/></defs><title>NIT</title><g id="Layer_2" data-name="Layer 2"><g id="Network_Integrations_Transparent" data-name="Network Integrations Transparent"><g class="cls-1"><path class="cls-2" d="M73.76,1.83,5.37,38.05A6.28,6.28,0,0,0,2,43.83V398.64a6.27,6.27,0,0,0,3.27,5.73L73.36,442a6.37,6.37,0,0,0,4.58.61V1.21A6.34,6.34,0,0,0,73.76,1.83Z"/><path class="cls-3" d="M155.06,397.36V390a6.44,6.44,0,0,0,0-2V44.15a6.44,6.44,0,0,0,0-2h0a6.25,6.25,0,0,0-3.44-4.7L79.55,1.75a6.36,6.36,0,0,0-1.61-.54v441.4a5.86,5.86,0,0,0,1.44-.55L151.75,404A6.28,6.28,0,0,0,155.06,397.36Z"/><path class="cls-4" d="M72.68,86.46l-65.09-36a7.78,7.78,0,0,1,.12-13.68L73.11,2.17a7.77,7.77,0,0,1,7.1-.09L149.1,36.25a7.77,7.77,0,0,1,.17,13.84L80.07,86.53A7.78,7.78,0,0,1,72.68,86.46Z"/><text class="cls-5" transform="translate(47.23 390.05) rotate(-90)">Ne<tspan class="cls-6" x="37.53" y="0">t</tspan><tspan class="cls-7" x="48.38" y="0">w</tspan><tspan x="72.07" y="0">o</tspan><tspan class="cls-8" x="88.97" y="0">r</tspan><tspan x="99.85" y="0">k In</tspan><tspan class="cls-9" x="150.06" y="0">t</tspan><tspan x="160.7" y="0">eg</tspan><tspan class="cls-10" x="195.18" y="0">r</tspan><tspan x="205.98" y="0">ations</tspan></text></g><text class="cls-5" transform="translate(47.23 390.05) rotate(-90)">Ne<tspan class="cls-6" x="37.53" y="0">t</tspan><tspan class="cls-7" x="48.38" y="0">w</tspan><tspan x="72.07" y="0">o</tspan><tspan class="cls-8" x="88.97" y="0">r</tspan><tspan x="99.85" y="0">k In</tspan><tspan class="cls-9" x="150.06" y="0">t</tspan><tspan x="160.7" y="0">eg</tspan><tspan class="cls-10" x="195.18" y="0">r</tspan><tspan x="205.98" y="0">ations</tspan></text><g class="cls-1"><path class="cls-11" d="M72.76,1.83,4.37,38.05A6.28,6.28,0,0,0,1,43.83V398.64a6.27,6.27,0,0,0,3.27,5.73L72.36,442a6.37,6.37,0,0,0,4.58.61V1.21A6.34,6.34,0,0,0,72.76,1.83Z"/><path class="cls-11" d="M154.06,397.36V390a6.44,6.44,0,0,0,0-2V44.15a6.44,6.44,0,0,0,0-2h0a6.25,6.25,0,0,0-3.44-4.7L78.55,1.75a6.36,6.36,0,0,0-1.61-.54v441.4a5.86,5.86,0,0,0,1.44-.55L150.75,404A6.28,6.28,0,0,0,154.06,397.36Z"/><path class="cls-11" d="M71.68,86.46l-65.09-36a7.78,7.78,0,0,1,.12-13.68L72.11,2.17a7.77,7.77,0,0,1,7.1-.09L148.1,36.25a7.77,7.77,0,0,1,.17,13.84L79.07,86.53A7.78,7.78,0,0,1,71.68,86.46Z"/></g></g></g></svg>