<svg xmlns="http://www.w3.org/2000/svg" xmlns:xlink="http://www.w3.org/1999/xlink" viewBox="0 0 156.14 443.7"><defs><style>.cls-1{opacity:0.35;}.cls-2{fill:url(#linear-gradient);}.cls-3{fill:url(#linear-gradient-2);}.cls-4{fill:#3d0075;}.cls-5{font-size:26.21px;fill:#fff;font-family:Montserrat-SemiBold, Montserrat;font-weight:600;}.cls-6{letter-spacing:-0.01em;}.cls-7{letter-spacing:-0.01em;}.cls-8{letter-spacing:0em;}.cls-9{letter-spacing:-0.01em;}.cls-10{letter-spacing:-0.01em;}.cls-11{letter-spacing:-0.02em;}.cls-12{fill:none;stroke:#fff;stroke-miterlimit:10;stroke-width:2px;}</style><linearGradient id="linear-gradient" x1="67.37" y1="-39.18" x2="15.09" y2="482.24" gradientUnits="userSpaceOnUse"><stop offset="0" stop-color="#1a1a1a"/><stop offset="0.15" stop-color="#271e34"/><stop offset="0.48" stop-color="#472875"/><stop offset="0.95" stop-color="#7a37de"/><stop offset="1" stop-color="#7f39e9"/></linearGradient><linearGradient id="linear-gradient-2" x1="162.07" y1="-262.04" x2="110.06" y2="256.65" gradientUnits="userSpaceOnUse"><stop offset="0" stop-color="#1a1a1a"/><stop offset="0.15" stop-color="#261e33"/><stop offset="0.26" stop-color="#312149"/><stop offset="0.53" stop-color="#4b297f"/><stop offset="1" stop-color="#7f39e9"/></linearGradient></defs><title>PAT</title><g id="Layer_2" data-name="Layer 2"><g id="Process_Automation_Transparent" data-name="Process Automation Transparent"><g class="cls-1"><path class="cls-2" d="M77.55,1.66a6.33,6.33,0,0,0-5.79.08L3.37,38A6.29,6.29,0,0,0,0,43.75v354.8a6.3,6.3,0,0,0,3.27,5.74l68.09,37.62a6.3,6.3,0,0,0,6,.06l.9-.47V2Z"/><path class="cls-3" d="M153.06,397.27v-7.36a6.44,6.44,0,0,0,0-2V44.06a6.44,6.44,0,0,0,0-2h0a6.22,6.22,0,0,0-3.44-4.69L78.28,2V441.5l71.47-37.63A6.3,6.3,0,0,0,153.06,397.27Z"/><path class="cls-4" d="M70.68,86.37,5.59,50.4a7.78,7.78,0,0,1,.12-13.68L71.11,2.08A7.8,7.8,0,0,1,78.21,2L147.1,36.16A7.78,7.78,0,0,1,147.27,50L78.07,86.44A7.75,7.75,0,0,1,70.68,86.37Z"/><text class="cls-5" transform="translate(126.36 376.26) rotate(-90)"><tspan class="cls-6">P</tspan><tspan class="cls-7" x="18.63" y="0">r</tspan><tspan class="cls-8" x="29.38" y="0">o</tspan><tspan class="cls-9" x="46.28" y="0">c</tspan><tspan x="61.3" y="0">ess </tspan><tspan class="cls-10" x="111.82" y="0">A</tspan><tspan x="131.19" y="0">u</tspan><tspan class="cls-11" x="149.04" y="0">t</tspan><tspan class="cls-8" x="159.68" y="0">omation</tspan></text></g><text class="cls-5" transform="translate(126.36 376.26) rotate(-90)"><tspan class="cls-6">P</tspan><tspan class="cls-7" x="18.63" y="0">r</tspan><tspan class="cls-8" x="29.38" y="0">o</tspan><tspan class="cls-9" x="46.28" y="0">c</tspan><tspan x="61.3" y="0">ess </tspan><tspan class="cls-10" x="111.82" y="0">A</tspan><tspan x="131.19" y="0">u</tspan><tspan class="cls-11" x="149.04" y="0">t</tspan><tspan class="cls-8" x="159.68" y="0">omation</tspan></text><g class="cls-1"><path class="cls-12" d="M79.55,1.66a6.33,6.33,0,0,0-5.79.08L5.37,38A6.29,6.29,0,0,0,2,43.75v354.8a6.3,6.3,0,0,0,3.27,5.74l68.09,37.62a6.3,6.3,0,0,0,6,.06l.9-.47V2Z"/><path class="cls-12" d="M155.06,397.27v-7.36a6.44,6.44,0,0,0,0-2V44.06a6.44,6.44,0,0,0,0-2h0a6.22,6.22,0,0,0-3.44-4.69L80.28,2V441.5l71.47-37.63A6.3,6.3,0,0,0,155.06,397.27Z"/><path class="cls-12" d="M72.68,86.37,7.59,50.4a7.78,7.78,0,0,1,.12-13.68L73.11,2.08A7.8,7.8,0,0,1,80.21,2L149.1,36.16A7.78,7.78,0,0,1,149.27,50L80.07,86.44A7.75,7.75,0,0,1,72.68,86.37Z"/></g></g></g></svg>