<svg width="48" height="48" viewBox="0 0 48 48" fill="none" xmlns="http://www.w3.org/2000/svg">
<path d="M0 0H48V48H0V0Z" fill="white" fill-opacity="0.01"/>
<path d="M24 20C27.866 20 31 16.866 31 13C31 9.13401 27.866 6 24 6C20.134 6 17 9.13401 17 13C17 16.866 20.134 20 24 20Z" fill="#2F88FF" stroke="white" stroke-width="2" stroke-linecap="round" stroke-linejoin="round"/>
<path d="M12 7.25464C10.1865 8.51959 9 10.6212 9 13C9 15.5463 10.3596 17.7751 12.3924 19" stroke="white" stroke-width="2" stroke-linecap="round" stroke-linejoin="round"/>
<path d="M36 7.25464C37.8135 8.51959 39 10.6212 39 13C39 15.3787 37.8135 17.4804 36 18.7453" stroke="white" stroke-width="2" stroke-linecap="round" stroke-linejoin="round"/>
<path d="M12 40V42H36V40C36 36.2725 36 34.4087 35.391 32.9385C34.5791 30.9783 33.0217 29.4209 31.0615 28.609C29.5913 28 27.7275 28 24 28C20.2725 28 18.4087 28 16.9385 28.609C14.9783 29.4209 13.4209 30.9783 12.609 32.9385C12 34.4087 12 36.2725 12 40Z" fill="#2F88FF" stroke="white" stroke-width="2" stroke-linecap="round" stroke-linejoin="round"/>
<path d="M43.9994 41.9999V40.7999C43.9994 36.3195 43.9994 34.0793 43.1275 32.368C42.3605 30.8627 41.1366 29.6388 39.6313 28.8718" stroke="white" stroke-width="2" stroke-linecap="round" stroke-linejoin="round"/>
<path d="M4 41.9999V40.7999C4 36.3195 4 34.0793 4.87195 32.368C5.63893 30.8627 6.86278 29.6388 8.36807 28.8718" stroke="white" stroke-width="2" stroke-linecap="round" stroke-linejoin="round"/>
</svg>
