<svg width="48" height="48" viewBox="0 0 48 48" fill="none" xmlns="http://www.w3.org/2000/svg">
<path d="M0 0H48V48H0V0Z" fill="white" fill-opacity="0.01"/>
<path d="M0 0H48V48H0V0Z" fill="white" fill-opacity="0.01"/>
<path d="M41.7798 20.6066C42.0326 18.9108 41.9497 17.1747 41.5311 15.5054C40.9782 13.3002 39.8394 11.2118 38.1149 9.4873C36.3904 7.76281 34.302 6.62409 32.0969 6.07115C30.4276 5.65257 28.6914 5.56967 26.9956 5.82245" stroke="white" stroke-width="2" stroke-linecap="round" stroke-linejoin="round"/>
<path d="M34.1901 19.8035C34.4609 17.9869 33.8971 16.0699 32.4987 14.6715C31.1002 13.2731 29.1833 12.7092 27.3667 12.98" stroke="white" stroke-width="2" stroke-linecap="round" stroke-linejoin="round"/>
<path d="M14.3758 8.79419C15.1023 8.79419 15.7717 9.18826 16.1244 9.82346L18.5708 14.2303C18.8911 14.8073 18.9062 15.5052 18.611 16.0955L16.2542 20.8091C16.2542 20.8091 16.9372 24.3206 19.7956 27.179C22.6541 30.0374 26.1537 30.7086 26.1537 30.7086L30.8666 28.3522C31.4573 28.0568 32.1557 28.0721 32.7329 28.393L37.1522 30.85C37.7869 31.2028 38.1804 31.8719 38.1804 32.598V37.6715C38.1804 40.2552 35.7805 42.1213 33.3324 41.2952C28.3045 39.5987 20.4998 36.3685 15.553 31.4216C10.6061 26.4748 7.37585 18.6701 5.67934 13.6422C4.85331 11.1941 6.71941 8.79419 9.30306 8.79419H14.3758Z" fill="#2F88FF" stroke="white" stroke-width="2" stroke-linejoin="round"/>
</svg>
