<svg xmlns="http://www.w3.org/2000/svg" xmlns:xlink="http://www.w3.org/1999/xlink" viewBox="0 0 153.14 441.7"><defs><style>.cls-1{fill:url(#linear-gradient);}.cls-2{fill:url(#linear-gradient-2);}.cls-3{fill:#3d0075;}.cls-4{font-size:26.21px;fill:#fff;font-family:Montserrat-SemiBold, Montserrat;font-weight:600;}.cls-5{letter-spacing:-0.01em;}.cls-6{letter-spacing:-0.01em;}.cls-7{letter-spacing:0em;}.cls-8{letter-spacing:-0.01em;}.cls-9{letter-spacing:-0.01em;}.cls-10{letter-spacing:-0.02em;}</style><linearGradient id="linear-gradient" x1="67.37" y1="-40.18" x2="15.09" y2="481.24" gradientUnits="userSpaceOnUse"><stop offset="0" stop-color="#1a1a1a"/><stop offset="0.15" stop-color="#271e34"/><stop offset="0.48" stop-color="#472875"/><stop offset="0.95" stop-color="#7a37de"/><stop offset="1" stop-color="#7f39e9"/></linearGradient><linearGradient id="linear-gradient-2" x1="162.07" y1="-263.04" x2="110.06" y2="255.65" gradientUnits="userSpaceOnUse"><stop offset="0" stop-color="#1a1a1a"/><stop offset="0.15" stop-color="#261e33"/><stop offset="0.26" stop-color="#312149"/><stop offset="0.53" stop-color="#4b297f"/><stop offset="1" stop-color="#7f39e9"/></linearGradient></defs><title>Process Automation</title><g id="Layer_2" data-name="Layer 2"><g id="Process_Automation" data-name="Process Automation"><path class="cls-1" d="M77.55.66a6.33,6.33,0,0,0-5.79.08L3.37,37A6.29,6.29,0,0,0,0,42.75v354.8a6.3,6.3,0,0,0,3.27,5.74l68.09,37.62a6.3,6.3,0,0,0,6,.06l.9-.47V1Z"/><path class="cls-2" d="M153.06,396.27v-7.36a6.44,6.44,0,0,0,0-2V43.06a6.44,6.44,0,0,0,0-2h0a6.22,6.22,0,0,0-3.44-4.69L78.28,1V440.5l71.47-37.63A6.3,6.3,0,0,0,153.06,396.27Z"/><path class="cls-3" d="M70.68,85.37,5.59,49.4a7.78,7.78,0,0,1,.12-13.68L71.11,1.08A7.8,7.8,0,0,1,78.21,1L147.1,35.16A7.78,7.78,0,0,1,147.27,49L78.07,85.44A7.75,7.75,0,0,1,70.68,85.37Z"/><text class="cls-4" transform="translate(126.36 375.26) rotate(-90)"><tspan class="cls-5">P</tspan><tspan class="cls-6" x="18.63" y="0">r</tspan><tspan class="cls-7" x="29.38" y="0">o</tspan><tspan class="cls-8" x="46.28" y="0">c</tspan><tspan x="61.3" y="0">ess </tspan><tspan class="cls-9" x="111.82" y="0">A</tspan><tspan x="131.19" y="0">u</tspan><tspan class="cls-10" x="149.04" y="0">t</tspan><tspan class="cls-7" x="159.68" y="0">omation</tspan></text></g></g></svg>