<svg width="36" height="36" viewBox="0 0 36 36" fill="none" xmlns="http://www.w3.org/2000/svg">
<path d="M13.0002 1.33337H3.00016C2.07969 1.33337 1.3335 2.07957 1.3335 3.00004V13C1.3335 13.9205 2.07969 14.6667 3.00016 14.6667H13.0002C13.9206 14.6667 14.6668 13.9205 14.6668 13V3.00004C14.6668 2.07957 13.9206 1.33337 13.0002 1.33337Z" fill="#2F88FF" stroke="white" stroke-opacity="0.8" stroke-width="2" stroke-linejoin="round"/>
<path d="M13.0002 21.3335H3.00016C2.07969 21.3335 1.3335 22.0797 1.3335 23.0002V33.0002C1.3335 33.9206 2.07969 34.6668 3.00016 34.6668H13.0002C13.9206 34.6668 14.6668 33.9206 14.6668 33.0002V23.0002C14.6668 22.0797 13.9206 21.3335 13.0002 21.3335Z" fill="#2F88FF" stroke="white" stroke-opacity="0.8" stroke-width="2" stroke-linejoin="round"/>
<path d="M33.0002 1.3335H23.0002C22.0797 1.3335 21.3335 2.07969 21.3335 3.00016V13.0002C21.3335 13.9206 22.0797 14.6668 23.0002 14.6668H33.0002C33.9206 14.6668 34.6668 13.9206 34.6668 13.0002V3.00016C34.6668 2.07969 33.9206 1.3335 33.0002 1.3335Z" fill="#2F88FF" stroke="white" stroke-opacity="0.8" stroke-width="2" stroke-linejoin="round"/>
<path d="M21.3335 21.3335H34.6668" stroke="white" stroke-opacity="0.8" stroke-width="2" stroke-linecap="round" stroke-linejoin="round"/>
<path d="M28 28.0001H34.6667" stroke="white" stroke-opacity="0.8" stroke-width="2" stroke-linecap="round" stroke-linejoin="round"/>
<path d="M21.3335 34.6667H34.6668" stroke="white" stroke-opacity="0.8" stroke-width="2" stroke-linecap="round" stroke-linejoin="round"/>
</svg>
