<svg xmlns="http://www.w3.org/2000/svg" xmlns:xlink="http://www.w3.org/1999/xlink" viewBox="0 0 642.46 519.16"><defs><style>.cls-1{opacity:0.35;}.cls-2{fill:url(#linear-gradient);}.cls-3{fill:url(#linear-gradient-2);}.cls-4{fill:url(#linear-gradient-3);}.cls-5{fill:url(#linear-gradient-4);}.cls-6{fill:#fff;}.cls-7{fill:url(#linear-gradient-5);}.cls-8{fill:url(#linear-gradient-6);}.cls-9{fill:url(#linear-gradient-7);}.cls-10{fill:url(#linear-gradient-8);}.cls-11{fill:url(#linear-gradient-9);}.cls-12{fill:url(#linear-gradient-10);}.cls-13{fill:url(#linear-gradient-11);}.cls-14{fill:url(#linear-gradient-12);}.cls-15{fill:url(#linear-gradient-13);}.cls-16{fill:url(#linear-gradient-14);}.cls-17{fill:url(#linear-gradient-15);}.cls-18{fill:none;stroke:#fff;stroke-miterlimit:10;stroke-width:2px;}</style><linearGradient id="linear-gradient" x1="1" y1="339.49" x2="641.46" y2="339.49" gradientUnits="userSpaceOnUse"><stop offset="0" stop-color="#007bff"/><stop offset="0.38" stop-color="#589bff"/><stop offset="0.81" stop-color="#b6bdff"/><stop offset="1" stop-color="#dccaff"/></linearGradient><linearGradient id="linear-gradient-2" x1="3.73" y1="245.75" x2="309.67" y2="245.75" gradientUnits="userSpaceOnUse"><stop offset="0" stop-color="#bbd5f4"/><stop offset="1" stop-color="#4585ff"/></linearGradient><linearGradient id="linear-gradient-3" x1="309.67" y1="245.68" x2="638.5" y2="245.68" xlink:href="#linear-gradient-2"/><linearGradient id="linear-gradient-4" x1="-15.09" y1="179.77" x2="602.34" y2="179.77" gradientTransform="matrix(1.02, 0, 0, 1.02, 19.64, -4.25)" gradientUnits="userSpaceOnUse"><stop offset="0" stop-color="#fff"/><stop offset="0.28" stop-color="#f5efff"/><stop offset="1" stop-color="#dccaff"/></linearGradient><linearGradient id="linear-gradient-5" x1="378.6" y1="9.59" x2="430.04" y2="204.6" gradientTransform="matrix(1.22, -0.29, 0.65, 0.67, -202.78, 173.54)" gradientUnits="userSpaceOnUse"><stop offset="0" stop-color="#00c3ff"/><stop offset="0.13" stop-color="#00bafa"/><stop offset="0.35" stop-color="#00a1ed"/><stop offset="0.63" stop-color="#0079d8"/><stop offset="0.95" stop-color="#0042ba"/><stop offset="1" stop-color="#003ab6"/></linearGradient><linearGradient id="linear-gradient-6" x1="327.65" y1="23.03" x2="379.09" y2="218.03" xlink:href="#linear-gradient-5"/><linearGradient id="linear-gradient-7" x1="291.29" y1="196" x2="293.33" y2="196" xlink:href="#linear-gradient-5"/><linearGradient id="linear-gradient-8" x1="279.55" y1="35.72" x2="330.99" y2="230.72" xlink:href="#linear-gradient-5"/><linearGradient id="linear-gradient-9" x1="459.36" y1="165.93" x2="268.15" y2="165.93" gradientTransform="matrix(1.22, -0.29, 0.65, 0.67, -202.78, 173.54)" gradientUnits="userSpaceOnUse"><stop offset="0" stop-color="#4225a3"/><stop offset="1" stop-color="#c696d2"/></linearGradient><linearGradient id="linear-gradient-10" x1="371" y1="184.68" x2="374.59" y2="184.68" xlink:href="#linear-gradient-5"/><linearGradient id="linear-gradient-11" x1="389.74" y1="43.92" x2="466.51" y2="231.25" xlink:href="#linear-gradient-5"/><linearGradient id="linear-gradient-12" x1="338.8" y1="64.8" x2="415.57" y2="252.13" xlink:href="#linear-gradient-5"/><linearGradient id="linear-gradient-13" x1="293.72" y1="83.28" x2="370.49" y2="270.6" xlink:href="#linear-gradient-5"/><linearGradient id="linear-gradient-14" x1="437.15" y1="156.79" x2="281.24" y2="156.79" xlink:href="#linear-gradient-9"/><linearGradient id="linear-gradient-15" x1="393.46" y1="150.32" x2="457.31" y2="150.32" xlink:href="#linear-gradient-9"/></defs><title>RT</title><g id="Layer_2" data-name="Layer 2"><g id="Results_Transparent" data-name="Results Transparent"><g class="cls-1"><path class="cls-2" d="M300.69,516.19,13.3,357.38a23.82,23.82,0,0,1,.37-41.9L302.31,162.59A23.8,23.8,0,0,1,324,162.3L628.22,313.17a23.82,23.82,0,0,1,.51,42.42L323.31,516.42A23.84,23.84,0,0,1,300.69,516.19Z"/><path class="cls-3" d="M301.19,4.28,17.7,154.44a26,26,0,0,0-14,24v90.07c0,.51,0,1,0,1.52v37.11a26,26,0,0,0,13.55,23.78l282.24,156A26.29,26.29,0,0,0,309.67,490V1.51A26.31,26.31,0,0,0,301.19,4.28Z"/><path class="cls-4" d="M638.19,301.82V271.31a27,27,0,0,0,0-8.12V179.72a27,27,0,0,0,0-8.12h0a25.89,25.89,0,0,0-14.29-19.47L325.17,4a26.26,26.26,0,0,0-15.5-2.45V490a26.33,26.33,0,0,0,14.82-2.89l300-158A26.13,26.13,0,0,0,638.19,301.82Z"/><path class="cls-5" d="M298.82,353.24,16.36,197.34a23.82,23.82,0,0,1,.35-41.9L300.78,4.78a23.8,23.8,0,0,1,21.73-.31l299,148.08c17.42,8.62,17.73,33.35.54,42.42L321.44,353.46A23.81,23.81,0,0,1,298.82,353.24Z"/><path class="cls-6" d="M421.16,396.47l-5.85-7.7L415,389l-5.93,3.19.17,10.76-6.8,3.66-.61-38.62,12.73-6.85c7.85-4.23,12.85-1.53,13,7.13a22.5,22.5,0,0,1-5.86,15.45l6.79,8.86Zm-6.89-27.9-5.54,3,.21,13.46,5.55-3a11,11,0,0,0,6.15-10.11C420.57,367.68,418.43,366.33,414.27,368.57Z"/><path class="cls-6" d="M454.65,365.91l-17.1,9.21c.69,3.36,3.12,4.33,6.56,2.47a13.77,13.77,0,0,0,5.63-5.92l3.56,3.09a21.43,21.43,0,0,1-9.25,9.82c-7.81,4.21-13,.49-13.14-8.33s4.93-18.07,11.82-21.78c6.64-3.58,11.85-.49,12,9.06C454.75,364.19,454.68,365.17,454.65,365.91Zm-17.26,4.24,11.13-6c-.52-3.5-2.7-4.78-5.65-3.19S437.79,366.09,437.39,370.15Z"/><path class="cls-6" d="M457.11,374.32l2.08-7.35c2.05.62,5.13.13,7.91-1.37,3-1.62,4.14-3.28,4.11-4.94-.07-4.85-13.65,7.47-13.84-4.4-.09-5.62,3.71-11.68,10.31-15.23,3.11-1.68,6.57-2.59,8.74-2.09l-2.09,7.3a9.72,9.72,0,0,0-6.55,1.3c-2.94,1.58-4.18,3.48-4.15,5,.08,5.08,13.65-7.19,13.84,4.51.09,5.51-3.76,11.54-10.52,15.18C463.12,374.31,459.24,375,457.11,374.32Z"/><path class="cls-6" d="M503.94,321.94l.47,29.69L498.19,355l-.05-3.53a17.1,17.1,0,0,1-6.95,7.76c-5.68,3.05-9.73,1-9.88-8.15L481,334.28l6.56-3.53.24,15.5c.08,5,1.8,6.27,4.7,4.7s5.17-5.34,5.08-10.8l-.23-14.68Z"/><path class="cls-6" d="M509.85,307.41l6.55-3.53.65,40.94-6.55,3.53Z"/><path class="cls-6" d="M539.34,331.37a15.17,15.17,0,0,1-5.31,4.75c-5.33,2.87-8.5,1-8.61-6.1l-.2-12.2-3.48,1.88-.11-6.62,3.49-1.88L525,304l6.56-3.53.11,7.22,5.63-3,.11,6.62-5.63,3,.19,12.09c0,2.53,1.11,3.35,2.88,2.4a7.6,7.6,0,0,0,2.63-2.53Z"/><path class="cls-6" d="M540.83,329.23l2.08-7.36c2.05.63,5.13.13,7.9-1.36,3-1.63,4.15-3.29,4.12-4.94-.08-4.86-13.65,7.46-13.84-4.4-.09-5.63,3.71-11.68,10.31-15.24,3.11-1.67,6.57-2.59,8.74-2.09l-2.09,7.3a9.78,9.78,0,0,0-6.55,1.3c-2.94,1.59-4.18,3.48-4.16,5,.09,5.07,13.66-7.19,13.85,4.5.08,5.52-3.76,11.54-10.52,15.19C546.84,329.22,543,329.92,540.83,329.23Z"/><path class="cls-7" d="M332.59,79l61.88,64a22.22,22.22,0,0,1-1.37,7.48,33.19,33.19,0,0,1-5.68,10.92,77.82,77.82,0,0,1-12.05,12.84l-61.55-63.66C302,98.32,310.34,84.24,332.59,79Z"/><path class="cls-8" d="M294.32,113.23l68.18,70.51A174.49,174.49,0,0,1,346.82,193c-5.52,3-11.05,5.77-16.51,8.42l-54.75-56.63c-11.77-12.17-3.32-26.16,18.45-31.51Z"/><path class="cls-9" d="M278.07,220.94c.86-.1,1.8-.11,2.82-.25-1.47.46-2.41.68-2.41.68Z"/><path class="cls-10" d="M254.34,145.4,315,208.12c-2.31,1-4.63,1.93-6.87,2.78-1.78.52-3.65,1-5.36,1.37a147.31,147.31,0,0,1-29.32,3.87L235.57,177c-11.68-12.08-3.39-26.24,18.46-31.51Z"/><path class="cls-11" d="M428.85,123.4l.08.09,10.64,28a49,49,0,0,1-7,11.75c-.07.13-.07.13-.23.16l.08.09c-2,2.47-4.23,5.1-6.7,7.69A168.15,168.15,0,0,1,398,193.51c-1.83,1.06-3.28,2.14-5.2,3.12a47.33,47.33,0,0,1-6.41,4l-.31.07A280.85,280.85,0,0,1,314,229.55l-1.09.26c-1.24.29-2.17.51-3.19.65-26.55,5.74-49.83,6-63.22-.75-10.64-5.28-13.89-13.78-10.93-24.16,1.25,4.66,4.43,8.54,9.91,11.24,8,3.9,19.14,5.16,32.54,4.21a17.57,17.57,0,0,1,3-.28c.31-.08.39,0,.7-.06a178.21,178.21,0,0,0,30.56-6c3.18-.85,6.51-2,10.08-3,3.25-1.19,6.66-2.2,10.14-3.55,2-.89,3.93-1.66,6.09-2.39,5.4-2.32,11.25-5,16.71-7.62l.46-.11c3.92-2.09,8.38-4.19,12-6.53.07-.12.54-.23.61-.36,1.08-.46,2.31-1.17,3.3-1.72-.16-.17,0-.21-.09-.3a59.42,59.42,0,0,0,7.65-4.54c2-1.31,4.11-2.86,6.09-4.17a93.58,93.58,0,0,0,7.95-6.4c1.89-1.61,3.7-3.3,5.5-5l-.08-.08c.67-.69,1.74-1.36,2.42-2.05,1.34-1.58,3.07-3.14,4.41-4.72.14-.25.46-.32.45-.53a47.93,47.93,0,0,0,4.58-6.13,42.62,42.62,0,0,0,2.69-4.53A25.15,25.15,0,0,0,416,143.7l-.08-.09c1.56-6.89-.45-12.52-6.16-16.65L421.57,121A44.71,44.71,0,0,1,428.85,123.4Z"/><path class="cls-12" d="M368.37,191.2a33.54,33.54,0,0,0,3.36-2.06c.08.09-.08.12,0,.21C370.67,190,369.52,190.61,368.37,191.2Z"/><path class="cls-13" d="M332.59,79l61.88,64a22.22,22.22,0,0,1-1.37,7.48,33.19,33.19,0,0,1-5.68,10.92L337.8,110.07C316.84,88.39,332.59,79,332.59,79Z"/><path class="cls-14" d="M294.32,113.23l68.18,70.51A174.49,174.49,0,0,1,346.82,193l-37.69-39C277,120.79,291.46,114.22,294,113.3Z"/><path class="cls-15" d="M254.34,145.4,315,208.12c-2.31,1-4.63,1.93-6.87,2.78-1.78.52-3.65,1-5.36,1.37a113.75,113.75,0,0,1-13.89-9A173.83,173.83,0,0,1,267,184c-30.23-31.27-15.44-37.71-13-38.51Z"/><path class="cls-16" d="M403.29,130.17c5.44,5,6,12.16,2,20.26-2.15,4.51-5.84,9.38-10.64,14.3-5.53,5.94-13.18,12.06-22.25,18.09a27.65,27.65,0,0,1-4.44,2.52,30,30,0,0,1-5.05,3.09c-.15,0-.23.16-.38.2A220.5,220.5,0,0,1,308,210.87a44.71,44.71,0,0,1-5.12,1.42c-10.9,2.37-20.83,3.76-29.56,3.83-9.43.12-17.37-1.17-23.33-4.18-8.54-4.08-11.48-11.07-8.89-19.47,1,3.65,3.4,6.88,8.14,9a35.67,35.67,0,0,0,13.23,3.4,80.45,80.45,0,0,0,15.8-.26c3.37-.27,7.13-.73,10.56-1.33,4.59-1,9.26-2.09,14.31-3.38.93-.22,1.94-.57,2.95-.91,1.54-.57,3.33-1.1,5.27-1.66,2.63-.84,5.18-1.76,8-2.75a16.11,16.11,0,0,1,3.16-1.27,17,17,0,0,0,1.86-.65c4.39-2,9.17-4,13.46-6.23l.31-.07a2.85,2.85,0,0,0,1.3-.84c3-1.44,5.84-2.85,8.6-4.34,0-.21.15-.25.22-.37a14.28,14.28,0,0,0,2.76-1.49l.16,0c1.37-1,3-1.86,4.19-2.78a4.31,4.31,0,0,0,1.76-.94,52,52,0,0,1,4.95-3.38c2.12-1.76,4.17-3.4,6.29-5-.08-.09.08-.12.08-.12,1.66-1.45,3-2.82,4.59-4.14.31-.28.29-.7.83-.93,1.34-1.37,2.39-2.46,3.59-3.79a1.34,1.34,0,0,0,.75-.81,1.13,1.13,0,0,0,.53-.44c.74-.81,1.49-1.62,2.08-2.39l.08-.12a24.17,24.17,0,0,0,1.53-2.37l.95-1.59a22.81,22.81,0,0,0,1.95-3.51,26.79,26.79,0,0,0,2.63-9.15,9.26,9.26,0,0,0-.07-1.45c-.09-.09.07-.12,0-.21l1.07,1.11Z"/><polygon class="cls-17" points="426.87 118.39 428.85 123.4 428.93 123.49 439.57 151.49 447.96 173.61 432.44 163.49 432.36 163.4 413.27 150.97 412.53 150.41 405.3 150.43 393.1 150.47 383.43 150.54 376.9 150.51 362.66 150.6 372.34 145.79 388.01 137.88 389 137.33 403.29 130.17 409.74 126.96 421.57 121.01 426.87 118.39"/></g><path class="cls-6" d="M421.16,396.47l-5.85-7.7L415,389l-5.93,3.19.17,10.76-6.8,3.66-.61-38.62,12.73-6.85c7.85-4.23,12.85-1.53,13,7.13a22.5,22.5,0,0,1-5.86,15.45l6.79,8.86Zm-6.89-27.9-5.54,3,.21,13.46,5.55-3a11,11,0,0,0,6.15-10.11C420.57,367.68,418.43,366.33,414.27,368.57Z"/><path class="cls-6" d="M454.65,365.91l-17.1,9.21c.69,3.36,3.12,4.33,6.56,2.47a13.77,13.77,0,0,0,5.63-5.92l3.56,3.09a21.43,21.43,0,0,1-9.25,9.82c-7.81,4.21-13,.49-13.14-8.33s4.93-18.07,11.82-21.78c6.64-3.58,11.85-.49,12,9.06C454.75,364.19,454.68,365.17,454.65,365.91Zm-17.26,4.24,11.13-6c-.52-3.5-2.7-4.78-5.65-3.19S437.79,366.09,437.39,370.15Z"/><path class="cls-6" d="M457.11,374.32l2.08-7.35c2.05.62,5.13.13,7.91-1.37,3-1.62,4.14-3.28,4.11-4.94-.07-4.85-13.65,7.47-13.84-4.4-.09-5.62,3.71-11.68,10.31-15.23,3.11-1.68,6.57-2.59,8.74-2.09l-2.09,7.3a9.72,9.72,0,0,0-6.55,1.3c-2.94,1.58-4.18,3.48-4.15,5,.08,5.08,13.65-7.19,13.84,4.51.09,5.51-3.76,11.54-10.52,15.18C463.12,374.31,459.24,375,457.11,374.32Z"/><path class="cls-6" d="M503.94,321.94l.47,29.69L498.19,355l-.05-3.53a17.1,17.1,0,0,1-6.95,7.76c-5.68,3.05-9.73,1-9.88-8.15L481,334.28l6.56-3.53.24,15.5c.08,5,1.8,6.27,4.7,4.7s5.17-5.34,5.08-10.8l-.23-14.68Z"/><path class="cls-6" d="M509.85,307.41l6.55-3.53.65,40.94-6.55,3.53Z"/><path class="cls-6" d="M539.34,331.37a15.17,15.17,0,0,1-5.31,4.75c-5.33,2.87-8.5,1-8.61-6.1l-.2-12.2-3.48,1.88-.11-6.62,3.49-1.88L525,304l6.56-3.53.11,7.22,5.63-3,.11,6.62-5.63,3,.19,12.09c0,2.53,1.11,3.35,2.88,2.4a7.6,7.6,0,0,0,2.63-2.53Z"/><path class="cls-6" d="M540.83,329.23l2.08-7.36c2.05.63,5.13.13,7.9-1.36,3-1.63,4.15-3.29,4.12-4.94-.08-4.86-13.65,7.46-13.84-4.4-.09-5.63,3.71-11.68,10.31-15.24,3.11-1.67,6.57-2.59,8.74-2.09l-2.09,7.3a9.78,9.78,0,0,0-6.55,1.3c-2.94,1.59-4.18,3.48-4.16,5,.09,5.07,13.66-7.19,13.85,4.5.08,5.52-3.76,11.54-10.52,15.19C546.84,329.22,543,329.92,540.83,329.23Z"/><path class="cls-18" d="M300.69,515.19,13.3,356.38a23.82,23.82,0,0,1,.37-41.9L302.31,161.59A23.8,23.8,0,0,1,324,161.3L628.22,312.17a23.82,23.82,0,0,1,.51,42.42L323.31,515.42A23.84,23.84,0,0,1,300.69,515.19Z"/><path class="cls-18" d="M298.82,352.24,16.36,196.34a23.82,23.82,0,0,1,.35-41.9L300.78,3.78a23.8,23.8,0,0,1,21.73-.31l299,148.08c17.42,8.62,17.73,33.35.54,42.42L321.44,352.46A23.81,23.81,0,0,1,298.82,352.24Z"/><path class="cls-18" d="M332.59,78l61.88,64a22.22,22.22,0,0,1-1.37,7.48,33.19,33.19,0,0,1-5.68,10.92,77.82,77.82,0,0,1-12.05,12.84l-61.55-63.66C302,97.32,310.34,83.24,332.59,78Z"/><path class="cls-18" d="M294.32,112.23l68.18,70.51A174.49,174.49,0,0,1,346.82,192c-5.52,3-11.05,5.77-16.51,8.42l-54.75-56.63c-11.77-12.17-3.32-26.16,18.45-31.51Z"/><path class="cls-18" d="M278.07,219.94c.86-.1,1.8-.11,2.82-.25-1.47.46-2.41.68-2.41.68Z"/><path class="cls-18" d="M254.34,144.4,315,207.12c-2.31,1-4.63,1.93-6.87,2.78-1.78.52-3.65,1-5.36,1.37a147.31,147.31,0,0,1-29.32,3.87L235.57,176c-11.68-12.08-3.39-26.24,18.46-31.51Z"/><path class="cls-18" d="M428.85,122.4l.08.09,10.64,28a49,49,0,0,1-7,11.75c-.07.13-.07.13-.23.16l.08.09c-2,2.47-4.23,5.1-6.7,7.69A168.15,168.15,0,0,1,398,192.51c-1.83,1.06-3.28,2.14-5.2,3.12a47.33,47.33,0,0,1-6.41,4l-.31.07A280.85,280.85,0,0,1,314,228.55l-1.09.26c-1.24.29-2.17.51-3.19.65-26.55,5.74-49.83,6-63.22-.75-10.64-5.28-13.89-13.78-10.93-24.16,1.25,4.66,4.43,8.54,9.91,11.24,8,3.9,19.14,5.16,32.54,4.21a17.57,17.57,0,0,1,3-.28c.31-.08.39,0,.7-.06a178.21,178.21,0,0,0,30.56-6c3.18-.85,6.51-2,10.08-3,3.25-1.19,6.66-2.2,10.14-3.55,2-.89,3.93-1.66,6.09-2.39,5.4-2.32,11.25-5,16.71-7.62l.46-.11c3.92-2.09,8.38-4.19,12-6.53.07-.12.54-.23.61-.36,1.08-.46,2.31-1.17,3.3-1.72-.16-.17,0-.21-.09-.3a59.42,59.42,0,0,0,7.65-4.54c2-1.31,4.11-2.86,6.09-4.17a93.58,93.58,0,0,0,7.95-6.4c1.89-1.61,3.7-3.3,5.5-5l-.08-.08c.67-.69,1.74-1.36,2.42-2.05,1.34-1.58,3.07-3.14,4.41-4.72.14-.25.46-.32.45-.53a47.93,47.93,0,0,0,4.58-6.13,42.62,42.62,0,0,0,2.69-4.53A25.15,25.15,0,0,0,416,142.7l-.08-.09c1.56-6.89-.45-12.52-6.16-16.65L421.57,120A44.71,44.71,0,0,1,428.85,122.4Z"/><path class="cls-18" d="M368.37,190.2a33.54,33.54,0,0,0,3.36-2.06c.08.09-.08.12,0,.21C370.67,189,369.52,189.61,368.37,190.2Z"/><path class="cls-18" d="M332.59,78l61.88,64a22.22,22.22,0,0,1-1.37,7.48,33.19,33.19,0,0,1-5.68,10.92L337.8,109.07C316.84,87.39,332.59,78,332.59,78Z"/><path class="cls-18" d="M294.32,112.23l68.18,70.51A174.49,174.49,0,0,1,346.82,192l-37.69-39C277,119.79,291.46,113.22,294,112.3Z"/><path class="cls-18" d="M254.34,144.4,315,207.12c-2.31,1-4.63,1.93-6.87,2.78-1.78.52-3.65,1-5.36,1.37a113.75,113.75,0,0,1-13.89-9A173.83,173.83,0,0,1,267,183c-30.23-31.27-15.44-37.71-13-38.51Z"/><path class="cls-18" d="M403.29,129.17c5.44,5,6,12.16,2,20.26-2.15,4.51-5.84,9.38-10.64,14.3-5.53,5.94-13.18,12.06-22.25,18.09a27.65,27.65,0,0,1-4.44,2.52,30,30,0,0,1-5.05,3.09c-.15,0-.23.16-.38.2A220.5,220.5,0,0,1,308,209.87a44.71,44.71,0,0,1-5.12,1.42c-10.9,2.37-20.83,3.76-29.56,3.83-9.43.12-17.37-1.17-23.33-4.18-8.54-4.08-11.48-11.07-8.89-19.47,1,3.65,3.4,6.88,8.14,9a35.67,35.67,0,0,0,13.23,3.4,80.45,80.45,0,0,0,15.8-.26c3.37-.27,7.13-.73,10.56-1.33,4.59-1,9.26-2.09,14.31-3.38.93-.22,1.94-.57,2.95-.91,1.54-.57,3.33-1.1,5.27-1.66,2.63-.84,5.18-1.76,8-2.75a16.11,16.11,0,0,1,3.16-1.27,17,17,0,0,0,1.86-.65c4.39-2,9.17-4,13.46-6.23l.31-.07a2.85,2.85,0,0,0,1.3-.84c3-1.44,5.84-2.85,8.6-4.34,0-.21.15-.25.22-.37a14.28,14.28,0,0,0,2.76-1.49l.16,0c1.37-1,3-1.86,4.19-2.78a4.31,4.31,0,0,0,1.76-.94,52,52,0,0,1,4.95-3.38c2.12-1.76,4.17-3.4,6.29-5-.08-.09.08-.12.08-.12,1.66-1.45,3-2.82,4.59-4.14.31-.28.29-.7.83-.93,1.34-1.37,2.39-2.46,3.59-3.79a1.34,1.34,0,0,0,.75-.81,1.13,1.13,0,0,0,.53-.44c.74-.81,1.49-1.62,2.08-2.39l.08-.12a24.17,24.17,0,0,0,1.53-2.37l.95-1.59a22.81,22.81,0,0,0,1.95-3.51,26.79,26.79,0,0,0,2.63-9.15,9.26,9.26,0,0,0-.07-1.45c-.09-.09.07-.12,0-.21l1.07,1.11Z"/><polygon class="cls-18" points="426.87 117.39 428.85 122.4 428.93 122.49 439.57 150.49 447.96 172.61 432.44 162.49 432.36 162.4 413.27 149.97 412.53 149.41 405.3 149.43 393.1 149.47 383.43 149.54 376.9 149.51 362.66 149.6 372.34 144.79 388.01 136.88 389 136.33 403.29 129.17 409.74 125.96 421.57 120.01 426.87 117.39"/></g></g></svg>