<svg width="248" height="232" viewBox="0 0 248 232" fill="none" xmlns="http://www.w3.org/2000/svg">
<circle cx="113.365" cy="130.5" r="57.0001" stroke="white" stroke-width="2"/>
<path fill-rule="evenodd" clip-rule="evenodd" d="M88.8384 58.5303L91.839 65.5317C100.268 62.6892 109.178 61.5122 118.072 62.0751C127.779 62.6895 137.245 65.3629 145.839 69.9177C154.434 74.4724 161.96 80.8041 167.919 88.4921C173.878 96.1801 178.132 105.048 180.399 114.507L176.51 115.44C174.375 106.533 170.369 98.1819 164.758 90.9426C159.147 83.7032 152.059 77.741 143.966 73.452C135.873 69.1631 126.96 66.6457 117.819 66.0671C108.678 65.4885 99.5186 66.862 90.9494 70.0964L90.4462 68.7633L89.1164 69.3332L85.1618 60.106L88.8384 58.5303ZM64.4496 172.153C58.5365 165.158 54.1797 156.985 51.6689 148.177C49.158 139.369 48.5506 130.127 49.887 121.065C51.2234 112.004 54.473 103.331 59.4198 95.6227C64.3666 87.9142 70.8974 81.3468 78.5781 76.3569L76.3989 73.0026C68.2423 78.3017 61.3068 85.2761 56.0534 93.4623C50.8 101.649 47.3491 110.859 45.9298 120.482C44.5106 130.105 45.1557 139.919 47.8221 149.273C50.2477 157.783 54.2954 165.734 59.7338 172.692L53.8673 177.471L56.3937 180.573L64.1769 174.232L63.2853 173.138L64.4496 172.153ZM166.571 183.965L161.116 178.598C150.256 189.342 136.102 196.164 120.893 197.947C105.051 199.805 89.0568 196.08 75.6659 187.413L77.8392 184.055C90.4487 192.216 105.51 195.724 120.427 193.975C135.345 192.225 149.186 185.328 159.565 174.471L160.731 175.586L162.22 174.073L169.377 181.113L166.571 183.965ZM181.959 129.533L189.328 129.456L189.287 125.456L179.248 125.561L179.257 126.383L177.91 126.437C178.455 140.057 174.675 153.5 167.111 164.839L170.438 167.059C177.868 155.921 181.86 142.873 181.959 129.533Z" fill="white"/>
<circle cx="221.459" cy="127.864" r="24.3637" stroke="white" stroke-width="4"/>
<circle cx="26.3637" cy="201.682" r="24.3637" stroke="white" stroke-width="4"/>
<circle cx="73.8246" cy="26.3637" r="24.3637" stroke="white" stroke-width="4"/>
<circle cx="195.094" cy="205.636" r="24.3637" stroke="white" stroke-width="4"/>
<mask id="mask0_248_1193" style="mask-type:alpha" maskUnits="userSpaceOnUse" x="60" y="75" width="107" height="106">
<circle cx="113.362" cy="127.864" r="52.7273" fill="#D9D9D9"/>
</mask>
<g mask="url(#mask0_248_1193)">
<path d="M55.3785 98.0187L91.4443 230.281L223.706 194.215L187.64 61.9529L55.3785 98.0187Z" fill="white" fill-opacity="0.01"/>
<path d="M102.47 104.206C116.537 100.37 131.05 108.664 134.886 122.73C136.059 127.032 136.097 131.376 135.183 135.443L182.158 162.288L174.439 175.794L127.465 148.949C124.425 151.801 120.663 153.973 116.361 155.146C102.294 158.982 87.7814 150.688 83.9456 136.621C82.7726 132.319 82.734 127.976 83.6479 123.909L104.206 135.657L111.924 122.151L91.3666 110.402C94.4068 107.55 98.1687 105.379 102.47 104.206Z" fill="#103045" stroke="#103045" stroke-width="4" stroke-linecap="round" stroke-linejoin="round"/>
</g>
</svg>
