<svg width="36" height="36" viewBox="0 0 36 36" fill="none" xmlns="http://www.w3.org/2000/svg">
<path d="M9.66667 26.3335C11.9679 26.3335 13.8333 24.468 13.8333 22.1668C13.8333 19.8656 11.9679 18.0001 9.66667 18.0001C7.36548 18.0001 5.5 19.8656 5.5 22.1668C5.5 24.468 7.36548 26.3335 9.66667 26.3335Z" fill="#2F88FF" stroke="white" stroke-opacity="0.8" stroke-width="2" stroke-linecap="round" stroke-linejoin="round"/>
<path d="M26.3337 26.3335C28.6348 26.3335 30.5003 24.468 30.5003 22.1668C30.5003 19.8656 28.6348 18.0001 26.3337 18.0001C24.0325 18.0001 22.167 19.8656 22.167 22.1668C22.167 24.468 24.0325 26.3335 26.3337 26.3335Z" fill="#2F88FF" stroke="white" stroke-opacity="0.8" stroke-width="2" stroke-linecap="round" stroke-linejoin="round"/>
<path d="M18.0002 9.66683C20.3013 9.66683 22.1668 7.80135 22.1668 5.50016C22.1668 3.19898 20.3013 1.3335 18.0002 1.3335C15.699 1.3335 13.8335 3.19898 13.8335 5.50016C13.8335 7.80135 15.699 9.66683 18.0002 9.66683Z" fill="#2F88FF" stroke="white" stroke-opacity="0.8" stroke-width="2" stroke-linecap="round" stroke-linejoin="round"/>
<path d="M18.0002 34.6667C18.0002 30.0644 14.2692 26.3334 9.66683 26.3334C5.06445 26.3334 1.3335 30.0644 1.3335 34.6667" stroke="white" stroke-opacity="0.8" stroke-width="2" stroke-linecap="round" stroke-linejoin="round"/>
<path d="M34.6667 34.6667C34.6667 30.0644 30.9357 26.3334 26.3333 26.3334C21.731 26.3334 18 30.0644 18 34.6667" stroke="white" stroke-opacity="0.8" stroke-width="2" stroke-linecap="round" stroke-linejoin="round"/>
<path d="M26.3337 18.0002C26.3337 13.3979 22.6027 9.66687 18.0003 9.66687C13.398 9.66687 9.66699 13.3979 9.66699 18.0002" stroke="white" stroke-opacity="0.8" stroke-width="2" stroke-linecap="round" stroke-linejoin="round"/>
</svg>
