<svg width="576" height="560" viewBox="0 0 576 560" fill="none" xmlns="http://www.w3.org/2000/svg">
<path d="M40.2242 256.906L63.3182 280L40.2242 303.094L17.1302 280L40.2242 256.906ZM108.694 465.597L111.736 462.999L108.694 465.597ZM281.295 562.258L280.669 566.208L281.295 562.258ZM475.317 523.664L477.407 527.075L475.317 523.664ZM597.789 368.31L601.593 369.546L597.789 368.31ZM590.022 170.639L586.327 172.169L590.022 170.639ZM455.74 25.3722L457.555 21.8082L455.74 25.3722ZM259.287 2.12051L258.353 -1.76897L259.287 2.12051ZM44.2242 280C44.2242 347.092 68.1634 411.982 111.736 462.999L105.653 468.195C60.8431 415.729 36.2242 348.997 36.2242 280H44.2242ZM111.736 462.999C155.309 514.016 215.655 547.812 281.921 558.307L280.669 566.208C212.522 555.415 150.462 520.66 105.653 468.195L111.736 462.999ZM281.921 558.307C348.186 568.802 416.022 555.309 473.227 520.254L477.407 527.075C418.578 563.125 348.816 577.002 280.669 566.208L281.921 558.307ZM473.227 520.254C530.433 485.198 573.252 430.882 593.985 367.074L601.593 369.546C580.272 435.166 536.237 491.024 477.407 527.075L473.227 520.254ZM593.985 367.074C614.717 303.266 612.002 234.154 586.327 172.169L593.718 169.108C620.122 232.852 622.914 303.926 601.593 369.546L593.985 367.074ZM586.327 172.169C560.652 110.185 513.703 59.3952 453.924 28.9362L457.555 21.8082C519.032 53.132 567.314 105.363 593.718 169.108L586.327 172.169ZM453.924 28.9362C394.144 -1.52276 325.459 -9.65225 260.221 6.00999L258.353 -1.76897C325.443 -17.8759 396.079 -9.51558 457.555 21.8082L453.924 28.9362ZM260.221 6.00999C194.983 21.6722 137.474 60.0983 98.0386 114.377L91.5665 109.674C132.122 53.855 191.263 14.3379 258.353 -1.76897L260.221 6.00999Z" fill="white"/>
<path d="M478.694 271.255L467.147 282.802L478.694 294.349L490.241 282.802L478.694 271.255ZM439.76 388.337L438.239 387.038L439.76 388.337ZM231.288 421.355L230.243 423.061L231.288 421.355ZM161.648 333.017L159.746 333.635L161.648 333.017ZM166.064 220.616L164.216 219.85L166.064 220.616ZM242.421 138.013L243.329 139.795L242.421 138.013ZM354.129 124.792L354.596 122.847L354.129 124.792ZM476.694 282.802C476.694 321.017 463.058 357.979 438.239 387.038L441.281 389.636C466.718 359.852 480.694 321.97 480.694 282.802H476.694ZM438.239 387.038C413.42 416.097 379.047 435.347 341.302 441.325L341.928 445.276C380.613 439.149 415.843 419.419 441.281 389.636L438.239 387.038ZM341.302 441.325C303.557 447.304 264.917 439.618 232.333 419.65L230.243 423.061C263.64 443.526 303.242 451.403 341.928 445.276L341.302 441.325ZM232.333 419.65C199.749 399.683 175.359 368.744 163.55 332.399L159.746 333.635C171.849 370.886 196.847 402.596 230.243 423.061L232.333 419.65ZM163.55 332.399C151.741 296.054 153.287 256.688 167.912 221.381L164.216 219.85C149.227 256.037 147.642 296.384 159.746 333.635L163.55 332.399ZM167.912 221.381C182.536 186.075 209.279 157.145 243.329 139.795L241.513 136.231C206.614 154.013 179.205 183.664 164.216 219.85L167.912 221.381ZM243.329 139.795C277.379 122.446 316.503 117.815 353.662 126.737L354.596 122.847C316.51 113.704 276.412 118.45 241.513 136.231L243.329 139.795ZM353.662 126.737C390.822 135.658 423.579 157.545 446.041 188.462L449.277 186.111C426.255 154.424 392.682 131.991 354.596 122.847L353.662 126.737Z" fill="white"/>
<path d="M326 604.999C403.383 604.999 478.227 577.388 537.07 527.131C595.913 476.875 634.893 407.271 646.998 330.841C659.103 254.41 643.54 176.168 603.107 110.188C562.675 44.2076 500.026 -5.18054 426.43 -29.0933C352.834 -53.0061 273.121 -49.8742 201.628 -20.2608C130.135 9.35251 71.5546 63.5038 36.4233 132.453C1.29194 201.402 -8.08459 280.624 9.98019 355.869C28.045 431.114 72.3655 497.445 134.97 542.93" stroke="white" stroke-opacity="0.2" stroke-linejoin="round" stroke-dasharray="10 10"/>
<circle cx="227.64" cy="227.64" r="229.64" transform="matrix(-0.707107 -0.707107 -0.707107 0.707107 646.797 280)" stroke="white" stroke-opacity="0.4" stroke-width="4" stroke-linecap="round" stroke-linejoin="round" stroke-dasharray="200 44"/>
<path d="M103.464 283.127L86.6535 273.421V292.832L103.464 283.127Z" fill="white"/>
<path d="M551.74 283.127L568.55 292.832L568.55 273.421L551.74 283.127Z" fill="white"/>
<path d="M328.041 58.5492L337.747 41.7388H318.336L328.041 58.5492Z" fill="white"/>
<path d="M328.041 504.023L318.336 520.834H337.747L328.041 504.023Z" fill="white"/>
</svg>
