<?xml version="1.0" encoding="UTF-8" standalone="no"?>
<svg
   width="139"
   height="32"
   viewBox="0 0 139 32"
   fill="none"
   version="1.1"
   id="svg900"
   sodipodi:docname="logo.svg"
   inkscape:version="1.2.2 (b0a8486541, 2022-12-01)"
   xmlns:inkscape="http://www.inkscape.org/namespaces/inkscape"
   xmlns:sodipodi="http://sodipodi.sourceforge.net/DTD/sodipodi-0.dtd"
   xmlns:xlink="http://www.w3.org/1999/xlink"
   xmlns="http://www.w3.org/2000/svg"
   xmlns:svg="http://www.w3.org/2000/svg">
  <defs
     id="defs904">
    <linearGradient
       inkscape:collect="always"
       xlink:href="#linear-gradient"
       id="linearGradient543"
       gradientUnits="userSpaceOnUse"
       x1="351.10999"
       y1="-88.540001"
       x2="507.31"
       y2="503.64001" />
    <linearGradient
       id="linear-gradient"
       x1="351.10999"
       y1="-88.540001"
       x2="507.31"
       y2="503.64001"
       gradientUnits="userSpaceOnUse">
      <stop
         offset="0"
         stop-color="#00c3ff"
         id="stop336" />
      <stop
         offset="0.13"
         stop-color="#00bafa"
         id="stop338" />
      <stop
         offset="0.35"
         stop-color="#00a1ed"
         id="stop340" />
      <stop
         offset="0.63"
         stop-color="#0079d8"
         id="stop342" />
      <stop
         offset="0.95"
         stop-color="#0042ba"
         id="stop344" />
      <stop
         offset="1"
         stop-color="#003ab6"
         id="stop346" />
    </linearGradient>
    <linearGradient
       id="linear-gradient-2"
       x1="196.39999"
       y1="-47.73"
       x2="352.60001"
       y2="544.45001"
       xlink:href="#linear-gradient" />
    <linearGradient
       id="linear-gradient-3"
       x1="85.959999"
       y1="477.54999"
       x2="92.18"
       y2="477.54999"
       xlink:href="#linear-gradient" />
    <linearGradient
       id="linear-gradient-4"
       x1="50.330002"
       y1="-9.1999998"
       x2="206.53"
       y2="582.97998"
       xlink:href="#linear-gradient" />
    <linearGradient
       inkscape:collect="always"
       xlink:href="#linear-gradient-5"
       id="linearGradient545"
       gradientUnits="userSpaceOnUse"
       x1="596.34998"
       y1="386.23001"
       x2="15.7"
       y2="386.23001" />
    <linearGradient
       id="linear-gradient-5"
       x1="596.34998"
       y1="386.23001"
       x2="15.7"
       y2="386.23001"
       gradientUnits="userSpaceOnUse">
      <stop
         offset="0"
         stop-color="#4225a3"
         id="stop352" />
      <stop
         offset="1"
         stop-color="#c696d2"
         id="stop354" />
    </linearGradient>
    <linearGradient
       id="linear-gradient-6"
       x1="328.04001"
       y1="443.16"
       x2="338.91"
       y2="443.16"
       xlink:href="#linear-gradient" />
    <linearGradient
       id="linear-gradient-7"
       x1="384.92999"
       y1="15.72"
       x2="618.07001"
       y2="584.58002"
       xlink:href="#linear-gradient" />
    <linearGradient
       id="linear-gradient-8"
       x1="230.23"
       y1="79.120003"
       x2="463.37"
       y2="647.97998"
       xlink:href="#linear-gradient" />
    <linearGradient
       id="linear-gradient-9"
       x1="93.339996"
       y1="135.23"
       x2="326.48001"
       y2="704.09003"
       xlink:href="#linear-gradient" />
    <linearGradient
       id="linear-gradient-10"
       x1="528.91998"
       y1="358.45001"
       x2="55.439999"
       y2="358.45001"
       xlink:href="#linear-gradient-5" />
    <linearGradient
       id="linear-gradient-11"
       x1="396.23001"
       y1="338.82999"
       x2="590.12"
       y2="338.82999"
       xlink:href="#linear-gradient-5" />
  </defs>
  <sodipodi:namedview
     id="namedview902"
     pagecolor="#505050"
     bordercolor="#eeeeee"
     borderopacity="1"
     inkscape:showpageshadow="0"
     inkscape:pageopacity="0"
     inkscape:pagecheckerboard="0"
     inkscape:deskcolor="#505050"
     showgrid="false"
     inkscape:zoom="4.3884892"
     inkscape:cx="88.185246"
     inkscape:cy="9.1147541"
     inkscape:window-width="1366"
     inkscape:window-height="695"
     inkscape:window-x="0"
     inkscape:window-y="0"
     inkscape:window-maximized="1"
     inkscape:current-layer="svg900" />
  <path
     fill="#000a33"
     d="M 33.864314,8.2013381 Q 33.01837,7.3925321 33.175638,6.2054583 c 0.361761,-2.7285735 4.969295,-2.7340755 5.2687,0.016967 0.145805,1.339757 -0.767541,2.445675 -2.080245,2.652003 C 35.458084,9.016565 34.543363,8.8505853 33.864314,8.20134 Z"
     id="path100"
     style="stroke-width:0.0458507" />
  <rect
     fill="#000a33"
     x="102.73293"
     y="5.3920674"
     width="4.2751164"
     height="20.277002"
     rx="0.040807098"
     id="rect106"
     style="stroke-width:0.0458507" />
  <path
     fill="#000a33"
     d="m 44.603918,12.579161 q -4.6e-4,0.08804 0.05778,0.02384 c 0.937646,-1.032099 2.243015,-1.631368 3.615784,-1.795971 2.23522,-0.267769 4.450724,0.381936 5.763887,2.306747 a 0.03255398,0.03255398 0 0 0 0.05226,0.0022 c 1.532329,-1.907845 3.955539,-2.589645 6.3196,-2.303536 2.175155,0.263182 3.940405,1.566717 4.59607,3.703358 0.275562,0.899132 0.364054,1.816603 0.364972,2.765713 q 0.0038,4.093547 8.82e-4,8.334735 a 0.05639633,0.05318678 0 0 1 -0.05641,0.05318 h -4.172389 a 0.034388,0.03347098 0 0 1 -0.03439,-0.03348 q 0,-3.819361 -0.0027,-7.646517 c -9.62e-4,-1.407618 -0.309042,-2.993594 -1.888596,-3.438346 -1.085745,-0.305365 -2.403035,-0.03944 -3.19946,0.785423 -0.74966,0.776711 -0.939481,1.892715 -0.942232,2.930775 q -0.0097,3.689603 -0.0072,7.379666 a 0.02338384,0.02246683 0 0 1 -0.02338,0.02247 h -4.218299 a 0.02292533,0.02475936 0 0 1 -0.02292,-0.02476 q 0,-3.9427 -0.0078,-7.88448 c -0.0041,-1.961952 -0.8464,-3.474107 -3.05732,-3.314546 -1.988084,0.143971 -2.935818,1.735447 -2.938569,3.592858 q -0.0055,3.803771 -0.0018,7.604792 a 0.02659338,0.02613489 0 0 1 -0.02659,0.02614 l -4.21276,4.58e-4 a 0.03713905,0.04355814 0 0 1 -0.03714,-0.04356 V 10.997286 a 0.03347098,0.034388 0 0 1 0.03348,-0.03439 q 1.905094,0 3.817984,-0.0028 0.109583,-4.58e-4 0.215957,0.02247 a 0.02200833,0.02751041 4.6 0 1 0.01787,0.02614 z"
     id="path118"
     style="stroke-width:0.0458507" />
  <path
     fill="#000a33"
     d="m 72.167965,24.177546 q -0.02018,-0.02064 -0.02796,-0.04814 -0.0033,-0.011 -0.02018,-0.0027 a 0.03576353,0.0270519 80.1 0 0 -0.01513,0.02979 v 6.797363 a 0.02292533,0.02292533 0 0 1 -0.02292,0.02292 h -4.195337 a 0.04585067,0.04585067 0 0 1 -0.04586,-0.04586 V 11.020237 a 0.05089424,0.0545623 1.2 0 1 0.05319,-0.05456 q 0.487392,0.02109 1.004588,0.01238 1.494273,-0.02522 2.989005,-0.0033 a 0.02292533,0.02200833 1.2 0 1 0.02247,0.02247 l -4.59e-4,1.593311 q 0,0.05502 0.03622,0.01513 1.256309,-1.396152 3.082999,-1.720776 c 1.857412,-0.330124 3.743707,-0.06832 5.381952,0.897298 2.790931,1.645581 3.771218,4.802857 3.360396,7.861556 -0.574967,4.279244 -4.425507,6.860179 -8.613508,6.123357 -1.167356,-0.20541 -2.138015,-0.718938 -2.989464,-1.589642 z m -0.08528,-6.440644 c -0.201285,2.018805 0.648328,4.092632 2.817065,4.549761 2.046774,0.431456 3.970669,-0.612106 4.482362,-2.681345 0.388355,-1.570385 0.09492,-3.474106 -1.227881,-4.558933 -1.040352,-0.852823 -2.665299,-1.042643 -3.894098,-0.506191 -1.316373,0.574968 -2.036686,1.782215 -2.177448,3.196708 z"
     id="path120"
     style="stroke-width:0.0458507" />
  <path
     fill="#000a33"
     d="m 118.63165,17.449419 c 1.27511,0.382853 2.47273,1.341132 2.75563,2.717569 0.70519,3.433299 -2.09537,5.226518 -5.04907,5.598825 q -3.20772,0.404404 -6.27512,-0.590098 -0.97479,-0.315912 -1.85053,-0.845487 a 0.05318678,0.05318678 0 0 1 -0.0206,-0.06786 l 1.37782,-2.967455 a 0.05823036,0.05731335 28.2 0 1 0.083,-0.02431 c 1.77535,1.103627 4.32006,1.634118 6.37646,1.28015 0.59469,-0.102248 1.29069,-0.403943 1.37139,-1.090328 0.11325,-0.960113 -0.96012,-1.140307 -1.63136,-1.285653 q -0.24668,-0.05364 -0.65154,-0.113709 c -1.21779,-0.182028 -2.41679,-0.371849 -3.60342,-0.710228 -1.31315,-0.374141 -2.5502,-1.311329 -2.85924,-2.706564 -0.80147,-3.616243 2.18342,-5.523172 5.30906,-5.822119 2.32141,-0.221918 4.91105,0.07061 6.98076,1.173778 a 0.06969302,0.06464944 26.8 0 1 0.032,0.08666 l -1.38927,2.963335 a 0.02796892,0.01834027 27.9 0 1 -0.0344,0.0033 q -2.27145,-1.239801 -4.87577,-1.04677 c -0.6442,0.04769 -1.33058,0.200826 -1.7923,0.658873 -0.40578,0.40257 -0.35306,1.119216 0.0982,1.44659 0.42137,0.305824 1.26823,0.449795 1.80055,0.544706 1.29025,0.23017 2.6644,0.442 3.84779,0.796884 z"
     id="path122"
     style="stroke-width:0.0458507" />
  <path
     fill="#000a33"
     d="m 136.08152,23.543432 c -1.87117,2.197621 -5.13208,2.616239 -7.8093,2.2045 -4.33334,-0.666669 -7.14125,-4.126101 -6.5493,-8.555277 0.23795,-1.778548 1.08482,-3.360854 2.42228,-4.54105 2.89823,-2.557093 8.02065,-2.585979 10.81159,0.149015 1.44614,1.416785 2.12152,3.241641 2.1935,5.25632 0.016,0.447961 -0.044,0.94865 -0.0743,1.423664 a 0.04676769,0.0476847 1.8 0 1 -0.0469,0.04493 h -11.01564 a 0.05731335,0.05960587 82.6 0 0 -0.0582,0.07244 c 0.50895,1.8111 1.97296,2.757001 3.79186,2.858331 1.45622,0.08116 2.81202,-0.251262 3.90923,-1.249432 q 0.0826,-0.07519 0.17011,-0.144888 a 0.02613489,0.02521787 49.2 0 1 0.0349,0.0033 l 2.21643,2.403492 a 0.05868886,0.0545623 44.2 0 1 0.003,0.07474 z m -10.16234,-6.516298 7.16965,-4.59e-4 a 0.03668054,0.03484651 84.1 0 0 0.0339,-0.04402 c -0.28794,-1.521325 -1.29758,-2.681806 -2.85924,-2.943613 -1.8345,-0.308117 -3.65338,0.503898 -4.2201,2.350306 q -0.0927,0.301238 -0.15177,0.607979 a 0.02751041,0.02521787 4.8 0 0 0.0275,0.0298 z"
     id="path124"
     style="stroke-width:0.0458507" />
  <rect
     fill="#000a33"
     x="33.670368"
     y="10.965216"
     width="4.2641125"
     height="14.704311"
     rx="0.020632802"
     id="rect126"
     style="stroke-width:0.0458507" />
  <path
     fill="#000a33"
     d="m 91.788385,25.878606 c -2.583226,0.08804 -5.085299,-0.953235 -6.044493,-3.531419 -0.353968,-0.950943 -0.48877,-1.919309 -0.491979,-2.922063 q -0.01376,-4.188 -0.0097,-8.376459 c 0,-0.06694 0.01926,-0.114627 0.09582,-0.08162 q 0.01376,0.0059 0.04035,0.0055 l 4.112348,-0.01238 a 0.02613489,0.03026144 0 0 1 0.02613,0.03026 q -0.0018,3.786807 8.83e-4,7.574991 c 8.82e-4,1.597895 0.376435,3.179742 2.186619,3.55205 1.133887,0.232923 2.402573,-0.02888 3.21459,-0.892254 0.827605,-0.879874 0.956904,-2.063739 0.95782,-3.211382 q 0.0027,-3.51216 8.83e-4,-6.99406 a 0.05777185,0.06052289 0 0 1 0.05778,-0.06052 l 4.183864,0.01376 a 0.02292533,0.02154981 0 0 1 0.0229,0.02154 v 14.660756 a 0.01421371,0.01421371 0 0 1 -0.0142,0.01422 h -3.997665 a 0.03530501,0.034388 0 0 1 -0.03531,-0.03439 l 0.0022,-1.6763 q 0,-0.02522 -0.02018,-0.0042 -1.73453,1.837236 -4.28887,1.923894 z"
     id="path128"
     style="stroke-width:0.0458507" />
  <g
     id="Layer_2"
     data-name="Layer 2"
     transform="matrix(0.04585067,0,0,0.04585067,1.7452544,2.2921431)">
    <g
       id="Layer_1-2"
       data-name="Layer 1">
      <path
         class="cls-1"
         d="m 475.89,0 v 290.26 a 173.5,173.5 0 0 1 -17.49,26.42 c -9.33,12.82 -20.59,24.48 -33,35.36 -15.15,13.6 -31.86,25.65 -49.74,36.92 V 100.25 A 100,100 0 0 1 475.89,0 Z"
         id="path365"
         style="fill:url(#linearGradient543)" />
      <path
         class="cls-2"
         d="m 330.75,93.06 v 319.79 a 500.76,500.76 0 0 1 -50.12,20.59 c -17.1,6.22 -33.8,11.66 -50.12,16.71 V 193.31 c 0,-55.17 44.68,-99.47 99.47,-100.25 z"
         id="path367"
         style="fill:url(#linear-gradient-2)" />
      <path
         class="cls-3"
         d="m 86,476.58 c 1.94,0.38 3.88,1.16 6.22,1.55 -3.89,0.39 -6.22,0.39 -6.22,0.39 z"
         id="path369"
         style="fill:url(#linear-gradient-3)" />
      <path
         class="cls-4"
         d="m 186.21,177 v 284.42 c -6.6,1.56 -13.21,3.11 -19.43,4.28 -4.66,0.39 -9.32,0.39 -13.6,0.39 -26.42,-0.39 -49.35,-4.28 -67.22,-11.27 V 277.24 c 0,-54.79 44.69,-99.86 99.47,-100.25 z"
         id="path371"
         style="fill:url(#linear-gradient-4)" />
      <path
         class="cls-5"
         d="m 584.29,247.91 v 0.38 L 550.88,361 a 308.1,308.1 0 0 1 -37.3,37.3 c -0.39,0.39 -0.39,0.39 -0.78,0.39 v 0.39 c -8.94,7.38 -18.65,15.15 -28.75,22.53 -29.15,21 -63,40.8 -100.26,58.29 -5.82,2.33 -10.88,5.05 -16.7,7 a 143.5,143.5 0 0 1 -21,9.33 h -0.77 C 272.28,525 200.78,539.33 142.11,539.72 h -2.73 a 47,47 0 0 1 -7.77,-0.39 C 66.34,537.39 18.54,518 4.55,481.43 -6.71,452.68 3.39,418.48 29.81,382.74 23.2,401 22,418.1 27.87,432.86 c 8.55,21.37 28.75,35.75 57.9,43.91 a 23.23,23.23 0 0 1 6.6,1.55 c 0.78,0 0.78,0.39 1.55,0.39 21,5.06 46.24,6.22 73.83,4.67 8.16,-0.39 17.1,-1.56 26.43,-2.34 8.93,-1.55 17.87,-2.33 27.58,-4.27 a 134.76,134.76 0 0 1 17.1,-3.5 c 15.54,-3.88 32.64,-8.55 49,-13.6 H 289 c 12,-4.27 25.25,-8.16 37.3,-13.6 0.38,-0.39 1.55,-0.39 1.94,-0.77 a 106.13,106.13 0 0 0 10.1,-3.5 c 0,-0.78 0.39,-0.78 0.39,-1.17 a 169.76,169.76 0 0 0 24.48,-10.1 c 6.61,-3.11 14,-7 20.59,-10.1 10.11,-5.05 19.43,-10.88 28.76,-16.71 7,-4.28 14,-8.94 21,-13.6 v -0.39 c 2.72,-1.94 6.22,-3.5 8.94,-5.44 5.83,-4.66 12.43,-8.94 18.26,-13.6 0.78,-0.78 1.55,-0.78 1.94,-1.55 a 263.31,263.31 0 0 0 21.38,-18.66 c 5,-4.66 10.1,-9.71 14.37,-14.37 a 182.74,182.74 0 0 0 19.82,-24.48 v -0.39 c 16.71,-24.09 23.7,-46.63 20.2,-66.83 l 35.75,-11.66 a 64,64 0 0 1 10.07,15.16 z"
         id="path373"
         style="fill:url(#linearGradient545)" />
      <path
         class="cls-6"
         d="m 328,445.49 c 3.88,-1.16 7.38,-3.11 10.87,-4.66 0,0.39 -0.39,0.39 -0.39,0.78 -3.48,1.55 -6.95,2.72 -10.48,3.88 z"
         id="path375"
         style="fill:url(#linear-gradient-6)" />
      <path
         class="cls-7"
         d="m 475.89,0 v 290.26 a 173.5,173.5 0 0 1 -17.49,26.42 c -9.33,12.82 -20.59,24.48 -33,35.36 V 119.29 C 425.37,21 475.89,0 475.89,0 Z"
         id="path377"
         style="fill:url(#linear-gradient-7)" />
      <path
         class="cls-8"
         d="m 330.75,93.06 v 319.79 a 500.76,500.76 0 0 1 -50.12,20.59 V 256.65 C 280.63,105.88 323,94.23 330,93.06 Z"
         id="path379"
         style="fill:url(#linear-gradient-8)" />
      <path
         class="cls-9"
         d="m 186.21,177 v 284.42 c -6.6,1.56 -13.21,3.11 -19.43,4.28 -4.66,0.39 -9.32,0.39 -13.6,0.39 a 275.45,275.45 0 0 1 -10.49,-45.47 c -3.89,-23.7 -6.61,-53.62 -6.61,-90.14 0,-141.83 42.75,-152.71 49.35,-153.49 z"
         id="path381"
         style="fill:url(#linear-gradient-9)" />
      <path
         class="cls-10"
         d="m 519,250.63 c 1.17,23.31 -11.65,50.12 -35.74,76.54 -13.22,14.77 -30.31,29.53 -49.74,43.52 -22.92,17.1 -50.52,33 -80.82,47.41 -4.66,1.94 -8.55,4.27 -14,5.44 a 89.35,89.35 0 0 1 -16.32,7 c -0.39,0 -0.78,0.39 -1.16,0.39 -54.79,21.76 -109.19,33.42 -154.65,34.58 a 79.69,79.69 0 0 1 -13.21,0.78 C 126.55,465.51 103.62,462.02 85.75,454.63 66.32,446.86 52.75,435.2 46.5,418.88 37.19,396.34 45,368 66.73,339.22 c -5.06,14.37 -6.61,28.36 -1.17,40.41 3.5,9.71 10.49,17.87 20.21,24.09 q 13.4,8.75 32.63,12.82 a 156.7,156.7 0 0 0 24.09,4.28 c 11.27,0.38 22.93,0.38 35.75,0 A 58,58 0 0 0 186,420 a 139.88,139.88 0 0 1 14,-1.56 c 7,-0.77 14,-1.94 21.76,-3.1 a 33.17,33.17 0 0 1 8.94,-1.95 31.86,31.86 0 0 0 5.05,-0.77 c 12.82,-3.5 26.43,-6.61 39.63,-11.27 h 0.78 a 8.62,8.62 0 0 0 4.28,-1.95 c 8.93,-2.72 17.48,-5.43 26,-8.54 0.39,-0.78 0.78,-0.78 1.17,-1.17 2.72,-0.39 5.82,-1.94 8.54,-3.11 h 0.39 c 4.67,-2.33 9.72,-4.27 14,-6.6 a 11.35,11.35 0 0 0 5.44,-1.95 164.56,164.56 0 0 1 16.71,-8.16 c 7.77,-4.66 15.16,-8.93 22.54,-12.82 a 0.38,0.38 0 0 1 0.38,-0.39 c 6.22,-3.88 11.66,-7.77 17.49,-11.26 1.16,-0.78 1.94,-2.34 3.5,-2.72 5.43,-3.89 9.71,-7 14.76,-10.89 a 6,6 0 0 0 3.11,-2.33 4.17,4.17 0 0 0 1.95,-1.16 c 3.1,-2.33 6.21,-4.67 8.93,-7 l 0.39,-0.38 c 2.72,-2.34 5.44,-5.06 7.77,-7.39 l 5.05,-5.05 a 141.21,141.21 0 0 0 10.88,-11.27 q 15.74,-18.06 23.32,-31.47 c 1.16,-1.94 1.94,-3.89 2.72,-5.44 0,-0.39 0.39,-0.39 0.39,-0.78 v 5.05 z"
         id="path383"
         style="fill:url(#linear-gradient-10)" />
      <polygon
         class="cls-11"
         points="550.88,360.98 524.46,449.96 512.8,399.06 512.8,398.67 498.42,336.11 498.03,333.39 483.27,327.17 458.4,316.68 438.58,308.52 425.37,302.69 396.23,290.65 425.37,281.32 472.78,265.78 475.89,264.61 519.01,250.63 538.44,244.41 574.19,232.75 590.12,227.7 584.29,247.91 584.29,248.29 "
         id="polygon385"
         style="fill:url(#linear-gradient-11)" />
    </g>
  </g>
</svg>
