<svg width="103" height="27" viewBox="0 0 103 27" fill="none" xmlns="http://www.w3.org/2000/svg">
<path d="M1.92 21V3.72H4.812V21H1.92ZM24.3306 21V13.128C24.3306 12.24 24.1106 11.548 23.6706 11.052C23.2306 10.548 22.6346 10.296 21.8826 10.296C21.4186 10.296 21.0026 10.404 20.6346 10.62C20.2666 10.828 19.9746 11.14 19.7586 11.556C19.5426 11.964 19.4346 12.452 19.4346 13.02L18.1506 12.264C18.1426 11.368 18.3426 10.58 18.7506 9.9C19.1666 9.212 19.7266 8.676 20.4306 8.292C21.1346 7.908 21.9186 7.716 22.7826 7.716C24.2146 7.716 25.3106 8.148 26.0706 9.012C26.8386 9.868 27.2226 10.996 27.2226 12.396V21H24.3306ZM8.74256 21V8.04H11.2986V12.06H11.6586V21H8.74256ZM16.5546 21V13.164C16.5546 12.26 16.3346 11.556 15.8946 11.052C15.4546 10.548 14.8546 10.296 14.0946 10.296C13.3586 10.296 12.7666 10.548 12.3186 11.052C11.8786 11.556 11.6586 12.212 11.6586 13.02L10.3626 12.156C10.3626 11.316 10.5706 10.56 10.9866 9.888C11.4026 9.216 11.9626 8.688 12.6666 8.304C13.3786 7.912 14.1746 7.716 15.0546 7.716C16.0226 7.716 16.8306 7.924 17.4786 8.34C18.1346 8.748 18.6226 9.308 18.9426 10.02C19.2706 10.724 19.4346 11.52 19.4346 12.408V21H16.5546ZM36.9405 21.36C35.6765 21.36 34.6165 21.06 33.7605 20.46C32.9045 19.86 32.2605 19.044 31.8285 18.012C31.3965 16.972 31.1805 15.808 31.1805 14.52C31.1805 13.216 31.3965 12.048 31.8285 11.016C32.2605 9.984 32.8925 9.172 33.7245 8.58C34.5645 7.98 35.6005 7.68 36.8325 7.68C38.0565 7.68 39.1165 7.98 40.0125 8.58C40.9165 9.172 41.6165 9.984 42.1125 11.016C42.6085 12.04 42.8565 13.208 42.8565 14.52C42.8565 15.816 42.6125 16.98 42.1245 18.012C41.6365 19.044 40.9485 19.86 40.0605 20.46C39.1725 21.06 38.1325 21.36 36.9405 21.36ZM30.6885 26.76V8.04H33.2445V17.136H33.6045V26.76H30.6885ZM36.4965 18.768C37.2485 18.768 37.8685 18.58 38.3565 18.204C38.8445 17.828 39.2045 17.32 39.4365 16.68C39.6765 16.032 39.7965 15.312 39.7965 14.52C39.7965 13.736 39.6765 13.024 39.4365 12.384C39.1965 11.736 38.8245 11.224 38.3205 10.848C37.8165 10.464 37.1765 10.272 36.4005 10.272C35.6645 10.272 35.0645 10.452 34.6005 10.812C34.1365 11.164 33.7925 11.66 33.5685 12.3C33.3525 12.932 33.2445 13.672 33.2445 14.52C33.2445 15.36 33.3525 16.1 33.5685 16.74C33.7925 17.38 34.1405 17.88 34.6125 18.24C35.0925 18.592 35.7205 18.768 36.4965 18.768ZM50.7216 21.372C49.7616 21.372 48.9696 21.212 48.3456 20.892C47.7216 20.572 47.2256 20.164 46.8576 19.668C46.4896 19.172 46.2176 18.644 46.0416 18.084C45.8656 17.524 45.7496 16.996 45.6936 16.5C45.6456 15.996 45.6216 15.588 45.6216 15.276V8.04H48.5496V14.28C48.5496 14.68 48.5776 15.132 48.6336 15.636C48.6896 16.132 48.8176 16.612 49.0176 17.076C49.2256 17.532 49.5296 17.908 49.9296 18.204C50.3376 18.5 50.8856 18.648 51.5736 18.648C51.9416 18.648 52.3056 18.588 52.6656 18.468C53.0256 18.348 53.3496 18.144 53.6376 17.856C53.9336 17.56 54.1696 17.156 54.3456 16.644C54.5216 16.132 54.6096 15.484 54.6096 14.7L56.3256 15.432C56.3256 16.536 56.1096 17.536 55.6776 18.432C55.2536 19.328 54.6256 20.044 53.7936 20.58C52.9616 21.108 51.9376 21.372 50.7216 21.372ZM54.9576 21V16.98H54.6096V8.04H57.5136V21H54.9576ZM81.7431 21.36C80.1431 21.36 78.8431 21 77.8431 20.28C76.8431 19.56 76.2351 18.548 76.0191 17.244L78.9711 16.788C79.1231 17.428 79.4591 17.932 79.9791 18.3C80.4991 18.668 81.1551 18.852 81.9471 18.852C82.6431 18.852 83.1791 18.716 83.5551 18.444C83.9391 18.164 84.1311 17.784 84.1311 17.304C84.1311 17.008 84.0591 16.772 83.9151 16.596C83.7791 16.412 83.4751 16.236 83.0031 16.068C82.5311 15.9 81.8071 15.688 80.8311 15.432C79.7431 15.144 78.8791 14.836 78.2391 14.508C77.5991 14.172 77.1391 13.776 76.8591 13.32C76.5791 12.864 76.4391 12.312 76.4391 11.664C76.4391 10.856 76.6511 10.152 77.0751 9.552C77.4991 8.952 78.0911 8.492 78.8511 8.172C79.6111 7.844 80.5071 7.68 81.5391 7.68C82.5471 7.68 83.4391 7.836 84.2151 8.148C84.9991 8.46 85.6311 8.904 86.1111 9.48C86.5911 10.056 86.8871 10.732 86.9991 11.508L84.0471 12.036C83.9751 11.484 83.7231 11.048 83.2911 10.728C82.8671 10.408 82.2991 10.228 81.5871 10.188C80.9071 10.148 80.3591 10.252 79.9431 10.5C79.5271 10.74 79.3191 11.08 79.3191 11.52C79.3191 11.768 79.4031 11.98 79.5711 12.156C79.7391 12.332 80.0751 12.508 80.5791 12.684C81.0911 12.86 81.8511 13.076 82.8591 13.332C83.8911 13.596 84.7151 13.9 85.3311 14.244C85.9551 14.58 86.4031 14.984 86.6751 15.456C86.9551 15.928 87.0951 16.5 87.0951 17.172C87.0951 18.476 86.6191 19.5 85.6671 20.244C84.7231 20.988 83.4151 21.36 81.7431 21.36ZM95.9754 21.36C94.6634 21.36 93.5114 21.076 92.5194 20.508C91.5274 19.94 90.7514 19.152 90.1914 18.144C89.6394 17.136 89.3634 15.976 89.3634 14.664C89.3634 13.248 89.6354 12.02 90.1794 10.98C90.7234 9.932 91.4794 9.12 92.4474 8.544C93.4154 7.968 94.5354 7.68 95.8074 7.68C97.1514 7.68 98.2914 7.996 99.2274 8.628C100.171 9.252 100.871 10.136 101.327 11.28C101.783 12.424 101.955 13.772 101.843 15.324H98.9754V14.268C98.9674 12.86 98.7194 11.832 98.2314 11.184C97.7434 10.536 96.9754 10.212 95.9274 10.212C94.7434 10.212 93.8634 10.58 93.2874 11.316C92.7114 12.044 92.4234 13.112 92.4234 14.52C92.4234 15.832 92.7114 16.848 93.2874 17.568C93.8634 18.288 94.7034 18.648 95.8074 18.648C96.5194 18.648 97.1314 18.492 97.6434 18.18C98.1634 17.86 98.5634 17.4 98.8434 16.8L101.699 17.664C101.203 18.832 100.435 19.74 99.3954 20.388C98.3634 21.036 97.2234 21.36 95.9754 21.36ZM91.5114 15.324V13.14H100.427V15.324H91.5114Z" fill="white"/>
<path d="M61.5995 20.4061L61.5995 16.7309L62.9525 14.753C62.18 9.8202 64.8301 4.39467 66.3134 2.94914C67.7967 4.39467 70.4468 9.82019 69.6743 14.7531L71.0274 16.731L71.0273 20.4061L68.199 18.5685C67.2562 19.4873 67.2562 19.4873 66.3134 19.4873C65.3706 19.4873 65.3706 19.4873 64.4278 18.5685L61.5995 20.4061ZM65.3706 20.406L67.2562 20.4061L67.2562 23.8679L66.3134 24.7867L65.3706 23.8679L65.3706 20.406ZM63.485 20.4061L64.4278 19.717L64.4279 22.8934L63.485 21.9745L63.485 20.4061ZM68.199 19.717L69.1418 20.4061L69.1418 21.9746L68.199 22.8933L68.199 19.717ZM65.3134 10.7819C64.7612 11.3201 64.7612 12.1928 65.3134 12.7309C65.8657 13.2691 66.7611 13.2691 67.3134 12.7309C67.8656 12.1928 67.8656 11.3201 67.3134 10.7819C66.7611 10.2437 65.8657 10.2437 65.3134 10.7819Z" fill="url(#paint0_linear_111_3090)"/>
<defs>
<linearGradient id="paint0_linear_111_3090" x1="64" y1="2.9491" x2="68.2817" y2="25.4052" gradientUnits="userSpaceOnUse">
<stop stop-color="#06ABDB" stop-opacity="0.99"/>
<stop offset="1" stop-color="#265EC3"/>
</linearGradient>
</defs>
</svg>
